<svg width="42" height="43" viewBox="0 0 42 43" fill="none" xmlns="http://www.w3.org/2000/svg">
<g clip-path="url(#clip0_2068_38276)">
<path d="M21 0.444824C16.566 0.444824 12.2459 1.84827 8.65842 4.45408C5.07098 7.05989 2.40039 10.7343 1.02928 14.951C-0.341842 19.1676 -0.343121 23.71 1.02562 27.9274C2.39436 32.1448 5.06289 35.8208 8.64886 38.4286L10.5015 35.881C7.45345 33.6644 5.18521 30.5398 4.02178 26.955C2.85835 23.3702 2.85943 19.5092 4.02488 15.925C5.19033 12.3409 7.46034 9.21763 10.5097 7.00269C13.559 4.78775 17.2311 3.59482 21 3.59482L21 0.444824Z" fill="#E1E1E1"/>
<path d="M21 0.444824C24.314 0.444824 27.581 1.22915 30.5338 2.73369C33.4866 4.23822 36.0414 6.42024 37.9894 9.10133C39.9373 11.7824 41.223 14.8865 41.7415 18.1597C42.2599 21.4329 41.9963 24.7824 40.9722 27.9342C39.9481 31.086 38.1926 33.9507 35.8492 36.2941C33.5059 38.6374 30.6412 40.3929 27.4894 41.417C24.3375 42.4411 20.9881 42.7047 17.7149 42.1863C14.4417 41.6679 11.3376 40.3821 8.65652 38.4342L10.508 35.8858C12.787 37.5415 15.4254 38.6344 18.2077 39.0751C20.9899 39.5157 23.8369 39.2917 26.516 38.4212C29.195 37.5507 31.63 36.0585 33.6219 34.0667C35.6137 32.0748 37.1059 29.6398 37.9764 26.9608C38.8468 24.2817 39.0709 21.4347 38.6302 18.6525C38.1896 15.8702 37.0967 13.2318 35.441 10.9529C33.7852 8.67392 31.6136 6.81921 29.1037 5.54036C26.5938 4.2615 23.8169 3.59482 21 3.59482L21 0.444824Z" fill="#6FA6FE"/>
<circle cx="21" cy="21.4448" r="14" fill="#EEEEEE"/>
</g>
<defs>
<clipPath id="clip0_2068_38276">
<rect y="0.444824" width="42" height="42" rx="21" fill="white"/>
</clipPath>
</defs>
</svg>
