<svg width="44" height="45" viewBox="0 0 44 45" fill="none" xmlns="http://www.w3.org/2000/svg">
<path d="M17.2786 28.1685C20.6352 28.1685 23.3563 25.4474 23.3563 22.0908C23.3563 18.7342 20.6352 16.0131 17.2786 16.0131C13.922 16.0131 11.2009 18.7342 11.2009 22.0908C11.2009 25.4474 13.922 28.1685 17.2786 28.1685Z" fill="#277AFF"/>
<path fill-rule="evenodd" clip-rule="evenodd" d="M5.2124 10.2672C5.2124 9.78148 5.60619 9.3877 6.09194 9.3877H35.2011C35.6869 9.3877 36.0807 9.78148 36.0807 10.2672V14.3366H37.9081C38.3939 14.3366 38.7876 14.7304 38.7876 15.2162V16.5176C38.7876 17.0034 38.3939 17.3972 37.9081 17.3972H36.0807V26.7485H37.9081C38.3939 26.7485 38.7876 27.1423 38.7876 27.628V28.9295C38.7876 29.4153 38.3939 29.8091 37.9081 29.8091H36.0807V33.9142C36.0807 34.4 35.6869 34.7937 35.2011 34.7937H6.09194C5.60619 34.7937 5.2124 34.4 5.2124 33.9142V10.2672ZM17.2786 30.7352C22.0527 30.7352 25.923 26.865 25.923 22.0908C25.923 17.3167 22.0527 13.4465 17.2786 13.4465C12.5044 13.4465 8.63422 17.3167 8.63422 22.0908C8.63422 26.865 12.5044 30.7352 17.2786 30.7352ZM28.7036 15.3322C28.7036 14.8259 29.114 14.4155 29.6203 14.4155H31.1876C31.6939 14.4155 32.1043 14.8259 32.1043 15.3322V16.7988C32.1043 17.3051 31.6939 17.7155 31.1876 17.7155H29.6203C29.114 17.7155 28.7036 17.3051 28.7036 16.7988V15.3322ZM29.6203 20.2494C29.114 20.2494 28.7036 20.6598 28.7036 21.1661V22.6327C28.7036 23.139 29.114 23.5494 29.6203 23.5494H31.1876C31.6939 23.5494 32.1043 23.139 32.1043 22.6327V21.1661C32.1043 20.6598 31.6939 20.2494 31.1876 20.2494H29.6203ZM28.7036 27C28.7036 26.4937 29.114 26.0833 29.6203 26.0833H31.1876C31.6939 26.0833 32.1043 26.4937 32.1043 27V28.4666C32.1043 28.9729 31.6939 29.3833 31.1876 29.3833H29.6203C29.114 29.3833 28.7036 28.9729 28.7036 28.4666V27Z" fill="#277AFF"/>
</svg>
