<svg width="42" height="43" viewBox="0 0 42 43" fill="none" xmlns="http://www.w3.org/2000/svg">
<g clip-path="url(#clip0_2068_38631)">
<path d="M42 21.4448C42 33.0428 32.598 42.4448 21 42.4448C9.40202 42.4448 0 33.0428 0 21.4448C0 9.84684 9.40202 0.444824 21 0.444824C32.598 0.444824 42 9.84684 42 21.4448ZM3.15 21.4448C3.15 31.3031 11.1417 39.2948 21 39.2948C30.8583 39.2948 38.85 31.3031 38.85 21.4448C38.85 11.5865 30.8583 3.59482 21 3.59482C11.1417 3.59482 3.15 11.5865 3.15 21.4448Z" fill="#F3F3F3"/>
<path d="M21 7.44482C18.2311 7.44482 15.5243 8.26591 13.222 9.80425C10.9197 11.3426 9.12531 13.5291 8.06569 16.0873C7.00606 18.6454 6.72881 21.4604 7.26901 24.1761C7.8092 26.8918 9.14257 29.3864 11.1005 31.3443L21 21.4448L21 7.44482Z" fill="#EEEEEE"/>
<path d="M35 21.4448C35 24.2138 34.1789 26.9205 32.6406 29.2228C31.1022 31.5251 28.9157 33.3195 26.3576 34.3791C23.7994 35.4388 20.9845 35.716 18.2687 35.1758C15.553 34.6356 13.0584 33.3023 11.1005 31.3443L21 21.4448H35Z" fill="#FF9F40"/>
<path d="M21 7.44482C22.8385 7.44482 24.659 7.80695 26.3576 8.51051C28.0561 9.21408 29.5995 10.2453 30.8995 11.5453C32.1995 12.8454 33.2308 14.3887 33.9343 16.0873C34.6379 17.7858 35 19.6063 35 21.4448L21 21.4448L21 7.44482Z" fill="#E1E1E1"/>
</g>
<defs>
<clipPath id="clip0_2068_38631">
<rect y="0.444824" width="42" height="42" rx="21" fill="white"/>
</clipPath>
</defs>
</svg>
