<svg width="36" height="24" viewBox="0 0 36 24" fill="none" xmlns="http://www.w3.org/2000/svg">
<path d="M0 0H36V24H0V0Z" fill="#0052B4"/>
<path d="M30.8843 12.7088C30.8773 15.4596 30.4351 18.4211 26.8562 19.8316C23.2702 18.4211 22.8351 15.4596 22.8281 12.7088H30.8843Z" fill="white"/>
<path d="M30.8492 13.8737C30.6527 16.3228 29.979 18.6035 26.8492 19.8386C23.7334 18.6035 23.0246 16.2456 22.8562 13.8807" fill="#29DBFF"/>
<path d="M30.7228 15.0246C30.4983 16.7298 29.5509 18.779 26.8562 19.8386C24.1614 18.779 23.3123 16.8561 22.9895 15.0386" fill="white"/>
<path d="M30.4702 16.1614C30.0702 17.4035 29.1158 18.9263 26.8702 19.8667C24.6246 18.9825 23.6983 17.4947 23.2632 16.1474" fill="#29DBFF"/>
<path d="M29.9439 17.3263C29.4877 18.1193 28.7018 19.1088 26.8562 19.8456C24.9263 19.0386 24.2316 18.0702 23.7684 17.3123" fill="white"/>
<path d="M28.9404 18.6035C28.372 19.1088 28.0983 19.3895 26.8632 19.8597C25.4527 19.3053 25.2772 19.0456 24.8141 18.6316" fill="#29DBFF"/>
<path d="M26.8982 16.2526C26.8841 16.2386 24.9403 18.7579 24.9403 18.7579C24.814 18.6667 24.2385 18.0912 24.007 17.7053L26.9052 14.1895L29.7263 17.6772C29.4526 18.1333 28.9263 18.6316 28.7999 18.7298L26.8982 16.2526ZM26.8491 5.98596L24.9894 9.14386H28.7087L26.8491 5.98596Z" fill="#5CC85C"/>
<path d="M21.5438 15.9875C21.7967 14.1171 21.5128 12.5347 20.9099 12.4532C20.3069 12.3717 19.613 13.8219 19.3601 15.6923C19.1072 17.5627 19.391 19.1451 19.994 19.2266C20.597 19.3082 21.2909 17.858 21.5438 15.9875Z" fill="#F7A226"/>
<path d="M21.7403 11.7442C21.9095 11.3235 21.8367 10.898 21.5778 10.7939C21.3189 10.6898 20.9719 10.9465 20.8027 11.3673C20.6336 11.788 20.7063 12.2134 20.9653 12.3175C21.2242 12.4216 21.5712 12.1649 21.7403 11.7442Z" fill="#DDC7AB"/>
<path d="M20.6994 19.0996C20.7629 18.6623 20.7118 18.293 20.5852 18.2746C20.4586 18.2562 20.3045 18.5958 20.2411 19.033C20.1776 19.4703 20.2287 19.8396 20.3553 19.858C20.4818 19.8764 20.6359 19.5368 20.6994 19.0996Z" fill="#DDC7AB"/>
<path d="M21.0666 19.6768C21.1943 19.6699 21.2793 19.3192 21.2565 18.8935C21.2337 18.4678 21.1117 18.1282 20.9839 18.1351C20.8562 18.1419 20.7712 18.4926 20.794 18.9183C20.8168 19.344 20.9389 19.6836 21.0666 19.6768Z" fill="#DDC7AB"/>
<path d="M22.424 15.0075C22.5718 14.9492 22.5338 14.5015 22.339 14.0076C22.1443 13.5136 21.8665 13.1604 21.7187 13.2187C21.5709 13.277 21.6089 13.7247 21.8037 14.2186C21.9984 14.7126 22.2762 15.0658 22.424 15.0075Z" fill="#DDC7AB"/>
<path d="M22.3868 12.7661C22.8808 12.5713 23.234 12.2936 23.1757 12.1458C23.1174 11.9979 22.6697 12.036 22.1758 12.2307C21.6818 12.4255 21.3286 12.7032 21.3869 12.851C21.4452 12.9989 21.8929 12.9608 22.3868 12.7661Z" fill="#DDC7AB"/>
<path d="M33.6935 19.241C34.2965 19.1595 34.5804 17.5771 34.3275 15.7067C34.0746 13.8363 33.3807 12.3861 32.7777 12.4676C32.1747 12.5491 31.8909 14.1315 32.1438 16.0019C32.3967 17.8724 33.0905 19.3226 33.6935 19.241Z" fill="#F7A226"/>
<path d="M32.7285 12.335C32.9874 12.231 33.0602 11.8055 32.8911 11.3848C32.7219 10.964 32.3749 10.7074 32.116 10.8114C31.8571 10.9155 31.7843 11.341 31.9535 11.7617C32.1226 12.1824 32.4696 12.4391 32.7285 12.335Z" fill="#DDC7AB"/>
<path d="M33.3359 19.8711C33.4625 19.8527 33.5135 19.4833 33.45 19.0461C33.3864 18.6088 33.2323 18.2693 33.1058 18.2877C32.9792 18.3061 32.9281 18.6755 32.9917 19.1127C33.0552 19.5499 33.2093 19.8895 33.3359 19.8711Z" fill="#DDC7AB"/>
<path d="M32.8965 18.9304C32.9194 18.5047 32.8343 18.154 32.7066 18.1472C32.5789 18.1403 32.4568 18.4799 32.434 18.9056C32.4112 19.3313 32.4962 19.682 32.624 19.6888C32.7517 19.6957 32.8737 19.3561 32.8965 18.9304Z" fill="#DDC7AB"/>
<path d="M31.8836 14.2238C32.0783 13.7298 32.1164 13.2821 31.9685 13.2238C31.8207 13.1656 31.543 13.5187 31.3482 14.0127C31.1535 14.5067 31.1154 14.9544 31.2633 15.0126C31.4111 15.0709 31.6888 14.7177 31.8836 14.2238Z" fill="#DDC7AB"/>
<path d="M32.3063 12.862C32.3646 12.7142 32.0114 12.4365 31.5175 12.2417C31.0235 12.047 30.5758 12.0089 30.5175 12.1568C30.4592 12.3046 30.8124 12.5823 31.3064 12.7771C31.8003 12.9718 32.248 13.0099 32.3063 12.862Z" fill="#DDC7AB"/>
<path d="M26.1965 9.14386L24.9895 10.8772L26.2386 12.7088H27.7895L28.1193 10.9263L27.7404 9.14386H26.1965Z" fill="#B0C6CC"/>
<path d="M17.9649 0V8.2386H14.7298L17.9649 10.393V11.9789H16.3789L11.2281 8.54737V11.9789H6.73684V8.54737L1.58596 11.9789H0V10.393L3.23509 8.2386H0V3.74737H3.23509L0 1.59298V0H1.58596L6.73684 3.43158V0H11.2281V3.43158L16.3789 0H17.9649Z" fill="white"/>
<path d="M10.1053 0H7.85965V4.87018H0V7.11579H7.85965V11.9789H10.1053V7.11579H17.9649V4.87018H10.1053V0Z" fill="#D80027"/>
<path d="M17.9649 1.59299V3.74737H14.7299L17.9649 1.59299Z" fill="#2E52B2"/>
<path d="M0 11.9789V11.207L4.38596 8.23859H5.97193L0.512281 11.9789H0Z" fill="#D80027"/>
<path d="M0.512281 0.00701904L5.97193 3.74035H4.38596L0 0.778949V0.00701904H0.512281ZM17.9649 0.00701904V0.778949L13.5789 3.74737H11.993L17.4526 0.00701904H17.9649ZM17.4526 11.979L11.993 8.2386H13.5789L17.9649 11.207V11.979H17.4526Z" fill="#D80027"/>
</svg>
