<svg width="36" height="24" viewBox="0 0 36 24" fill="none" xmlns="http://www.w3.org/2000/svg">
<g clip-path="url(#clip0_15_43)">
<path d="M0 0H36V24H0V0Z" fill="#FFDA44"/>
<path d="M0 0H12V24H0V0Z" fill="#0052B4"/>
<path d="M24 0H36V24H24V0ZM13.9579 7.97193H17.9649V12.5193H13.9579V7.97193Z" fill="#D80027"/>
<path d="M18.7789 7.97192V12.5123V7.97192ZM19.9438 7.97192V12.5123V7.97192ZM21.1088 7.97192V12.5123V7.97192Z" fill="black"/>
<path d="M21.1088 7.97192V12.5123M18.7789 7.97192V12.5123V7.97192ZM19.9438 7.97192V12.5123V7.97192Z" stroke="#D80027" stroke-width="7"/>
<path d="M17.3614 12.5193V17.0597V12.5193ZM16.4281 12.5193V17.0597V12.5193ZM15.4947 12.5263V16.3088V12.5263ZM14.5333 12.5263V15.8316V12.5263Z" fill="black"/>
<path d="M14.5333 12.5263V15.8316M17.3614 12.5193V17.0597V12.5193ZM16.4281 12.5193V17.0597V12.5193ZM15.4947 12.5263V16.3088V12.5263Z" stroke="#D80027" stroke-width="5"/>
<path d="M14.0281 10.2456L15.9649 7.97192L17.9649 10.2386L15.993 12.5123L14.0281 10.2456Z" fill="#FFDA44"/>
<path d="M12.786 6.72983V13.2C12.786 15.607 14.7018 17.0035 16.1965 17.7263C16.1404 17.8246 17.9579 18.3088 17.9579 18.3088C17.9579 18.3088 19.7755 17.8246 19.7193 17.7263C21.2211 17.0035 23.1299 15.614 23.1299 13.2V6.72983H12.786ZM21.9018 13.2C21.9018 14.386 21.2 15.2632 19.6 16.2807C18.9965 16.6667 18.372 16.9123 17.965 17.0526C17.5579 16.9123 16.9334 16.6667 16.3299 16.2807C14.7299 15.2632 14.0281 14.3158 14.0281 13.2V7.97193H21.9018V13.2Z" fill="#BC8B00"/>
<path d="M18.5544 13.2561H20.6246V13.8596H18.5544V13.2561ZM18.5544 14.4912H20.6246V15.0947H18.5544V14.4912Z" fill="#D80027"/>
</g>
<defs>
<clipPath id="clip0_15_43">
<rect width="36" height="24" fill="white"/>
</clipPath>
</defs>
</svg>
