<svg width="36" height="24" viewBox="0 0 36 24" fill="none" xmlns="http://www.w3.org/2000/svg">
<path d="M0 0H36V24H0V0Z" fill="#DB3E00"/>
<path d="M23.228 0H36V24H23.228V0Z" fill="#479900"/>
<path d="M0 0H12.7579V24H0V0Z" fill="black"/>
<path d="M17.9649 8.89124C16.6035 8.89124 15.4948 10 15.4948 11.3614V15.0667H20.4351V11.3614C20.4351 9.99299 19.3263 8.89124 17.9649 8.89124Z" fill="white"/>
<path d="M17.9649 5.9158C14.6175 5.9158 11.9017 8.63159 11.9017 11.979C11.9017 15.3263 14.6175 18.0351 17.9649 18.0351C21.3123 18.0351 24.028 15.3193 24.028 11.9719C24.028 8.62457 21.3123 5.9158 17.9649 5.9158ZM17.9649 16.9825C15.2 16.9825 12.9544 14.7369 12.9544 11.9719C12.9544 9.20703 15.2 6.96142 17.9649 6.96142C20.7298 6.96142 22.9754 9.20703 22.9754 11.9719C22.9754 14.7439 20.7298 16.9825 17.9649 16.9825Z" fill="white"/>
</svg>
