<svg width="36" height="24" viewBox="0 0 36 24" fill="none" xmlns="http://www.w3.org/2000/svg">
<path d="M0 0H36V24H0V0Z" fill="black"/>
<path d="M6.23164 9.57895C6.07725 10.4842 5.99304 11.4175 5.99304 12.3719C5.99304 13.3263 6.07725 14.2667 6.23164 15.1649L17.965 16.0211L29.6983 15.1719C29.8527 14.2667 29.9369 13.3333 29.9369 12.3789C29.9369 11.4246 29.8527 10.4842 29.6983 9.58597" fill="#0072C6"/>
<path d="M29.6982 15.3684H6.23157C7.34034 20.2667 12.1754 23.9509 17.9649 23.9509C23.7544 23.9509 28.5895 20.2667 29.6982 15.3684Z" fill="white"/>
<path d="M25.6772 9.57894H10.2527L13.4036 8.09824L11.7264 5.04561L15.1509 5.70525L15.579 2.24561L17.965 4.78596L20.3509 2.24561L20.779 5.70525L24.2036 5.04561L22.5264 8.09824L25.6772 9.57894Z" fill="#FFDA44"/>
<path d="M18 24L0 0V24H18Z" fill="#CE1126"/>
<path d="M36.0001 24V0L17.965 24H36.0001Z" fill="#CE1126"/>
</svg>
