<svg width="36" height="24" viewBox="0 0 36 24" fill="none" xmlns="http://www.w3.org/2000/svg">
<path d="M0 0H36V24H0V0Z" fill="#ED2024"/>
<path d="M13 4.87997V11.28L15.84 12.28L13.84 14.24L14.8 15.44L16.92 13.24L17.4 14.16L16.2 16.12L17.64 18.36L16.92 19.4L18.04 20.84L19.12 19.36L18.52 18.32L19.72 16L18.64 14.16L19.12 13.24L21.2 15.44L22.2 14.28L20.12 12.24L23 11.2V4.87997L20.92 5.63997L20.88 7.15997L19.56 7.27997V6.23997L20.24 5.31997L22.48 4.43997L21.56 4.27997L22.12 3.79997L22.48 3.95997L22.16 3.39997L21.6 3.59997L21.2 3.15997L19 3.59997L19.56 4.03997L18.04 5.99997L16.52 4.07997L17.04 3.63997L15.04 3.15997L14.48 3.59997L13.88 3.43997L13.56 3.99997L13.92 3.75997L14.56 4.19997L13.64 4.39997L15.84 5.19997L16.48 6.11997V7.27997L15.16 7.15997V5.71997L13 4.87997Z" fill="#212121"/>
<path d="M10.48 9.99999H13.04V11H10.48V9.99999ZM10.48 8.35999H13.04V9.43999H10.48V8.35999ZM10.48 6.67999H13.04V7.71999H10.48V6.67999ZM10.48 5.07999H13.04V6.07999H10.48V5.07999Z" fill="#212121"/>
<path d="M22.96 9.99999H25.52V11H22.96V9.99999ZM22.96 8.35999H25.52V9.43999H22.96V8.35999ZM22.96 6.67999H25.52V7.71999H22.96V6.67999ZM22.96 5.07999H25.52V6.07999H22.96V5.07999Z" fill="#212121"/>
<path d="M21.36 14.44H23.92V15.2H21.36V14.44ZM12.08 14.44H14.64V15.2H12.08V14.44Z" fill="#212121"/>
</svg>
