<svg width="36" height="24" viewBox="0 0 36 24" fill="none" xmlns="http://www.w3.org/2000/svg">
<path d="M0 0H36V24H0V0Z" fill="#10338C"/>
<path d="M36 2.31579L6.68772 12L36 21.8077V23.953L0 12L36 0V2.31579Z" fill="#D80027"/>
<path d="M36 20.153V21.8779L5.73474 12L36 2.10526V3.8007" fill="white"/>
<path d="M33.4723 9.8393L31.9362 10.5888L31.713 9.51368L33.9018 7.42456C33.9018 7.42456 33.2407 4.57193 32.9369 4.26807L25.0548 8.18526L24.5748 10.7649L22.3362 12.7712L22.3081 15.1712L24.7144 13.574L29.4323 13.3874L29.3263 16.0618H30.8863L31.7214 12.9291L33.9355 11.2021L33.4723 9.8393Z" fill="#A2001D"/>
<path d="M22.308 16.7305L20.7473 15.9509L22.308 15.1712H32.4456V16.7305H22.308Z" fill="#EFC100" stroke="#231F20" stroke-miterlimit="10"/>
</svg>
