<svg width="37" height="24" viewBox="0 0 37 24" fill="none" xmlns="http://www.w3.org/2000/svg">
<g clip-path="url(#clip0_15_137)">
<path d="M0.226318 0H36.2263V24H0.226318V0Z" fill="#EF3340"/>
<path d="M0.226318 0H36.2263V8H0.226318V0Z" fill="#00B5E2"/>
<path d="M0.226318 16H36.2263V24H0.226318V16Z" fill="#509E2F"/>
<path d="M18.865 14.9193C17.2509 14.9193 15.9457 13.614 15.9457 12C15.9457 10.386 17.2509 9.0807 18.865 9.0807C19.3702 9.0807 19.8404 9.20701 20.2544 9.43157C19.6088 8.79999 18.7176 8.40701 17.7422 8.40701C15.7562 8.40701 14.1492 10.014 14.1492 12C14.1492 13.986 15.7562 15.593 17.7422 15.593C18.7176 15.593 19.6088 15.2 20.2544 14.5684C19.8404 14.793 19.3702 14.9193 18.865 14.9193Z" fill="white"/>
<path d="M21.1105 9.97894L21.4965 11.0667L22.5421 10.5684L22.0439 11.614L23.1316 12L22.0439 12.386L22.5421 13.4316L21.4965 12.9333L21.1105 14.021L20.7246 12.9333L19.679 13.4316L20.1772 12.386L19.0895 12L20.1772 11.614L19.679 10.5684L20.7246 11.0667L21.1105 9.97894Z" fill="white"/>
</g>
<defs>
<clipPath id="clip0_15_137">
<rect width="36" height="24" fill="white" transform="translate(0.226318)"/>
</clipPath>
</defs>
</svg>
