<svg width="37" height="24" viewBox="0 0 37 24" fill="none" xmlns="http://www.w3.org/2000/svg">
<g clip-path="url(#clip0_15_144)">
<path d="M0.226318 0H36.2333V24H0.226318V0Z" fill="#10338C"/>
<path d="M7.23682 0H31.2368V24" fill="#F6C500"/>
<path d="M1.6228 1.4807L3.05438 0.435088L4.5 1.47368L4.01579 0H2.1L1.6228 1.4807Z" fill="white"/>
<path d="M6.70349 1.78946L6.1491 0.091217L5.60173 1.78946H3.82629L5.26489 2.82806L4.71752 4.51227L6.1491 3.47367L7.59471 4.51227L7.04033 2.82806L8.47892 1.78245L6.70349 1.78946Z" fill="white"/>
<path d="M9.79126 4.85615L9.24389 3.17194L8.69652 4.85615H6.9281L8.35968 5.90176L7.81231 7.58597L9.24389 6.54737L10.6895 7.58597L10.1421 5.90176L11.5737 4.85615H9.79126Z" fill="white"/>
<path d="M12.8157 7.88071L12.2684 6.18948L11.721 7.88071H9.94556L11.3842 8.92633L10.8368 10.6105L12.2684 9.57194L13.714 10.6105L13.1596 8.92633L14.5982 7.87369L12.8157 7.88071Z" fill="white"/>
<path d="M15.8403 10.8983L15.293 9.21405L14.7456 10.8983H12.9631L14.4088 11.9509L13.8614 13.6351L15.293 12.5895L16.7245 13.6351L16.1772 11.9509L17.6228 10.8983H15.8403Z" fill="white"/>
<path d="M18.8649 13.9228L18.3175 12.2386L17.7701 13.9228H15.9877L17.4333 14.9684L16.8859 16.6596L18.3175 15.614L19.7491 16.6596L19.2017 14.9614L20.6403 13.9228H18.8649Z" fill="white"/>
<path d="M21.8895 16.9474L21.3351 15.2632L20.7878 16.9474H19.0123L20.4509 17.986L19.8965 19.6842L21.3422 18.6386L22.7737 19.6772L22.2264 17.986L23.665 16.9474H21.8895Z" fill="white"/>
<path d="M24.907 19.9719L24.3597 18.2737L23.8123 19.9719H22.0369L23.4684 21.0105L22.9211 22.7018L24.3597 21.6561L25.7983 22.7018L25.2509 21.0105L26.6825 19.9719H24.907Z" fill="white"/>
<path d="M27.3843 21.2982L26.8299 22.9895L25.0544 22.9965L26.4439 24H28.3106L29.7071 22.9895H27.9316L27.3843 21.2982Z" fill="white"/>
</g>
<defs>
<clipPath id="clip0_15_144">
<rect width="36" height="24" fill="white" transform="translate(0.226318)"/>
</clipPath>
</defs>
</svg>
