<svg width="37" height="24" viewBox="0 0 37 24" fill="none" xmlns="http://www.w3.org/2000/svg">
<g clip-path="url(#clip0_15_157)">
<path d="M0.226318 0H36.2263V24H0.226318V0Z" fill="#FFC726"/>
<path d="M0.226318 0H12.2263V24H0.226318V0ZM24.2263 0H36.2263V24H24.2263V0Z" fill="#00267F"/>
<path d="M23.0853 7.08911L20.8418 7.95929C20.7941 8.05402 20.4355 8.48841 20.2677 11.6828H19.0712V7.4428L18.1912 5.52139L17.3112 7.41613V11.6828H16.1141C15.9463 8.48771 15.5667 7.99999 15.5197 7.90455L13.2965 7.08841C13.307 7.11017 14.3772 9.28771 14.3772 12.5628V13.4428H17.3112V18.4302H19.0712V13.4428H22.0053V12.5628C22.0053 10.8695 22.2979 9.47367 22.5442 8.60069C22.8123 7.64841 23.0846 7.09262 23.0874 7.08701L23.0853 7.08911Z" fill="black"/>
</g>
<defs>
<clipPath id="clip0_15_157">
<rect width="36" height="24" fill="white" transform="translate(0.226318)"/>
</clipPath>
</defs>
</svg>
