<svg width="37" height="24" viewBox="0 0 37 24" fill="none" xmlns="http://www.w3.org/2000/svg">
<g clip-path="url(#clip0_15_174)">
<path d="M0.226318 0H36.2263V24H0.226318V0Z" fill="white"/>
<path d="M11.2872 14.0458C11.2872 14.0458 10.6516 17.1346 9.92946 16.8857C9.18274 16.6368 8.69689 15.5666 8.69689 15.5666L7.67595 17.0601C7.67595 17.0601 10.3605 17.6563 10.5595 17.4447C10.6452 17.3645 11.1367 16.383 11.2865 15.613V14.0458H11.2872ZM7.34056 18.3046C7.34056 18.3046 7.16618 19.7236 7.26603 19.8979C7.35321 20.0596 10.042 20.6946 10.042 20.6946C10.042 20.6946 8.28696 21.8519 7.95087 22.1388L6.68103 20.035L6.6311 18.3046H7.34056ZM8.1372 6.65443C8.1372 6.65443 10.9251 9.57946 10.975 9.85369C11.0249 10.1153 10.6762 10.078 10.6762 10.078C10.6762 10.078 7.52688 7.43913 7.16618 7.19022C6.79282 6.94061 8.1372 6.65443 8.1372 6.65443Z" fill="#E6BC00"/>
<path d="M7.21607 7.36389C7.21607 7.36389 8.41068 7.31397 8.38607 6.55459C8.36146 5.80786 7.60209 5.50903 7.0417 5.68341C6.48131 5.84513 5.42381 6.62912 6.08334 8.14788C6.74287 9.65399 7.72654 10.2144 7.92553 11.5089C7.92553 11.5089 7.54162 12.2021 6.58115 11.5335C5.39287 10.7059 6.14521 8.84469 5.84709 8.37218C5.54826 7.87437 2.96779 5.6356 2.96779 5.6356C2.96779 5.6356 0.841541 8.40382 1.70217 10.9035C2.89396 14.3636 5.34014 13.1521 6.24506 13.4882C6.24506 13.4882 3.28279 17.8448 2.75967 18.2055C2.75967 18.2055 4.45279 18.7905 6.1206 16.8864C6.1206 16.8864 6.53123 17.5713 6.61842 18.3053H7.34053C7.67662 16.4631 10.9623 13.787 10.8505 12.5171C10.7261 11.023 7.39045 9.04438 7.21607 7.36389Z" fill="#ADADAD"/>
<path d="M25.4805 14.1519C25.4805 14.1519 26.1105 17.1353 26.8326 16.8864C27.5793 16.6375 28.0652 15.5673 28.0652 15.5673L29.0861 17.0608C29.0861 17.0608 26.4846 17.657 26.2856 17.4454C26.2005 17.3652 25.6303 16.4758 25.4756 15.7115L25.4805 14.1519ZM29.4215 18.3046C29.4215 18.3046 29.5959 19.7236 29.4961 19.8979C29.4089 20.0596 26.7201 20.6946 26.7201 20.6946C26.7201 20.6946 28.4751 21.8519 28.8112 22.1388L30.0811 20.035L30.131 18.3046H29.4215ZM28.6249 6.65443C28.6249 6.65443 25.837 9.57946 25.7871 9.85369C25.7371 10.1153 26.0859 10.078 26.0859 10.078C26.0859 10.078 29.2352 7.43913 29.5959 7.19022C29.9573 6.94061 28.6249 6.65443 28.6249 6.65443Z" fill="#E6BC00"/>
<path d="M11.2872 6.12146H25.4756V16.3492C25.4756 17.4784 24.7943 17.8532 23.935 18.5887L20.7063 21.3597C19.4231 22.458 17.3376 22.4545 16.0607 21.3597L12.8257 18.5873C11.9763 17.8595 11.2872 17.4827 11.2872 16.3499V6.12146Z" fill="#125ECC"/>
<path d="M14.3275 10.386C13.7678 10.386 13.3143 9.93244 13.3143 9.37274C13.3143 8.81305 13.7678 8.35953 14.3275 8.35953C14.8872 8.35953 15.3407 8.81305 15.3407 9.37274C15.3407 9.93244 14.8872 10.386 14.3275 10.386ZM18.3811 10.175C17.8214 10.175 17.3678 9.7215 17.3678 9.1618C17.3678 8.60211 17.8214 8.14859 18.3811 8.14859C18.9407 8.14859 19.3943 8.60211 19.3943 9.1618C19.3943 9.7215 18.9407 10.175 18.3811 10.175ZM22.4346 10.386C21.8749 10.386 21.4214 9.93244 21.4214 9.37274C21.4214 8.81305 21.8749 8.35953 22.4346 8.35953C22.9943 8.35953 23.4478 8.81305 23.4478 9.37274C23.4478 9.93244 22.9943 10.386 22.4346 10.386ZM15.3407 19.296C14.7811 19.296 14.3275 18.8425 14.3275 18.2828C14.3275 17.7231 14.7811 17.2696 15.3407 17.2696C15.9004 17.2696 16.3539 17.7231 16.3539 18.2828C16.3546 18.8425 15.9004 19.296 15.3407 19.296ZM18.3811 20.31C17.8214 20.31 17.3678 19.8564 17.3678 19.2967C17.3678 18.737 17.8214 18.2835 18.3811 18.2835C18.9407 18.2835 19.3943 18.737 19.3943 19.2967C19.3943 19.8557 18.9407 20.31 18.3811 20.31ZM21.4214 19.296C20.8617 19.296 20.4082 18.8425 20.4082 18.2828C20.4082 17.7231 20.8617 17.2696 21.4214 17.2696C21.9811 17.2696 22.4346 17.7231 22.4346 18.2828C22.4346 18.8425 21.9811 19.296 21.4214 19.296Z" fill="#FFE600"/>
<path d="M11.2872 12.3301H25.4756V16.3837H11.2872V12.3301Z" fill="#D60537"/>
<path d="M10.2739 3.08113C10.2739 3.08113 14.3274 2.06792 18.3817 2.06792C22.4359 2.06792 26.4894 3.08113 26.4894 3.08113L25.4762 7.13469C25.4762 7.13469 21.9289 6.12147 18.3824 6.12147C14.8358 6.12147 11.2885 7.13469 11.2885 7.13469L10.2739 3.08113Z" fill="#EACE00"/>
<path d="M18.3811 5.10826C17.8214 5.10826 17.3678 4.65474 17.3678 4.09505C17.3678 3.53535 17.8214 3.08183 18.3811 3.08183C18.9407 3.08183 19.3943 3.53535 19.3943 4.09505C19.3943 4.65474 18.9407 5.10826 18.3811 5.10826ZM22.4346 5.45983C21.8749 5.45983 21.4214 5.00631 21.4214 4.44661C21.4214 3.88692 21.8749 3.4334 22.4346 3.4334C22.9943 3.4334 23.4478 3.88692 23.4478 4.44661C23.4478 5.00631 22.9943 5.45983 22.4346 5.45983ZM14.3275 5.45983C13.7678 5.45983 13.3143 5.00631 13.3143 4.44661C13.3143 3.88692 13.7678 3.4334 14.3275 3.4334C14.8872 3.4334 15.3407 3.88692 15.3407 4.44661C15.3407 5.00631 14.8872 5.45983 14.3275 5.45983Z" fill="#7A6920"/>
<path d="M25.896 12.5171C25.7842 13.787 29.0699 16.4631 29.406 18.3053H30.1281C30.2153 17.5713 30.6259 16.8864 30.6259 16.8864C32.2937 18.7912 33.9868 18.2055 33.9868 18.2055C33.4637 17.8448 30.5014 13.4882 30.5014 13.4882C31.4071 13.1521 33.8532 14.3636 35.0443 10.9035C35.905 8.40382 33.7787 5.6356 33.7787 5.6356C33.7787 5.6356 31.1982 7.87437 30.8994 8.37218C30.6006 8.84539 31.3536 10.7066 30.1653 11.5335C29.2049 12.2021 28.821 11.5089 28.821 11.5089C29.02 10.2144 30.0036 9.65399 30.6632 8.14788C31.3227 6.62912 30.2652 5.84513 29.7048 5.68341C29.1444 5.50903 28.3857 5.80786 28.3604 6.55459C28.3358 7.31397 29.5304 7.36389 29.5304 7.36389C29.3561 9.04438 26.0204 11.023 25.896 12.5171Z" fill="#ADADAD"/>
<path d="M18.3811 15.5477C19.0385 15.5477 19.5715 15.0147 19.5715 14.3573C19.5715 13.6998 19.0385 13.1669 18.3811 13.1669C17.7236 13.1669 17.1907 13.6998 17.1907 14.3573C17.1907 15.0147 17.7236 15.5477 18.3811 15.5477Z" fill="white"/>
</g>
<defs>
<clipPath id="clip0_15_174">
<rect width="36" height="24" fill="white" transform="translate(0.226318)"/>
</clipPath>
</defs>
</svg>
