<svg width="37" height="24" viewBox="0 0 37 24" fill="none" xmlns="http://www.w3.org/2000/svg">
<g clip-path="url(#clip0_15_218)">
<path d="M0.226318 0H36.2263V24H0.226318V0Z" fill="#C8102E"/>
<path d="M0.226318 0.00701904H18.2263V12.007H0.226318V0.00701904Z" fill="#012169"/>
<path d="M18.1912 0H16.6053L11.4544 3.43158V0H6.96316V3.43158L1.81228 0H0.226318V1.59298L3.46141 3.74737H0.226318V8.2386H3.46141L0.226318 10.393V11.9789H1.81228L6.96316 8.54737V11.9789H11.4544V8.54737L16.6053 11.9789H18.1912V10.393L14.9561 8.2386H18.1912V3.74737H14.9561L18.1912 1.59298V0Z" fill="white"/>
<path d="M10.3316 0H8.08597V4.87018H0.226318V7.11579H8.08597V11.9789H10.3316V7.11579H18.1912V4.87018H10.3316V0Z" fill="#C8102E"/>
<path d="M0.226318 11.979V11.207L4.61228 8.2386H6.19825L0.738599 11.979H0.226318ZM0.738599 0.00701904L6.19825 3.74035H4.61228L0.226318 0.778949V0.00701904H0.738599ZM18.1912 0.00701904V0.778949L13.8053 3.74737H12.2193L17.6789 0.00701904H18.1912ZM17.6789 11.979L12.2193 8.2386H13.8053L18.1912 11.207V11.979H17.6789Z" fill="#C8102E"/>
<path d="M22.465 7.01334V14.0091C22.465 18.2063 28.0615 21.0049 28.0615 21.0049C28.0615 21.0049 33.6579 18.2063 33.6579 14.0091V7.01334H22.465Z" fill="white"/>
<path d="M31.7611 18.2063H24.3618C25.985 19.9663 28.0615 21.0049 28.0615 21.0049C28.0615 21.0049 30.138 19.9663 31.7611 18.2063Z" fill="#2F8F22"/>
<path d="M28.0614 18.2063C29.607 18.2063 30.86 16.9533 30.86 15.4077C30.86 13.8621 29.607 12.6091 28.0614 12.6091C26.5158 12.6091 25.2628 13.8621 25.2628 15.4077C25.2628 16.9533 26.5158 18.2063 28.0614 18.2063Z" fill="#65B5D2"/>
<path d="M25.2628 15.4084C26.0356 15.4084 26.6621 14.7819 26.6621 14.0091C26.6621 13.2363 26.0356 12.6098 25.2628 12.6098C24.49 12.6098 23.8635 13.2363 23.8635 14.0091C23.8635 14.7819 24.49 15.4084 25.2628 15.4084Z" fill="#C8102E"/>
<path d="M30.8594 15.4084C31.6322 15.4084 32.2587 14.7819 32.2587 14.0091C32.2587 13.2363 31.6322 12.6098 30.8594 12.6098C30.0866 12.6098 29.4601 13.2363 29.4601 14.0091C29.4601 14.7819 30.0866 15.4084 30.8594 15.4084Z" fill="#C8102E"/>
<path d="M28.0614 12.6098C28.8342 12.6098 29.4607 11.9833 29.4607 11.2105C29.4607 10.4377 28.8342 9.81123 28.0614 9.81123C27.2886 9.81123 26.6621 10.4377 26.6621 11.2105C26.6621 11.9833 27.2886 12.6098 28.0614 12.6098Z" fill="#C8102E"/>
</g>
<defs>
<clipPath id="clip0_15_218">
<rect width="36" height="24" fill="white" transform="translate(0.226318)"/>
</clipPath>
</defs>
</svg>
