<svg width="37" height="24" viewBox="0 0 37 24" fill="none" xmlns="http://www.w3.org/2000/svg">
<g clip-path="url(#clip0_15_241)">
<path d="M0.452637 0H36.4526V24H0.452637V0Z" fill="white"/>
<path d="M0.452637 24H36.4526V0L0.452637 24Z" fill="#012A87"/>
<path d="M18.0589 0H0.452637V11.7363L18.0589 0Z" fill="#F9D90F"/>
<path d="M10.3245 8.31879L11.1823 9.80956H12.905L12.0401 11.2933L12.905 12.7841H11.1823L10.3245 14.2748L9.46667 12.7841H7.74402L8.60886 11.2933L7.74402 9.80956H9.46667L10.3245 8.31879Z" fill="#DC171D"/>
<path d="M10.3245 15.3507C12.5651 15.3507 14.3815 13.5342 14.3815 11.2933C14.3815 9.05244 12.5651 7.23587 10.3245 7.23587C8.08385 7.23587 6.26746 9.05244 6.26746 11.2933C6.26746 13.5342 8.08385 15.3507 10.3245 15.3507Z" stroke="black" stroke-width="9" stroke-miterlimit="10"/>
</g>
<defs>
<clipPath id="clip0_15_241">
<rect width="36" height="24" fill="white" transform="translate(0.452637)"/>
</clipPath>
</defs>
</svg>
