<svg width="37" height="24" viewBox="0 0 37 24" fill="none" xmlns="http://www.w3.org/2000/svg">
<g clip-path="url(#clip0_15_271)">
<path d="M0.452637 0H36.4526V24H0.452637V0Z" fill="#009B3A"/>
<path d="M18.4527 1.35439L32.8316 11.9789L18.4527 22.5965L4.00354 11.9789L18.4527 1.35439Z" fill="#FEDF00"/>
<path d="M18.4527 17.6421C21.5687 17.6421 24.0948 15.116 24.0948 12C24.0948 8.88395 21.5687 6.35789 18.4527 6.35789C15.3366 6.35789 12.8105 8.88395 12.8105 12C12.8105 15.116 15.3366 17.6421 18.4527 17.6421Z" fill="white"/>
<path d="M15.6035 11.6281C14.628 11.6281 13.6807 11.7754 12.7894 12.0491C12.8315 15.1298 15.3368 17.614 18.4245 17.614C20.3333 17.614 22.0245 16.6596 23.0421 15.207C21.2947 13.0316 18.607 11.6281 15.6035 11.6281ZM23.9543 13.0526C24.0175 12.7017 24.0596 12.3439 24.0596 11.9719C24.0596 8.85613 21.5333 6.32982 18.4175 6.32982C16.0947 6.32982 14.1017 7.74035 13.2315 9.74034C13.9964 9.58596 14.7824 9.50175 15.5894 9.50175C18.8736 9.50877 21.835 10.8702 23.9543 13.0526Z" fill="#002776"/>
</g>
<defs>
<clipPath id="clip0_15_271">
<rect width="36" height="24" fill="white" transform="translate(0.452637)"/>
</clipPath>
</defs>
</svg>
