<svg width="37" height="24" viewBox="0 0 37 24" fill="none" xmlns="http://www.w3.org/2000/svg">
<g clip-path="url(#clip0_15_281)">
<path d="M0.452637 0H36.4526V24H0.452637V0Z" fill="#007C30"/>
<path d="M0.452637 16.1404H36.4526V0H0.452637" fill="#CE1720"/>
<path d="M7.47018 16.1404V0H0.452637V24H36.4526H7.47018V16.1404Z" fill="white"/>
<path d="M2.41756 11.2L1.05615 8.9965L2.41756 6.8351L3.77194 8.9965L2.41756 11.2ZM5.54738 11.2L4.19299 8.9965L5.54738 6.8351L6.90878 8.9965L5.54738 11.2ZM2.41756 16.9263L1.05615 14.7228L2.41756 12.5614L3.77194 14.7228L2.41756 16.9263ZM5.54738 16.9263L4.19299 14.7228L5.54738 12.5614L6.90878 14.7228L5.54738 16.9263Z" fill="#CE1720"/>
<path d="M2.41754 5.17894L1.28772 3.35438L2.41754 1.55789L3.54035 3.35438L2.41754 5.17894ZM5.54737 5.17894L4.42456 3.35438L5.54737 1.55789L6.67719 3.35438L5.54737 5.17894ZM2.41754 22.3158L1.28772 20.4842L2.41754 18.6877L3.54035 20.4842L2.41754 22.3158ZM5.54737 22.3158L4.42456 20.4842L5.54737 18.6877L6.67719 20.4842L5.54737 22.3158Z" stroke="#CE1720" stroke-width="7"/>
</g>
<defs>
<clipPath id="clip0_15_281">
<rect width="36" height="24" fill="white" transform="translate(0.452637)"/>
</clipPath>
</defs>
</svg>
