<svg width="37" height="24" viewBox="0 0 37 24" fill="none" xmlns="http://www.w3.org/2000/svg">
<g clip-path="url(#clip0_15_251)">
<path d="M0.452637 0H36.4526V24H0.452637V0Z" fill="#003E87"/>
<path d="M18.7972 20.3786C23.4144 20.3786 27.1573 16.6352 27.1573 12.0176C27.1573 7.39995 23.4144 3.65662 18.7972 3.65662C14.18 3.65662 10.437 7.39995 10.437 12.0176C10.437 16.6352 14.18 20.3786 18.7972 20.3786Z" fill="white"/>
<path d="M18.8674 18.8175C22.5371 18.8175 25.512 15.8423 25.512 12.1723C25.512 8.50225 22.5371 5.5271 18.8674 5.5271C15.1978 5.5271 12.2229 8.50225 12.2229 12.1723C12.2229 15.8423 15.1978 18.8175 18.8674 18.8175Z" stroke="#6DA544" stroke-width="18" stroke-miterlimit="10"/>
<path d="M18.8675 10.6534L15.3097 12.2989V13.7052C15.3097 14.535 15.7386 15.3085 16.4488 15.7375L18.8745 16.8063L21.3003 15.7375C22.0034 15.3015 22.4394 14.535 22.4394 13.7052V12.2989L18.8675 10.6534Z" fill="#003E87" stroke="black"/>
<path d="M15.3097 9.0079H22.4323V12.2918H15.3097V9.0079Z" fill="#FFDA44" stroke="black"/>
<path d="M0.452637 0H36.4526V2.46118H0.452637V0ZM0.452637 21.5177H36.4526V23.9789H0.452637V21.5177Z" fill="#CE1127"/>
</g>
<defs>
<clipPath id="clip0_15_251">
<rect width="36" height="24" fill="white" transform="translate(0.452637)"/>
</clipPath>
</defs>
</svg>
