<svg width="37" height="24" viewBox="0 0 37 24" fill="none" xmlns="http://www.w3.org/2000/svg">
<g clip-path="url(#clip0_15_298)">
<path d="M0.452637 0H36.4526V24H0.452637V0Z" fill="#D21034"/>
<path d="M0.452637 12.0035H15.3237V18.0018H0.452637V12.0035ZM21.5815 12.0035H36.4526V18.0018H21.5815V12.0035Z" fill="#3A9927"/>
<path d="M0.452637 0V5.99824H15.3237V0H21.5815V5.99824H36.4526V0H0.452637Z" fill="#003082"/>
<path d="M21.5815 5.99824H36.4526V11.9965H21.5815V5.99824ZM0.452637 5.99824H15.3237V11.9965H0.452637V5.99824Z" fill="white"/>
<path d="M21.5815 24H15.3237V18.0018H0.452637V24H36.4526V18.0018H21.5815V24ZM7.88467 0.604747L8.48936 2.44711H10.4229L8.85498 3.58629L9.45967 5.42866L7.88467 4.28948L6.3167 5.42866L6.91436 3.58629L5.34639 2.44711H7.28701L7.88467 0.604747Z" fill="#FFCE00"/>
</g>
<defs>
<clipPath id="clip0_15_298">
<rect width="36" height="24" fill="white" transform="translate(0.452637)"/>
</clipPath>
</defs>
</svg>
