<svg width="37" height="24" viewBox="0 0 37 24" fill="none" xmlns="http://www.w3.org/2000/svg">
<g clip-path="url(#clip0_15_322)">
<path d="M0.678955 -9.15527e-05H36.679V23.9999H0.678955V-9.15527e-05Z" fill="#01237A"/>
<path d="M27.6263 5.00855L27.9971 6.14918H29.1963L28.226 6.85409L28.5966 7.99472L27.6263 7.28967L26.6562 7.99472L27.0267 6.85409L26.0565 6.14918H27.2557L27.6263 5.00855ZM22.6994 7.04932L23.768 7.59374L24.616 6.74581L24.4284 7.9303L25.497 8.47479L24.3125 8.66237L24.1249 9.84693L23.5803 8.77837L22.3959 8.96595L23.244 8.11795L22.6994 7.04932ZM20.6586 11.9763L21.7992 11.6057L21.7993 10.4064L22.5042 11.3766L23.6448 11.0059L22.9398 11.9763L23.6448 12.9465L22.5042 12.576L21.7993 13.5462V12.3469L20.6586 11.9763ZM22.6994 16.9032L23.2439 15.8345L22.3959 14.9865L23.5805 15.1742L24.1249 14.1056L24.3125 15.2901L25.497 15.4776L24.4284 16.0221L24.616 17.2068L23.768 16.3586L22.6994 16.9032ZM27.6263 18.9439L27.2557 17.8033H26.0564L27.0267 17.0984L26.6562 15.9578L27.6263 16.6626L28.5966 15.9578L28.226 17.0984L29.1963 17.8033H27.9971L27.6263 18.9439ZM32.5533 16.9032L31.4846 16.3588L30.6366 17.2068L30.8242 16.0221L29.7557 15.4778L30.9402 15.2901L31.1279 14.1056L31.6722 15.1742L32.8568 14.9865L32.0086 15.8346L32.5533 16.9032ZM34.594 11.9763L33.4534 12.3469V13.5462L32.7485 12.5759L31.6079 12.9465L32.3129 11.9763L31.6079 11.0059L32.7485 11.3766L33.4534 10.4064V11.6057L34.594 11.9763ZM32.5533 7.04946L32.0089 8.11795L32.8568 8.96595L31.6722 8.77837L31.1279 9.84693L30.9402 8.66237L29.7557 8.47465L30.8242 7.9303L30.6366 6.74588L31.4846 7.59374L32.5533 7.04946ZM0.678955 7.111V8.23381H3.91187L0.678955 10.389V10.9181L4.70541 8.23374H6.29299L0.678955 11.9765H8.53861V7.11093H0.678955V7.111ZM7.4158 11.9763H2.26689L7.4158 8.54384V11.9763ZM13.0298 3.74258L18.6439 -0.000152588H10.7842V4.86539H18.6439V3.74258H15.411L18.6439 1.58721V1.05816L14.6174 3.74244H13.0298V3.74258ZM11.907 -1.23142e-05H17.0559L11.907 3.43248V-1.23142e-05ZM10.7842 11.9765H18.6439L13.0298 8.23374H14.6174L18.6439 10.9182V10.3891L15.411 8.23381H18.6439V7.111H10.7842V11.9765ZM11.907 8.54384L17.0559 11.9763H11.907V8.54384ZM8.53861 -0.000152588H0.678955L6.29299 3.74258H4.70541L0.678955 1.05823V1.58729L3.91187 3.74251H0.678955V4.86532H8.53861V-0.000152588ZM7.4158 3.43248L2.26689 -1.23142e-05H7.4158V3.43248Z" fill="white"/>
<path d="M10.7842 -0.000152588H8.5386V4.86539H0.678955V7.111H8.5386V11.9765H10.7842V7.111H18.6439V4.86539H10.7842V-0.000152588Z" fill="#D80027"/>
<path d="M6.29299 3.74258L0.678955 -0.000152588V1.05823L4.70541 3.74258H6.29299ZM13.0298 3.74258H14.6174L18.6439 1.05823V-0.000152588L13.0298 3.74258ZM4.70541 8.23381L0.678955 10.9182V11.9765L6.29299 8.23381H4.70541ZM13.0298 8.23381L18.6439 11.9765V10.9182L14.6174 8.23381H13.0298Z" fill="#D80027"/>
</g>
<defs>
<clipPath id="clip0_15_322">
<rect width="36" height="24" fill="white" transform="translate(0.678955)"/>
</clipPath>
</defs>
</svg>
