<svg width="37" height="24" viewBox="0 0 37 24" fill="none" xmlns="http://www.w3.org/2000/svg">
<g clip-path="url(#clip0_15_397)">
<path d="M0.905273 0H36.9053V24H0.905273V0Z" fill="#496E2D"/>
<path d="M0.905273 7.78436V16.2227H36.9053V7.78436H0.905273Z" fill="black"/>
<path d="M0.905273 7.78436H36.9053V10.5971H0.905273V7.78436Z" fill="#FFDA44"/>
<path d="M0.905273 13.4099H36.9053V16.2227H0.905273V13.4099Z" fill="white"/>
<path d="M14.6865 0H23.124V24H14.6865V0Z" fill="black"/>
<path d="M14.6865 0H17.499V24H14.6865V0Z" fill="#FFDA44"/>
<path d="M20.2201 0H23.0326V24H20.2201V0Z" fill="white"/>
<path d="M18.9052 20.6598C23.6855 20.6598 27.5607 16.7843 27.5607 12.0035C27.5607 7.22276 23.6855 3.3472 18.9052 3.3472C14.1249 3.3472 10.2498 7.22276 10.2498 12.0035C10.2498 16.7843 14.1249 20.6598 18.9052 20.6598Z" fill="#D80027"/>
<path d="M18.9052 4.12073L19.2287 5.11926H20.2833L19.4326 5.74511L19.756 6.74364L18.9052 6.12483L18.0544 6.74364L18.3779 5.74511L17.5271 5.11926H18.5818L18.9052 4.12073ZM14.2716 5.62556L15.1294 6.24437L15.9802 5.62556L15.6568 6.63113L16.5076 7.24994H15.4529L15.1294 8.24848L14.799 7.24994H13.7443L14.5951 6.63113L14.2716 5.62556ZM11.4099 9.56345H12.4646L12.788 8.56491L13.1185 9.56345H14.1732L13.3154 10.1823L13.6458 11.1878L12.788 10.569L11.9373 11.1878L12.2607 10.1823L11.4099 9.56345ZM11.4099 14.4366L12.2607 13.8178L11.9373 12.8122L12.788 13.431L13.6458 12.8122L13.3154 13.8178L14.1732 14.4366H13.1185L12.788 15.4421L12.4646 14.4366H11.4099ZM14.2716 18.3815L14.5951 17.3759L13.7443 16.7571H14.799L15.1294 15.7516L15.4529 16.7571H16.5076L15.6568 17.3759L15.9802 18.3815L15.1294 17.7557L14.2716 18.3815ZM18.9052 19.8863L18.5818 18.8808H17.5271L18.3779 18.262L18.0544 17.2564L18.9052 17.8752L19.756 17.2564L19.4326 18.262L20.2833 18.8808H19.2287L18.9052 19.8863ZM23.5388 18.3815L22.681 17.7557L21.8302 18.3815L22.1537 17.3759L21.3029 16.7571H22.3576L22.681 15.7516L23.0115 16.7571H24.0662L23.2154 17.3759L23.5388 18.3815ZM26.4005 14.4366H25.3458L25.0224 15.4421L24.6919 14.4366H23.6373L24.4951 13.8178L24.1646 12.8122L25.0224 13.431L25.8732 12.8122L25.5498 13.8178L26.4005 14.4366ZM26.4005 9.56345L25.5498 10.1823L25.8732 11.1878L25.0224 10.569L24.1646 11.1878L24.4951 10.1823L23.6373 9.56345H24.6919L25.0224 8.56491L25.3458 9.56345H26.4005ZM23.5388 5.62556L23.2154 6.63113L24.0662 7.24994H23.0115L22.681 8.24848L22.3576 7.24994H21.3029L22.1537 6.63113L21.8302 5.62556L22.681 6.24437L23.5388 5.62556Z" fill="#496E2D"/>
<path d="M20.5436 11.8629C19.7702 10.3791 19.5241 10.0979 19.5241 10.0979C19.5241 10.0979 19.5522 9.41576 19.5522 9.00088C19.5522 8.38207 19.0319 7.88983 18.392 7.88983C17.7874 7.88983 17.2881 8.09376 17.2319 8.66334C16.9366 8.72663 16.6272 8.95165 16.6272 9.41576C16.6272 9.75329 16.6975 9.92909 16.9928 10.0697C17.1405 9.74626 17.2952 9.7322 17.6467 9.61969C17.703 9.66188 17.7663 9.83065 17.8295 9.85877L17.8506 9.92909C17.8506 9.92909 16.9155 10.3932 16.9155 12.102C16.9155 14.1764 18.4624 15.2945 18.4624 15.2945L18.3358 15.3156L18.2022 15.8148H19.7491V15.3085L20.5225 16.5391C20.5436 16.518 21.2397 13.1919 20.5436 11.8629Z" fill="#496E2D"/>
</g>
<defs>
<clipPath id="clip0_15_397">
<rect width="36" height="24" fill="white" transform="translate(0.905273)"/>
</clipPath>
</defs>
</svg>
