<svg width="37" height="24" viewBox="0 0 37 24" fill="none" xmlns="http://www.w3.org/2000/svg">
<g clip-path="url(#clip0_15_409)">
<path d="M0.905273 0H36.9053V24H0.905273V0Z" fill="white"/>
<path d="M0.905273 15.1327H15.7764V24H0.905273V15.1327Z" fill="#D80027"/>
<path d="M0.905273 0H15.7764V8.8743H0.905273V0Z" fill="#0052B4"/>
<path d="M22.0342 0H36.9053V8.8743H22.0342V0Z" fill="#D80027"/>
<path d="M22.0342 15.1327H36.9053V24H22.0342V15.1327Z" fill="#0052B4"/>
<path d="M18.9053 9.14151H15.3967V12.6153C15.3967 12.6153 16.7678 13.0372 18.9053 13.0372V9.14151Z" fill="#0052B4" stroke="white" stroke-width="5" stroke-miterlimit="10"/>
<path d="M15.3967 12.6153V13.0372C15.3967 14.971 16.9647 16.5461 18.9053 16.5461V13.0372C16.7678 13.0372 15.3967 12.6153 15.3967 12.6153Z" fill="#D80027" stroke="white" stroke-width="5" stroke-miterlimit="10"/>
<path d="M18.9053 16.5461C20.8389 16.5461 22.4139 14.978 22.4139 13.0372V12.6153C22.4139 12.6153 21.0428 13.0372 18.9053 13.0372V16.5461Z" fill="#0052B4" stroke="white" stroke-width="5" stroke-miterlimit="10"/>
<path d="M18.9053 9.14151V13.0372C21.0428 13.0372 22.4139 12.6153 22.4139 12.6153V9.14151H18.9053Z" fill="#D80027" stroke="white" stroke-width="5" stroke-miterlimit="10"/>
</g>
<defs>
<clipPath id="clip0_15_409">
<rect width="36" height="24" fill="white" transform="translate(0.905273)"/>
</clipPath>
</defs>
</svg>
