<svg width="37" height="24" viewBox="0 0 37 24" fill="none" xmlns="http://www.w3.org/2000/svg">
<g clip-path="url(#clip0_15_426)">
<path d="M0.905273 0H36.9053V24H0.905273V0Z" fill="#FFDA44"/>
<path d="M0.905273 12.0035H36.9053V18.0017H0.905273V12.0035Z" fill="#0052B4"/>
<path d="M0.905273 18.0018H36.9053V24H0.905273V18.0018Z" fill="#D80027"/>
<path d="M18.9053 16.1805C21.212 16.1805 23.0819 14.3104 23.0819 12.0035C23.0819 9.69663 21.212 7.82654 18.9053 7.82654C16.5987 7.82654 14.7288 9.69663 14.7288 12.0035C14.7288 14.3104 16.5987 16.1805 18.9053 16.1805Z" fill="#FFDA44"/>
<path d="M26.8647 5.6185C26.8647 5.6185 24.9522 4.6481 24.4811 4.49339C24.01 4.33869 21.0288 3.56518 21.0288 4.00116C21.0288 4.72545 20.0795 4.84499 19.9389 4.84499C19.7983 4.84499 19.7983 4.4723 18.8983 4.4723C17.9983 4.4723 17.935 4.80983 17.7874 4.80983C17.6327 4.80983 16.7678 4.73951 16.7678 4.00116C16.7678 3.6355 13.7514 4.28244 13.3155 4.49339C12.8866 4.71138 10.9319 5.6185 10.9319 5.6185C10.9319 5.6185 14.1522 5.80837 14.7217 6.05448C15.2913 6.3006 17.8014 7.21475 17.8014 7.21475L17.6045 8.15H20.2624L19.9952 7.21475C19.9952 7.21475 22.4631 6.3217 23.0749 6.05448C23.6866 5.78727 26.8647 5.6185 26.8647 5.6185Z" fill="#4C1F00"/>
<path d="M16.2123 12.0738C16.2123 13.5576 17.4217 14.7671 18.9052 14.7671C20.3888 14.7671 21.5982 13.5576 21.5982 12.0738V11.2652H16.2193V12.0738H16.2123Z" fill="#57BA17"/>
<path d="M18.9052 7.77029C17.4217 7.77029 16.2123 8.97979 16.2123 10.4635V11.2722H21.5912V10.4635C21.5982 8.97979 20.3888 7.77029 18.9052 7.77029Z" fill="#338AF3"/>
</g>
<defs>
<clipPath id="clip0_15_426">
<rect width="36" height="24" fill="white" transform="translate(0.905273)"/>
</clipPath>
</defs>
</svg>
