<svg width="37" height="24" viewBox="0 0 37 24" fill="none" xmlns="http://www.w3.org/2000/svg">
<g clip-path="url(#clip0_15_434)">
<path d="M0.905273 0H36.9053V24H0.905273V0Z" fill="white"/>
<path d="M0.905273 0H36.9053V8.00235H0.905273V0Z" fill="#D80027"/>
<path d="M0.905273 16.0047H36.9053V24.007H0.905273V16.0047Z" fill="black"/>
<path d="M16.3951 14.3733C16.3951 14.3733 16.3951 10.2666 16.7115 9.82362C16.9295 9.52125 17.8928 10.1893 18.3076 10.1401C18.3076 10.1401 18.603 9.61266 18.624 9.29622C18.6451 8.97276 18.5467 8.7618 18.2795 8.86024C18.2795 8.86024 18.1951 8.71257 18.3147 8.62819C18.4272 8.54381 18.7084 8.63522 18.7084 8.63522C18.7084 8.63522 18.6733 8.5649 18.8209 8.57194C19.0248 8.586 19.3272 8.67038 19.3412 8.96572C19.3553 9.18371 19.3623 9.50718 19.3694 9.5775C19.4186 10.0557 19.5592 10.1893 19.5592 10.1893C19.5592 10.1893 20.853 9.54234 21.1061 9.82362C21.3381 10.0908 21.4225 14.3733 21.4225 14.3733L20.1498 13.1919L21.0006 15.2663C21.0006 15.2663 19.9881 15.4351 18.9686 15.4351C17.949 15.4351 16.7819 15.1398 16.7819 15.1398L17.7522 13.1568L16.3951 14.3733Z" fill="#C09300"/>
</g>
<defs>
<clipPath id="clip0_15_434">
<rect width="36" height="24" fill="white" transform="translate(0.905273)"/>
</clipPath>
</defs>
</svg>
