<svg width="37" height="24" viewBox="0 0 37 24" fill="none" xmlns="http://www.w3.org/2000/svg">
<g clip-path="url(#clip0_15_446)">
<path d="M0.905273 0H36.9053V24H0.905273V0Z" fill="#338AF3"/>
<path d="M0.905273 0H36.9053V12.0035H0.905273V0Z" fill="#56AF35"/>
<path d="M0.905273 24L36.9053 11.9965L0.905273 0V24Z" fill="#D80027"/>
<path d="M10.3764 16.2789C12.7389 16.2789 14.6514 14.3662 14.6514 12.0035C14.6514 9.64079 12.7389 7.7281 10.3764 7.7281C8.01387 7.7281 6.10137 9.64079 6.10137 12.0035C6.10137 14.3662 8.01387 16.2789 10.3764 16.2789ZM10.3764 17.9877C7.07168 17.9877 4.38574 15.3085 4.38574 11.9965C4.38574 8.68445 7.06465 6.00528 10.3764 6.00528C13.6881 6.00528 16.367 8.68445 16.367 11.9965C16.367 15.3085 13.6811 17.9877 10.3764 17.9877Z" fill="#FFC945"/>
<path d="M9.30762 11.659C9.98719 11.659 10.5381 11.108 10.5381 10.4284C10.5381 9.74874 9.98719 9.19778 9.30762 9.19778C8.62805 9.19778 8.07715 9.74874 8.07715 10.4284C8.07715 11.108 8.62805 11.659 9.30762 11.659Z" fill="#FFC945"/>
<path d="M11.3748 12.3762C12.0543 12.3762 12.6052 11.8253 12.6052 11.1456C12.6052 10.466 12.0543 9.91504 11.3748 9.91504C10.6952 9.91504 10.1443 10.466 10.1443 11.1456C10.1443 11.8253 10.6952 12.3762 11.3748 12.3762Z" fill="#FFC945"/>
<path d="M10.3763 10.7378C11.0559 10.7378 11.6068 10.1868 11.6068 9.50718C11.6068 8.82755 11.0559 8.2766 10.3763 8.2766C9.69677 8.2766 9.14587 8.82755 9.14587 9.50718C9.14587 10.1868 9.69677 10.7378 10.3763 10.7378Z" fill="#FFC945"/>
<path d="M9.30762 13.3748C9.98719 13.3748 10.5381 12.8238 10.5381 12.1442C10.5381 11.4645 9.98719 10.9136 9.30762 10.9136C8.62805 10.9136 8.07715 11.4645 8.07715 12.1442C8.07715 12.8238 8.62805 13.3748 9.30762 13.3748Z" fill="#FFC945"/>
<path d="M11.4451 14.085C12.1246 14.085 12.6755 13.534 12.6755 12.8544C12.6755 12.1747 12.1246 11.6238 11.4451 11.6238C10.7655 11.6238 10.2146 12.1747 10.2146 12.8544C10.2146 13.534 10.7655 14.085 11.4451 14.085Z" fill="#FFC945"/>
<path d="M9.51855 15.1538C10.1981 15.1538 10.749 14.6029 10.749 13.9232C10.749 13.2436 10.1981 12.6927 9.51855 12.6927C8.83899 12.6927 8.28809 13.2436 8.28809 13.9232C8.28809 14.6029 8.83899 15.1538 9.51855 15.1538Z" fill="#FFC945"/>
<path d="M11.1638 15.6601C11.8434 15.6601 12.3943 15.1092 12.3943 14.4295C12.3943 13.7499 11.8434 13.1989 11.1638 13.1989C10.4842 13.1989 9.93335 13.7499 9.93335 14.4295C9.93335 15.1092 10.4842 15.6601 11.1638 15.6601Z" fill="#FFC945"/>
</g>
<defs>
<clipPath id="clip0_15_446">
<rect width="36" height="24" fill="white" transform="translate(0.905273)"/>
</clipPath>
</defs>
</svg>
