<svg width="37" height="24" viewBox="0 0 37 24" fill="none" xmlns="http://www.w3.org/2000/svg">
<g clip-path="url(#clip0_15_477)">
<path d="M0.905273 0H36.9053V24H0.905273V0Z" fill="#003399"/>
<path d="M18.9031 2.66067L19.2024 3.58147H20.1755L19.3918 4.15089L19.6868 5.07267L18.9031 4.50324L18.1193 5.07267L18.4187 4.15138L17.635 3.58196H18.6037L18.9031 2.66067ZM14.9031 3.72733L15.2024 4.64813H16.1755L15.3918 5.21755L15.6868 6.13933L14.9031 5.56991L14.1193 6.13933L14.4187 5.21804L13.635 4.64862H14.6037L14.9031 3.72733ZM11.9697 6.66067L12.2691 7.58146H13.2421L12.4584 8.15089L12.7535 9.07266L11.9697 8.50324L11.186 9.07266L11.4854 8.15138L10.7017 7.58195H11.6704L11.9697 6.66067ZM10.9031 10.6606L11.2024 11.5815H12.1755L11.3918 12.1509L11.6868 13.0727L10.9031 12.5032L10.1193 13.0727L10.4187 12.1513L9.63501 11.582H10.6037L10.9031 10.6606ZM11.9697 14.6607L12.2691 15.5815H13.2421L12.4584 16.1509L12.7535 17.0727L11.9697 16.5033L11.186 17.0727L11.4854 16.1514L10.7017 15.5819H11.6704L11.9697 14.6607ZM14.9031 17.594L15.2024 18.5148H16.1755L15.3918 19.0842L15.6868 20.006L14.9031 19.4366L14.1193 20.006L14.4187 19.0847L13.635 18.5153H14.6037L14.9031 17.594ZM22.9031 3.72733L23.2024 4.64813H24.1755L23.3918 5.21755L23.6867 6.13933L22.9031 5.56991L22.1193 6.13933L22.4187 5.21804L21.635 4.64862H22.6037L22.9031 3.72733ZM25.8364 6.66067L26.1357 7.58146H27.1088L26.3251 8.15089L26.6201 9.07266L25.8364 8.50324L25.0526 9.07266L25.352 8.15138L24.5683 7.58195H25.537L25.8364 6.66067ZM26.9031 10.6607L27.2024 11.5815H28.1755L27.3918 12.1509L27.6868 13.0727L26.9031 12.5032L26.1193 13.0727L26.4187 12.1513L25.635 11.582H26.6037L26.9031 10.6607ZM25.8364 14.6607L26.1357 15.5815H27.1088L26.3251 16.1509L26.6201 17.0727L25.8364 16.5033L25.0527 17.0727L25.352 16.1514L24.5683 15.5819H25.5371L25.8364 14.6607ZM18.9031 18.6607L19.2024 19.5815H20.1755L19.3918 20.1509L19.6868 21.0727L18.9031 20.5033L18.1193 21.0727L18.4187 20.1514L17.635 19.5819H18.6037L18.9031 18.6607ZM22.9031 17.5939L23.2024 18.5148H24.1755L23.3918 19.0842L23.6868 20.006L22.9031 19.4366L22.1194 20.006L22.4187 19.0847L21.635 18.5153H22.6038L22.9031 17.5939Z" fill="#FFCC00"/>
</g>
<defs>
<clipPath id="clip0_15_477">
<rect width="36" height="24" fill="white" transform="translate(0.905273)"/>
</clipPath>
</defs>
</svg>
