<svg width="37" height="24" viewBox="0 0 37 24" fill="none" xmlns="http://www.w3.org/2000/svg">
<g clip-path="url(#clip0_15_483)">
<path d="M0.905273 0H36.9053V24H0.905273V0Z" fill="#2E52B2"/>
<path d="M18.9053 0V1.58922L15.6639 3.74802H18.9053V8.24846H15.6639L18.9053 10.4073V12.0035H17.3162L12.1553 8.55787V12.0035H7.65527V8.55787L2.49434 12.0035H0.905273V10.4073L4.14668 8.24846H0.905273V3.74802H4.14668L0.905273 1.58922V0H2.49434L7.65527 3.43862V0H12.1553V3.43862L17.3162 0H18.9053Z" fill="white"/>
<path d="M11.0303 0H8.78027V4.87313H0.905273V7.12335H8.78027V12.0035H11.0303V7.12335H18.9053V4.87313H11.0303V0Z" fill="#D80027"/>
<path d="M0.905273 0V1.06182L4.94121 3.74802H6.53027L0.905273 0ZM18.9053 0V1.06182L14.8693 3.74802H13.2803L18.9053 0Z" fill="#D80027"/>
<path d="M0.905273 0V1.06182L4.94121 3.74802H6.53027L0.905273 0ZM18.9053 0V1.06182L14.8693 3.74802H13.2803L18.9053 0ZM0.905273 12.0035V10.9417L4.94121 8.24846H6.53027L0.905273 12.0035ZM18.9053 12.0035V10.9417L14.8693 8.24846H13.2803L18.9053 12.0035Z" fill="#D80027"/>
<path d="M22.4983 8.93759V15.407C22.4983 19.7386 28.1584 21.0677 28.1584 21.0677C28.1584 21.0677 33.8116 19.7316 33.8116 15.3999V8.93056L28.1514 7.31321L22.4983 8.93759Z" fill="#F3F3F3"/>
<path d="M33.8116 9.33841V6.91239H22.4983V9.33841H27.3499V14.1904H22.4983V15.8078H27.3499V20.8145C27.835 20.9903 28.1584 21.0606 28.1584 21.0606C28.1584 21.0606 28.4819 20.9833 28.967 20.8145V15.8078H33.8186V14.1904H28.967V9.33841H33.8116Z" fill="#D80027"/>
</g>
<defs>
<clipPath id="clip0_15_483">
<rect width="36" height="24" fill="white" transform="translate(0.905273)"/>
</clipPath>
</defs>
</svg>
