<svg width="37" height="24" viewBox="0 0 37 24" fill="none" xmlns="http://www.w3.org/2000/svg">
<g clip-path="url(#clip0_15_516)">
<path d="M0.131592 0H36.1316V24H0.131592V0Z" fill="#C60A0A"/>
<path d="M18.1316 12.0035L3.2605 20.8708V3.12921L18.1316 12.0035Z" fill="#3E8446"/>
<path d="M18.1316 12.0035L33.0027 20.8708H3.2605L18.1316 12.0035ZM33.0027 3.12921L18.1316 12.0035L3.2605 3.12921H33.0027Z" fill="#FFDA44"/>
<path d="M33.0027 3.12921V20.8708L18.1316 12.0035L33.0027 3.12921Z" fill="#3E8446"/>
<path d="M18.1316 0.731323L18.3637 1.44858H19.116L18.5113 1.89159L18.7434 2.60885L18.1316 2.16584L17.5199 2.60885L17.752 1.89159L17.1473 1.44858H17.8996L18.1316 0.731323ZM12.0918 0.731323L12.3238 1.44858H13.0762L12.4715 1.89159L12.7035 2.60885L12.0918 2.16584L11.4801 2.60885L11.7121 1.89159L11.1074 1.44858H11.8598L12.0918 0.731323ZM24.1715 0.731323L24.4035 1.44858H25.1629L24.5512 1.89159L24.7832 2.60885L24.1715 2.16584L23.5598 2.60885L23.7918 1.89159L23.1871 1.44858H23.9395L24.1715 0.731323ZM18.1316 21.3912L18.3637 22.1084H19.116L18.5113 22.5514L18.7434 23.2687L18.1316 22.8257L17.5199 23.2687L17.752 22.5514L17.1473 22.1084H17.8996L18.1316 21.3912ZM12.0918 21.3912L12.3238 22.1084H13.0762L12.4715 22.5514L12.7035 23.2687L12.0918 22.8257L11.4801 23.2687L11.7121 22.5514L11.1074 22.1084H11.8598L12.0918 21.3912ZM24.1715 21.3912L24.4035 22.1084H25.1629L24.5512 22.5514L24.7832 23.2687L24.1715 22.8257L23.5598 23.2687L23.7918 22.5514L23.1871 22.1084H23.9395L24.1715 21.3912Z" fill="#FFDA44"/>
<path d="M17.323 17.3618C20.2821 17.3618 22.6808 14.9628 22.6808 12.0035C22.6808 9.04418 20.2821 6.64517 17.323 6.64517C14.364 6.64517 11.9652 9.04418 11.9652 12.0035C11.9652 14.9628 14.364 17.3618 17.323 17.3618Z" fill="#C60A0A"/>
<path d="M17.323 7.74216L18.2793 10.6815H21.373L18.8699 12.4957L19.8261 15.4351L17.323 13.6209L14.8269 15.4351L15.7832 12.4957L13.2801 10.6815H16.3738L17.323 7.74216ZM7.70427 11.7996C8.01364 12.2848 7.86599 12.9317 7.38083 13.2411C6.89567 13.5505 6.2488 13.4029 5.93942 12.9177C5.38395 12.0387 5.70739 10.5971 5.70739 10.5971C5.70739 10.5971 7.14177 10.9206 7.70427 11.7996Z" fill="#FFDA44"/>
<path d="M7.09954 13.3255C7.3869 13.3255 7.61985 13.0925 7.61985 12.8052C7.61985 12.5178 7.3869 12.2848 7.09954 12.2848C6.81218 12.2848 6.57922 12.5178 6.57922 12.8052C6.57922 13.0925 6.81218 13.3255 7.09954 13.3255Z" fill="#A2001D"/>
</g>
<defs>
<clipPath id="clip0_15_516">
<rect width="36" height="24" fill="white" transform="translate(0.131592)"/>
</clipPath>
</defs>
</svg>
