<svg width="37" height="24" viewBox="0 0 37 24" fill="none" xmlns="http://www.w3.org/2000/svg">
<g clip-path="url(#clip0_15_552)">
<path d="M0.131592 0H36.1316V24H0.131592V0Z" fill="white"/>
<path d="M0.131592 0H36.1316V3.43159H0.131592V0ZM0.131592 6.85614H36.1316V10.2877H0.131592V6.85614ZM0.131592 13.7123H36.1316V17.1439H0.131592V13.7123ZM0.131592 20.5754H36.1316V24.007H0.131592V20.5754Z" fill="#6DA544"/>
<path d="M0.131592 0H18.1316V10.2877H0.131592V0Z" fill="#D80027"/>
<path d="M8.35107 8.04453L7.82373 7.0038V4.91532L9.13154 4.14883L10.4394 4.91532V6.48344L10.9597 5.96308L11.255 6.17403L10.9597 7.0038L9.91201 8.04453H8.35107Z" fill="white"/>
<path d="M5.89727 6.20216C6.10696 6.20216 6.27695 6.03216 6.27695 5.82244C6.27695 5.61273 6.10696 5.44272 5.89727 5.44272C5.68757 5.44272 5.51758 5.61273 5.51758 5.82244C5.51758 6.03216 5.68757 6.20216 5.89727 6.20216Z" fill="white"/>
<path d="M6.51592 4.71843C6.72561 4.71843 6.89561 4.54843 6.89561 4.33871C6.89561 4.12899 6.72561 3.95898 6.51592 3.95898C6.30622 3.95898 6.13623 4.12899 6.13623 4.33871C6.13623 4.54843 6.30622 4.71843 6.51592 4.71843Z" fill="white"/>
<path d="M7.62688 3.62847C7.83658 3.62847 8.00657 3.45846 8.00657 3.24874C8.00657 3.03903 7.83658 2.86902 7.62688 2.86902C7.41718 2.86902 7.24719 3.03903 7.24719 3.24874C7.24719 3.45846 7.41718 3.62847 7.62688 3.62847Z" fill="white"/>
<path d="M9.13164 3.24877C9.34134 3.24877 9.51133 3.07876 9.51133 2.86904C9.51133 2.65933 9.34134 2.48932 9.13164 2.48932C8.92195 2.48932 8.75195 2.65933 8.75195 2.86904C8.75195 3.07876 8.92195 3.24877 9.13164 3.24877Z" fill="white"/>
<path d="M10.6363 3.62847C10.846 3.62847 11.016 3.45846 11.016 3.24874C11.016 3.03903 10.846 2.86902 10.6363 2.86902C10.4266 2.86902 10.2566 3.03903 10.2566 3.24874C10.2566 3.45846 10.4266 3.62847 10.6363 3.62847Z" fill="white"/>
<path d="M11.7472 4.71843C11.9569 4.71843 12.1269 4.54843 12.1269 4.33871C12.1269 4.12899 11.9569 3.95898 11.7472 3.95898C11.5375 3.95898 11.3676 4.12899 11.3676 4.33871C11.3676 4.54843 11.5375 4.71843 11.7472 4.71843Z" fill="white"/>
<path d="M12.366 6.20216C12.5757 6.20216 12.7457 6.03216 12.7457 5.82244C12.7457 5.61273 12.5757 5.44272 12.366 5.44272C12.1563 5.44272 11.9863 5.61273 11.9863 5.82244C11.9863 6.03216 12.1563 6.20216 12.366 6.20216Z" fill="white"/>
</g>
<defs>
<clipPath id="clip0_15_552">
<rect width="36" height="24" fill="white" transform="translate(0.131592)"/>
</clipPath>
</defs>
</svg>
