<svg width="37" height="24" viewBox="0 0 37 24" fill="none" xmlns="http://www.w3.org/2000/svg">
<g clip-path="url(#clip0_15_603)">
<path d="M1.41162 0H35.0116V24H1.41162V0Z" fill="white"/>
<path d="M15.8116 9.6H0.131592V14.4H15.8116V24H20.6116V14.4H36.2916V9.6H20.6116V0H15.8116V9.6Z" fill="#EB000E"/>
<path d="M27.8116 4.32L27.4917 2.39999H29.0917L28.7717 4.32L30.6917 3.99999V5.6L28.7717 5.28L29.0917 7.2H27.4917L27.8116 5.28L25.8917 5.6V3.99999L27.8116 4.32ZM7.49165 4.32L7.17165 2.39999H8.77165L8.45165 4.32L10.3717 3.99999V5.6L8.45165 5.28L8.77165 7.2H7.17165L7.49165 5.28L5.57166 5.6V3.99999L7.49165 4.32ZM7.49165 18.72L7.17165 16.8H8.77165L8.45165 18.72L10.3717 18.4V20L8.45165 19.68L8.77165 21.6H7.17165L7.49165 19.68L5.57166 20V18.4L7.49165 18.72ZM27.8116 18.72L27.4917 16.8H29.0917L28.7717 18.72L30.6917 18.4V20L28.7717 19.68L29.0917 21.6H27.4917L27.8116 19.68L25.8917 20V18.4L27.8116 18.72Z" fill="#EB000E"/>
</g>
<defs>
<clipPath id="clip0_15_603">
<rect width="36" height="24" fill="white" transform="translate(0.131592)"/>
</clipPath>
</defs>
</svg>
