<svg width="37" height="24" viewBox="0 0 37 24" fill="none" xmlns="http://www.w3.org/2000/svg">
<g clip-path="url(#clip0_15_579)">
<path d="M0.131592 0H36.1316V24H0.131592V0Z" fill="white"/>
<path d="M0.131592 16.1404H36.1316V24H0.131592V16.1404Z" fill="#D80027"/>
<path d="M25.6123 9.24913V6.95439H26.3772V5.42456H24.8403V6.18948H23.3105V5.42456H21.7807V6.95439H22.5456V9.24913H21.0158V3.89474H21.7807V2.36491H20.2509V3.12983H19.486V2.36491H17.9561V3.12983H17.1912V2.36491H15.6614V3.89474H16.4263V9.24913H14.8965V6.95439H15.6614V5.42456H14.1316V6.18948H12.6017V5.42456H11.0719V6.95439H11.8368V9.24913H10.307V15.3684H27.1421V9.24913H25.6123Z" fill="#D80027" stroke="black" stroke-miterlimit="10"/>
<path d="M18.7211 16.5263L17.0228 17.8035L18.3632 18.807V21.0035H16.7351V21.6351H18.3491V22.1895H16.7351V22.8421H19.079V18.807L20.4193 17.8035L18.7211 16.5263ZM18.7211 18.3018L18.0123 17.8035L18.7211 17.3053L19.4298 17.8035L18.7211 18.3018Z" fill="#FFDA44" stroke="black" stroke-miterlimit="10"/>
<path d="M16.9457 14.7158V12.7579C16.9457 12.7579 16.9527 11.193 18.7001 11.193C20.4404 11.193 20.5036 12.7368 20.5036 12.7368V14.7158H16.9457ZM12.0966 14.7158V13.0105C12.0966 13.0105 12.1036 11.6982 13.472 11.6982C14.8404 11.6982 14.8895 12.9895 14.8895 12.9895V14.7088H12.0966V14.7158Z" fill="black"/>
<path d="M11.9983 14.7158V13.0105C11.9983 13.0105 12.0053 11.6982 13.3737 11.6982C14.7422 11.6982 14.7913 12.9895 14.7913 12.9895V14.7088H11.9983V14.7158ZM22.6509 14.7158V13.0105C22.6509 13.0105 22.6579 11.6982 24.0264 11.6982C25.3948 11.6982 25.4439 12.9895 25.4439 12.9895V14.7088H22.6509V14.7158ZM23.2404 9.26316V8.1614C23.2404 8.1614 23.2474 7.31228 24.0334 7.31228C24.8264 7.31228 24.8544 8.14737 24.8544 8.14737V9.26316H23.2404ZM17.7106 9.26316V7.6C17.7106 7.6 17.7176 6.31579 18.7141 6.31579C19.7106 6.31579 19.7457 7.57895 19.7457 7.57895V9.26316H17.7106ZM12.5878 9.26316V8.1614C12.5878 8.1614 12.5948 7.31228 13.3807 7.31228C14.1667 7.31228 14.2018 8.14737 14.2018 8.14737V9.26316H12.5878Z" fill="black"/>
</g>
<defs>
<clipPath id="clip0_15_579">
<rect width="36" height="24" fill="white" transform="translate(0.131592)"/>
</clipPath>
</defs>
</svg>
