<svg width="36" height="24" viewBox="0 0 36 24" fill="none" xmlns="http://www.w3.org/2000/svg">
<path d="M0 0H36V24H0V0Z" fill="#D80027"/>
<path d="M19.2421 8.40702C18.8842 9.88772 18.2526 9.60702 17.9438 10.8982C16.1122 10.4561 14.9894 8.61754 15.4245 6.78597C15.8666 4.95439 17.7052 3.83158 19.5298 4.26667C18.9192 6.85614 19.5649 7.0807 19.2421 8.40702ZM14.4982 9.50175C15.7964 10.2947 15.3333 10.814 16.4631 11.5088C15.4806 13.1158 13.3824 13.614 11.7754 12.6316C10.1684 11.6491 9.67012 9.55088 10.6526 7.94386C12.9192 9.33333 13.3333 8.79298 14.4982 9.50175ZM14.0771 14.3579C15.235 13.3684 15.5789 13.9719 16.5894 13.1088C17.8105 14.5403 17.6421 16.6877 16.2105 17.9088C14.7789 19.1298 12.6315 18.9614 11.4105 17.5298C13.4245 15.8035 13.0385 15.2421 14.0771 14.3579ZM18.5613 16.2596C17.9789 14.8491 18.6596 14.7088 18.1473 13.4807C19.8877 12.7579 21.8806 13.586 22.5964 15.3263C23.3192 17.0667 22.4912 19.0596 20.7508 19.7754C19.7333 17.3193 19.0806 17.5158 18.5613 16.2596ZM21.7543 12.5825C20.2385 12.7018 20.3087 12.014 18.9824 12.1193C18.835 10.2456 20.2385 8.60351 22.1122 8.45614C23.9859 8.30877 25.628 9.71228 25.7754 11.586C23.1298 11.7895 23.1157 12.4772 21.7543 12.5825Z" fill="white"/>
</svg>
