<svg width="36" height="24" viewBox="0 0 36 24" fill="none" xmlns="http://www.w3.org/2000/svg">
<g clip-path="url(#clip0_15_640)">
<path d="M0 0H36V24.0003H0V0Z" fill="#0052B4"/>
<path d="M15.7076 11.9998C15.7268 11.9784 15.7458 11.9569 15.7648 11.9353C15.7458 11.957 15.7264 11.9782 15.7071 11.9998H15.7076ZM13.3043 14.9477L14.0748 16.5588L15.8148 16.1568L15.0356 17.7636L16.4348 18.8732L14.6927 19.2659L14.6976 21.0517L13.3043 19.9345L11.9112 21.0517L11.916 19.2659L10.174 18.8732L11.5732 17.7636L10.7939 16.1568L12.5338 16.5588L13.3043 14.9477ZM27.2163 16.9491L27.5838 17.7176L28.4137 17.5258L28.042 18.2922L28.7094 18.8215L27.8785 19.0087L27.8807 19.8605L27.2163 19.3277L26.5518 19.8605L26.5541 19.0087L25.7232 18.8215L26.3905 18.2922L26.0189 17.5258L26.8488 17.7176L27.2163 16.9491ZM23.7975 8.79715L24.165 9.56567L24.9949 9.37379L24.6232 10.1403L25.2906 10.6696L24.4597 10.8568L24.4619 11.7087L23.7975 11.1757L23.133 11.7087L23.1353 10.8568L22.3043 10.6696L22.9717 10.1403L22.6001 9.37379L23.43 9.56567L23.7975 8.79715ZM27.2163 4.13895L27.5838 4.90746L28.4137 4.71551L28.042 5.48206L28.7094 6.0113L27.8785 6.19861L27.8807 7.05038L27.2163 6.51741L26.5518 7.05038L26.5541 6.19861L25.7232 6.0113L26.3905 5.48206L26.0189 4.71551L26.8488 4.90746L27.2163 4.13895ZM30.2025 7.63264L30.5701 8.40108L31.3999 8.20927L31.0284 8.97568L31.6957 9.50492L30.8647 9.69223L30.8671 10.544L30.2025 10.0112L29.5381 10.544L29.5403 9.69223L28.7094 9.50492L29.3768 8.97568L29.0051 8.20927L29.835 8.40108L30.2025 7.63264ZM28.0673 11.7087L28.3563 12.5983H29.2917L28.5349 13.1481L28.8241 14.0377L28.0673 13.4879L27.3104 14.0377L27.5995 13.1481L26.8427 12.5983H27.7782L28.0673 11.7087Z" fill="white"/>
<path d="M18 0V2.14826L14.8242 3.91304H18V8.08672H13.8443L18 10.3954V11.9998H16.1241L10.9565 9.12917V11.9998H7.04348V8.58446L0.896063 11.9998H0V9.85149L3.1758 8.08672H0V3.91304H4.15568L0 1.60355V0H1.87594L7.04348 2.87065V0H10.9565V3.41529L17.1039 0H18Z" fill="white"/>
<path d="M10.125 -0.000213623H7.875V4.8747H0V7.1247H7.875V11.9998H10.125V7.1247H18V4.8747H10.125V-0.000213623Z" fill="#D80027"/>
<path d="M10.9565 8.08673L18 11.9998V10.8933L12.9483 8.08673H10.9565Z" fill="#0052B4"/>
<path d="M10.9565 8.08673L18 11.9998V10.8933L12.9483 8.08673H10.9565Z" fill="white"/>
<path d="M10.9565 8.08673L18 11.9998V10.8933L12.9483 8.08673H10.9565ZM5.05167 8.08673L0 10.8933V11.9998L7.04348 8.08673H5.05167Z" fill="#D80027"/>
<path d="M7.04348 3.91282L0 -0.000213623V1.1063L5.05174 3.91282H7.04348Z" fill="#0052B4"/>
<path d="M7.04348 3.91282L0 -0.000213623V1.1063L5.05174 3.91282H7.04348Z" fill="white"/>
<path d="M7.04348 3.91282L0 -0.000213623V1.10629L5.05174 3.91282H7.04348ZM12.9483 3.91282L18 1.10629V-0.000213623L10.9565 3.91282H12.9483Z" fill="#D80027"/>
</g>
<defs>
<clipPath id="clip0_15_640">
<rect width="36" height="24" fill="white"/>
</clipPath>
</defs>
</svg>
