<svg width="37" height="24" viewBox="0 0 37 24" fill="none" xmlns="http://www.w3.org/2000/svg">
<g clip-path="url(#clip0_15_732)">
<path d="M0.226318 0H36.2263V24H0.226318V0Z" fill="white"/>
<path d="M24.1281 8.58949H20.1912L18.2263 5.17896L16.2614 8.58949H12.3246L14.2895 12L12.3246 15.4105H16.2614L18.2263 18.8211L20.1912 15.4105H24.1281L22.1632 12L24.1281 8.58949ZM20.8018 12L19.5947 14.3298H16.8649L15.6509 12L16.8579 9.67019H19.5877L20.8018 12ZM18.2263 6.96142L19.0614 8.59651H17.3842L18.2263 6.96142ZM14.1351 9.67019H15.8123L15.0544 11.1439L14.1351 9.67019ZM14.1351 14.3298L15.0474 12.779L15.8825 14.3298H14.1351ZM18.2263 16.9614L17.3912 15.4105H19.0684L18.2263 16.9614ZM22.3947 14.3298H20.6404L21.4754 12.779L22.3947 14.3298ZM20.5632 9.67019H22.3947L21.4825 11.2211L20.5632 9.67019ZM0.226318 1.49475H36.1561V4.49124H0.226318V1.49475ZM0.226318 19.4597H36.1561V22.4562H0.226318V19.4597Z" fill="#2E52B2"/>
</g>
<defs>
<clipPath id="clip0_15_732">
<rect width="36" height="24" fill="white" transform="translate(0.226318)"/>
</clipPath>
</defs>
</svg>
