<svg width="37" height="24" viewBox="0 0 37 24" fill="none" xmlns="http://www.w3.org/2000/svg">
<g clip-path="url(#clip0_15_740)">
<path d="M1.44031 0H35.0123V24H1.44031V0Z" fill="#181A93"/>
<path d="M0.226318 0H36.2263V8H0.226318V0Z" fill="#FFA44A"/>
<path d="M0.226318 16H36.2263V24H0.226318V16Z" fill="#1A9F0B"/>
<path d="M0.226318 8H36.2263V16H0.226318V8Z" fill="white"/>
<path d="M18.2263 14.4C19.5518 14.4 20.6263 13.3255 20.6263 12C20.6263 10.6745 19.5518 9.60001 18.2263 9.60001C16.9008 9.60001 15.8263 10.6745 15.8263 12C15.8263 13.3255 16.9008 14.4 18.2263 14.4Z" fill="white"/>
<path d="M18.2264 15.2C16.465 15.2 15.0264 13.7614 15.0264 12C15.0264 10.2386 16.465 8.79999 18.2264 8.79999C19.9878 8.79999 21.4264 10.2386 21.4264 12C21.4264 13.7614 19.9878 15.2 18.2264 15.2ZM18.2264 14.4C19.5036 14.4 20.6264 13.2772 20.6264 12C20.6264 10.7228 19.5106 9.59999 18.2264 9.59999C16.9422 9.59999 15.8264 10.7228 15.8264 12C15.8264 13.2772 16.9492 14.4 18.2264 14.4Z" fill="#181A93"/>
<path d="M18.2263 13.6C19.11 13.6 19.8263 12.8837 19.8263 12C19.8263 11.1163 19.11 10.4 18.2263 10.4C17.3427 10.4 16.6263 11.1163 16.6263 12C16.6263 12.8837 17.3427 13.6 18.2263 13.6Z" fill="#181A93"/>
</g>
<defs>
<clipPath id="clip0_15_740">
<rect width="36" height="24" fill="white" transform="translate(0.226318)"/>
</clipPath>
</defs>
</svg>
