<svg width="37" height="24" viewBox="0 0 37 24" fill="none" xmlns="http://www.w3.org/2000/svg">
<g clip-path="url(#clip0_15_775)">
<path d="M0.226318 0.000427246H36.2263V23.9999H0.226318V0.000427246Z" fill="white"/>
<path d="M0.226318 0.000427246H36.2263V8.00024H0.226318V0.000427246Z" fill="black"/>
<path d="M0.226318 16.0001H36.2263V23.9999H0.226318V16.0001Z" fill="#6DA544"/>
<path d="M18.2263 12.0005L0.226318 24.0002V-0.000137329L18.2263 12.0005Z" fill="#D80027"/>
<path d="M5.70459 9.80643L6.25837 10.9644L7.50895 10.6754L6.94891 11.8304L7.95459 12.6279L6.70246 12.9102L6.70591 14.1937L5.70459 13.3907L4.70327 14.1937L4.70678 12.9102L3.45459 12.6279L4.46027 11.8304L3.90023 10.6754L5.15081 10.9644L5.70459 9.80643Z" fill="white"/>
</g>
<defs>
<clipPath id="clip0_15_775">
<rect width="36" height="24" fill="white" transform="translate(0.226318)"/>
</clipPath>
</defs>
</svg>
