<svg width="37" height="24" viewBox="0 0 37 24" fill="none" xmlns="http://www.w3.org/2000/svg">
<g clip-path="url(#clip0_15_813)">
<path d="M0.226318 0H36.2966V24H0.226318V0Z" fill="#D80027"/>
<path d="M18.2263 23.9579C24.8551 23.9579 30.2287 18.5947 30.2287 11.9789C30.2287 5.36316 24.8551 0 18.2263 0C11.5976 0 6.224 5.36316 6.224 11.9789C6.224 18.5947 11.5976 23.9579 18.2263 23.9579Z" fill="#D80027"/>
<path d="M27.1139 11.9789L23.4857 13.6842L25.4193 17.193L21.4748 16.4421L20.9756 20.414L18.2264 17.4877L15.4771 20.414L14.9779 16.4421L11.0334 17.193L12.967 13.6842L9.33887 11.9789L12.967 10.2737L11.0334 6.75789L14.9779 7.51578L15.4771 3.53683L18.2264 6.46315L20.9756 3.53683L21.4748 7.51578L25.4193 6.75789L23.4857 10.2737L27.1139 11.9789Z" fill="#FFDA44"/>
<path d="M18.3248 17.0035C21.1052 17.0035 23.3592 14.7539 23.3592 11.979C23.3592 9.20396 21.1052 6.95439 18.3248 6.95439C15.5444 6.95439 13.2904 9.20396 13.2904 11.979C13.2904 14.7539 15.5444 17.0035 18.3248 17.0035Z" fill="#D80027"/>
<path d="M15.2873 11.979C15.1396 11.979 14.999 11.986 14.8513 12C14.8583 12.8421 15.1607 13.607 15.6669 14.2105C15.9341 13.4877 16.3349 12.8351 16.8412 12.2667C16.356 12.0772 15.8357 11.979 15.2873 11.979ZM17.1576 15.2421C17.5232 15.3754 17.9169 15.4456 18.3248 15.4456C18.7326 15.4456 19.1263 15.3754 19.4919 15.2421C19.2951 14.4632 18.8802 13.7684 18.3248 13.2211C17.7693 13.7684 17.3544 14.4632 17.1576 15.2421ZM21.3341 10.2456C20.7365 9.20702 19.6115 8.51228 18.3248 8.51228C17.038 8.51228 15.9201 9.20702 15.3154 10.2456C16.4123 10.2526 17.4388 10.5474 18.3248 11.0597C19.2107 10.5474 20.2373 10.2456 21.3341 10.2456ZM19.8084 12.2667C20.3146 12.8281 20.7154 13.4877 20.9826 14.2105C21.4888 13.614 21.7912 12.8421 21.7982 12C21.6576 11.986 21.5099 11.979 21.3623 11.979C20.8209 11.979 20.2935 12.0772 19.8084 12.2667Z" fill="#FFDA44"/>
</g>
<defs>
<clipPath id="clip0_15_813">
<rect width="36" height="24" fill="white" transform="translate(0.226318)"/>
</clipPath>
</defs>
</svg>
