<svg width="37" height="24" viewBox="0 0 37 24" fill="none" xmlns="http://www.w3.org/2000/svg">
<g clip-path="url(#clip0_15_846)">
<path d="M0.452637 0.000274658H36.4526V23.9998H0.452637V0.000274658Z" fill="#0052B4"/>
<path d="M0.452637 0.000274658H36.4526V6.00053H0.452637V0.000274658Z" fill="#FFDA44"/>
<path d="M0.452637 5.99976H36.4526V12H0.452637V5.99976Z" fill="white"/>
<path d="M0.452637 12H36.4526V18.0003H0.452637V12Z" fill="#D80027"/>
<path d="M18.4526 12.0004L0.452637 24.0001V-0.000152588L18.4526 12.0004Z" fill="#6DA544"/>
<path d="M5.27878 12C5.27878 10.2517 6.50756 8.79112 8.14837 8.43281C7.89133 8.37645 7.62895 8.34797 7.3658 8.34787C5.34867 8.34787 3.71362 9.98299 3.71362 12C3.71362 14.0171 5.34874 15.6522 7.3658 15.6522C7.63453 15.6522 7.89616 15.6223 8.14837 15.5673C6.50749 15.209 5.27878 13.7484 5.27878 12Z" fill="white"/>
<path d="M8.10809 8.8696L8.3023 9.46747H8.93089L8.42239 9.83703L8.61659 10.4348L8.10809 10.0653L7.59945 10.4348L7.7938 9.83703L7.28516 9.46747H7.91375L8.10809 8.8696ZM8.10809 10.4348L8.3023 11.0327H8.93089L8.42239 11.4022L8.61659 12.0001L8.10809 11.6306L7.59945 12.0001L7.7938 11.4022L7.28516 11.0327H7.91375L8.10809 10.4348ZM8.10809 12.0001L8.3023 12.5979H8.93089L8.42239 12.9674L8.61659 13.5653L8.10809 13.1958L7.59945 13.5653L7.7938 12.9674L7.28516 12.5979H7.91375L8.10809 12.0001ZM8.10809 13.5653L8.3023 14.1631H8.93089L8.42239 14.5326L8.61659 15.1305L8.10809 14.761L7.59945 15.1305L7.7938 14.5326L7.28516 14.1631H7.91375L8.10809 13.5653Z" fill="white"/>
</g>
<defs>
<clipPath id="clip0_15_846">
<rect width="36" height="24" fill="white" transform="translate(0.452637)"/>
</clipPath>
</defs>
</svg>
