<svg width="37" height="24" viewBox="0 0 37 24" fill="none" xmlns="http://www.w3.org/2000/svg">
<g clip-path="url(#clip0_15_873)">
<path d="M0.452637 0H36.4526V24H0.452637V0Z" fill="#D80027"/>
<path d="M36.3825 0H0.452637V24" fill="#6DA544"/>
<path d="M22.0456 0L0.452637 13.6491V24H14.9719L36.4526 10.4211V0H22.0456Z" fill="#FFDA44"/>
<path d="M36.4526 0H27.4842L0.452637 17.5018V23.9298L9.30878 24L36.4526 6.42807V0Z" fill="black"/>
<path d="M10.3544 13.1228L12.5439 14.807L14.8106 13.2491L13.8913 15.8456L16.0737 17.5228L13.3228 17.4456L12.3965 20.0421L11.6176 17.4035L8.8667 17.3263L11.1334 15.7684L10.3544 13.1228ZM22.2492 4.96841L24.4386 6.64561L26.7053 5.08771L25.786 7.6842L27.9685 9.3614L25.2176 9.2842L24.2913 11.8807L23.5123 9.2421L20.7614 9.16491L23.0351 7.60701L22.2492 4.96841Z" fill="white"/>
</g>
<defs>
<clipPath id="clip0_15_873">
<rect width="36" height="24" fill="white" transform="translate(0.452637)"/>
</clipPath>
</defs>
</svg>
