<svg width="37" height="24" viewBox="0 0 37 24" fill="none" xmlns="http://www.w3.org/2000/svg">
<g clip-path="url(#clip0_15_855)">
<path d="M0.452637 -0.000152588H36.4526V24.0001H0.452637V-0.000152588Z" fill="#91DC5A"/>
<path d="M0.452637 -0.000152588H36.4526V24.0001H0.452637V-0.000152588Z" fill="white"/>
<path d="M0.452637 -0.000152588H36.4526V4.02088H0.452637V-0.000152588ZM0.452637 19.9791H36.4526V23.9994H0.452637V19.9791Z" fill="#0052B4"/>
<path d="M0.452637 5.6167H36.4526V18.3842H0.452637V5.6167Z" fill="#D80027"/>
<path d="M13.8352 16.6169C16.3852 16.6169 18.4525 14.5497 18.4525 11.9996C18.4525 9.44955 16.3852 7.38232 13.8352 7.38232C11.2851 7.38232 9.2179 9.44955 9.2179 11.9996C9.2179 14.5497 11.2851 16.6169 13.8352 16.6169Z" fill="white"/>
<path d="M13.8354 7.38275L14.8713 10.5711H18.2293L15.5117 12.5419L16.5557 15.7398L13.8354 13.7598L11.1191 15.736L12.159 12.5419L9.44385 10.5711H12.7993L13.8354 7.38275Z" fill="#D80027"/>
</g>
<defs>
<clipPath id="clip0_15_855">
<rect width="36" height="24" fill="white" transform="translate(0.452637)"/>
</clipPath>
</defs>
</svg>
