<svg width="37" height="24" viewBox="0 0 37 24" fill="none" xmlns="http://www.w3.org/2000/svg">
<g clip-path="url(#clip0_15_821)">
<path d="M0.452637 0H36.4526V24H0.452637V0Z" fill="white"/>
<path d="M6.38684 7.56168L9.71504 2.56938L6.38684 7.56168ZM7.63492 8.39372L10.9631 3.40142L7.63492 8.39372ZM8.88299 9.22577L12.2112 4.23347L8.88299 9.22577ZM24.692 19.7651L28.0201 14.7728L24.692 19.7651ZM25.94 20.5971L29.2682 15.6048L25.94 20.5971ZM27.1881 21.4292L30.5163 16.4369L27.1881 21.4292Z" fill="black"/>
<path d="M27.1881 21.4292L30.5163 16.4368M6.38684 7.56168L9.71504 2.56938L6.38684 7.56168ZM7.63492 8.39372L10.9631 3.40142L7.63492 8.39372ZM8.88299 9.22577L12.2112 4.23347L8.88299 9.22577ZM24.692 19.7651L28.0201 14.7728L24.692 19.7651ZM25.94 20.5971L29.2682 15.6048L25.94 20.5971Z" stroke="black" stroke-width="25"/>
<path d="M25.524 16.7142L29.6843 19.4877L25.524 16.7142Z" fill="black"/>
<path d="M25.524 16.7142L29.6843 19.4877" stroke="white" stroke-width="12.5"/>
<path d="M23.4439 15.3275C25.282 12.5703 24.537 8.84507 21.7798 7.00695C19.0226 5.16884 15.2974 5.91389 13.4593 8.67106C11.6212 11.4282 12.3662 15.1534 15.1234 16.9916C17.8806 18.8297 21.6058 18.0846 23.4439 15.3275Z" fill="#CA163A"/>
<path d="M13.4593 8.67106C12.5407 10.0489 12.9135 11.9127 14.2914 12.8313C15.6692 13.7499 17.533 13.3771 18.4516 11.9993C19.3702 10.6214 21.234 10.2486 22.6119 11.1672C23.9897 12.0858 24.3625 13.9496 23.4439 15.3275C21.6067 18.0832 17.8792 18.8287 15.1234 16.9916C12.3677 15.1544 11.6221 11.4268 13.4593 8.67106Z" fill="#0E4896"/>
<path d="M9.71504 21.4292L6.38684 16.4369L9.71504 21.4292ZM10.963 20.5971L7.63484 15.6048L10.963 20.5971ZM12.2111 19.7651L8.88292 14.7728L12.2111 19.7651ZM28.0201 9.22577L24.6919 4.23349L28.0201 9.22577ZM29.2682 8.39373L25.94 3.40145L29.2682 8.39373ZM30.5163 7.56169L27.1881 2.56937L30.5163 7.56169Z" fill="black"/>
<path d="M30.5163 7.56169L27.1881 2.56937M9.71504 21.4292L6.38684 16.4369L9.71504 21.4292ZM10.963 20.5971L7.63484 15.6048L10.963 20.5971ZM12.2111 19.7651L8.88292 14.7728L12.2111 19.7651ZM28.0201 9.22577L24.6919 4.23349L28.0201 9.22577ZM29.2682 8.39373L25.94 3.40145L29.2682 8.39373Z" stroke="black" stroke-width="25"/>
<path d="M8.67664 18.5159L9.92472 17.6839L8.67664 18.5159ZM25.524 7.28433L26.9817 6.31249L25.524 7.28433ZM28.2298 5.48045L29.4779 4.64841L28.2298 5.48045Z" fill="black"/>
<path d="M28.2298 5.48045L29.4779 4.64841M8.67664 18.5159L9.92472 17.6839L8.67664 18.5159ZM25.524 7.28433L26.9817 6.31249L25.524 7.28433Z" stroke="white" stroke-width="12.5"/>
</g>
<defs>
<clipPath id="clip0_15_821">
<rect width="36" height="24" fill="white" transform="translate(0.452637)"/>
</clipPath>
</defs>
</svg>
