<svg width="37" height="24" viewBox="0 0 37 24" fill="none" xmlns="http://www.w3.org/2000/svg">
<g clip-path="url(#clip0_15_912)">
<path d="M0.452637 0H36.4526V24H0.452637V0Z" fill="white"/>
<path d="M0.452637 0.0140381H36.4526V6.37895H0.452637V0.0140381ZM0.487724 17.6351H36.4526V24H0.487724V17.6351Z" fill="#D80027"/>
<path d="M20.8245 13.5789L18.4175 9.17193L16.0105 13.5789H17.814V14.786H19.021V13.5789H20.8245Z" fill="#6DA544"/>
<path d="M17.386 14.9544C17.6948 14.6456 17.6948 14.1404 17.379 13.8316L17.7088 14.1614C17.3439 13.8316 16.8526 13.6982 16.3684 13.7895L14.7193 14.2035C14.2912 14.3088 14.2421 14.1754 14.593 13.9088L16.4948 12.4842C16.8526 12.2175 16.7895 12 16.3333 12H15.5614C15.1123 12 15.0702 11.8386 15.4562 11.6421L17.2316 10.7509C17.6246 10.5544 17.5895 10.393 17.1263 10.393H16.3544C15.9053 10.393 15.8351 10.1754 16.193 9.90877L18.0948 8.48421C18.4877 8.21754 19 8.21754 19.393 8.48421L21.2948 9.90877C21.6526 10.1754 21.5895 10.393 21.1333 10.393H20.3614C19.9123 10.393 19.8702 10.5544 20.2562 10.7509L22.0316 11.6421C22.4246 11.8386 22.3895 12 21.9263 12H21.1544C20.7053 12 20.6351 12.2175 20.993 12.4842L22.8947 13.9088C23.2526 14.1754 23.2035 14.3088 22.7684 14.2035L21.1193 13.7895C20.6421 13.6982 20.1439 13.8316 19.779 14.1614L20.1088 13.8316C19.8 14.1404 19.793 14.6386 20.1018 14.9544L20.579 15.4316C20.8877 15.7403 20.7965 15.993 20.3474 15.993H17.1333C16.6983 15.993 16.593 15.7403 16.9018 15.4316C16.9088 15.4386 17.386 14.9544 17.386 14.9544Z" fill="#14AF5A"/>
</g>
<defs>
<clipPath id="clip0_15_912">
<rect width="36" height="24" fill="white" transform="translate(0.452637)"/>
</clipPath>
</defs>
</svg>
