<svg width="37" height="24" viewBox="0 0 37 24" fill="none" xmlns="http://www.w3.org/2000/svg">
<g clip-path="url(#clip0_15_923)">
<path d="M0.679199 0H36.6792V24H0.679199V0Z" fill="#D80027"/>
<path d="M0.679199 0H36.6792V12H0.679199V0Z" fill="#0052B4"/>
<path d="M11.1564 6.88422C11.1564 5.90176 10.3635 5.10878 9.381 5.10878C8.92486 5.10878 8.51083 5.2772 8.19504 5.5579V4.5193H8.78451V3.33334H8.19504V2.74387H7.01609V3.33334H6.42662V4.5193H7.01609V5.56492C6.7003 5.28422 6.28627 5.1158 5.83013 5.1158C4.84767 5.1158 4.05469 5.90878 4.05469 6.89123C4.05469 7.41755 4.28627 7.88773 4.64416 8.21053V9.25615H10.56V8.21053C10.9319 7.88071 11.1564 7.40352 11.1564 6.88422Z" fill="#FFDA44"/>
</g>
<defs>
<clipPath id="clip0_15_923">
<rect width="36" height="24" fill="white" transform="translate(0.679199)"/>
</clipPath>
</defs>
</svg>
