<svg width="37" height="24" viewBox="0 0 37 24" fill="none" xmlns="http://www.w3.org/2000/svg">
<g clip-path="url(#clip0_15_941)">
<path d="M0.679199 0H36.6792V24H0.679199V0Z" fill="white"/>
<path d="M0.679199 0H36.6792V8H0.679199V0Z" fill="#0052B4"/>
<path d="M0.679199 15.9719H36.6792V23.9719H0.679199V15.9719Z" fill="#6DA544"/>
<path d="M17.8862 12L18.4266 10.379C18.5669 9.96492 18.7845 9.95791 18.9248 10.379L19.4652 12L20.8266 14.0421C20.9459 14.2246 20.9178 14.4842 20.7423 14.6035C20.7423 14.6035 20.2581 15.1649 18.6722 15.1649C17.0862 15.1649 16.602 14.6035 16.602 14.6035C16.4336 14.4632 16.3985 14.2246 16.5178 14.0421L17.8862 12Z" fill="black"/>
<path d="M18.6792 12C17.802 12 17.0933 11.2912 17.0933 10.414C17.0933 9.53684 17.802 8.82806 18.6792 8.82806C19.5564 8.82806 20.2652 9.53684 20.2652 10.414C20.2652 11.2912 19.5494 12 18.6792 12ZM18.6792 12C19.1143 12 19.4722 10.8561 19.4722 10.414C19.4722 9.97894 19.1143 9.62105 18.6792 9.62105C18.2441 9.62105 17.8862 9.97894 17.8862 10.414C17.8862 10.8561 18.2371 12 18.6792 12Z" fill="black"/>
</g>
<defs>
<clipPath id="clip0_15_941">
<rect width="36" height="24" fill="white" transform="translate(0.679199)"/>
</clipPath>
</defs>
</svg>
