<svg width="37" height="24" viewBox="0 0 37 24" fill="none" xmlns="http://www.w3.org/2000/svg">
<g clip-path="url(#clip0_15_986)">
<path d="M0.679199 0H36.6792V24H0.679199V0Z" fill="#1E509C"/>
<path d="M36.6792 12.3579V5.70526L0.679199 24L36.6792 12.3579Z" fill="white"/>
<path d="M36.6792 0V5.70526L0.679199 24L36.6792 0Z" fill="#F18D36"/>
<path d="M9.57047 6.96842L9.0231 3.17193L8.48275 6.96842L7.0231 5.30526L7.77397 7.52281L5.56345 6.77193L7.21959 8.23158L3.4231 8.77193L7.21959 9.31228L5.56345 10.7719L7.77397 10.0211L7.0231 12.2386L8.48275 10.5754L9.0231 14.3719L9.57047 10.5754L11.0231 12.2386L10.2792 10.0211L12.4898 10.7719L10.8336 9.31228L14.6231 8.77193L10.8336 8.23158L12.4898 6.77193L10.2792 7.52281L11.0231 5.30526L9.57047 6.96842Z" fill="white"/>
</g>
<defs>
<clipPath id="clip0_15_986">
<rect width="36" height="24" fill="white" transform="translate(0.679199)"/>
</clipPath>
</defs>
</svg>
