<svg width="37" height="24" viewBox="0 0 37 24" fill="none" xmlns="http://www.w3.org/2000/svg">
<g clip-path="url(#clip0_15_961)">
<path d="M0.679199 0H36.6792V24.0003H0.679199V0Z" fill="#FFDA44"/>
<path d="M27.6704 23.9997L18.6792 11.7389L20.5655 23.9997H27.6704ZM10.0705 -0.000213623L18.6792 11.7389L16.8732 -0.000213623H10.0705ZM16.7928 23.9997L18.6792 11.7389L9.68792 23.9997H16.7928ZM0.679199 -0.000213623V8.96956L18.6792 11.7389L2.67136 -0.000213623H0.679199ZM0.679199 23.9997H1.95973L18.6792 11.7389L0.679199 14.5081V23.9997ZM18.6792 11.7389L36.6792 8.96956V-0.000213623H34.6872L18.6792 11.7389ZM20.4852 -0.000213623L18.6792 11.7389L27.2878 -0.000213623H20.4852ZM36.6792 23.9997V14.5081L18.6792 11.7389L35.3986 23.9997H36.6792Z" fill="#D80027"/>
<path d="M18.6792 15.9129C20.9842 15.9129 22.8529 14.0442 22.8529 11.7392C22.8529 9.43411 20.9842 7.56549 18.6792 7.56549C16.3741 7.56549 14.5055 9.43411 14.5055 11.7392C14.5055 14.0442 16.3741 15.9129 18.6792 15.9129Z" fill="#D80027"/>
<path d="M18.6792 14.8696C20.4081 14.8696 21.8096 13.4681 21.8096 11.7392C21.8096 10.0103 20.4081 8.60872 18.6792 8.60872C16.9503 8.60872 15.5487 10.0103 15.5487 11.7392C15.5487 13.4681 16.9503 14.8696 18.6792 14.8696Z" fill="#FFDA44"/>
</g>
<defs>
<clipPath id="clip0_15_961">
<rect width="36" height="24" fill="white" transform="translate(0.679199)"/>
</clipPath>
</defs>
</svg>
