<svg width="37" height="24" viewBox="0 0 37 24" fill="none" xmlns="http://www.w3.org/2000/svg">
<g clip-path="url(#clip0_15_1005)">
<path d="M0.905518 -0.000152588H36.9055V24.0001H0.905518V-0.000152588Z" fill="#00745A"/>
<path d="M20.9926 11.4993C20.6979 11.4993 20.4184 11.558 20.1586 11.6514C20.3008 11.3344 20.3962 10.9816 20.3962 10.6048C20.3962 9.11412 18.9055 7.99615 18.9055 7.99615C18.9055 7.99615 17.4148 9.11419 17.4148 10.6048C17.4148 10.9815 17.5101 11.3343 17.6524 11.6514C17.3927 11.558 17.113 11.4993 16.8184 11.4993C15.3277 11.4993 14.2097 12.99 14.2097 12.99C14.2097 12.99 15.3278 14.4807 16.8184 14.4807C17.6923 14.4807 18.4377 13.9684 18.9054 13.5444C19.373 13.9684 20.1184 14.4807 20.9924 14.4807C22.4831 14.4807 23.6011 12.99 23.6011 12.99C23.6011 12.99 22.4832 11.4993 20.9926 11.4993Z" fill="white"/>
<path d="M18.9055 4.69534L19.2134 5.64288H20.2098L19.4038 6.22872L19.7115 7.17625L18.9055 6.59055L18.0995 7.17625L18.4072 6.22872L17.6011 5.64288H18.5975L18.9055 4.69534ZM15.1165 6.35275L15.7089 6.88607L16.3992 6.48761L16.075 7.2157L16.6673 7.74923L15.8746 7.66591L15.5504 8.394L15.3846 7.61437L14.5918 7.53105L15.2821 7.13245L15.1165 6.35275ZM12.3427 9.12651L13.1224 9.29231L13.5209 8.60198L13.6043 9.39468L14.384 9.56048L13.6558 9.88462L13.7392 10.6773L13.2057 10.0851L12.4775 10.4092L12.8761 9.71889L12.3427 9.12651ZM22.6945 6.35275L22.1022 6.88607L21.4118 6.48761L21.736 7.2157L21.1437 7.74923L21.9364 7.66591L22.2606 8.394L22.4264 7.61437L23.2192 7.53105L22.5289 7.13245L22.6945 6.35275ZM25.4683 9.12651L24.6886 9.29231L24.29 8.60198L24.2066 9.39468L23.427 9.56048L24.1552 9.88462L24.0719 10.6773L24.6053 10.0851L25.3335 10.4092L24.9349 9.71889L25.4683 9.12651Z" fill="#FFDA44"/>
<path d="M18.9055 18.6546C20.0896 18.6546 21.1811 18.2595 22.0567 17.5947H15.7546C16.63 18.2595 17.7215 18.6546 18.9055 18.6546ZM14.1227 15.5241C14.2876 15.9007 14.4965 16.2564 14.7449 16.5839H23.0661C23.3146 16.2564 23.5234 15.9007 23.6883 15.5241H14.1227Z" fill="white"/>
</g>
<defs>
<clipPath id="clip0_15_1005">
<rect width="36" height="24" fill="white" transform="translate(0.905518)"/>
</clipPath>
</defs>
</svg>
