<svg width="37" height="24" viewBox="0 0 37 24" fill="none" xmlns="http://www.w3.org/2000/svg">
<g clip-path="url(#clip0_15_1036)">
<path d="M0.905518 0H36.9055V24H0.905518V0Z" fill="#0052B4"/>
<path d="M36.8353 10.414V13.5368H20.4353V23.9509H17.3055V13.5368H0.905518V10.414H17.3055V0H20.4353V10.414H36.8353Z" fill="white"/>
<path d="M7.99329 2.53333C8.28803 2.5193 8.57575 2.52631 8.87049 2.54737C9.25645 2.57544 9.53013 2.65965 9.50908 2.58245C9.47399 2.45614 9.50206 2.42807 9.45294 2.45614C9.36171 2.52631 9.50206 2.4421 8.93364 2.76491C8.10557 3.23509 7.74768 3.59298 7.93013 4.2386C8.09154 4.80702 8.50557 4.9614 9.49505 5.11579L9.62838 5.13684C10.0214 5.2 10.1968 5.23509 10.3161 5.29123C10.3442 5.30526 10.295 5.22105 10.3091 5.17193C10.295 5.21403 10.0354 5.3193 9.37575 5.44561L9.04592 5.50877C7.77575 5.76842 7.14417 6.10526 7.04592 6.98246C6.94066 7.94386 7.93715 8.61754 9.19329 8.77895C10.4705 8.94737 11.5863 8.52632 11.6986 7.48772C11.7687 6.82807 11.3126 6.43509 10.5828 6.28772C10.0915 6.18947 9.43891 6.18947 8.65996 6.26667C7.78978 6.35789 6.92663 6.50526 6.07049 6.70877C5.81785 6.75789 5.65645 7.00351 5.70557 7.25614C5.7547 7.50877 6.00031 7.67018 6.25294 7.62105C6.26698 7.62105 6.27399 7.61404 6.28803 7.61404C7.10206 7.42456 7.92312 7.28421 8.75119 7.2C9.44592 7.12982 10.0143 7.12982 10.3933 7.20702C10.7021 7.27017 10.7652 7.32632 10.7582 7.38947C10.7231 7.74737 10.1336 7.96491 9.30557 7.85965C8.49154 7.75439 7.93715 7.38246 7.96522 7.08772C8.00031 6.78596 8.33715 6.61053 9.22136 6.42807L9.54417 6.36491C10.6319 6.15439 11.0249 5.99298 11.1933 5.4386C11.3266 4.98246 11.1021 4.62456 10.688 4.4421C10.4635 4.34386 10.2459 4.29474 9.76171 4.22456L9.6354 4.20351C9.07399 4.11228 8.8354 4.02105 8.82838 3.99298C8.82136 3.96491 8.9547 3.83158 9.3968 3.57895L9.70557 3.40351C9.81084 3.34737 9.90908 3.27719 10.0073 3.21403C10.3301 2.97544 10.5126 2.71579 10.4143 2.35088C10.281 1.83859 9.78277 1.68421 8.94768 1.62105C8.61785 1.6 8.29505 1.59298 7.96522 1.6L7.82487 1.60702C7.56522 1.62105 7.36873 1.84561 7.38277 2.09824C7.3968 2.35789 7.62136 2.55438 7.87399 2.54035L7.99329 2.53333ZM27.9231 2.53333C28.2179 2.5193 28.5056 2.52631 28.8003 2.54737C29.1863 2.57544 29.46 2.65965 29.4389 2.58245C29.4038 2.45614 29.4319 2.42807 29.3828 2.45614C29.2915 2.52631 29.4319 2.4421 28.8635 2.76491C28.0354 3.23509 27.6775 3.59298 27.86 4.2386C28.0214 4.80702 28.4354 4.9614 29.4249 5.11579L29.5582 5.13684C29.9512 5.2 30.1266 5.23509 30.2459 5.29123C30.274 5.30526 30.2249 5.22105 30.2389 5.17193C30.2249 5.21403 29.9652 5.3193 29.3056 5.44561L28.9757 5.50877C27.7056 5.76842 27.074 6.10526 26.9757 6.98246C26.8705 7.94386 27.867 8.61754 29.1231 8.77895C30.4003 8.94737 31.5161 8.52632 31.6284 7.48772C31.6986 6.82807 31.2424 6.43509 30.5126 6.28772C30.0214 6.18947 29.3687 6.18947 28.5898 6.26667C27.7196 6.35789 26.8564 6.50526 26.0003 6.70877C25.7477 6.75789 25.5863 7.00351 25.6354 7.25614C25.6845 7.50877 25.9301 7.67018 26.1828 7.62105C26.1968 7.62105 26.2038 7.61404 26.2179 7.61404C27.0319 7.42456 27.8529 7.28421 28.681 7.2C29.3757 7.12982 29.9442 7.12982 30.3231 7.20702C30.6319 7.27017 30.695 7.32632 30.688 7.38947C30.6529 7.74737 30.0635 7.96491 29.2354 7.85965C28.4214 7.75439 27.867 7.38246 27.895 7.08772C27.9301 6.78596 28.267 6.61053 29.1512 6.42807L29.474 6.36491C30.5617 6.15439 30.9547 5.99298 31.1231 5.4386C31.2564 4.98246 31.0319 4.62456 30.6179 4.4421C30.3933 4.34386 30.1757 4.29474 29.6915 4.22456L29.5652 4.20351C29.0038 4.11228 28.7652 4.02105 28.7582 3.99298C28.7512 3.96491 28.8845 3.83158 29.3266 3.57895L29.6354 3.40351C29.7407 3.34737 29.8389 3.27719 29.9372 3.21403C30.26 2.97544 30.4424 2.71579 30.3442 2.35088C30.2108 1.83859 29.7126 1.68421 28.8775 1.62105C28.5477 1.6 28.2249 1.59298 27.895 1.6L27.7547 1.60702C27.495 1.62105 27.2986 1.84561 27.3126 2.09824C27.3266 2.35789 27.5512 2.55438 27.8038 2.54035L27.9231 2.53333ZM27.5442 16.4982C27.8389 16.4842 28.1266 16.4912 28.4214 16.5123C28.8073 16.5404 29.081 16.6246 29.06 16.5474C29.0249 16.4211 29.0529 16.393 29.0038 16.4211C28.9126 16.4912 29.0529 16.407 28.4845 16.7298C27.6564 17.2 27.2986 17.5579 27.481 18.2035C27.6424 18.7719 28.0564 18.9263 29.0459 19.0807L29.1793 19.1018C29.5722 19.1649 29.7477 19.2 29.867 19.2561C29.895 19.2702 29.8459 19.186 29.86 19.1368C29.8459 19.179 29.5863 19.2842 28.9266 19.4105L28.5968 19.4737C27.3266 19.7333 26.695 20.0702 26.5968 20.9474C26.4915 21.9088 27.488 22.5825 28.7442 22.7439C30.0214 22.9123 31.1371 22.4912 31.2494 21.4526C31.3196 20.793 30.8635 20.4 30.1336 20.2526C29.6424 20.1544 28.9898 20.1544 28.2108 20.2316C27.3407 20.3228 26.4775 20.4702 25.6214 20.6737C25.3687 20.7228 25.2073 20.9684 25.2564 21.2211C25.3056 21.4737 25.5512 21.6351 25.8038 21.586C25.8179 21.586 25.8249 21.579 25.8389 21.579C26.6529 21.3895 27.474 21.2491 28.3021 21.1649C28.9968 21.0947 29.5652 21.0947 29.9442 21.1719C30.2529 21.2351 30.3161 21.2912 30.3091 21.3544C30.274 21.7123 29.6845 21.9298 28.8564 21.8246C28.0424 21.7193 27.488 21.3474 27.5161 21.0526C27.5512 20.7509 27.888 20.5754 28.7722 20.393L29.095 20.3298C30.1828 20.1193 30.5757 19.9579 30.7442 19.4035C30.8775 18.9474 30.6529 18.5895 30.2389 18.407C30.0143 18.3088 29.7968 18.2597 29.3126 18.1895L29.1863 18.1684C28.6249 18.0772 28.3863 17.986 28.3793 17.9579C28.3722 17.9298 28.5056 17.7965 28.9477 17.5439L29.2564 17.3684C29.3617 17.3123 29.46 17.2421 29.5582 17.179C29.881 16.9404 30.0635 16.6807 29.9652 16.3158C29.8319 15.8035 29.3336 15.6491 28.4986 15.586C28.1687 15.5649 27.8459 15.5579 27.5161 15.5649L27.3757 15.5719C27.1161 15.586 26.9196 15.8105 26.9336 16.0632C26.9477 16.3158 27.1722 16.5193 27.4249 16.5053L27.5442 16.4982ZM7.99329 16.4982C8.28803 16.4842 8.57575 16.4912 8.87049 16.5123C9.25645 16.5404 9.53013 16.6246 9.50908 16.5474C9.47399 16.4211 9.50206 16.393 9.45294 16.4211C9.36171 16.4912 9.50206 16.407 8.93364 16.7298C8.10557 17.2 7.74768 17.5579 7.93013 18.2035C8.09154 18.7719 8.50557 18.9263 9.49505 19.0807L9.62838 19.1018C10.0214 19.1649 10.1968 19.2 10.3161 19.2561C10.3442 19.2702 10.295 19.186 10.3091 19.1368C10.295 19.179 10.0354 19.2842 9.37575 19.4105L9.04592 19.4737C7.77575 19.7333 7.14417 20.0702 7.04592 20.9474C6.94066 21.9088 7.93715 22.5825 9.19329 22.7439C10.4705 22.9123 11.5863 22.4912 11.6986 21.4526C11.7687 20.793 11.3126 20.4 10.5828 20.2526C10.0915 20.1544 9.43891 20.1544 8.65996 20.2316C7.78978 20.3228 6.92663 20.4702 6.07049 20.6737C5.81785 20.7228 5.65645 20.9684 5.70557 21.2211C5.7547 21.4737 6.00031 21.6351 6.25294 21.586C6.26698 21.586 6.27399 21.579 6.28803 21.579C7.10206 21.3895 7.92312 21.2491 8.75119 21.1649C9.44592 21.0947 10.0143 21.0947 10.3933 21.1719C10.7021 21.2351 10.7652 21.2912 10.7582 21.3544C10.7231 21.7123 10.1336 21.9298 9.30557 21.8246C8.49154 21.7193 7.93715 21.3474 7.96522 21.0526C8.00031 20.7509 8.33715 20.5754 9.22136 20.393L9.54417 20.3298C10.6319 20.1193 11.0249 19.9579 11.1933 19.4035C11.3266 18.9474 11.1021 18.5895 10.688 18.407C10.4635 18.3088 10.2459 18.2597 9.76171 18.1895L9.6354 18.1684C9.07399 18.0772 8.8354 17.986 8.82838 17.9579C8.82136 17.9298 8.9547 17.7965 9.3968 17.5439L9.70557 17.3684C9.81084 17.3123 9.90908 17.2421 10.0073 17.179C10.3301 16.9404 10.5126 16.6807 10.4143 16.3158C10.281 15.8035 9.78277 15.6491 8.94768 15.586C8.61785 15.5649 8.29505 15.5579 7.96522 15.5649L7.82487 15.5719C7.56522 15.586 7.36873 15.8105 7.38277 16.0632C7.3968 16.3228 7.62136 16.5193 7.87399 16.5053L7.99329 16.4982Z" fill="white"/>
</g>
<defs>
<clipPath id="clip0_15_1036">
<rect width="36" height="24" fill="white" transform="translate(0.905518)"/>
</clipPath>
</defs>
</svg>
