<svg width="37" height="24" viewBox="0 0 37 24" fill="none" xmlns="http://www.w3.org/2000/svg">
<g clip-path="url(#clip0_15_1093)">
<path d="M24.9055 0H0.905518V23.9509H36.9055V0H24.9055Z" fill="#DC2339"/>
<path d="M0.905518 0H12.9055V24H0.905518V0Z" fill="#11865D"/>
<path d="M12.9055 0H24.9055V24H12.9055V0Z" fill="white"/>
<path d="M14.6459 12.014C14.6459 13.5298 15.4529 14.9404 16.7722 15.6982C17.1792 15.9368 17.6985 15.7965 17.9371 15.3895C18.1757 14.9825 18.0353 14.4632 17.6283 14.2246C16.8353 13.7684 16.3511 12.9263 16.3511 12.014C16.3511 11.5439 15.9722 11.1649 15.502 11.1649C15.0318 11.1649 14.6459 11.5439 14.6459 12.014ZM21.2003 15.6C22.4283 14.8211 23.1652 13.4667 23.1652 12.014C23.1652 11.5439 22.7862 11.1649 22.3161 11.1649C21.8459 11.1649 21.4669 11.5439 21.4669 12.014C21.4669 12.8842 21.0248 13.6982 20.288 14.1684C19.888 14.414 19.7617 14.9333 20.0003 15.3404C20.2389 15.7474 20.7652 15.8667 21.1722 15.6281C21.1722 15.614 21.1862 15.607 21.2003 15.6Z" fill="#8C9157"/>
<path d="M18.9055 13.7193C19.8473 13.7193 20.6107 12.5757 20.6107 11.1649C20.6107 9.75416 19.8473 8.61052 18.9055 8.61052C17.9637 8.61052 17.2002 9.75416 17.2002 11.1649C17.2002 12.5757 17.9637 13.7193 18.9055 13.7193Z" fill="#C59262"/>
</g>
<defs>
<clipPath id="clip0_15_1093">
<rect width="36" height="24" fill="white" transform="translate(0.905518)"/>
</clipPath>
</defs>
</svg>
