<svg width="37" height="24" viewBox="0 0 37 24" fill="none" xmlns="http://www.w3.org/2000/svg">
<g clip-path="url(#clip0_15_1085)">
<path d="M0.905518 0.000282288H36.9055V23.9998H0.905518V0.000282288Z" fill="white"/>
<path d="M0.905518 0.000282288H36.9055V8.00009H0.905518V0.000282288ZM0.905518 16H36.9055V23.9998H0.905518V16Z" fill="#338AF3"/>
<path d="M18.9055 9.07834C17.2919 9.07834 15.9838 10.3864 15.9838 12C15.9838 13.6137 17.2918 14.9217 18.9055 14.9217C20.5191 14.9217 21.8272 13.6137 21.8272 12C21.8272 10.3864 20.5191 9.07834 18.9055 9.07834ZM18.9055 13.6696C17.9834 13.6696 17.2359 12.9221 17.2359 12C17.2359 11.078 17.9834 10.3305 18.9055 10.3305C19.8275 10.3305 20.575 11.078 20.575 12C20.575 12.9221 19.8275 13.6696 18.9055 13.6696Z" fill="#FFDA44"/>
<path d="M20.3513 12.4174L18.9055 12L17.4597 12.4174L16.9777 13.2522H20.8333L20.3513 12.4174Z" fill="#0052B4"/>
<path d="M18.9056 9.91316L17.9417 11.5827L18.9056 12L19.8695 11.5827L18.9056 9.91316Z" fill="#338AF3"/>
<path d="M17.4597 12.4174H20.3514L19.8695 11.5827H17.9416L17.4597 12.4174Z" fill="#6DA544"/>
</g>
<defs>
<clipPath id="clip0_15_1085">
<rect width="36" height="24" fill="white" transform="translate(0.905518)"/>
</clipPath>
</defs>
</svg>
