<svg width="36" height="24" viewBox="0 0 36 24" fill="none" xmlns="http://www.w3.org/2000/svg">
<rect width="36" height="24" fill="#6FA6FE"/>
<path d="M17.5474 4C16.4482 4 15.4115 4.21233 14.4373 4.637C13.463 5.04918 12.6137 5.61748 11.8893 6.34192C11.1648 7.06636 10.5965 7.91569 10.1844 8.88993C9.7597 9.86417 9.54736 10.9009 9.54736 12C9.54736 13.0991 9.7597 14.1358 10.1844 15.1101C10.5965 16.0843 11.1648 16.9336 11.8893 17.6581C12.6137 18.3825 13.463 18.9508 14.4373 19.363C15.4115 19.7877 16.4482 20 17.5474 20C18.6465 20 19.6832 19.7877 20.6574 19.363C21.6317 18.9508 22.481 18.3825 23.2054 17.6581C23.9299 16.9336 24.4982 16.0843 24.9104 15.1101C25.335 14.1358 25.5474 13.0991 25.5474 12C25.5474 10.9009 25.335 9.86417 24.9104 8.88993C24.4982 7.91569 23.9299 7.06636 23.2054 6.34192C22.481 5.61748 21.6317 5.04918 20.6574 4.637C19.6832 4.21233 18.6465 4 17.5474 4ZM11.1586 12C11.1586 11.6378 11.1867 11.2849 11.2429 10.9415C11.2991 10.598 11.3834 10.2639 11.4958 9.93911L14.3436 12.8056V14.3981L16.7417 16.7963V18.3326C15.9549 18.2326 15.2242 18.0016 14.5497 17.6393C13.8627 17.2771 13.2695 16.8119 12.7698 16.2436C12.2702 15.6753 11.8768 15.0289 11.5895 14.3044C11.3022 13.58 11.1586 12.8119 11.1586 12ZM22.6059 15.897C22.3436 15.6846 22.0376 15.516 21.6879 15.3911C21.3382 15.2662 21.0259 15.2037 20.7511 15.2037V14.3981C20.7511 13.961 20.595 13.5863 20.2827 13.274C19.9705 12.9617 19.5895 12.8056 19.1399 12.8056H15.9549V10.4075C16.392 10.4075 16.7667 10.2514 17.079 9.93911C17.3912 9.62685 17.5474 9.2459 17.5474 8.79625V8.00937H18.353C18.7901 8.00937 19.1648 7.85324 19.4771 7.54098C19.7894 7.22873 19.9455 6.84778 19.9455 6.39813V6.07962C20.5325 6.31694 21.0696 6.63544 21.5567 7.03513C22.0439 7.42233 22.4654 7.87197 22.8214 8.38407C23.1773 8.89618 23.4552 9.45823 23.6551 10.0703C23.8424 10.6823 23.9361 11.3255 23.9361 12C23.9361 12.7369 23.8175 13.4364 23.5801 14.0984C23.3428 14.7603 23.0181 15.3599 22.6059 15.897Z" fill="white"/>
</svg>
