<svg width="37" height="24" viewBox="0 0 37 24" fill="none" xmlns="http://www.w3.org/2000/svg">
<g clip-path="url(#clip0_15_1203)">
<path d="M0.131836 0H36.1318V24H0.131836V0Z" fill="#D80027"/>
<path d="M9.81604 0H36.2722V8H9.81604V0Z" fill="white"/>
<path d="M9.81604 16.1404H36.2722V24.1404H9.81604V16.1404Z" fill="#4A7C3A"/>
<path d="M2.95996 2.47017C2.95996 2.47017 5.56347 5.83859 6.52487 6.29473C7.48628 6.75087 7.72487 6.69473 7.72487 6.69473" stroke="white" stroke-width="10" stroke-miterlimit="2"/>
<path d="M5.09327 2.47017V4.58245M7.14941 2.47017C7.14941 2.47017 4.5459 5.65613 3.87222 6.14736C3.19853 6.63859 2.55994 6.69473 2.55994 6.69473L7.14941 2.47017ZM3.75994 4.58245H6.41959H3.75994Z" stroke="white" stroke-width="10" stroke-miterlimit="2"/>
</g>
<defs>
<clipPath id="clip0_15_1203">
<rect width="36" height="24" fill="white" transform="translate(0.131836)"/>
</clipPath>
</defs>
</svg>
