<svg width="36" height="24" viewBox="0 0 36 24" fill="none" xmlns="http://www.w3.org/2000/svg">
<g clip-path="url(#clip0_15_1233)">
<path d="M0 0H36V24.0003H0V0Z" fill="#0052B4"/>
<path d="M28.174 9.45627L27 9.84756L25.8261 9.45627L25.4348 8.47801L25.8261 7.49976H28.174L27.7826 8.47801L28.174 9.45627Z" fill="#ACABB1"/>
<path d="M24.2609 9.45627V13.7606C24.2609 15.8574 27 16.4998 27 16.4998C27 16.4998 29.7392 15.8573 29.7392 13.7606V9.45627H24.2609Z" fill="#338AF3"/>
<path d="M24.5078 14.7803C25.1811 16.073 27 16.4998 27 16.4998C27 16.4998 28.819 16.073 29.4923 14.7803L27 10.6302L24.5078 14.7803Z" fill="#6DA544"/>
<path d="M29.7392 13.7171L27 9.45627L24.2609 13.7171V13.7606C24.2609 14.1486 24.3549 14.4868 24.5078 14.7803L27 10.9035L29.4923 14.7803C29.6452 14.4868 29.7392 14.1487 29.7392 13.7606V13.7171Z" fill="#FFDA44"/>
<path d="M18 0V2.14826L14.8242 3.91304H18V8.08672H13.8443L18 10.3954V11.9998H16.1241L10.9565 9.12917V11.9998H7.04348V8.58446L0.896063 11.9998H0V9.85143L3.1758 8.08672H0V3.91304H4.15568L0 1.60355V0H1.87594L7.04348 2.87051V0H10.9565V3.41522L17.1039 0H18Z" fill="white"/>
<path d="M10.125 -0.000213623H7.875V4.8747H0V7.1247H7.875V11.9998H10.125V7.1247H18V4.8747H10.125V-0.000213623Z" fill="#D80027"/>
<path d="M10.9565 8.08673L18 11.9998V10.8933L12.9483 8.08673H10.9565Z" fill="#0052B4"/>
<path d="M10.9565 8.08673L18 11.9998V10.8933L12.9483 8.08673H10.9565Z" fill="white"/>
<path d="M10.9565 8.08673L18 11.9998V10.8933L12.9483 8.08673H10.9565ZM5.05167 8.08673L0 10.8933V11.9998L7.04348 8.08673H5.05167Z" fill="#D80027"/>
<path d="M7.04348 3.91282L0 -0.000213623V1.1063L5.05174 3.91282H7.04348Z" fill="#0052B4"/>
<path d="M7.04348 3.91282L0 -0.000213623V1.1063L5.05174 3.91282H7.04348Z" fill="white"/>
<path d="M7.04348 3.91282L0 -0.000213623V1.10629L5.05174 3.91282H7.04348ZM12.9483 3.91282L18 1.10629V-0.000213623L10.9565 3.91282H12.9483Z" fill="#D80027"/>
</g>
<defs>
<clipPath id="clip0_15_1233">
<rect width="36" height="24" fill="white"/>
</clipPath>
</defs>
</svg>
