<svg width="36" height="24" viewBox="0 0 36 24" fill="none" xmlns="http://www.w3.org/2000/svg">
<path d="M0 0.000289917H36V23.9998H0V0.000289917Z" fill="#D80027"/>
<path d="M13.8263 0.000289917V23.9998H0V0.000289917H13.8263Z" fill="#6DA544"/>
<path d="M13.8263 16.5C16.3116 16.5 18.3263 14.4853 18.3263 12C18.3263 9.51475 16.3116 7.50003 13.8263 7.50003C11.341 7.50003 9.32629 9.51475 9.32629 12C9.32629 14.4853 11.341 16.5 13.8263 16.5Z" fill="#FFDA44"/>
<path d="M11.2948 9.75003V12.5626C11.2948 13.9606 12.4281 15.0939 13.826 15.0939C15.224 15.0939 16.3573 13.9606 16.3573 12.5626V9.75003H11.2948Z" fill="#D80027"/>
<path d="M13.8261 13.4063C13.3608 13.4063 12.9823 13.0278 12.9823 12.5625V11.4375H14.6699V12.5625C14.6698 13.0277 14.2912 13.4063 13.8261 13.4063Z" fill="white"/>
</svg>
