<svg width="36" height="24" viewBox="0 0 36 24" fill="none" xmlns="http://www.w3.org/2000/svg">
<path d="M0 0.000282288H36V23.9998H0V0.000282288Z" fill="white"/>
<path d="M0 0.000282288H36V8.00009H0V0.000282288Z" fill="#D80027"/>
<path d="M0 16H36V23.9998H0V16Z" fill="#0052B4"/>
<path d="M20.361 9.23943L19.4756 10.1248C19.8532 10.5025 20.0868 11.0242 20.0868 11.6005C20.0868 12.7531 19.1525 13.6874 18 13.6874C16.8474 13.6874 15.9131 12.753 15.9131 11.6005C15.9131 11.0243 16.1467 10.5025 16.5243 10.1248L15.6389 9.23943C15.0347 9.84369 14.6609 10.6784 14.6609 11.6005C14.6609 13.4446 16.1558 14.9395 18 14.9395C19.8441 14.9395 21.339 13.4446 21.339 11.6005C21.339 10.6785 20.9652 9.84369 20.361 9.23943Z" fill="#6DA544"/>
<path d="M18 10.3484L18.3108 11.305H19.3166L18.5028 11.8962L18.8137 12.8527L18 12.2615L17.1862 12.8527L17.4971 11.8962L16.6833 11.305H17.6891L18 10.3484Z" fill="#FFDA44"/>
</svg>
