<svg width="36" height="24" viewBox="0 0 36 24" fill="none" xmlns="http://www.w3.org/2000/svg">
<g clip-path="url(#clip0_15_1297)">
<path d="M0 -0.000137329H36V24.0001H0V-0.000137329Z" fill="#338AF3"/>
<path d="M0 11.9996H36V17.7385H0V11.9996Z" fill="#FFDA44"/>
<path d="M0 17.7385H36V23.9994H0V17.7385Z" fill="#496E2D"/>
<path d="M19.5652 7.02254L21.0308 7.71189L20.2504 9.13122L21.8417 8.82676L22.0434 10.4345L23.1518 9.25208L24.2604 10.4345L24.462 8.82676L26.0533 9.13122L25.2729 7.71189L26.7385 7.02254L25.2729 6.33313L26.0533 4.91387L24.462 5.21825L24.2603 3.61063L23.1518 4.793L22.0433 3.61063L21.8417 5.21825L20.2502 4.91387L21.0307 6.33327L19.5652 7.02254Z" fill="#FFDA44"/>
</g>
<defs>
<clipPath id="clip0_15_1297">
<rect width="36" height="24" fill="white"/>
</clipPath>
</defs>
</svg>
