<svg width="37" height="24" viewBox="0 0 37 24" fill="none" xmlns="http://www.w3.org/2000/svg">
<g clip-path="url(#clip0_15_1302)">
<path d="M0.226562 0H36.2266V24H0.226562V0Z" fill="#055E1C"/>
<path d="M13.1323 14.3475C13.1323 15.212 13.8165 15.9127 14.6606 15.9127H19.2455C19.2455 16.633 19.8158 17.2171 20.5192 17.2171H22.0475C22.7509 17.2171 23.3211 16.6331 23.3211 15.9127V14.3475H13.1323ZM23.4483 6.78223V10.4344C23.4483 11.0098 22.9912 11.4778 22.4294 11.4778V13.0431C23.8339 13.0431 24.9765 11.8729 24.9765 10.4344V6.78223H23.4483ZM12.4955 10.4345C12.4955 11.0098 12.0384 11.4779 11.4766 11.4779V13.0431C12.8811 13.0431 14.0237 11.8729 14.0237 10.4345V6.7823H12.4954V10.4345H12.4955Z" fill="white"/>
<path d="M21.1559 6.78201H22.6842V10.4342H21.1559V6.78201ZM18.8634 8.86924C18.8634 9.0131 18.7492 9.1301 18.6087 9.1301C18.4682 9.1301 18.354 9.0131 18.354 8.86924V6.78222H16.8256V8.86924C16.8256 9.0131 16.7114 9.1301 16.5709 9.1301C16.4304 9.1301 16.3162 9.0131 16.3162 8.86924V6.78222H14.7878V8.86924C14.7878 9.87612 15.5877 10.6953 16.5708 10.6953C16.9495 10.6953 17.3007 10.5735 17.5897 10.3665C17.8787 10.5735 18.23 10.6953 18.6086 10.6953C18.6848 10.6953 18.7598 10.6898 18.8336 10.6802C18.7253 11.1372 18.3235 11.4779 17.8445 11.4779V13.0431C19.249 13.0431 20.3916 11.8729 20.3916 10.4345V6.78222H18.8633L18.8634 8.86924Z" fill="white"/>
<path d="M14.7878 11.4776H17.0801V13.0429H14.7878V11.4776Z" fill="white"/>
</g>
<defs>
<clipPath id="clip0_15_1302">
<rect width="36" height="24" fill="white" transform="translate(0.226562)"/>
</clipPath>
</defs>
</svg>
