<svg width="37" height="24" viewBox="0 0 37 24" fill="none" xmlns="http://www.w3.org/2000/svg">
<g clip-path="url(#clip0_15_1353)">
<path d="M0.226562 0.000289917H36.2266V23.9998H0.226562V0.000289917Z" fill="white"/>
<path d="M0.226562 8.0001H36.2266V15.9999H0.226562V8.0001Z" fill="#0052B4"/>
<path d="M0.226562 16H36.2266V23.9998H0.226562V16Z" fill="#D80027"/>
<path d="M16.652 7.82621V8.86943C16.652 11.2658 13.5215 11.9999 13.5215 11.9999C13.5215 11.9999 10.3911 11.2658 10.3911 8.86943V7.82621L10.3809 4.71923L16.6417 4.70053L16.652 7.82621Z" fill="white"/>
<path d="M16.652 7.82621V8.86943C16.652 11.2658 13.5215 11.9999 13.5215 11.9999C13.5215 11.9999 10.3911 11.2658 10.3911 8.86943V7.82621L10.3809 4.71923L16.6417 4.70053L16.652 7.82621Z" fill="#0052B4"/>
<path d="M16.652 7.82621V8.86943C16.652 11.2658 13.5216 11.9999 13.5216 11.9999C13.5216 11.9999 10.3911 11.2658 10.3911 8.86943V7.82621L11.4351 8.86943L13.5216 7.30421L15.6088 8.86943L16.652 7.82621Z" fill="white"/>
</g>
<defs>
<clipPath id="clip0_15_1353">
<rect width="36" height="24" fill="white" transform="translate(0.226562)"/>
</clipPath>
</defs>
</svg>
