<svg width="37" height="24" viewBox="0 0 37 24" fill="none" xmlns="http://www.w3.org/2000/svg">
<g clip-path="url(#clip0_15_1420)">
<path d="M0.452881 0.000274658H36.4529V23.9998H0.452881V0.000274658Z" fill="#FFDA44"/>
<path d="M0.452881 0.000274658H36.4529V8.00009H0.452881V0.000274658ZM0.452881 16H36.4529V23.9998H0.452881V16Z" fill="#6DA544"/>
<path d="M18.4529 12.0004L0.452881 24.0001V-0.000152588L18.4529 12.0004Z" fill="#D80027"/>
<path d="M21.6907 9.91302L22.2088 11.5073H23.8852L22.529 12.4928L23.0469 14.0871L21.6907 13.1016L20.3346 14.0871L20.8525 12.4928L19.4963 11.5073H21.1727L21.6907 9.91302ZM26.9081 9.91302L27.4261 11.5073H29.1025L27.7463 12.4928L28.2643 14.0871L26.9081 13.1016L25.5519 14.0871L26.0699 12.4928L24.7137 11.5073H26.3901L26.9081 9.91302Z" fill="black"/>
</g>
<defs>
<clipPath id="clip0_15_1420">
<rect width="36" height="24" fill="white" transform="translate(0.452881)"/>
</clipPath>
</defs>
</svg>
