<svg width="37" height="24" viewBox="0 0 37 24" fill="none" xmlns="http://www.w3.org/2000/svg">
<g clip-path="url(#clip0_15_1462)">
<path d="M0.452881 0H36.4529V24.0003H0.452881V0Z" fill="#0052B4"/>
<path d="M23.8007 7.49975V12.9997C23.8007 15.6788 27.4529 16.4998 27.4529 16.4998C27.4529 16.4998 31.1051 15.6789 31.1051 12.9997V7.49975H23.8007Z" fill="#FFDA44"/>
<path d="M26.9311 9.49972C26.9311 10.052 26.464 11.4998 25.8877 11.4998C25.3114 11.4998 24.8442 10.0521 24.8442 9.49972C24.8442 8.94734 25.8877 8.49973 25.8877 8.49973C25.8877 8.49973 26.9311 8.94741 26.9311 9.49972Z" fill="#FF9811"/>
<path d="M29.7001 10.5889C29.8685 10.1951 29.9995 9.6196 29.9995 9.33308C29.9995 8.87281 29.3734 8.49973 29.3734 8.49973C29.3734 8.49973 28.7473 8.87281 28.7473 9.33308C28.7473 9.6196 28.8783 10.1951 29.0467 10.5889L28.6852 11.3709C28.9046 11.4563 29.138 11.5 29.3734 11.4997C29.6169 11.4997 29.8491 11.4537 30.0616 11.3709L29.7001 10.5889Z" fill="#A2001D"/>
<path d="M26.6703 12.9997C26.6703 12.9997 26.1485 13.9997 26.1485 14.9997H28.7572C28.7572 13.9997 28.2354 12.9997 28.2354 12.9997L27.4528 12.4997L26.6703 12.9997Z" fill="#6DA544"/>
<path d="M28.2354 12.9997V12.7497C28.2354 12.3355 27.8851 11.9998 27.4529 11.9998C27.0207 11.9998 26.6703 12.3356 26.6703 12.7497V12.9997H28.2354Z" fill="#D80027"/>
<path d="M18.4529 0V2.14826L15.2771 3.91303H18.4529V8.08672H14.2972L18.4529 10.3954V11.9998H16.5769L11.4094 9.12917V11.9998H7.49637V8.58446L1.34894 11.9998H0.452881V9.85142L3.62869 8.08672H0.452881V3.91303H4.60856L0.452881 1.60355V0H2.32882L7.49637 2.87051V0H11.4094V3.41522L17.5568 0H18.4529Z" fill="white"/>
<path d="M10.5779 -0.000213623H8.32788V4.8747H0.452881V7.1247H8.32788V11.9997H10.5779V7.1247H18.4529V4.8747H10.5779V-0.000213623Z" fill="#D80027"/>
<path d="M11.4094 8.08672L18.4529 11.9998V10.8932L13.4012 8.08672H11.4094Z" fill="#0052B4"/>
<path d="M11.4094 8.08672L18.4529 11.9998V10.8932L13.4012 8.08672H11.4094Z" fill="white"/>
<path d="M11.4094 8.08672L18.4529 11.9998V10.8932L13.4011 8.08672H11.4094ZM5.50455 8.08672L0.452881 10.8932V11.9998L7.49637 8.08672H5.50455Z" fill="#D80027"/>
<path d="M7.49637 3.91282L0.452881 -0.000213623V1.1063L5.50462 3.91282H7.49637Z" fill="#0052B4"/>
<path d="M7.49637 3.91282L0.452881 -0.000213623V1.1063L5.50462 3.91282H7.49637Z" fill="white"/>
<path d="M7.49637 3.91282L0.452881 -0.000213623V1.1063L5.50462 3.91282H7.49637ZM13.4012 3.91282L18.4529 1.1063V-0.000213623L11.4094 3.91282H13.4012Z" fill="#D80027"/>
</g>
<defs>
<clipPath id="clip0_15_1462">
<rect width="36" height="24" fill="white" transform="translate(0.452881)"/>
</clipPath>
</defs>
</svg>
