<svg width="37" height="24" viewBox="0 0 37 24" fill="none" xmlns="http://www.w3.org/2000/svg">
<g clip-path="url(#clip0_15_1494)">
<path d="M0.452881 0.000286102H36.4529V23.9998H0.452881V0.000286102Z" fill="white"/>
<path d="M0.452881 0.000286102H36.4529V8.0001H0.452881V0.000286102Z" fill="#D80027"/>
<path d="M0.452881 16H36.4529V23.9998H0.452881V16Z" fill="#6DA544"/>
<path d="M16.3659 15.1305H20.5399V13.3565L19.7051 13.774L18.4529 12.5218L17.2007 13.774L16.3659 13.3565V15.1305ZM13.9778 13.0435L14.1721 13.6414H14.8007L14.2921 14.0109L14.4864 14.6087L13.9778 14.2392L13.4692 14.6087L13.6635 14.0109L13.1549 13.6414H13.7835L13.9778 13.0435ZM14.5801 10.9566L14.7744 11.5544H15.403L14.8944 11.9239L15.0887 12.5218L14.5801 12.1523L14.0715 12.5218L14.2658 11.9239L13.7572 11.5544H14.3858L14.5801 10.9566ZM16.302 9.39137L16.4962 9.98917H17.1248L16.6163 10.3587L16.8105 10.9566L16.302 10.587L15.7933 10.9566L15.9876 10.3587L15.479 9.98917H16.1076L16.302 9.39137ZM22.9279 13.0435L22.7336 13.6414H22.1051L22.6136 14.0109L22.4194 14.6087L22.9279 14.2392L23.4366 14.6087L23.2423 14.0109L23.7509 13.6414H23.1223L22.9279 13.0435ZM22.3256 10.9566L22.1314 11.5544H21.5028L22.0113 11.9239L21.8171 12.5218L22.3256 12.1523L22.8343 12.5218L22.64 11.9239L23.1486 11.5544H22.52L22.3256 10.9566ZM20.6038 9.39137L20.4095 9.98917H19.7809L20.2895 10.3587L20.0952 10.9566L20.6038 10.587L21.1125 10.9566L20.9182 10.3587L21.4268 9.98917H20.7982L20.6038 9.39137ZM18.4529 8.60865L18.6472 9.20652H19.2758L18.7672 9.57608L18.9615 10.1739L18.4529 9.80446L17.9443 10.1739L18.1386 9.57608L17.6299 9.20652H18.2586L18.4529 8.60865Z" fill="#FFDA44"/>
</g>
<defs>
<clipPath id="clip0_15_1494">
<rect width="36" height="24" fill="white" transform="translate(0.452881)"/>
</clipPath>
</defs>
</svg>
