<svg width="37" height="24" viewBox="0 0 37 24" fill="none" xmlns="http://www.w3.org/2000/svg">
<g clip-path="url(#clip0_15_1511)">
<path d="M0.679321 0.000274658H36.6793V23.9998H0.679321V0.000274658Z" fill="#496E2D"/>
<path d="M25.7955 6.91495C26.386 5.26935 25.7227 3.47961 24.2992 2.58819C24.5602 2.62197 24.8168 2.68376 25.0645 2.77248C26.9631 3.45367 27.95 5.54477 27.2688 7.44342C26.5876 9.34207 24.4965 10.3289 22.5979 9.64771C22.3502 9.55871 22.1129 9.44332 21.8899 9.30353C23.5553 9.52038 25.2051 8.56061 25.7955 6.91495ZM22.521 2.13721L22.0079 2.80004L21.219 2.51697L21.691 3.20968L21.178 3.87252L21.9826 3.63782L22.4545 4.33054L22.4799 3.49283L23.2845 3.25806L22.4956 2.97505L22.521 2.13721Z" fill="white"/>
<path d="M23.9062 4.29714L23.3932 4.95998L22.6042 4.6769L23.0762 5.36962L22.5632 6.03246L23.3678 5.79768L23.8397 6.49047L23.865 5.6527L24.6697 5.41785L23.8808 5.13492L23.9062 4.29714ZM20.0785 2.9238L19.5655 3.58663L18.7767 3.3037L19.2486 3.99635L18.7356 4.65911L19.5402 4.42441L20.0121 5.11713L20.0375 4.27935L20.8421 4.04472L20.0532 3.76157L20.0785 2.9238ZM20.0224 5.39803L19.5094 6.06086L18.7204 5.77778L19.1923 6.4705L18.6793 7.13334L19.484 6.89864L19.9558 7.59136L19.9813 6.75358L20.7859 6.51888L19.997 6.2358L20.0224 5.39803ZM22.3767 6.24269L21.8637 6.90553L21.0748 6.62245L21.5467 7.31524L21.0337 7.97801L21.8383 7.7433L22.3103 8.43602L22.3356 7.59825L23.1402 7.36354L22.3513 7.08054L22.3767 6.24269Z" fill="white"/>
<path d="M6.54889 0.000274658H12.8097V23.9998H6.54889V0.000274658Z" fill="#D80027"/>
<path d="M8.93811 6.31816L7.88989 5.53733V4.43307L8.93811 3.65225H10.4206L11.4688 4.43307V5.53733L10.4206 6.31816H8.93811Z" fill="white"/>
<path d="M9.67935 3.65225H8.93811L7.88989 4.43307V4.97293H9.67935V3.65225ZM9.67935 6.31816H10.4206L11.4688 5.53733V4.97399H9.67935V6.31816Z" fill="#FF9811"/>
<path d="M8.93811 20.3479L7.88989 19.567V18.4628L8.93811 17.682H10.4206L11.4688 18.4628V19.567L10.4206 20.3479H8.93811Z" fill="white"/>
<path d="M9.67935 17.682H8.93811L7.88989 18.4628V19.0027H9.67935V17.682ZM9.67935 20.3479H10.4206L11.4688 19.567V19.0037H9.67935V20.3479Z" fill="#FF9811"/>
<path d="M8.93806 13.333L7.88984 12.5521V11.448L8.93806 10.6671H10.4205L11.4687 11.448V12.5521L10.4205 13.333H8.93806ZM11.5054 15.051H11.0488V14.5944H10.2465L9.67923 14.0271L9.11202 14.5944H8.30975V15.051H7.85321V15.9641H8.30975V16.4205H9.11202L9.6793 16.9879L10.2466 16.4205H11.0488V15.9641H11.5054V15.051ZM11.5054 8.03603H11.0488V7.57956H10.2465L9.67923 7.01221L9.11202 7.57956H8.30975V8.03603H7.85321V8.94911H8.30975V9.40558H9.11202L9.6793 9.973L10.2466 9.40558H11.0488V8.94911H11.5054V8.03603Z" fill="#496E2D"/>
<path d="M9.15735 11.478H10.2008V12.5215H9.15735V11.478Z" fill="#D80027"/>
<path d="M9.67938 9.01413C9.96756 9.01413 10.2012 8.78052 10.2012 8.49234C10.2012 8.20416 9.96756 7.97055 9.67938 7.97055C9.39121 7.97055 9.15759 8.20416 9.15759 8.49234C9.15759 8.78052 9.39121 9.01413 9.67938 9.01413Z" fill="#D80027"/>
<path d="M9.67932 16.0295C9.9675 16.0295 10.2011 15.7959 10.2011 15.5077C10.2011 15.2195 9.9675 14.9859 9.67932 14.9859C9.39114 14.9859 9.15753 15.2195 9.15753 15.5077C9.15753 15.7959 9.39114 16.0295 9.67932 16.0295Z" fill="#D80027"/>
</g>
<defs>
<clipPath id="clip0_15_1511">
<rect width="36" height="24" fill="white" transform="translate(0.679321)"/>
</clipPath>
</defs>
</svg>
