<svg width="37" height="24" viewBox="0 0 37 24" fill="none" xmlns="http://www.w3.org/2000/svg">
<g clip-path="url(#clip0_15_1549)">
<path d="M0.679321 0H36.6793V24H0.679321V0Z" fill="#0052B4"/>
<path d="M0.679321 12H18.6793V0H36.6793V24H0.679321V12Z" fill="#00B2EE"/>
<path d="M14.4913 19.236L15.6673 22.86L12.5833 20.62H16.3993L13.3153 22.86L14.4913 19.236ZM28.9353 13.6L30.1113 17.224L27.0273 14.984H30.8393L27.7553 17.224L28.9353 13.6ZM33.1913 10.46L34.3673 14.084L31.2833 11.844H35.0953L32.0113 14.084L33.1913 10.46ZM33.1913 1.496L34.3673 5.12L31.2833 2.88H35.0953L32.0113 5.12L33.1913 1.496Z" fill="#FFDA44"/>
<path d="M18.6753 0V8.252H15.4353L18.6753 10.412V12H17.0873L11.9273 8.564V12H7.42732V8.564L2.26732 12H0.679321V10.412L3.91932 8.252H0.679321V3.752H3.91932L0.679321 1.596V0H2.26732L7.42732 3.436V0H11.9273V3.436L17.0873 0H18.6753Z" fill="white"/>
<path d="M10.8033 0H8.55132V4.88H0.679321V7.128H8.55132V12H10.8033V7.128H18.6753V4.88H10.8033V0Z" fill="#D80027"/>
<path d="M18.6753 1.59601V3.75201H15.4353L18.6753 1.59601Z" fill="#2E52B2"/>
<path d="M0.679321 12V11.228L5.07532 8.252H6.66332L1.19132 12H0.679321ZM1.19132 0.0039978L6.66332 3.752H5.07532L0.679321 0.775998V0.0039978H1.19132ZM18.6753 0.0079978V0.779998L14.2793 3.752H12.6913L18.1633 0.0079978H18.6753ZM18.1633 12L12.6913 8.252H14.2793L18.6753 11.228V12H18.1633Z" fill="#D80027"/>
<path d="M29.4753 5.26401L30.6513 8.88801L27.5673 6.64801H31.3793L28.2953 8.88801L29.4753 5.26401ZM24.0393 7.50801L25.2153 11.132L22.1313 8.89201H25.9433L22.8593 11.132L24.0393 7.50801ZM25.2393 17.224L26.4153 20.848L23.3313 18.608H27.1433L24.0593 20.848L25.2393 17.224ZM20.1993 13.28L21.3753 16.904L18.2913 14.664H22.1033L19.0193 16.904L20.1993 13.28ZM20.1993 18.56L21.3753 22.184L18.2913 19.944H22.1033L19.0193 22.184L20.1993 18.56Z" fill="#FFDA44"/>
</g>
<defs>
<clipPath id="clip0_15_1549">
<rect width="36" height="24" fill="white" transform="translate(0.679321)"/>
</clipPath>
</defs>
</svg>
