<svg width="37" height="24" viewBox="0 0 37 24" fill="none" xmlns="http://www.w3.org/2000/svg">
<g clip-path="url(#clip0_15_1566)">
<path d="M0.679321 0.000289917H36.6793V23.9998H0.679321V0.000289917Z" fill="#D80027"/>
<path d="M0.679321 0.000289917H18.6793V12H0.679321V0.000289917Z" fill="#0052B4"/>
<path d="M13.788 6.00019L12.1092 6.78987L13.0031 8.41585L11.1801 8.06703L10.9491 9.90866L9.67933 8.55423L8.40949 9.90866L8.17851 8.06703L6.35552 8.41578L7.24947 6.7898L5.57062 6.00019L7.24947 5.21051L6.35552 3.58454L8.17851 3.93329L8.40956 2.09166L9.67933 3.44609L10.9492 2.09166L11.1801 3.93329L13.0032 3.58454L12.1092 5.21051L13.788 6.00019Z" fill="white"/>
<path d="M9.67932 8.04003C10.8057 8.04003 11.7188 7.12692 11.7188 6.00055C11.7188 4.87417 10.8057 3.96106 9.67932 3.96106C8.55294 3.96106 7.63983 4.87417 7.63983 6.00055C7.63983 7.12692 8.55294 8.04003 9.67932 8.04003Z" fill="#0052B4"/>
<path d="M9.67935 7.36363C8.92757 7.36363 8.31592 6.75191 8.31592 6.0002C8.31592 5.24841 8.92764 4.63676 9.67935 4.63676C10.4311 4.63676 11.0428 5.24848 11.0428 6.0002C11.0428 6.75191 10.4311 7.36363 9.67935 7.36363Z" fill="white"/>
</g>
<defs>
<clipPath id="clip0_15_1566">
<rect width="36" height="24" fill="white" transform="translate(0.679321)"/>
</clipPath>
</defs>
</svg>
