<svg width="37" height="24" viewBox="0 0 37 24" fill="none" xmlns="http://www.w3.org/2000/svg">
<g clip-path="url(#clip0_15_1606)">
<path d="M0.679321 0H36.6793V24H0.679321V0Z" fill="white"/>
<path d="M0.679321 2.66667H36.6793V5.33334H0.679321V2.66667ZM0.679321 8.00001H36.6793V10.6667H0.679321V8.00001ZM0.679321 13.3333H36.6793V16H0.679321V13.3333ZM0.679321 18.6667H36.6793V21.3333H0.679321V18.6667Z" fill="#0038A8"/>
<path d="M0.679321 0H18.6793V13.3333H0.679321V0Z" fill="white"/>
<path d="M9.68282 9.73334L8.62317 11.3193L8.3565 9.43158L6.7144 10.4L7.28984 8.58246L5.38106 8.73685L6.68633 7.34737L4.91089 6.66667L6.69335 5.98597L5.38106 4.5965L7.28282 4.7579L6.70738 2.94036L8.34949 3.90878L8.62317 2.02106L9.68282 3.60702L10.7425 2.02106L11.0091 3.90878L12.6512 2.94036L12.0758 4.7579L13.9776 4.60351L12.6723 5.99299L14.4548 6.67369L12.6723 7.35439L13.9776 8.74386L12.0758 8.58948L12.6512 10.407L11.0091 9.4386L10.7355 11.3263L9.68282 9.73334ZM9.68282 9.69825C11.36 9.76141 12.7705 8.46316 12.8337 6.78597C12.8969 5.10878 11.5986 3.69825 9.92142 3.63509H9.68282C8.00563 3.69123 6.69335 5.09474 6.74949 6.76492C6.79159 8.36492 8.08282 9.64913 9.68282 9.69825ZM9.68282 8.95439C8.36352 8.95439 7.29685 7.88772 7.29685 6.56842C7.29685 5.24913 8.36352 4.18246 9.68282 4.18246C11.0021 4.18246 12.0688 5.24913 12.0688 6.56842C12.0688 7.88772 10.9951 8.95439 9.68282 8.95439Z" fill="#FED443"/>
</g>
<defs>
<clipPath id="clip0_15_1606">
<rect width="36" height="24" fill="white" transform="translate(0.679321)"/>
</clipPath>
</defs>
</svg>
