<svg width="37" height="24" viewBox="0 0 37 24" fill="none" xmlns="http://www.w3.org/2000/svg">
<g clip-path="url(#clip0_15_1631)">
<path d="M0.905762 -0.000152588H36.9058V23.9994H0.905762V-0.000152588Z" fill="#FFDA44"/>
<path d="M18.9058 -0.000152588H36.9058V24.0001H18.9058V-0.000152588Z" fill="white"/>
<path d="M23.5009 10.4417L25.756 13.4251C25.4007 13.963 25.4026 14.6879 25.8135 15.2315C26.3348 15.9211 27.3163 16.0576 28.0059 15.5363C28.6955 15.015 28.832 14.0335 28.3107 13.3438C27.8998 12.8003 27.2028 12.6008 26.5884 12.7958L23.0736 8.14606L22.2412 8.77528L20.9926 9.71916L22.2511 11.384L23.5009 10.4417ZM26.7476 13.8715C26.8022 13.8302 26.8645 13.8001 26.9308 13.7828C26.9971 13.7656 27.0662 13.7615 27.1341 13.771C27.2019 13.7804 27.2673 13.8031 27.3264 13.8378C27.3855 13.8725 27.4371 13.9185 27.4785 13.9731C27.5198 14.0278 27.5499 14.0901 27.5672 14.1564C27.5844 14.2227 27.5885 14.2918 27.579 14.3596C27.5696 14.4275 27.5469 14.4929 27.5122 14.5519C27.4775 14.611 27.4315 14.6627 27.3769 14.704C27.2665 14.7875 27.1274 14.8237 26.9904 14.8046C26.8533 14.7856 26.7294 14.7128 26.646 14.6024C26.5625 14.492 26.5263 14.353 26.5454 14.2159C26.5644 14.0789 26.6372 13.955 26.7476 13.8715Z" fill="#ACABB1"/>
<path d="M27.3691 11.3841L28.6276 9.71931L27.3789 8.77544L26.5466 8.14621L23.0318 12.7959C22.4173 12.6008 21.7204 12.8003 21.3095 13.344C20.7882 14.0336 20.9247 15.0152 21.6142 15.5365C22.3039 16.0578 23.2854 15.9213 23.8067 15.2317C24.2177 14.6881 24.2195 13.9632 23.8642 13.4252L26.1193 10.4418L27.3691 11.3841ZM22.9743 14.6024C22.8908 14.7128 22.7669 14.7855 22.6299 14.8046C22.4928 14.8236 22.3538 14.7874 22.2434 14.704C22.133 14.6205 22.0603 14.4966 22.0412 14.3596C22.0222 14.2225 22.0583 14.0835 22.1418 13.9731C22.1831 13.9184 22.2348 13.8724 22.2939 13.8377C22.353 13.8031 22.4183 13.7803 22.4862 13.7709C22.5541 13.7615 22.6231 13.7655 22.6894 13.7828C22.7558 13.8 22.818 13.8302 22.8727 13.8715C22.9273 13.9128 22.9733 13.9645 23.008 14.0236C23.0427 14.0827 23.0654 14.148 23.0749 14.2159C23.0843 14.2838 23.0803 14.3528 23.063 14.4191C23.0458 14.4855 23.0156 14.5477 22.9743 14.6024Z" fill="#FFDA44"/>
</g>
<defs>
<clipPath id="clip0_15_1631">
<rect width="36" height="24" fill="white" transform="translate(0.905762)"/>
</clipPath>
</defs>
</svg>
