<svg width="37" height="24" viewBox="0 0 37 24" fill="none" xmlns="http://www.w3.org/2000/svg">
<g clip-path="url(#clip0_15_1662)">
<path d="M0.905762 0.000289917H36.9058V23.9998H0.905762V0.000289917Z" fill="black"/>
<path d="M36.9058 12V23.9998H0.905762L16.036 12H36.9058Z" fill="#6DA544"/>
<path d="M36.9058 0.000289917V12H16.036L0.905762 0.000289917H36.9058Z" fill="#D80027"/>
<path d="M16.4449 10.8261L2.79492 0.000289917H1.53548L16.1723 11.6088H36.9058V10.8261H16.4449ZM1.53548 23.9998H2.79492L16.4449 13.174H36.9058V12.3913H16.1723L1.53548 23.9998ZM0.905762 0.49972V1.49858L14.1468 12L0.905762 22.5015V23.5003L15.4062 12L0.905762 0.49972Z" fill="black"/>
<path d="M1.53548 0.000289917H0.905762V0.49972L15.4062 12L0.905762 23.5003V23.9998H1.53548L16.1723 12.3913H36.9058V11.6088H16.1723L1.53548 0.000289917Z" fill="#FFDA44"/>
<path d="M5.38592 14.5582V13.553C6.38893 13.553 7.20491 12.737 7.20491 11.7341C7.20491 11.0245 6.62757 10.4472 5.91791 10.4472C5.43451 10.4472 5.04118 10.8404 5.04118 11.3239C5.04118 11.6331 5.29269 11.8846 5.60185 11.8846C5.68588 11.8845 5.76644 11.851 5.82586 11.7916C5.88528 11.7322 5.91871 11.6517 5.91882 11.5676H6.92394C6.92394 12.2966 6.33085 12.8898 5.60192 12.8898C4.73855 12.8896 4.03613 12.1871 4.03613 11.3238C4.03613 10.2862 4.88031 9.442 5.91798 9.442C7.18184 9.442 8.2101 10.4702 8.2101 11.7341C8.2101 13.2912 6.9432 14.5582 5.38592 14.5582Z" fill="#FFDA44"/>
</g>
<defs>
<clipPath id="clip0_15_1662">
<rect width="36" height="24" fill="white" transform="translate(0.905762)"/>
</clipPath>
</defs>
</svg>
