<svg width="37" height="24" viewBox="0 0 37 24" fill="none" xmlns="http://www.w3.org/2000/svg">
<g clip-path="url(#clip0_15_1670)">
<path d="M0.905762 -0.000152588H36.9058V24.0001H0.905762V-0.000152588Z" fill="#D80027"/>
<path d="M0.905762 -0.000152588H18.9058V11.9996H0.905762V-0.000152588Z" fill="#0052B4"/>
<path d="M12.5413 6.78214L12.7356 7.38008H13.3642L12.8557 7.7495L13.0499 8.34737L12.5413 7.97788L12.0327 8.34737L12.227 7.7495L11.7184 7.38008H12.347L12.5413 6.78214ZM9.38399 2.08646L9.70785 3.083H10.7555L9.90789 3.69872L10.2317 4.69512L9.38399 4.07933L8.53644 4.69512L8.86023 3.69872L8.01254 3.083H9.06027L9.38399 2.08646ZM12.5144 3.12997L12.8383 4.12644H13.886L13.0383 4.74216L13.3621 5.7387L12.5144 5.12276L11.6669 5.7387L11.9906 4.74216L11.143 4.12644H12.1907L12.5144 3.12997ZM10.04 7.30393L10.3639 8.3004H11.4115L10.5639 8.9162L10.8876 9.9126L10.04 9.29673L9.19246 9.9126L9.51618 8.9162L8.66856 8.3004H9.71622L10.04 7.30393ZM7.29711 4.69512L7.6209 5.69166H8.66856L7.82094 6.30739L8.14466 7.30393L7.29711 6.68799L6.4495 7.30393L6.77322 6.30739L5.9256 5.69166H6.97325L7.29711 4.69512Z" fill="white"/>
</g>
<defs>
<clipPath id="clip0_15_1670">
<rect width="36" height="24" fill="white" transform="translate(0.905762)"/>
</clipPath>
</defs>
</svg>
