<svg width="37" height="24" viewBox="0 0 37 24" fill="none" xmlns="http://www.w3.org/2000/svg">
<g clip-path="url(#clip0_15_1697)">
<path d="M0.905762 -0.000141144H36.9058V24.0001H0.905762V-0.000141144Z" fill="#496E2D"/>
<path d="M35.4059 7.74444H32.0309C32.0309 7.12316 31.5272 6.61944 30.9059 6.61944C30.2846 6.61944 29.7809 7.12316 29.7809 7.74444H26.4059C26.4059 8.36572 26.9471 8.86944 27.5684 8.86944H27.5309C27.5309 9.49072 28.0345 9.99444 28.6559 9.99444C28.6559 10.6157 29.1595 11.1194 29.7809 11.1194H32.0309C32.6522 11.1194 33.1559 10.6157 33.1559 9.99444C33.7772 9.99444 34.2809 9.49072 34.2809 8.86944H34.2434C34.8648 8.86944 35.4059 8.36572 35.4059 7.74444Z" fill="#FF9811"/>
<path d="M24.906 11.9996H28.9059V23.9994H24.906V11.9996Z" fill="#D80027"/>
<path d="M32.9058 11.9996H36.9058V23.9994H32.9058V11.9996Z" fill="#FF9811"/>
<path d="M28.9059 11.9996H32.9059V23.9994H28.9059V11.9996Z" fill="black"/>
</g>
<defs>
<clipPath id="clip0_15_1697">
<rect width="36" height="24" fill="white" transform="translate(0.905762)"/>
</clipPath>
</defs>
</svg>
