<svg width="24" height="24" viewBox="0 0 24 24" fill="none" xmlns="http://www.w3.org/2000/svg">
<path fill-rule="evenodd" clip-rule="evenodd" d="M14 21.5729H10V19.7729H14V21.5729Z" fill="#F8F3FB"/>
<path fill-rule="evenodd" clip-rule="evenodd" d="M5.09998 15.7729V11.6729C5.09998 7.86218 8.18921 4.77295 12 4.77295C15.8107 4.77295 18.9 7.86219 18.9 11.6729V15.7729H19C19.497 15.7729 19.9 16.1759 19.9 16.6729C19.9 17.17 19.497 17.5729 19 17.5729H4.99998C4.50292 17.5729 4.09998 17.17 4.09998 16.6729C4.09998 16.1759 4.50292 15.7729 4.99998 15.7729H5.09998ZM6.89998 11.6729C6.89998 8.8563 9.18332 6.57295 12 6.57295C14.8166 6.57295 17.1 8.8563 17.1 11.6729V15.7729H6.89998V11.6729Z" fill="#F8F3FB"/>
</svg>
