<svg width="24" height="24" viewBox="0 0 24 24" fill="none" xmlns="http://www.w3.org/2000/svg">
<path fill-rule="evenodd" clip-rule="evenodd" d="M9.20001 9V8.00019C9.20001 6.4538 10.4536 5.2002 12 5.2002H13C14.5464 5.2002 15.8 6.4538 15.8 8.0002V9H19C20.1046 9 21 9.89543 21 11V17C21 18.1046 20.1046 19 19 19H6C4.89543 19 4 18.1046 4 17V11C4 9.89543 4.89543 9 6 9H9.20001ZM10.8 8.00019C10.8 7.33745 11.3373 6.8002 12 6.8002H13C13.6628 6.8002 14.2 7.33745 14.2 8.0002V9H10.8V8.00019ZM6 10.6H19C19.2209 10.6 19.4 10.7791 19.4 11V17C19.4 17.2209 19.2209 17.4 19 17.4H17V15H15V17.4H10V15H8V17.4H6C5.77909 17.4 5.6 17.2209 5.6 17V11C5.6 10.7791 5.77909 10.6 6 10.6Z" fill="#F8F3FB"/>
</svg>
