<svg width="24" height="24" viewBox="0 0 24 24" fill="none" xmlns="http://www.w3.org/2000/svg">
<path d="M6 7C6 6.44772 6.44772 6 7 6H10C10.5523 6 11 6.44772 11 7V10C11 10.5523 10.5523 11 10 11H7C6.44772 11 6 10.5523 6 10V7Z" fill="#F8F3FB"/>
<path d="M6 14C6 13.4477 6.44772 13 7 13H10C10.5523 13 11 13.4477 11 14V17C11 17.5523 10.5523 18 10 18H7C6.44772 18 6 17.5523 6 17V14Z" fill="#F8F3FB"/>
<path d="M13 7C13 6.44772 13.4477 6 14 6H17C17.5523 6 18 6.44772 18 7V10C18 10.5523 17.5523 11 17 11H14C13.4477 11 13 10.5523 13 10V7Z" fill="#F8F3FB"/>
<path d="M13 14C13 13.4477 13.4477 13 14 13H17C17.5523 13 18 13.4477 18 14V17C18 17.5523 17.5523 18 17 18H14C13.4477 18 13 17.5523 13 17V14Z" fill="#F8F3FB"/>
</svg>
