<svg width="24" height="24" viewBox="0 0 24 24" fill="none" xmlns="http://www.w3.org/2000/svg">
<path d="M6.21912 16.3753C5.87411 16.8066 5.94403 17.4359 6.3753 17.7809C6.80656 18.1259 7.43585 18.056 7.78086 17.6247L12.2806 12L7.78086 6.37534C7.43585 5.94408 6.80656 5.87416 6.3753 6.21917C5.94403 6.56418 5.87411 7.19347 6.21912 7.62473L9.71937 12L6.21912 16.3753Z" fill="#F8F3FB"/>
<path d="M12.2191 16.3753C11.8741 16.8066 11.944 17.4359 12.3753 17.7809C12.8066 18.1259 13.4359 18.056 13.7809 17.6247L18.2806 12L13.7809 6.37534C13.4359 5.94408 12.8066 5.87416 12.3753 6.21917C11.944 6.56418 11.8741 7.19347 12.2191 7.62473L15.7194 12L12.2191 16.3753Z" fill="#F8F3FB"/>
</svg>
