<svg width="60" height="68" viewBox="0 0 60 68" fill="none" xmlns="http://www.w3.org/2000/svg">
<path d="M45.0955 51.6097C44.8405 51.7977 44.745 52.1366 44.872 52.4269L46.2404 55.556C46.4061 55.935 46.8736 56.0737 47.2129 55.8371C55.0204 50.3929 60.1289 41.346 60.1289 31.106C60.1289 14.4662 46.6397 0.977051 30 0.977051C13.3603 0.977051 -0.128906 14.4662 -0.128906 31.106C-0.128906 41.3459 4.97954 50.3927 12.787 55.837C13.1263 56.0735 13.5938 55.9349 13.7595 55.5559L15.1279 52.4267C15.2548 52.1364 15.1594 51.7976 14.9044 51.6095C8.6182 46.9736 4.54044 39.516 4.54044 31.106C4.54044 17.045 15.9391 5.6464 30 5.6464C44.0609 5.6464 55.4596 17.045 55.4596 31.106C55.4596 39.5161 51.3817 46.9738 45.0955 51.6097Z" fill="#E5EFFF"/>
<path d="M42.5791 45.0823C42.2506 45.3782 41.7355 45.2544 41.5583 44.8494L40.1251 41.5719C40.0146 41.3192 40.0721 41.0256 40.2618 40.8254C42.6619 38.2922 44.134 34.871 44.134 31.106C44.134 23.3001 37.806 16.9721 30.0001 16.9721C22.1941 16.9721 15.8661 23.3001 15.8661 31.106C15.8661 34.8709 17.3382 38.292 19.7381 40.8251C19.9278 41.0254 19.9853 41.319 19.8748 41.5717L18.4416 44.8492C18.2644 45.2542 17.7493 45.378 17.4208 45.0821C13.5993 41.6404 11.1968 36.6538 11.1968 31.106C11.1968 20.7212 19.6153 12.3027 30.0001 12.3027C40.3848 12.3027 48.8034 20.7212 48.8034 31.106C48.8034 36.6539 46.4007 41.6406 42.5791 45.0823Z" fill="#E5EFFF"/>
<path d="M37.2968 31.106C37.2968 34.3524 35.1767 37.1036 32.2455 38.0506L43.4232 67.6437L30.0001 63.0252L16.5771 67.6437L27.7547 38.0505C24.8236 37.1035 22.7036 34.3523 22.7036 31.106C22.7036 27.0762 25.9704 23.8094 30.0002 23.8094C34.03 23.8094 37.2968 27.0762 37.2968 31.106Z" fill="#E5EFFF"/>
</svg>
