<svg width="25" height="24" viewBox="0 0 25 24" fill="none" xmlns="http://www.w3.org/2000/svg">
<path d="M6.4643 7.33533C6.74044 7.33533 6.9643 7.11128 6.9643 6.8349V5.16669C6.9643 4.89031 6.74044 4.66626 6.4643 4.66626H4.84863C4.57249 4.66626 4.34863 4.89031 4.34863 5.16668V6.8349C4.34863 7.11128 4.57249 7.33533 4.84863 7.33533H6.4643Z" fill="#B6D2FF"/>
<path d="M20.1515 7.05734C20.4276 7.05734 20.6515 6.83329 20.6515 6.55692V5.44475C20.6515 5.16838 20.4276 4.94433 20.1515 4.94433H9.77301C9.49687 4.94433 9.27301 5.16838 9.27301 5.44475V6.55692C9.27301 6.83329 9.49687 7.05734 9.77301 7.05734H20.1515Z" fill="#B6D2FF"/>
<path d="M20.6515 12.5624C20.6515 12.8388 20.4276 13.0628 20.1515 13.0628H9.77301C9.49687 13.0628 9.27301 12.8388 9.27301 12.5624V11.4502C9.27301 11.1738 9.49687 10.9498 9.77301 10.9498H20.1515C20.4276 10.9498 20.6515 11.1738 20.6515 11.4502V12.5624Z" fill="#B6D2FF"/>
<path d="M6.4643 13.3408C6.74044 13.3408 6.9643 13.1167 6.9643 12.8404V11.1721C6.9643 10.8958 6.74044 10.6717 6.4643 10.6717H4.84863C4.57249 10.6717 4.34863 10.8958 4.34863 11.1721V12.8404C4.34863 13.1167 4.57249 13.3408 4.84863 13.3408H6.4643Z" fill="#B6D2FF"/>
<path d="M20.6515 18.5678C20.6515 18.8442 20.4276 19.0682 20.1515 19.0682H9.77301C9.49687 19.0682 9.27301 18.8442 9.27301 18.5678V17.4556C9.27301 17.1792 9.49687 16.9552 9.77301 16.9552H20.1515C20.4276 16.9552 20.6515 17.1792 20.6515 17.4556V18.5678Z" fill="#B6D2FF"/>
<path d="M6.4643 19.3463C6.74044 19.3463 6.9643 19.1222 6.9643 18.8458V17.1776C6.9643 16.9012 6.74044 16.6772 6.4643 16.6772H4.84863C4.57249 16.6772 4.34863 16.9012 4.34863 17.1776V18.8458C4.34863 19.1222 4.57249 19.3463 4.84863 19.3463H6.4643Z" fill="#B6D2FF"/>
</svg>
