<svg width="24" height="24" viewBox="0 0 24 24" fill="none" xmlns="http://www.w3.org/2000/svg">
<path fill-rule="evenodd" clip-rule="evenodd" d="M12 21C12 21 19 15.5 19 10.1093C19 6.18559 15.8634 3 12 3C8.13657 3 5 6.18559 5 10.1093C5 15.5 12 21 12 21ZM14.1313 16.4071C15.8393 14.4075 17.2 12.1157 17.2 10.1093C17.2 7.1533 14.8431 4.8 12 4.8C9.15688 4.8 6.8 7.1533 6.8 10.1093C6.8 12.1157 8.1607 14.4075 9.86869 16.4071C10.6312 17.2999 11.3983 18.0601 12 18.6168C12.6017 18.0601 13.3688 17.2999 14.1313 16.4071Z" fill="#F8F3FB"/>
<path d="M14 10C14 11.1046 13.1046 12 12 12C10.8954 12 10 11.1046 10 10C10 8.89543 10.8954 8 12 8C13.1046 8 14 8.89543 14 10Z" fill="#F8F3FB"/>
</svg>
