<svg width="24" height="24" viewBox="0 0 24 24" fill="none" xmlns="http://www.w3.org/2000/svg">
<path fill-rule="evenodd" clip-rule="evenodd" d="M11.6084 20.3503L11.6062 20.3487L11.6019 20.3454L11.5866 20.3338C11.5736 20.3239 11.5551 20.3096 11.5312 20.2911C11.4836 20.254 11.4149 20.2 11.3283 20.13C11.1552 19.9901 10.9098 19.7862 10.6163 19.5265C10.0301 19.0079 9.2473 18.263 8.46259 17.3581C6.91793 15.5769 5.25854 13.054 5.25854 10.3551C5.25854 6.59125 8.26953 3.51855 12 3.51855C15.7305 3.51855 18.7414 6.59125 18.7414 10.3551C18.7414 13.054 17.0821 15.5769 15.5374 17.3581C14.7527 18.263 13.9698 19.0079 13.3837 19.5265C13.0902 19.7862 12.8448 19.9901 12.6717 20.13C12.585 20.2 12.5164 20.254 12.4688 20.2911C12.4449 20.3096 12.4263 20.3239 12.4134 20.3338L12.3981 20.3454L12.3938 20.3487L12.3916 20.3503C12.1596 20.5244 11.8404 20.5244 11.6084 20.3503ZM12 13.19C13.618 13.19 14.9298 11.8783 14.9298 10.2602C14.9298 8.64209 13.618 7.33036 12 7.33036C10.3819 7.33036 9.07014 8.64209 9.07014 10.2602C9.07014 11.8783 10.3819 13.19 12 13.19Z" fill="#F8F3FB"/>
</svg>
