<svg width="24" height="24" viewBox="0 0 24 24" fill="none" xmlns="http://www.w3.org/2000/svg">
<path fill-rule="evenodd" clip-rule="evenodd" d="M11.5 4.9001C10.3402 4.9001 9.39998 5.8403 9.39998 7.0001V11.1001H13.6V7.0001C13.6 5.8403 12.6598 4.9001 11.5 4.9001ZM15.4 11.1001V7.0001C15.4 4.84619 13.6539 3.1001 11.5 3.1001C9.34607 3.1001 7.59998 4.84619 7.59998 7.0001V11.1001H5.09998V16.0001C5.09998 18.154 6.84607 19.9001 8.99998 19.9001H14C16.1539 19.9001 17.9 18.154 17.9 16.0001V11.1001H15.4ZM6.89998 12.9001V16.0001C6.89998 17.1599 7.84018 18.1001 8.99998 18.1001H14C15.1598 18.1001 16.1 17.1599 16.1 16.0001V12.9001H6.89998Z" fill="#F8F3FB"/>
<path d="M13 15.5001C13 16.3285 12.3284 17.0001 11.5 17.0001C10.6715 17.0001 9.99998 16.3285 9.99998 15.5001C9.99998 14.6717 10.6715 14.0001 11.5 14.0001C12.3284 14.0001 13 14.6717 13 15.5001Z" fill="#F8F3FB"/>
</svg>
