<svg width="24" height="24" viewBox="0 0 24 24" fill="none" xmlns="http://www.w3.org/2000/svg">
<path d="M14.7181 7.47209C14.9228 7.05578 15.4297 6.88016 15.8185 7.13322C16.8939 7.83317 17.7611 8.81867 18.3182 9.98653C18.9963 11.4083 19.175 13.0172 18.8255 14.5531C18.4761 16.089 17.6188 17.4621 16.3923 18.4505C15.1658 19.4389 13.6418 19.9847 12.0667 19.9997C10.4916 20.0147 8.95746 19.498 7.71236 18.5332C6.46726 17.5684 5.58396 16.2118 5.20529 14.6828C4.82662 13.1538 4.9747 11.5418 5.6256 10.1074C6.16027 8.92917 7.00854 7.92733 8.07042 7.20703C8.45435 6.9466 8.96455 7.11253 9.17714 7.52487C9.38973 7.93721 9.22265 8.43886 8.84887 8.71365C8.11869 9.25045 7.53378 9.96794 7.15546 10.8016C6.66077 11.8918 6.54823 13.1169 6.83602 14.2789C7.12381 15.441 7.79512 16.472 8.74139 17.2052C9.68767 17.9385 10.8536 18.3312 12.0507 18.3198C13.2478 18.3084 14.406 17.8935 15.3381 17.1424C16.2703 16.3912 16.9218 15.3476 17.1874 14.1803C17.453 13.013 17.3172 11.7903 16.8018 10.7098C16.4077 9.88341 15.8092 9.17719 15.0689 8.6544C14.69 8.38678 14.5134 7.88841 14.7181 7.47209Z" fill="#F8F3FB"/>
<path fill-rule="evenodd" clip-rule="evenodd" d="M12 4C12.5523 4 13 4.44772 13 5L13 13H11L11 5C11 4.44772 11.4477 4 12 4Z" fill="#F8F3FB"/>
</svg>
