<svg width="24" height="24" viewBox="0 0 24 24" fill="none" xmlns="http://www.w3.org/2000/svg">
<path fill-rule="evenodd" clip-rule="evenodd" d="M9.10273 4.20508H14.8989L17.8966 8.202H20.7946V16.9943C20.7946 18.5407 19.541 19.7943 17.9946 19.7943H6.00697C4.46057 19.7943 3.20697 18.5407 3.20697 16.9943V8.202H6.10504L9.10273 4.20508ZM9.90273 5.80508L6.90504 9.802H4.80697V16.9943C4.80697 17.657 5.34423 18.1943 6.00697 18.1943H17.9946C18.6574 18.1943 19.1946 17.657 19.1946 16.9943V9.802H17.0966L14.0989 5.80508H9.90273Z" fill="#F8F3FB"/>
<path fill-rule="evenodd" clip-rule="evenodd" d="M9.18366 9.95627C9.49608 9.64385 10.0026 9.64385 10.315 9.95627L12.1137 11.755L13.9124 9.95627C14.2248 9.64385 14.7314 9.64385 15.0438 9.95627C15.3562 10.2687 15.3562 10.7752 15.0438 11.0876L13.2451 12.8863L15.0438 14.685C15.3562 14.9974 15.3562 15.504 15.0438 15.8164C14.7314 16.1288 14.2248 16.1288 13.9124 15.8164L12.1137 14.0177L10.315 15.8164C10.0026 16.1288 9.49608 16.1288 9.18366 15.8164C8.87124 15.504 8.87124 14.9974 9.18366 14.685L10.9823 12.8863L9.18366 11.0876C8.87124 10.7752 8.87124 10.2687 9.18366 9.95627Z" fill="#F8F3FB"/>
</svg>
