<svg width="24" height="24" viewBox="0 0 24 24" fill="none" xmlns="http://www.w3.org/2000/svg">
<path fill-rule="evenodd" clip-rule="evenodd" d="M9.10001 4.19971H14.9L17.9 8.19971H20.8V16.9997C20.8 18.5461 19.5464 19.7997 18 19.7997H6.00001C4.45361 19.7997 3.20001 18.5461 3.20001 16.9997V8.19971H6.10001L9.10001 4.19971ZM9.90001 5.79971L6.90001 9.79971H4.80001V16.9997C4.80001 17.6624 5.33727 18.1997 6.00001 18.1997H18C18.6628 18.1997 19.2 17.6624 19.2 16.9997V9.79971H17.1L14.1 5.79971H9.90001Z" fill="#F8F3FB"/>
<path fill-rule="evenodd" clip-rule="evenodd" d="M12 15.1997C13.215 15.1997 14.2 14.2147 14.2 12.9997C14.2 11.7847 13.215 10.7997 12 10.7997C10.785 10.7997 9.80001 11.7847 9.80001 12.9997C9.80001 14.2147 10.785 15.1997 12 15.1997ZM12 16.9997C14.2092 16.9997 16 15.2088 16 12.9997C16 10.7906 14.2092 8.99971 12 8.99971C9.79087 8.99971 8.00001 10.7906 8.00001 12.9997C8.00001 15.2088 9.79087 16.9997 12 16.9997Z" fill="#F8F3FB"/>
</svg>
