<svg width="24" height="24" viewBox="0 0 24 24" fill="none" xmlns="http://www.w3.org/2000/svg">
<path fill-rule="evenodd" clip-rule="evenodd" d="M14.8438 5.59118C15.5272 4.90776 16.6352 4.90776 17.3186 5.59118L19.44 7.7125C20.1234 8.39591 20.1234 9.50395 19.44 10.1874L16.2315 13.3958C16.6418 14.7224 16.2855 16.1703 15.3005 17.1553L13.9599 18.4959L10.7779 15.3139L6.71204 19.3798C6.41915 19.6727 5.94427 19.6727 5.65138 19.3798C5.35849 19.0869 5.35849 18.612 5.65138 18.3191L9.71724 14.2532L6.53526 11.0713L7.87586 9.73065C8.86087 8.74564 10.3088 8.38934 11.6353 8.79965L14.8438 5.59118ZM16.258 6.65184C16.1603 6.55421 16.0021 6.55421 15.9044 6.65184L12.0411 10.5151L11.239 10.2478C10.4305 9.97826 9.53915 10.1887 8.93652 10.7913L8.65658 11.0713L13.9599 16.3746L14.2398 16.0946C14.8424 15.492 15.0529 14.6006 14.7834 13.7921L14.516 12.99L18.3793 9.12671C18.4769 9.02908 18.4769 8.87079 18.3793 8.77316L16.258 6.65184Z" fill="#F8F3FB"/>
</svg>
