<svg width="24" height="24" viewBox="0 0 24 24" fill="none" xmlns="http://www.w3.org/2000/svg">
<path d="M6.40001 12.0001C6.40001 8.9073 8.90721 6.4001 12 6.4001C13.6254 6.4001 15.09 7.09248 16.1137 8.2002H14.5C14.0582 8.2002 13.7 8.55837 13.7 9.0002C13.7 9.44202 14.0582 9.8002 14.5 9.8002H18.8V5.5002C18.8 5.05837 18.4418 4.7002 18 4.7002C17.5582 4.7002 17.2 5.05837 17.2 5.5002V6.73532C15.8641 5.41574 14.0277 4.6001 12 4.6001C7.9131 4.6001 4.60001 7.91319 4.60001 12.0001H6.40001Z" fill="#F8F3FB"/>
<path d="M17.6 12.0001C17.6 15.0929 15.0928 17.6001 12 17.6001C10.3747 17.6001 8.91017 16.9078 7.88648 15.8002H9.50001C9.94184 15.8002 10.3 15.442 10.3 15.0002C10.3 14.5584 9.94184 14.2002 9.50001 14.2002H5.20001V18.5002C5.20001 18.942 5.55818 19.3002 6.00001 19.3002C6.44184 19.3002 6.80001 18.942 6.80001 18.5002V17.2649C8.13594 18.5845 9.97235 19.4001 12 19.4001C16.0869 19.4001 19.4 16.087 19.4 12.0001H17.6Z" fill="#F8F3FB"/>
</svg>
