<svg width="25" height="24" viewBox="0 0 25 24" fill="none" xmlns="http://www.w3.org/2000/svg">
<path d="M5.24829 4.5H20.594C20.8702 4.5 21.094 4.72386 21.094 5V16.9682C21.094 17.2443 20.8702 17.4682 20.594 17.4682H8.83061V21.0117L4.8918 17.0067C4.79983 16.9132 4.74829 16.7872 4.74829 16.6561V11.8288H15.3706L14.0773 13.7659C13.9239 13.9956 13.9858 14.306 14.2155 14.4594L15.0471 15.0147C15.2768 15.168 15.5873 15.1061 15.7406 14.8765L18.4431 10.8288L15.7406 6.78119C15.5873 6.55153 15.2768 6.48966 15.0471 6.643L14.2155 7.19827C13.9858 7.35161 13.9239 7.66209 14.0773 7.89174L15.3706 9.82882H4.74829V5C4.74829 4.72386 4.97215 4.5 5.24829 4.5Z" fill="white"/>
</svg>
