<svg width="24" height="24" viewBox="0 0 24 24" fill="none" xmlns="http://www.w3.org/2000/svg">
<path d="M10.7 4V6.2H5.00001C4.55818 6.2 4.20001 6.55817 4.20001 7C4.20001 7.44183 4.55818 7.8 5.00001 7.8H18C18.4418 7.8 18.8 7.44183 18.8 7C18.8 6.55817 18.4418 6.2 18 6.2H12.3V4H10.7Z" fill="#F8F3FB"/>
<path d="M6.89451 9.90061C6.83962 9.4066 6.39464 9.05061 5.90062 9.1055C5.40661 9.1604 5.05063 9.60537 5.10552 10.0994L6.00668 18.2098C6.11359 19.172 6.92691 19.9 7.89506 19.9H15.105C16.0731 19.9 16.8864 19.172 16.9933 18.2098L17.8945 10.0994C17.9494 9.60537 17.5934 9.1604 17.0994 9.1055C16.6054 9.05061 16.1604 9.4066 16.1055 9.90061L15.2044 18.011C15.1987 18.0617 15.1559 18.1 15.105 18.1H13.8V10.0002C13.8 9.55837 13.4418 9.2002 13 9.2002C12.5582 9.2002 12.2 9.55837 12.2 10.0002V18.1H10.8V10.0002C10.8 9.55837 10.4418 9.2002 10 9.2002C9.55818 9.2002 9.20001 9.55837 9.20001 10.0002V18.1H7.89506C7.8441 18.1 7.80129 18.0617 7.79567 18.011L6.89451 9.90061Z" fill="#F8F3FB"/>
</svg>
