<svg width="24" height="24" viewBox="0 0 24 24" fill="none" xmlns="http://www.w3.org/2000/svg">
<path d="M17.7809 16.3753C18.1259 16.8066 18.056 17.4359 17.6247 17.7809C17.1934 18.1259 16.5641 18.056 16.2191 17.6247L11.7194 12L16.2191 6.37534C16.5641 5.94408 17.1934 5.87416 17.6247 6.21917C18.056 6.56418 18.1259 7.19347 17.7809 7.62473L14.2806 12L17.7809 16.3753Z" fill="#F8F3FB"/>
<path d="M11.7809 16.3753C12.1259 16.8066 12.056 17.4359 11.6247 17.7809C11.1934 18.1259 10.5641 18.056 10.2191 17.6247L5.71938 12L10.2191 6.37534C10.5641 5.94408 11.1934 5.87416 11.6247 6.21917C12.056 6.56418 12.1259 7.19347 11.7809 7.62473L8.28063 12L11.7809 16.3753Z" fill="#F8F3FB"/>
</svg>
