<svg width="25" height="24" viewBox="0 0 25 24" fill="none" xmlns="http://www.w3.org/2000/svg">
<path fill-rule="evenodd" clip-rule="evenodd" d="M20.606 4.5H5.26025C4.98411 4.5 4.76025 4.72386 4.76025 5V16.9682C4.76025 17.2443 4.98411 17.4682 5.26025 17.4682H16.8131V21.0117L20.9535 17.0081C21.051 16.9139 21.106 16.7842 21.106 16.6487V5C21.106 4.72386 20.8821 4.5 20.606 4.5ZM18.7909 8.06159C18.9904 7.8706 18.9972 7.55409 18.8062 7.35465L18.1146 6.63242C17.9236 6.43298 17.6071 6.42613 17.4076 6.61713L11.9807 11.8142L9.0076 8.98219C8.80765 8.79173 8.49116 8.79943 8.3007 8.99938L7.61099 9.72346C7.42053 9.92341 7.42822 10.2399 7.62817 10.4304L11.9844 14.5799L18.7909 8.06159Z" fill="#B6D2FF"/>
</svg>
