<svg width="25" height="24" viewBox="0 0 25 24" fill="none" xmlns="http://www.w3.org/2000/svg">
<path d="M18.9926 5.66033C19.197 5.84449 19.2151 6.15887 19.0332 6.3653L16.7421 8.96529L13.7603 6.27169L16.0417 3.68488C16.2265 3.47536 16.5468 3.45696 16.7543 3.64394L18.9926 5.66033Z" fill="white"/>
<path d="M12.6976 7.47674L15.6798 10.1708L8.25257 18.7099L4.60858 19.88C4.3799 19.9535 4.16145 19.7428 4.22649 19.5116L5.18468 16.1052L12.6976 7.47674Z" fill="white"/>
<path d="M12.7201 19.8947C12.9974 19.8947 13.2222 19.6699 13.2222 19.3926V18.3885C13.2222 18.1112 12.9974 17.8864 12.7201 17.8864H11.7544C11.4772 17.8864 11.2524 18.1112 11.2524 18.3885V19.3926C11.2524 19.6699 11.4772 19.8947 11.7544 19.8947H12.7201Z" fill="white"/>
<path d="M16.6982 19.8947C16.9755 19.8947 17.2002 19.6699 17.2002 19.3926V18.3885C17.2002 18.1112 16.9755 17.8864 16.6982 17.8864H15.7325C15.4553 17.8864 15.2305 18.1112 15.2305 18.3885V19.3926C15.2305 19.6699 15.4553 19.8947 15.7325 19.8947H16.6982Z" fill="white"/>
<path d="M21.1783 19.3926C21.1783 19.6699 20.9535 19.8947 20.6763 19.8947H19.7106C19.4333 19.8947 19.2086 19.6699 19.2086 19.3926V18.3885C19.2086 18.1112 19.4333 17.8864 19.7106 17.8864H20.6763C20.9535 17.8864 21.1783 18.1112 21.1783 18.3885V19.3926Z" fill="white"/>
</svg>
