<svg width="24" height="24" viewBox="0 0 24 24" fill="none" xmlns="http://www.w3.org/2000/svg">
<path fill-rule="evenodd" clip-rule="evenodd" d="M11.3161 3.69246L2.4339 19.1139C2.13084 19.6401 2.51062 20.2971 3.11782 20.2971H20.8823C21.4895 20.2971 21.8693 19.6401 21.5662 19.1139L12.684 3.69246C12.3804 3.16534 11.6197 3.16534 11.3161 3.69246ZM10.6863 9.00246C10.6721 8.72068 10.8968 8.48447 11.1789 8.48447H12.8206C13.103 8.48447 13.3277 8.72105 13.3132 9.00304L13.0456 14.2194C13.0321 14.4816 12.8155 14.6874 12.5529 14.6874H11.4405C11.1777 14.6874 10.961 14.4813 10.9478 14.2188L10.6863 9.00246ZM10.8092 16.6675C10.8092 16.3951 11.03 16.1742 11.3024 16.1742H12.6976C12.9701 16.1742 13.1909 16.3951 13.1909 16.6675V17.7549C13.1909 18.0273 12.9701 18.2482 12.6976 18.2482H11.3024C11.03 18.2482 10.8092 18.0273 10.8092 17.7549V16.6675Z" fill="#B6D2FF"/>
</svg>
