<svg width="24" height="24" viewBox="0 0 24 24" fill="none" xmlns="http://www.w3.org/2000/svg">
<path d="M13.2 15.3996C12.8686 15.8414 12.9582 16.4682 13.4 16.7996C13.8418 17.1309 14.4686 17.0414 14.8 16.5996L17.7921 12.6101C17.7978 12.6028 17.8033 12.5954 17.8088 12.5879L18.25 11.9996L17.8048 11.4059C17.8019 11.4021 17.7991 11.3983 17.7962 11.3945L14.8 7.39957C14.4686 6.95774 13.8418 6.8682 13.4 7.19957C12.9582 7.53094 12.8686 8.15774 13.2 8.59957L15 10.9996H7C6.44772 10.9996 6 11.4473 6 11.9996C6 12.5519 6.44772 12.9996 7 12.9996H15L13.2 15.3996Z" fill="#F8F3FB"/>
</svg>
