<svg width="24" height="24" viewBox="0 0 24 24" fill="none" xmlns="http://www.w3.org/2000/svg">
<path fill-rule="evenodd" clip-rule="evenodd" d="M12 2.93848L20.477 8.2366C20.8985 8.50004 21.0266 9.0553 20.7632 9.4768C20.4997 9.8983 19.9445 10.0264 19.523 9.763L12 5.06112L4.47697 9.763C4.05547 10.0264 3.50021 9.8983 3.23678 9.4768C2.97334 9.0553 3.10147 8.50004 3.52297 8.2366L12 2.93848Z" fill="#F8F3FB"/>
<path fill-rule="evenodd" clip-rule="evenodd" d="M5.99997 10.0998C6.49703 10.0998 6.89997 10.5027 6.89997 10.9998V15.9998C6.89997 16.4969 6.49703 16.8998 5.99997 16.8998C5.50292 16.8998 5.09997 16.4969 5.09997 15.9998V10.9998C5.09997 10.5027 5.50292 10.0998 5.99997 10.0998Z" fill="#F8F3FB"/>
<path fill-rule="evenodd" clip-rule="evenodd" d="M9.99997 10.0998C10.497 10.0998 10.9 10.5027 10.9 10.9998V15.9998C10.9 16.4969 10.497 16.8998 9.99997 16.8998C9.50292 16.8998 9.09997 16.4969 9.09997 15.9998V10.9998C9.09997 10.5027 9.50292 10.0998 9.99997 10.0998Z" fill="#F8F3FB"/>
<path fill-rule="evenodd" clip-rule="evenodd" d="M14 10.0998C14.497 10.0998 14.9 10.5027 14.9 10.9998V15.9998C14.9 16.4969 14.497 16.8998 14 16.8998C13.5029 16.8998 13.1 16.4969 13.1 15.9998V10.9998C13.1 10.5027 13.5029 10.0998 14 10.0998Z" fill="#F8F3FB"/>
<path fill-rule="evenodd" clip-rule="evenodd" d="M18 10.0998C18.497 10.0998 18.9 10.5027 18.9 10.9998V15.9998C18.9 16.4969 18.497 16.8998 18 16.8998C17.5029 16.8998 17.1 16.4969 17.1 15.9998V10.9998C17.1 10.5027 17.5029 10.0998 18 10.0998Z" fill="#F8F3FB"/>
<path fill-rule="evenodd" clip-rule="evenodd" d="M19.9 18.9998C19.9 19.4969 19.497 19.8998 19 19.8998H4.99997C4.50292 19.8998 4.09997 19.4969 4.09997 18.9998C4.09997 18.5027 4.50292 18.0998 4.99997 18.0998H19C19.497 18.0998 19.9 18.5027 19.9 18.9998Z" fill="#F8F3FB"/>
</svg>
