<svg width="24" height="24" viewBox="0 0 24 24" fill="none" xmlns="http://www.w3.org/2000/svg">
<path d="M6 7C6 6.44772 6.44772 6 7 6H8C8.55228 6 9 6.44772 9 7C9 7.55228 8.55228 8 8 8H7C6.44772 8 6 7.55228 6 7Z" fill="#F8F3FB"/>
<path d="M6 12C6 11.4477 6.44772 11 7 11H8C8.55228 11 9 11.4477 9 12C9 12.5523 8.55228 13 8 13H7C6.44772 13 6 12.5523 6 12Z" fill="#F8F3FB"/>
<path d="M6 17C6 16.4477 6.44772 16 7 16H8C8.55228 16 9 16.4477 9 17C9 17.5523 8.55228 18 8 18H7C6.44772 18 6 17.5523 6 17Z" fill="#F8F3FB"/>
<path d="M10 7C10 6.44772 10.4477 6 11 6H18C18.5523 6 19 6.44772 19 7C19 7.55228 18.5523 8 18 8H11C10.4477 8 10 7.55228 10 7Z" fill="#F8F3FB"/>
<path d="M10 12C10 11.4477 10.4477 11 11 11H18C18.5523 11 19 11.4477 19 12C19 12.5523 18.5523 13 18 13H11C10.4477 13 10 12.5523 10 12Z" fill="#F8F3FB"/>
<path d="M10 17C10 16.4477 10.4477 16 11 16H18C18.5523 16 19 16.4477 19 17C19 17.5523 18.5523 18 18 18H11C10.4477 18 10 17.5523 10 17Z" fill="#F8F3FB"/>
</svg>
