<svg width="25" height="24" viewBox="0 0 25 24" fill="none" xmlns="http://www.w3.org/2000/svg">
<path d="M15.7615 6.30748C14.7686 5.73862 13.6442 5.43934 12.5 5.43934V12L6.90714 15.4296C7.50532 16.4051 8.34823 17.2072 9.35219 17.7562C10.3561 18.3052 11.4862 18.5821 12.6303 18.5594C13.7743 18.5366 14.8925 18.2151 15.8739 17.6266C16.8553 17.0381 17.6656 16.2032 18.2246 15.2048C18.7836 14.2063 19.0717 13.079 19.0603 11.9348C19.0489 10.7906 18.7385 9.66927 18.1598 8.68212C17.5811 7.69496 16.7543 6.87633 15.7615 6.30748Z" fill="#B6D2FF"/>
<path fill-rule="evenodd" clip-rule="evenodd" d="M22 12C22 17.2467 17.7467 21.5 12.5 21.5C7.25329 21.5 3 17.2467 3 12C3 6.75329 7.25329 2.5 12.5 2.5C17.7467 2.5 22 6.75329 22 12ZM20.6429 12C20.6429 16.4972 16.9972 20.1429 12.5 20.1429C8.00282 20.1429 4.35714 16.4972 4.35714 12C4.35714 7.50282 8.00282 3.85714 12.5 3.85714C16.9972 3.85714 20.6429 7.50282 20.6429 12Z" fill="#B6D2FF"/>
</svg>
