<svg width="24" height="24" viewBox="0 0 24 24" fill="none" xmlns="http://www.w3.org/2000/svg">
<path d="M7 15.5C7 16.3284 6.32843 17 5.5 17C4.67157 17 4 16.3284 4 15.5C4 14.6716 4.67157 14 5.5 14C6.32843 14 7 14.6716 7 15.5Z" fill="#F8F3FB"/>
<path d="M13 15.5C13 16.3284 12.3284 17 11.5 17C10.6716 17 10 16.3284 10 15.5C10 14.6716 10.6716 14 11.5 14C12.3284 14 13 14.6716 13 15.5Z" fill="#F8F3FB"/>
<path d="M19 15.5C19 16.3284 18.3284 17 17.5 17C16.6716 17 16 16.3284 16 15.5C16 14.6716 16.6716 14 17.5 14C18.3284 14 19 14.6716 19 15.5Z" fill="#F8F3FB"/>
</svg>
