<svg width="24" height="24" viewBox="0 0 24 24" fill="none" xmlns="http://www.w3.org/2000/svg">
<path fill-rule="evenodd" clip-rule="evenodd" d="M12 9.96471C13.1501 9.96471 14.0824 9.0324 14.0824 7.88235C14.0824 6.7323 13.1501 5.8 12 5.8C10.85 5.8 9.91765 6.7323 9.91765 7.88235C9.91765 9.0324 10.85 9.96471 12 9.96471ZM12 11.7647C14.1442 11.7647 15.8824 10.0265 15.8824 7.88235C15.8824 5.73819 14.1442 4 12 4C9.85584 4 8.11765 5.73819 8.11765 7.88235C8.11765 10.0265 9.85584 11.7647 12 11.7647Z" fill="#F8F3FB"/>
<path fill-rule="evenodd" clip-rule="evenodd" d="M9.00001 14.9C7.84021 14.9 6.90001 15.8402 6.90001 17V18C6.90001 18.4971 6.49706 18.9 6.00001 18.9C5.50295 18.9 5.10001 18.4971 5.10001 18V17C5.10001 14.8461 6.8461 13.1 9.00001 13.1H15C17.1539 13.1 18.9 14.8461 18.9 17V18C18.9 18.4971 18.4971 18.9 18 18.9C17.5029 18.9 17.1 18.4971 17.1 18V17C17.1 15.8402 16.1598 14.9 15 14.9H9.00001Z" fill="#F8F3FB"/>
</svg>
