<svg width="36" height="24" viewBox="0 0 36 24" fill="none" xmlns="http://www.w3.org/2000/svg">
<path d="M0 0H36V24H0V0Z" fill="#00318B"/>
<path d="M31.9158 18.6231C32.473 17.8561 32.845 16.92 32.845 15.7867V7.36069C32.1164 7.90897 31.229 8.20485 30.3172 8.2035C28.939 8.2035 27.7158 7.54174 26.9467 6.51859C26.1783 7.54174 24.9544 8.2035 23.5762 8.2035C22.6274 8.2035 21.7523 7.88981 21.0485 7.36139V15.7867C21.0485 16.9207 21.4204 17.8568 21.9776 18.6231H31.9158Z" fill="white"/>
<path d="M21.7705 18.3144C23.3438 20.8393 26.9473 21.6842 26.9473 21.6842C26.9473 21.6842 30.5509 20.8393 32.1242 18.3144H21.7705Z" fill="#8DCCFF"/>
<path d="M27.8358 12.0849C27.8582 12.1846 28.4477 12.7986 29.068 13.4989C29.1656 13.6091 28.4547 14.3853 28.5831 14.3825C28.9165 14.374 29.9354 13.1712 29.9403 14.8491C29.9438 15.9677 27.8351 16.7796 27.8351 16.7796H29.061L29.1066 17.8295C29.1066 17.8295 29.4554 16.8933 29.6393 16.6667C30.2077 15.967 31.0554 14.5565 32.0666 14.7649C33.0779 14.9733 31.108 13.7881 31.108 13.7881C31.108 13.7881 30.7431 12.7221 29.941 12.5972C29.2351 12.487 28.9382 12.4211 28.0716 12.0849C27.9537 12.0393 27.7993 11.9221 27.8358 12.0849Z" fill="#D87B00"/>
<path d="M25.2414 13.9432C25.3165 13.8737 25.5544 13.0568 25.8512 12.1691C25.8982 12.0295 26.9256 12.2582 26.8582 12.1481C26.6849 11.8632 25.1333 11.581 26.5845 10.7389C27.5523 10.1775 29.3087 11.6 29.3087 11.6L28.6968 10.5375L29.5838 9.97403C29.5838 9.97403 28.5979 10.1389 28.3108 10.0926C27.421 9.94947 25.7754 9.91859 25.4512 8.93824C25.127 7.95789 25.0828 10.2568 25.0828 10.2568C25.0828 10.2568 24.3417 11.1046 24.6337 11.8625C24.8905 12.5291 24.9817 12.8196 25.1228 13.7382C25.1431 13.8639 25.1186 14.0561 25.2414 13.9432Z" fill="#D87B00"/>
<path d="M27.7663 15.4295C27.6687 15.3993 26.8428 15.6042 25.9263 15.793C25.7817 15.8225 25.4638 14.819 25.4021 14.9326C25.2428 15.2253 25.7782 16.7088 24.3207 15.8765C23.3494 15.3214 23.6968 13.0884 23.6968 13.0884L23.0856 14.1509L22.153 13.6667C22.153 13.6667 22.7908 14.4358 22.8947 14.7081C23.2175 15.5495 24.0175 16.9881 23.3326 17.76C22.6477 18.5326 24.6575 17.4161 24.6575 17.4161C24.6575 17.4161 25.7635 17.6316 26.2716 16.9979C26.7193 16.4407 26.9242 16.2161 27.6477 15.633C27.748 15.5544 27.9263 15.4793 27.7663 15.4295Z" fill="#D87B00"/>
<path d="M18 0H16.3789L11.2281 3.43158V0H6.73684V3.43158L1.58596 0H0V1.59298L3.23509 3.74737H0V8.2386H3.23509L0 10.393V12H1.58596L6.73684 8.54737V12H11.2281V8.54737L16.3789 12H18V10.393L14.7298 8.2386H18V3.74737H14.7298L18 1.59298V0Z" fill="white"/>
<path d="M10.1053 0H7.85965V4.87018H0V7.11579H7.85965V12H10.1053V7.11579H18V4.87018H10.1053V0Z" fill="#D80027"/>
<path d="M0 12V11.207L4.38596 8.2386H5.97193L0.512281 12H0ZM0.512281 0.00701904L5.97193 3.74035H4.38596L0 0.778949V0.00701904H0.512281ZM18 0.00701904V0.778949L13.5789 3.74737H11.993L17.4526 0.00701904H18ZM17.4526 12L11.993 8.2386H13.5789L18 11.207V12H17.4526Z" fill="#D80027"/>
</svg>
