<svg width="36" height="24" viewBox="0 0 36 24" fill="none" xmlns="http://www.w3.org/2000/svg">
<path d="M0 12H36V24H0V12Z" fill="black"/>
<path d="M0 0H36V12H0V0Z" fill="#D80027"/>
<path d="M23.3473 9.51579L24.5754 8.91228L24.0561 7.57894L22.7438 8.01403L23.3473 9.51579ZM20.1473 5.58596L20.5333 4.26666L19.1929 3.7614L18.6315 5.02456L20.1473 5.58596ZM22.2105 7.21403L23.0666 6.14035L22.021 5.16491L21.0245 6.11929L22.2105 7.21403ZM23.5719 12.0491L24.9403 11.993V10.4982L23.3333 10.5123L23.5719 12.0491ZM22.6877 14.7228L24.007 15.1088L24.5192 13.7754L23.2561 13.214L22.6877 14.7228ZM20.6526 16.9965L21.6982 17.8877L22.7087 16.8772L21.7894 15.8456L20.6526 16.9965ZM17.3543 6.63157L18.042 8.02807L19.5789 8.25965L18.4631 9.34736L18.7157 10.8842L17.3403 10.1544L15.9578 10.8702L16.2245 9.33333L15.1157 8.24561L16.6596 8.02807L17.3543 6.63157Z" fill="#FFDA44"/>
<path d="M17.6 4.30174L17.4105 5.58595C20.4351 5.81051 22.814 8.33683 22.814 11.4175C22.814 14.6456 20.1965 17.2351 16.9614 17.2702C14.9122 17.2912 13.3614 16.2316 12.2596 14.9052L11.2842 15.7684C12.3368 17.1017 14.1473 18.5684 16.9614 18.5684C20.9122 18.5684 24.1122 15.3684 24.1122 11.4175C24.1193 7.6842 21.2561 4.61753 17.6 4.30174Z" fill="#FFDA44"/>
<path d="M20.4842 15.6772L19.6561 16.6596C19.6561 16.6596 23.2982 19.3895 23.4175 19.4947C23.5368 19.6 23.7824 19.6351 24.0561 19.3053C24.3158 18.9895 24.2526 18.7368 24.1193 18.6246C23.9789 18.5193 20.4842 15.6772 20.4842 15.6772Z" fill="black"/>
<path d="M14.4631 11.0316C13.9228 11.7544 13.9368 12.6526 14.6596 13.2C14.6596 13.2 24.1473 20.3228 24.2666 20.4281C24.3859 20.5333 24.6315 20.5684 24.9052 20.2386C25.1649 19.9228 25.1017 19.6702 24.9684 19.5579C24.835 19.4526 14.4631 11.0316 14.4631 11.0316ZM17.8105 17.986L18.3228 19.2632L19.6912 18.8421L19.3543 17.5017L17.8105 17.986ZM14.9754 17.7263L14.835 19.0947L16.2456 19.3474L16.5614 18.007L14.9754 17.7263ZM12.4701 16.2386L11.7473 17.4035L12.8982 18.2526L13.7754 17.186L12.4701 16.2386Z" fill="#FFDA44"/>
</svg>
