<svg width="36" height="24" viewBox="0 0 36 24" fill="none" xmlns="http://www.w3.org/2000/svg">
<g clip-path="url(#clip0_15_119)">
<path d="M0 0H36V24H0V0Z" fill="#10338C"/>
<path d="M15.593 11.9789C15.614 11.9579 15.6281 11.9368 15.6491 11.9158C15.6351 11.9368 15.614 11.9579 15.593 11.9789ZM13.193 14.9193L13.9649 16.5263L15.6983 16.1263L14.9263 17.7263L16.3228 18.8351L14.5825 19.2281L14.5895 21.0105L13.193 19.8947L11.8035 21.0105L11.8105 19.2281L10.0702 18.8351L11.4667 17.7263L10.6877 16.1263L12.4281 16.5263L13.193 14.9193ZM27.0807 16.9193L27.4456 17.6842L28.2737 17.4947L27.9018 18.2596L28.5684 18.786L27.7404 18.9684V19.8246L27.0807 19.2912L26.414 19.8246L26.4211 18.9684L25.593 18.786L26.2597 18.2596L25.8877 17.4947L26.7158 17.6842L27.0807 16.9193ZM23.6702 8.77894L24.0351 9.54385L24.8632 9.35438L24.4912 10.1193L25.1579 10.6456L24.3298 10.8351V11.6842L23.6702 11.1509L23.0035 11.6842L23.0105 10.8351L22.1755 10.6456L22.8421 10.1193L22.4702 9.35438L23.2983 9.54385L23.6702 8.77894ZM27.0807 4.13333L27.4456 4.89824L28.2737 4.70877L27.9018 5.47368L28.5684 6L27.7404 6.18947V7.03859L27.0807 6.50526L26.414 7.03859L26.4211 6.18947L25.593 6L26.2597 5.47368L25.8877 4.70877L26.7158 4.89824L27.0807 4.13333ZM30.0632 7.62105L30.4281 8.38596L31.2562 8.19649L30.8842 8.9614L31.5509 9.48771L30.7228 9.67017V10.5263L30.0632 9.99298L29.3965 10.5263V9.67017L28.5684 9.48771L29.2351 8.9614L28.8632 8.19649L29.6912 8.38596L30.0632 7.62105ZM27.9298 11.6842L28.2176 12.5754H29.1509L28.393 13.1228L28.6877 14.014L27.9298 13.4596L27.1719 14.014L27.4597 13.1228L26.7088 12.5754H27.6421L27.9298 11.6842Z" fill="white"/>
<path d="M17.8807 0V2.14737L14.7158 3.90877H17.8807V8.07018H13.7333L17.8807 10.3719V11.9789H16.007L10.8491 9.10877V11.9789H6.94735V8.56842L0.814017 11.9789H-0.0842285V9.83158L3.0877 8.07018H-0.0842285V3.90877H4.06314L-0.0842285 1.6V0H1.78946L6.94735 2.86316V0H10.8491V3.41053L16.9895 0H17.8807Z" fill="white"/>
<path d="M10.021 0H7.77542V4.86316H-0.0842285V7.10877H7.77542V11.9789H10.021V7.10877H17.8807V4.86316H10.021V0Z" fill="#D80027"/>
<path d="M10.8491 8.07018L17.8807 11.9789V10.8702L12.8421 8.07018H10.8491Z" fill="#0052B4"/>
<path d="M10.8491 8.07018L17.8807 11.9789V10.8702L12.8421 8.07018H10.8491Z" fill="white"/>
<path d="M10.8491 8.07018L17.8807 11.9789V10.8702L12.8421 8.07018H10.8491ZM4.96139 8.07018L-0.0842285 10.8702V11.9789L6.94735 8.07018H4.96139Z" fill="#D80027"/>
<path d="M6.94735 3.90877L-0.0842285 0V1.10175L4.96138 3.90877H6.94735Z" fill="#0052B4"/>
<path d="M6.94735 3.90877L-0.0842285 0V1.10175L4.96138 3.90877H6.94735Z" fill="white"/>
<path d="M6.94735 3.90877L-0.0842285 0V1.10175L4.96139 3.90877H6.94735ZM12.8421 3.90877L17.8807 1.10175V0L10.8491 3.90877H12.8421Z" fill="#D80027"/>
</g>
<defs>
<clipPath id="clip0_15_119">
<rect width="36" height="24" fill="white"/>
</clipPath>
</defs>
</svg>
