<svg width="37" height="24" viewBox="0 0 37 24" fill="none" xmlns="http://www.w3.org/2000/svg">
<g clip-path="url(#clip0_15_205)">
<path d="M0.226318 0H36.2263V24H0.226318V0Z" fill="#D80027"/>
<path d="M15.3772 11.979L0.226318 22.0772V1.8807L15.3772 11.979ZM36.2263 1.8807V22.0772L21.0754 11.979L36.2263 1.8807Z" fill="#47A644"/>
<path d="M36.1561 1.8807L21.0053 11.9789L36.1561 22.0772V23.9509H33.3421L18.1912 13.8526L3.04035 23.9509H0.226318V22.0772L15.3772 11.9789L0.226318 1.8807V0H3.04035L18.1912 10.0982L33.3421 0H36.1561V1.8807Z" fill="#0052B4"/>
<path d="M36.2263 1.8807L21.0754 11.9789L36.2263 22.0772V24H33.4193L18.1912 13.8526L2.96316 24H0.226318V22.0772L15.3772 11.9789L0.226318 1.8807V0H3.04035L18.1912 10.0982L33.3421 0H36.2263V1.8807Z" fill="white"/>
<path d="M17.8824 19.0105C21.7658 19.0105 24.914 15.8624 24.914 11.9789C24.914 8.09551 21.7658 4.94737 17.8824 4.94737C13.999 4.94737 10.8508 8.09551 10.8508 11.9789C10.8508 15.8624 13.999 19.0105 17.8824 19.0105Z" fill="white"/>
<path d="M17.8685 7.27018L18.3878 8.17544H19.4264L18.9071 9.07368L19.4264 9.97193H18.3878L17.8685 10.8772L17.3492 9.97193H16.3106L16.8299 9.07368L16.3106 8.17544H17.3492L17.8685 7.27018ZM20.5913 11.9509L21.1106 12.8561H22.1492L21.6299 13.7544L22.1492 14.6526H21.1106L20.5913 15.5579L20.072 14.6526H19.0264L19.5457 13.7544L19.0264 12.8561H20.072L20.5913 11.9509ZM15.1737 11.9509L15.693 12.8561H16.7387L16.2194 13.7544L16.7387 14.6526H15.693L15.1737 15.5579L14.6544 14.6526H13.6158L14.1351 13.7544L13.6158 12.8561H14.6544L15.1737 11.9509Z" fill="#D80027" stroke="#47A644" stroke-width="3"/>
</g>
<defs>
<clipPath id="clip0_15_205">
<rect width="36" height="24" fill="white" transform="translate(0.226318)"/>
</clipPath>
</defs>
</svg>
