<svg width="37" height="24" viewBox="0 0 37 24" fill="none" xmlns="http://www.w3.org/2000/svg">
<g clip-path="url(#clip0_15_186)">
<path d="M0.226318 0H36.2263V24H0.226318V0Z" fill="#FFDA44"/>
<path d="M0.226318 13.6225L36.2263 22.5656V15.0653L0.226318 6.826V13.6225Z" fill="black"/>
<path d="M36.2263 16.4716V10.3775L0.226318 1.43509V7.52913" fill="white"/>
<path d="M21.77 9.42267C22.0509 9.94123 22.1977 10.5218 22.1968 11.1116C22.1968 12.6268 21.2469 13.9199 19.9103 14.4297V10.2453C20.311 10.1617 20.6134 9.79744 20.6134 9.36009C21.0985 9.36009 21.4923 8.95579 21.4923 8.45656H21.4628C21.9479 8.45656 22.3705 8.05226 22.3705 7.55304H19.9103V5.38458L18.8563 3.4362L17.8016 5.38458V7.55304H15.3414C15.3414 8.05226 15.7639 8.45656 16.2491 8.45656H16.2196C16.2196 8.95579 16.6133 9.36009 17.0985 9.36009C17.0985 9.79744 17.4001 10.1617 17.8009 10.2453V14.5605C16.2477 14.1815 15.0953 12.7815 15.0953 11.1116C15.0953 10.4999 15.25 9.9247 15.5221 9.42267C14.7514 10.2109 14.2761 11.2881 14.2761 12.4771C14.2761 14.8902 16.2322 16.847 18.646 16.847C21.0599 16.847 23.016 14.8902 23.016 12.4771C23.016 11.2881 22.54 10.2102 21.77 9.42267Z" fill="#D80027" stroke="#231F20" stroke-width="3" stroke-miterlimit="10"/>
<path d="M14.1805 15.9477C14.1805 15.9477 15.6353 17.8961 18.8563 17.8961C22.0773 17.8961 23.5321 15.9477 23.5321 15.9477L24.4792 17.9425C24.4792 17.9425 23.0005 19.8909 18.8563 19.8909C14.7121 19.8909 13.2334 17.9425 13.2334 17.9425L14.1805 15.9477ZM9.31348 9.3643H10.7816L12.5345 11.281V16.4455H10.6867V11.6382L9.31348 9.3643ZM28.3513 9.3643H26.8832L25.1303 11.281V16.4455H26.9774V11.6382L28.3513 9.3643Z" fill="#D80027" stroke="#231F20" stroke-width="3" stroke-miterlimit="10"/>
</g>
<defs>
<clipPath id="clip0_15_186">
<rect width="36" height="24" fill="white" transform="translate(0.226318)"/>
</clipPath>
</defs>
</svg>
