<svg width="37" height="24" viewBox="0 0 37 24" fill="none" xmlns="http://www.w3.org/2000/svg">
<g clip-path="url(#clip0_15_260)">
<path d="M0.452637 0H36.4526V24H0.452637V0Z" fill="#008000"/>
<path d="M30.1737 17.7486L30.6096 18.6487L31.58 18.4237L31.144 19.3238L31.9315 19.9426L30.9542 20.1676V21.1661L30.1737 20.5403L29.3932 21.1661V20.1676L28.4229 19.9426L29.2034 19.3238L28.7675 18.4237L29.7448 18.6487L30.1737 17.7486ZM26.8971 8.16408L27.3331 9.0712L28.3034 8.84618L27.8675 9.74627L28.655 10.3651L27.6776 10.5831V11.5886L26.8971 10.9628L26.1167 11.5886L26.1237 10.5831L25.1464 10.3651L25.9268 9.74627L25.4909 8.84618L26.4682 9.0712L26.8971 8.16408ZM29.4987 2.69324L29.9346 3.59332L30.905 3.3683L30.469 4.26839L31.2565 4.89423L30.2792 5.11222V6.11076L29.4987 5.48492L28.7182 6.11076L28.7253 5.11222L27.7479 4.89423L28.5284 4.26839L28.0925 3.3683L29.0698 3.59332L29.4987 2.69324ZM33.1409 6.79989L33.5768 7.69997L34.5542 7.47495L34.1112 8.37504L34.8987 9.00088L33.9214 9.21887L33.9284 10.2174L33.1409 9.59156L32.3604 10.2174L32.3675 9.21887L31.3901 9.00088L32.1776 8.37504L31.7346 7.47495L32.712 7.69997L33.1409 6.79989ZM31.1721 11.5886L31.5167 12.6294H32.6136L31.7276 13.2763L32.0651 14.3241L31.1721 13.6771L30.2862 14.3241L30.6237 13.2763L29.7378 12.6294H30.8346L31.1721 11.5886Z" fill="#FFDA44"/>
<path d="M22.0245 17.9103C18.5651 17.9103 15.7597 15.1046 15.7597 11.6449C15.7597 8.18518 18.5651 5.37944 22.0245 5.37944C23.1003 5.37944 24.1198 5.65368 25.0058 6.13185C23.6136 4.77469 21.7081 3.93789 19.6128 3.93789C15.3589 3.93789 11.9065 7.39057 11.9065 11.6449C11.9065 15.8992 15.3589 19.3589 19.6128 19.3589C21.7081 19.3589 23.6136 18.5221 24.9987 17.1579C24.1128 17.6361 23.1003 17.9103 22.0245 17.9103ZM10.3245 4.18401C9.57217 2.8831 8.16592 2.01114 6.55576 2.01114C4.94561 2.01114 3.54639 2.8831 2.79404 4.18401H10.3245ZM10.3386 4.21214L6.55576 7.99532L2.77998 4.21214C2.42139 4.84501 2.21045 5.57633 2.21045 6.36391C2.21045 8.76883 4.15811 10.7167 6.56279 10.7167C8.96748 10.7167 10.9151 8.76883 10.9151 6.36391C10.9081 5.57633 10.6972 4.84501 10.3386 4.21214Z" fill="#FFDA44"/>
<path d="M5.4729 6.90536V10.576C5.81743 10.6675 6.18306 10.7096 6.56274 10.7096C6.94243 10.7096 7.30103 10.6604 7.65259 10.576V6.90536H5.4729Z" fill="#A2001D"/>
</g>
<defs>
<clipPath id="clip0_15_260">
<rect width="36" height="24" fill="white" transform="translate(0.452637)"/>
</clipPath>
</defs>
</svg>
