<svg width="37" height="24" viewBox="0 0 37 24" fill="none" xmlns="http://www.w3.org/2000/svg">
<g clip-path="url(#clip0_15_339)">
<path d="M0.678955 0H36.679V24H0.678955V0Z" fill="#D80027"/>
<path d="M16.5947 16.786L15.914 15.6912L14.6579 16L15.493 15.0105L14.8123 13.9158L16.0123 14.4L16.8404 13.4105L16.7491 14.7018L17.9491 15.186L16.693 15.4948L16.5947 16.786ZM21.0719 5.7544L20.3632 6.8351L21.1772 7.83861L19.9351 7.50177L19.2263 8.58949L19.1561 7.29826L17.914 6.96142L19.1211 6.49826L19.0509 5.20703L19.8649 6.21054L21.0719 5.7544ZM17.2544 1.78247L17.114 3.06668L18.293 3.60001L17.0298 3.86668L16.8895 5.15089L16.2439 4.02808L14.9877 4.29475L15.8509 3.33335L15.2053 2.21756L16.3842 2.74387L17.2544 1.78247ZM21.2263 11.3544L20.1807 12.1193L20.5877 13.3474L19.5421 12.5895L18.4965 13.3614L18.8895 12.1263L17.8439 11.3755L19.1351 11.3684L19.5281 10.1333L19.9351 11.3614L21.2263 11.3544ZM8.74914 3.24914L9.96317 7.00352H13.907L10.7211 9.3123L11.9351 13.0667L8.74914 10.7509L5.55616 13.0667L6.77721 9.3123L3.58423 7.00352H7.5351L8.74914 3.24914Z" fill="#FFDA44"/>
</g>
<defs>
<clipPath id="clip0_15_339">
<rect width="36" height="24" fill="white" transform="translate(0.678955)"/>
</clipPath>
</defs>
</svg>
