<svg width="37" height="24" viewBox="0 0 37 24" fill="none" xmlns="http://www.w3.org/2000/svg">
<g clip-path="url(#clip0_15_376)">
<path d="M0.678955 0H36.679V24H0.678955V0Z" fill="#003893"/>
<path d="M0.678955 12.786H36.679V15.6912H0.678955V12.786Z" fill="#CF2027"/>
<path d="M0.678955 9.8807H36.679V12.786H0.678955V9.8807ZM0.678955 15.6912H36.679V18.5965H0.678955V15.6912Z" fill="white"/>
<path d="M11.2333 4.91228L11.7175 6.39298H13.2754L12.0123 7.31228L12.4965 8.79298L11.2333 7.87368L9.97719 8.79298L10.4544 7.31228L9.19824 6.39298H10.7561L11.2333 4.91228ZM11.2333 19.6281L11.7175 21.1088H13.2754L12.0123 22.021L12.4965 23.5088L11.2333 22.5895L9.97719 23.5088L10.4544 22.021L9.19824 21.1088H10.7561L11.2333 19.6281ZM4.38421 14.6526L4.86842 16.1333H6.42631L5.16316 17.0456L5.64737 18.5333L4.38421 17.614L3.12807 18.5333L3.60526 17.0456L2.34912 16.1333H3.90702L4.38421 14.6526ZM7.00175 6.38596L7.48596 7.86667H9.04386L7.7807 8.77895L8.26491 10.2667L7.00175 9.34737L5.74561 10.2667L6.2228 8.77895L4.95965 7.86667H6.52456L7.00175 6.38596ZM2.34912 11.3684H3.90702L4.38421 9.88772L4.86842 11.3684H6.42631L5.16316 12.2877L5.64737 13.7684L4.38421 12.8561L3.12807 13.7684L3.60526 12.2877L2.34912 11.3684ZM5.74561 21.8175L6.2228 20.3368L4.95965 19.4246H6.52456L7.00175 17.9368L7.48596 19.4246H9.04386L7.7807 20.3368L8.26491 21.8175L7.00175 20.9053L5.74561 21.8175ZM18.0825 14.6526L17.5982 16.1333H16.0403L17.3035 17.0456L16.8193 18.5333L18.0825 17.614L19.3456 18.5333L18.8614 17.0456L20.1246 16.1333H18.5667L18.0825 14.6526ZM15.4649 6.38596L14.9877 7.86667H13.4298L14.686 8.77895L14.2088 10.2667L15.4649 9.34737L16.7281 10.2667L16.2439 8.77895L17.507 7.86667H15.9491L15.4649 6.38596ZM20.1246 11.3684H18.5667L18.0825 9.88772L17.5982 11.3684H16.0403L17.3035 12.2877L16.8193 13.7684L18.0825 12.8561L19.3456 13.7684L18.8614 12.2877L20.1246 11.3684ZM16.7281 21.8175L16.2439 20.3368L17.507 19.4246H15.9491L15.4649 17.9368L14.9877 19.4246H13.4298L14.686 20.3368L14.2088 21.8175L15.4649 20.9053L16.7281 21.8175Z" fill="#F7D116" stroke="black"/>
</g>
<defs>
<clipPath id="clip0_15_376">
<rect width="36" height="24" fill="white" transform="translate(0.678955)"/>
</clipPath>
</defs>
</svg>
