<svg width="37" height="24" viewBox="0 0 37 24" fill="none" xmlns="http://www.w3.org/2000/svg">
<g clip-path="url(#clip0_15_350)">
<path d="M0.678955 0H36.679V24H0.678955V0Z" fill="#0021AD"/>
<path d="M0.678955 0H36.679V24" fill="#1C8A42"/>
<path d="M6.13516 19.1269L6.53594 19.9637L7.43594 19.7527L7.03516 20.5895L7.75938 21.1591L6.85938 21.363V22.2912L6.13516 21.7076L5.41797 22.2912V21.363L4.51797 21.1591L5.24219 20.5895L4.83438 19.7527L5.74141 19.9637L6.13516 19.1269ZM3.52656 12.1723L3.92734 13.0091L4.82734 12.7981L4.42656 13.6279L5.15078 14.2045L4.24375 14.4084L4.25078 15.3367L3.52656 14.753L2.80234 15.3367L2.80938 14.4084L1.90234 14.2045L2.63359 13.6279L2.22578 12.7981L3.12578 13.0091L3.52656 12.1723ZM6.13516 6.48344L6.53594 7.31321L7.43594 7.10929L7.03516 7.93906L7.75938 8.51567L6.85938 8.7196V9.64079L6.13516 9.06417L5.41797 9.64079V8.7196L4.51797 8.51567L5.24219 7.93906L4.83438 7.10929L5.74141 7.31321L6.13516 6.48344ZM9.37656 10.9065L9.77735 11.7433L10.6773 11.5324L10.2766 12.3692L11.0008 12.9388L10.1008 13.1427V14.0709L9.37656 13.4943L8.65938 14.0709V13.1427L7.75938 12.9388L8.4836 12.3692L8.08281 11.5324L8.98281 11.7433L9.37656 10.9065ZM7.06328 14.7038L7.37266 15.6672H8.39219L7.56953 16.2649L7.88594 17.2282L7.06328 16.6376L6.24063 17.2282L6.55703 16.2649L5.73438 15.6672H6.74688L7.06328 14.7038Z" fill="white"/>
<path d="M19.4595 17.2423C22.3525 17.2423 24.6978 14.8968 24.6978 12.0035C24.6978 9.11021 22.3525 6.76472 19.4595 6.76472C16.5665 6.76472 14.2212 9.11021 14.2212 12.0035C14.2212 14.8968 16.5665 17.2423 19.4595 17.2423Z" fill="#FFC639"/>
<path d="M19.4594 15.4914H21.2032C21.2032 15.4914 21.9625 14.1553 21.2032 12.8755L22.9469 11.1316L22.075 9.38763H21.2032C21.2032 9.38763 20.7672 10.6956 19.0235 10.6956C17.2797 10.6956 16.8438 9.38763 16.8438 9.38763H15.9719L16.8438 11.1316L15.9719 12.8755L16.8438 13.7474C16.8438 13.7474 17.7157 12.0035 19.4594 12.8755C19.4594 12.8755 20.1977 13.9654 19.4594 15.4914Z" fill="#1C8A42"/>
<path d="M33.3321 6.48345C33.3743 6.27952 33.3181 5.24583 33.3181 5.02784C33.3181 3.53003 32.3407 2.25725 30.9837 1.81424C31.3985 2.65807 31.6306 3.60035 31.6306 4.60592C31.6306 4.94345 31.6024 5.27395 31.5532 5.59742C31.3493 5.26692 31.0892 4.97158 30.7657 4.7114C29.5634 3.75505 27.911 3.72693 26.6946 4.5356C27.6368 4.73953 28.5438 5.16144 29.3454 5.80135C29.9782 6.30062 30.4845 6.98271 30.8712 7.63668C30.8712 7.63668 29.6196 8.40317 28.6915 8.69851C27.7634 8.99385 25.7173 9.25403 25.7173 9.25403C30.7798 10.0979 34.9985 6.72253 34.9985 6.72253C34.5415 5.78025 33.8876 6.44125 33.3321 6.48345Z" fill="#FFC639"/>
</g>
<defs>
<clipPath id="clip0_15_350">
<rect width="36" height="24" fill="white" transform="translate(0.678955)"/>
</clipPath>
</defs>
</svg>
