<svg width="37" height="24" viewBox="0 0 37 24" fill="none" xmlns="http://www.w3.org/2000/svg">
<g clip-path="url(#clip0_15_387)">
<path d="M0.678955 0H36.679V24H0.678955V0Z" fill="white"/>
<path d="M10.6228 10.8561C10.6228 10.8561 10.6369 15.5649 15.865 15.4386L16.1807 16.414H16.8053C16.8053 16.414 16.286 13.5298 21.0229 13.5018C21.0229 13.5018 21.0229 11.5649 22.9597 11.5649H25.872C25.872 11.5649 21.2404 7.92983 30.0053 3.28421L30.1316 2.36491C30.1316 2.36491 21.0158 7.34737 16.1737 6.37895C16.1737 6.37895 16.9246 9.36141 15.4158 9.36141C14.6579 9.36141 14.7351 8.79299 13.1492 8.79299C11.8369 8.79299 11.9351 10.1754 11.3036 10.1614C10.679 10.1474 9.98425 9.29825 9.92811 9.44562C9.87899 9.59299 10.6228 10.8561 10.6228 10.8561Z" fill="#DB7D00"/>
<path d="M17.3246 21.6211C17.8088 21.2702 18.2369 21.1579 18.8965 21.0386C19.5562 20.9193 20.2579 20.7298 20.6228 20.6316C20.9877 20.5333 19.3807 21.0947 18.9737 21.214C18.5667 21.3263 17.3246 21.6211 17.3246 21.6211ZM19.9842 20.5895C19.8509 19.7544 20.1807 18.8842 20.9316 18.5333C21.107 19.1368 20.5667 20.1614 19.9842 20.5895ZM21.2614 20.1544C20.8544 19.4667 21.5421 18.5684 22.0404 18.1333C22.272 18.5544 21.8649 19.7965 21.2614 20.1544ZM22.4474 19.6211C22.0123 19.0316 22.5246 17.993 23.0649 17.586C23.2825 18.1614 23.072 19.214 22.4474 19.6211ZM23.6334 18.8772C23.2404 18.3158 23.5141 17.4456 24.0755 16.8842C24.4825 17.3474 24.1386 18.3579 23.6334 18.8772ZM24.5807 18.1263C24.2509 17.6 24.6579 16.3439 25.1842 15.993C25.4158 16.4561 25.2404 17.7754 24.5807 18.1263ZM25.3386 17.9298C25.2404 17.1719 26.5597 16.3368 27.107 16.3579C27.0439 16.9825 26.4825 17.6632 25.3386 17.9298ZM24.6018 18.786C25.2193 18.1474 26.4263 18.1474 26.8544 18.2807C26.7351 18.6526 25.3176 19.4667 24.6018 18.786Z" fill="#006651"/>
<path d="M23.7456 19.4246C24.6158 19.193 25.1842 18.9965 25.7035 19.5439C25.3386 20.007 23.921 19.8737 23.7456 19.4246ZM22.5035 19.986C23.3386 19.5368 24.3491 20.1965 24.5035 20.5895C23.5702 20.9754 22.4895 20.0842 22.5035 19.986ZM21.3596 20.6316C22.1175 20.3439 22.9877 20.7298 23.3386 21.1579C22.9316 21.3474 21.8649 21.5579 21.3596 20.6316ZM20.314 20.9614C21.1842 20.8632 22.0263 21.5228 22.2087 21.9017C21.093 22.007 20.6649 21.6772 20.314 20.9614ZM20.0333 21.621C19.5491 21.2702 19.121 21.1579 18.4614 21.0386C17.8017 20.9193 17.1 20.7298 16.7351 20.6316C16.3631 20.5333 17.9772 21.0947 18.3842 21.214C18.7912 21.3263 20.0333 21.621 20.0333 21.621ZM17.3737 20.5895C17.507 19.7544 17.1772 18.8842 16.4263 18.5333C16.2509 19.1368 16.7912 20.1614 17.3737 20.5895ZM16.0965 20.1544C16.5035 19.4667 15.8158 18.5684 15.3175 18.1333C15.0859 18.5544 15.493 19.7965 16.0965 20.1544ZM14.9105 19.621C15.3456 19.0316 14.8333 17.993 14.293 17.586C14.0754 18.1614 14.2859 19.214 14.9105 19.621ZM13.7245 18.8772C14.1175 18.3158 13.8438 17.4456 13.2824 16.8842C12.8754 17.3474 13.2193 18.3579 13.7245 18.8772ZM12.7772 18.1263C13.107 17.6 12.7 16.3439 12.1737 15.993C11.9421 16.4561 12.1175 17.7754 12.7772 18.1263ZM12.0193 17.9298C12.1175 17.1719 10.7982 16.3368 10.2509 16.3579C10.314 16.9825 10.8754 17.6632 12.0193 17.9298ZM12.7561 18.786C12.1386 18.1474 10.9316 18.1474 10.5035 18.2807C10.6228 18.6526 12.0403 19.4667 12.7561 18.786Z" fill="#006651"/>
<path d="M13.6123 19.4246C12.7421 19.193 12.1737 18.9965 11.6544 19.5439C12.0193 20.007 13.4369 19.8737 13.6123 19.4246ZM14.8544 19.986C14.0193 19.5368 13.0088 20.1965 12.8544 20.5895C13.7878 20.9754 14.8685 20.0842 14.8544 19.986ZM15.9983 20.6316C15.2404 20.3439 14.3702 20.7298 14.0193 21.1579C14.4263 21.3474 15.493 21.5579 15.9983 20.6316ZM17.0439 20.9614C16.1737 20.8632 15.3316 21.5228 15.1492 21.9018C16.2649 22.007 16.693 21.6772 17.0439 20.9614Z" fill="#006651"/>
</g>
<defs>
<clipPath id="clip0_15_387">
<rect width="36" height="24" fill="white" transform="translate(0.678955)"/>
</clipPath>
</defs>
</svg>
