<svg width="37" height="24" viewBox="0 0 37 24" fill="none" xmlns="http://www.w3.org/2000/svg">
<g clip-path="url(#clip0_15_420)">
<path d="M0.905273 0H36.9053V24H0.905273V0Z" fill="#41662E"/>
<path d="M18.9053 0H36.9053V24H18.9053V0Z" fill="white"/>
<path d="M24.9169 7.40463L22.8497 10.2455L19.5099 9.16262L21.5771 12.0035L19.5099 14.8444L22.8497 13.7615L24.9169 16.6024V13.0864L28.2568 11.9965L24.9169 10.9136V7.40463Z" fill="#D80027"/>
<path d="M22.6951 19.4574C18.5818 19.4574 15.242 16.1172 15.242 12.0035C15.242 7.88984 18.5818 4.54967 22.6951 4.54967C23.9818 4.54967 25.1842 4.87314 26.2388 5.44272C24.5865 3.82538 22.3224 2.82684 19.8263 2.82684C14.7638 2.82684 10.6576 6.9335 10.6576 11.9965C10.6576 17.0595 14.7638 21.1661 19.8263 21.1661C22.3224 21.1661 24.5865 20.1676 26.2388 18.5503C25.1912 19.1269 23.9818 19.4574 22.6951 19.4574Z" fill="#D80027"/>
</g>
<defs>
<clipPath id="clip0_15_420">
<rect width="36" height="24" fill="white" transform="translate(0.905273)"/>
</clipPath>
</defs>
</svg>
