<svg width="37" height="24" viewBox="0 0 37 24" fill="none" xmlns="http://www.w3.org/2000/svg">
<g clip-path="url(#clip0_15_439)">
<path d="M0.905273 0H36.9053V24H0.905273V0Z" fill="white"/>
<path d="M0.905273 0H36.9053V8.00235H0.905273V0Z" fill="black"/>
<path d="M0.905273 16.0047H36.9053V24.007H0.905273V16.0047Z" fill="#428823"/>
<path d="M18.9053 12.0035L0.905273 24V0L18.9053 12.0035ZM22.6389 12.0035C22.6389 10.3932 23.56 9.04307 25.0717 8.71257C24.8396 8.66335 24.6006 8.63522 24.3475 8.63522C22.4912 8.63522 20.9795 10.1401 20.9795 12.0035C20.9795 13.867 22.4842 15.3718 24.3475 15.3718C24.5936 15.3718 24.8396 15.3437 25.0717 15.2945C23.56 14.9569 22.6389 13.6138 22.6389 12.0035Z" fill="#D80027"/>
<path d="M26.5694 9.08527L27.2936 11.3144H29.635L27.7365 12.6927L28.4608 14.9218L26.5694 13.5435L24.6709 14.9218L25.3951 12.6927L23.4967 11.3144H25.8451L26.5694 9.08527Z" fill="#D80027"/>
</g>
<defs>
<clipPath id="clip0_15_439">
<rect width="36" height="24" fill="white" transform="translate(0.905273)"/>
</clipPath>
</defs>
</svg>
