<svg width="37" height="24" viewBox="0 0 37 24" fill="none" xmlns="http://www.w3.org/2000/svg">
<g clip-path="url(#clip0_15_467)">
<path d="M0.905273 0H36.9053V8H0.905273V0Z" fill="#20AA46"/>
<path d="M0.905273 16H36.9053V24H0.905273V16Z" fill="#E92F3B"/>
<path d="M0.905273 8H36.9053V16H0.905273V8Z" fill="#FADF50"/>
<path d="M18.9854 20.32C23.5804 20.32 27.3054 16.595 27.3054 12C27.3054 7.40497 23.5804 3.67998 18.9854 3.67998C14.3904 3.67998 10.6654 7.40497 10.6654 12C10.6654 16.595 14.3904 20.32 18.9854 20.32Z" fill="#205CCA"/>
<path d="M18.5052 14.4L21.0652 12.64M18.9852 14.08L15.6252 16.48L16.9052 12.64L13.7052 10.24H17.7052L18.9852 6.55996L20.2652 10.24H24.4252L21.0652 12.64L22.3452 16.48L18.9852 14.08V14.08ZM17.3852 10.24H20.4252H17.3852ZM16.7452 12.48L18.8252 14.08L16.7452 12.48ZM20.1052 9.91996L21.2252 12.8L20.1052 9.91996ZM16.9052 12.64L17.8652 9.75996L16.9052 12.64Z" stroke="#FFDB3D" stroke-width="0.5"/>
<path d="M25.7054 14.4L22.8254 13.28M14.8254 6.23998L16.5854 8.79998L14.8254 6.23998ZM22.9854 6.07998L21.3854 8.63998L22.9854 6.07998ZM18.9854 16.16V19.2V16.16ZM15.1454 13.28L12.2654 14.4L15.1454 13.28Z" stroke="#FFDB3D" stroke-width="0.25"/>
</g>
<defs>
<clipPath id="clip0_15_467">
<rect width="36" height="24" fill="white" transform="translate(0.905273)"/>
</clipPath>
</defs>
</svg>
