<svg width="37" height="24" viewBox="0 0 37 24" fill="none" xmlns="http://www.w3.org/2000/svg">
<g clip-path="url(#clip0_15_492)">
<path d="M0.905273 0H36.9053V24H0.905273V0Z" fill="#0052B4"/>
<path d="M18.9053 0V2.15177L15.7271 3.91679H18.9053V8.08673H14.7498L18.9053 10.3932V12.0035H17.0279L11.86 9.12745V12.0035H7.95059V8.58599L1.79824 12.0035H0.905273V9.85174L4.0834 8.08673H0.905273V3.91679H5.06074L0.905273 1.60328V0H2.78262L7.95059 2.86903V0H11.86V3.41752L18.0123 0H18.9053Z" fill="white"/>
<path d="M11.0303 0H8.78027V4.87313H0.905273V7.12335H8.78027V12.0035H11.0303V7.12335H18.9053V4.87313H11.0303V0Z" fill="#D80027"/>
<path d="M11.86 8.08673L18.9053 12.0035V10.8925L13.8569 8.08673H11.86Z" fill="#0052B4"/>
<path d="M11.86 8.08673L18.9053 12.0035V10.8925L13.8569 8.08673H11.86Z" fill="white"/>
<path d="M11.86 8.08673L18.9053 12.0035V10.8925L13.8568 8.08673H11.86ZM5.95371 8.08673L0.905273 10.8925V12.0035L7.95059 8.08673H5.95371Z" fill="#D80027"/>
<path d="M7.95059 3.90976L0.905273 0V1.10401L5.95371 3.90976H7.95059Z" fill="#0052B4"/>
<path d="M7.95059 3.90976L0.905273 0V1.10401L5.95371 3.90976H7.95059Z" fill="white"/>
<path d="M7.95059 3.90976L0.905273 0V1.10401L5.95371 3.90976H7.95059ZM13.8568 3.90976L18.9053 1.10401V0L11.86 3.90976H13.8568Z" fill="#D80027"/>
<path d="M22.8568 13.656V7.32728C22.8568 6.72957 23.3138 6.2514 23.9115 6.2514H32.3842C32.9678 6.2514 33.4388 6.72957 33.4388 7.32728V13.656C33.4388 18.944 28.1513 21.0606 28.1513 21.0606C28.1513 21.0606 22.8568 18.944 22.8568 13.656Z" fill="#1F8BDE"/>
<path d="M22.8568 13.656V7.32728C22.8568 6.72957 23.3138 6.2514 23.9115 6.2514H32.3842C32.9678 6.2514 33.4388 6.72957 33.4388 7.32728V13.656C33.4388 18.944 28.1513 21.0606 28.1513 21.0606C28.1513 21.0606 22.8568 18.944 22.8568 13.656ZM28.4537 19.7246C29.0092 19.4081 29.5717 19.0214 30.0849 18.5502C31.5263 17.2493 32.3771 15.639 32.3771 13.649V7.32025C32.3771 7.29915 23.9115 7.29915 23.9115 7.29915V13.649C23.9115 15.639 24.7623 17.2493 26.2037 18.5502C26.7873 19.0776 27.4412 19.5277 28.1443 19.8863C28.2427 19.8441 28.3412 19.7879 28.4537 19.7246Z" fill="white"/>
<path d="M25.3108 13.5998C25.1279 13.0442 25.4303 12.5942 26.0209 12.5942H30.2748C30.8514 12.5942 31.1748 13.0372 30.985 13.5998L30.5983 14.76C30.4154 15.3156 29.9725 15.407 29.4873 15.0413C29.4873 15.0413 29.6701 14.7038 28.1443 14.7038C26.6186 14.7038 26.8014 15.0413 26.8014 15.0413C26.3725 15.4421 25.8803 15.3226 25.6904 14.76C25.6975 14.7671 25.3108 13.5998 25.3108 13.5998Z" fill="#187536"/>
<path d="M26.0349 12.5942C26.6044 12.7067 27.2865 11.5394 28.1513 11.5394C29.0724 11.5394 29.6841 12.7419 30.2677 12.5942C30.788 12.4676 31.3224 11.0331 31.3224 10.4776C31.3224 9.31029 29.9021 8.36098 28.1513 8.36098C26.4005 8.36098 24.9802 9.31029 24.9802 10.4776C24.9732 11.0753 25.4443 12.4817 26.0349 12.5942ZM25.9365 19.0355C26.3724 19.0636 26.8154 18.9089 27.1459 18.5784L27.7787 17.9455C27.9826 17.7416 28.306 17.7416 28.5099 17.9455L29.1427 18.5784C29.4732 18.9089 29.9162 19.0636 30.3451 19.0355C30.7177 19.0144 32.6302 16.6798 32.1521 16.743C31.8287 16.7852 31.5123 16.9399 31.2591 17.1861L31.2521 17.1931L30.6193 17.826C30.4154 18.0299 30.0919 18.0299 29.888 17.826L29.2552 17.1931C28.6435 16.5743 27.6451 16.5743 27.0263 17.1861L27.0193 17.1931L26.3865 17.826C26.1826 18.0299 25.8591 18.0299 25.6552 17.826L25.0224 17.1931C24.7763 16.947 24.474 16.7993 24.1576 16.7501C23.6865 16.6727 25.5709 19.0144 25.9365 19.0355ZM23.5529 14.7671C23.7568 14.5631 24.0802 14.5631 24.2841 14.7671L24.9169 15.3999C25.5357 16.0117 26.5271 16.0117 27.1459 15.3999L27.7787 14.7671C27.9826 14.5631 28.306 14.5631 28.5099 14.7671L29.1427 15.3999C29.7615 16.0117 30.7529 16.0117 31.3716 15.3999L32.0044 14.7671C32.2084 14.5631 32.5318 14.5631 32.7357 14.7671C32.7357 14.7671 33.1224 13.7263 32.9115 13.649C32.356 13.4451 31.7021 13.5646 31.2591 14.0147L31.2521 14.0217L30.6193 14.6546C30.4154 14.8585 30.0919 14.8585 29.888 14.6546L29.2552 14.0217C28.6435 13.4029 27.6451 13.4029 27.0263 14.0147L27.0193 14.0217L26.3865 14.6546C26.1826 14.8585 25.8591 14.8585 25.6552 14.6546L25.0224 14.0217C24.5865 13.5857 23.9607 13.4591 23.4193 13.6349C23.2013 13.7123 23.5529 14.7671 23.5529 14.7671Z" fill="white"/>
</g>
<defs>
<clipPath id="clip0_15_492">
<rect width="36" height="24" fill="white" transform="translate(0.905273)"/>
</clipPath>
</defs>
</svg>
