<svg width="37" height="24" viewBox="0 0 37 24" fill="none" xmlns="http://www.w3.org/2000/svg">
<g clip-path="url(#clip0_15_508)">
<path d="M0.905273 0H36.9053V24H0.905273V0Z" fill="#338AF3"/>
<path d="M18.9052 2.6651L19.6154 4.85906H21.9287L20.0584 6.21623L20.7756 8.41019L18.9052 7.05303L17.0349 8.41019L17.7521 6.21623L15.8818 4.85906H18.1951L18.9052 2.6651ZM9.56775 12.0035L11.7615 11.2863V8.97978L13.1185 10.8503L15.3123 10.133L13.9552 12.0035L15.3123 13.867L13.1185 13.1567L11.7615 15.0202V12.7137L9.56775 12.0035ZM18.9052 21.3419L18.1951 19.148H15.8818L17.7521 17.7908L17.0349 15.5898L18.9052 16.947L20.7756 15.5898L20.0584 17.7908L21.9287 19.148H19.6154L18.9052 21.3419ZM28.2427 12.0035L26.049 12.7137V15.0202L24.692 13.1567L22.4982 13.867L23.8552 12.0035L22.4982 10.133L24.692 10.8503L26.049 8.97978V11.2863L28.2427 12.0035Z" fill="white"/>
</g>
<defs>
<clipPath id="clip0_15_508">
<rect width="36" height="24" fill="white" transform="translate(0.905273)"/>
</clipPath>
</defs>
</svg>
