<svg width="37" height="24" viewBox="0 0 37 24" fill="none" xmlns="http://www.w3.org/2000/svg">
<g clip-path="url(#clip0_15_535)">
<path d="M0.131592 0H36.1316V24.0003H0.131592V0Z" fill="white"/>
<path d="M20.3816 -0.000213623H15.8816V9.74975H0.131592V14.2498H15.8816V23.9997H20.3816V14.2498H36.1316V9.74975H20.3816V-0.000213623Z" fill="#D80027"/>
<path d="M27.8197 16.1736L36.1316 20.7915V16.1736H27.8197ZM22.0447 16.1736L36.1316 23.9997V21.7867L26.0282 16.1736H22.0447ZM32.3793 23.9997L22.0447 18.2577V23.9997H32.3793Z" fill="#0052B4"/>
<path d="M22.0447 16.1736L36.1316 23.9997V21.7867L26.0282 16.1736H22.0447Z" fill="white"/>
<path d="M22.0447 16.1736L36.1316 23.9997V21.7867L26.0282 16.1736H22.0447Z" fill="#D80027"/>
<path d="M6.48369 16.1735L0.131592 19.7025V16.1735H6.48369ZM14.2186 17.1687V23.9996H1.92393L14.2186 17.1687Z" fill="#0052B4"/>
<path d="M10.235 16.1736L0.131592 21.7867V23.9997L14.2186 16.1736H10.235Z" fill="#D80027"/>
<path d="M8.44358 7.82586L0.131592 3.20801V7.82586H8.44358ZM14.2186 7.82586L0.131592 -0.000213623V2.2128L10.235 7.82586H14.2186ZM3.88389 -0.000213623L14.2186 5.74179V-0.000213623H3.88389Z" fill="#0052B4"/>
<path d="M14.2186 7.82586L0.131592 -0.000213623V2.2128L10.235 7.82586H14.2186Z" fill="white"/>
<path d="M14.2186 7.82586L0.131592 -0.000213623V2.2128L10.235 7.82586H14.2186Z" fill="#D80027"/>
<path d="M29.7795 7.82599L36.1316 4.297V7.82599H29.7795ZM22.0447 6.83078V-0.000152588H34.3393L22.0447 6.83078Z" fill="#0052B4"/>
<path d="M26.0282 7.82585L36.1316 2.2128V-0.000213623L22.0447 7.82585H26.0282Z" fill="#D80027"/>
</g>
<defs>
<clipPath id="clip0_15_535">
<rect width="36" height="24" fill="white" transform="translate(0.131592)"/>
</clipPath>
</defs>
</svg>
