<svg width="36" height="24" viewBox="0 0 36 24" fill="none" xmlns="http://www.w3.org/2000/svg">
<path d="M0 0H36V24H0V0Z" fill="white"/>
<path d="M0 0H36V7.98597H0V0Z" fill="#6DA544"/>
<path d="M0 15.9719H36V24H0V15.9719Z" fill="#D80027"/>
<path d="M8.8421 11.9789L0 23.9509V0L8.8421 11.9789Z" fill="#0070C8"/>
<path d="M16.407 9.78246V12.6175C16.407 15.1158 18.9052 15.1158 18.9052 15.1158C18.9052 15.1158 21.4035 15.1158 21.4035 12.6175V9.78246H16.407V9.78246Z" stroke="black" stroke-miterlimit="10"/>
<path d="M18.5615 12.6175H19.2492L19.5299 14.4281H18.2808L18.5615 12.6175Z" fill="#786145"/>
<path d="M20.1544 11.3684C20.1544 10.6807 19.593 10.3298 18.9053 10.3298C18.2176 10.3298 17.6562 10.6807 17.6562 11.3684C17.3123 11.3684 17.0316 11.6491 17.0316 11.993C17.0316 12.3368 17.3123 12.6175 17.6562 12.6175H20.1544C20.4983 12.6175 20.779 12.3368 20.779 11.993C20.779 11.6491 20.4983 11.3684 20.1544 11.3684Z" fill="#6DA544"/>
<path d="M16.1894 8.42105L16.3228 8.65263H16.5894L16.4561 8.88421L16.5894 9.10877H16.3228L16.1894 9.34035L16.0561 9.10877H15.7894L15.9228 8.88421L15.7894 8.65263H16.0561L16.1894 8.42105ZM17.2631 8.42105L17.3964 8.65263H17.6561L17.5228 8.88421L17.6561 9.10877H17.3964L17.2631 9.34035L17.1298 9.10877H16.8631L16.9964 8.88421L16.8631 8.65263H17.1298L17.2631 8.42105ZM18.3368 8.42105L18.4701 8.65263H18.7298L18.5964 8.88421L18.7298 9.10877H18.4701L18.3368 9.34035L18.2035 9.10877H17.9368L18.0701 8.88421L17.9368 8.65263H18.2035L18.3368 8.42105ZM19.4456 8.42105L19.5789 8.65263H19.8456L19.7122 8.88421L19.8456 9.10877H19.5789L19.4456 9.34035L19.3122 9.10877H19.0526L19.1789 8.88421L19.0526 8.65263H19.3122L19.4456 8.42105ZM20.5684 8.42105L20.7017 8.65263H20.9684L20.835 8.88421L20.9684 9.10877H20.7017L20.5684 9.34035L20.435 9.10877H20.1754L20.3017 8.88421L20.1754 8.65263H20.435L20.5684 8.42105ZM21.621 8.42105L21.7543 8.65263H22.014L21.8807 8.88421L22.014 9.10877H21.7543L21.621 9.34035L21.4877 9.10877H21.221L21.3543 8.88421L21.221 8.65263H21.4877L21.621 8.42105Z" fill="#FFDA00" stroke="black" stroke-miterlimit="10"/>
</svg>
