<svg width="36" height="24" viewBox="0 0 36 24" fill="none" xmlns="http://www.w3.org/2000/svg">
<path d="M0 0H36V24H0V0Z" fill="#0052B4"/>
<path d="M18 0V8.25549H14.7586L18 10.4143V12.0035H16.4109L11.25 8.5649V12.0035H6.75V8.5649L1.58906 12.0035H0V10.4143L3.24141 8.25549H0V3.75505H3.24141L0 1.59625V0H1.58906L6.75 3.43862V0H11.25V3.43862L16.4109 0H18Z" fill="white"/>
<path d="M10.125 0H7.875V4.88016H0V7.13038H7.875V12.0035H10.125V7.13038H18V4.88016H10.125V0Z" fill="#D80027"/>
<path d="M18 1.59625V3.75506H14.7585L18 1.59625Z" fill="#2E52B2"/>
<path d="M0 12.0035V11.23L4.39453 8.25548H5.98359L0.513281 12.0035H0ZM0.513281 0.00701904L5.98359 3.74801H4.39453L0 0.780532V0.00701904H0.513281ZM18 0.00701904V0.780532L13.6055 3.75504H12.0164L17.4867 0.00701904H18ZM17.4867 12.0035L12.0164 8.25548H13.6055L18 11.23V12.0035H17.4867Z" fill="#D80027"/>
<path d="M31.1765 19.4855C32.3027 19.4855 33.2156 18.116 33.2156 16.4266C33.2156 14.7372 32.3027 13.3677 31.1765 13.3677C30.0504 13.3677 29.1375 14.7372 29.1375 16.4266C29.1375 18.116 30.0504 19.4855 31.1765 19.4855Z" fill="white"/>
<path d="M28.6101 22.9944C29.4644 22.9944 30.157 22.7016 30.157 22.3405C30.157 21.9793 29.4644 21.6865 28.6101 21.6865C27.7558 21.6865 27.0632 21.9793 27.0632 22.3405C27.0632 22.7016 27.7558 22.9944 28.6101 22.9944Z" fill="#FFCE00"/>
<path d="M25.5938 22.9944C26.4481 22.9944 27.1406 22.7016 27.1406 22.3405C27.1406 21.9793 26.4481 21.6865 25.5938 21.6865C24.7394 21.6865 24.0469 21.9793 24.0469 22.3405C24.0469 22.7016 24.7394 22.9944 25.5938 22.9944Z" fill="#FFCE00"/>
<path d="M24.0469 13.3677L27.0984 19.4785L30.157 13.3677H24.0469Z" fill="#39B200"/>
<path d="M23.0273 19.4855C24.1535 19.4855 25.0664 18.116 25.0664 16.4266C25.0664 14.7372 24.1535 13.3677 23.0273 13.3677C21.9012 13.3677 20.9883 14.7372 20.9883 16.4266C20.9883 18.116 21.9012 19.4855 23.0273 19.4855Z" fill="#9B9B9B"/>
<path d="M26.0859 12.3481L25.0664 13.3677H29.1375L28.1179 12.3481L29.1375 9.2892C29.1375 9.2892 28.2234 7.24994 27.0984 7.24994C25.9734 7.24994 25.0593 9.2892 25.0593 9.2892L26.0859 12.3481Z" fill="#757575"/>
<path d="M27.0984 6.75067C28.2245 6.75067 29.1375 5.83766 29.1375 4.71141C29.1375 3.58516 28.2245 2.67215 27.0984 2.67215C25.9722 2.67215 25.0593 3.58516 25.0593 4.71141C25.0593 5.83766 25.9722 6.75067 27.0984 6.75067Z" fill="#C6B56F"/>
<path d="M27.1406 8.27661C28.2668 8.27661 29.1797 7.3636 29.1797 6.23735C29.1797 5.1111 28.2668 4.19809 27.1406 4.19809C26.0145 4.19809 25.1016 5.1111 25.1016 6.23735C25.1016 7.3636 26.0145 8.27661 27.1406 8.27661Z" fill="#A54A00"/>
<path d="M31.1765 10.3159C32.3027 10.3159 33.2156 9.40285 33.2156 8.2766C33.2156 7.15034 32.3027 6.23734 31.1765 6.23734C30.0504 6.23734 29.1375 7.15034 29.1375 8.2766C29.1375 9.40285 30.0504 10.3159 31.1765 10.3159Z" fill="white"/>
<path d="M24.0609 12.3551C25.1871 12.3551 26.1 11.4421 26.1 10.3159C26.1 9.18962 25.1871 8.27661 24.0609 8.27661C22.9348 8.27661 22.0219 9.18962 22.0219 10.3159C22.0219 11.4421 22.9348 12.3551 24.0609 12.3551Z" fill="#0049FF"/>
<path d="M30.2203 12.3551C31.3465 12.3551 32.2594 11.4421 32.2594 10.3159C32.2594 9.18962 31.3465 8.27661 30.2203 8.27661C29.0942 8.27661 28.1813 9.18962 28.1813 10.3159C28.1813 11.4421 29.0942 12.3551 30.2203 12.3551Z" fill="#0041F9"/>
<path d="M27.1406 18.4659C28.2668 18.4659 29.1797 17.5529 29.1797 16.4266C29.1797 15.3004 28.2668 14.3874 27.1406 14.3874C26.0145 14.3874 25.1016 15.3004 25.1016 16.4266C25.1016 17.5529 26.0145 18.4659 27.1406 18.4659Z" fill="#F7D71E"/>
<path d="M32.196 15.407C33.3222 15.407 34.2351 14.494 34.2351 13.3677C34.2351 12.2415 33.3222 11.3285 32.196 11.3285C31.0699 11.3285 30.157 12.2415 30.157 13.3677C30.157 14.494 31.0699 15.407 32.196 15.407Z" fill="#CEC851"/>
<path d="M27.0984 22.3967C28.2245 22.3967 29.1375 21.4837 29.1375 20.3575C29.1375 19.2312 28.2245 18.3182 27.0984 18.3182C25.9722 18.3182 25.0593 19.2312 25.0593 20.3575C25.0593 21.4837 25.9722 22.3967 27.0984 22.3967Z" fill="white"/>
<path d="M26.0859 9.54235L27.1055 9.29623L28.125 9.54235C28.125 10.0697 27.1055 10.3159 27.1055 10.3159C27.1055 10.3159 26.0859 10.0697 26.0859 9.54235Z" fill="#7C0B29"/>
<path d="M23.0273 10.2948C24.1535 10.2948 25.0664 9.38176 25.0664 8.25551C25.0664 7.12926 24.1535 6.21625 23.0273 6.21625C21.9012 6.21625 20.9883 7.12926 20.9883 8.25551C20.9883 9.38176 21.9012 10.2948 23.0273 10.2948Z" fill="white"/>
</svg>
