<svg width="36" height="24" viewBox="0 0 36 24" fill="none" xmlns="http://www.w3.org/2000/svg">
<path d="M0 0H36V24H0V0Z" fill="white"/>
<path d="M0 0H12V24H0V0ZM24 0H36V24H24V0Z" fill="#338AF3"/>
<path d="M17.9649 12.7228C18.9532 12.7228 19.7544 11.9216 19.7544 10.9333C19.7544 9.94503 18.9532 9.14386 17.9649 9.14386C16.9766 9.14386 16.1754 9.94503 16.1754 10.9333C16.1754 11.9216 16.9766 12.7228 17.9649 12.7228Z" fill="#DCC26D"/>
<path d="M13.6281 10.9403C13.6281 12.4912 14.4561 13.9228 15.7895 14.6947C16.2035 14.9333 16.7368 14.793 16.9754 14.3789C17.214 13.9649 17.0737 13.4316 16.6596 13.193C15.8526 12.7298 15.3614 11.8667 15.3614 10.9403C15.3614 10.4632 14.9754 10.0702 14.4912 10.0702C14.007 10.0702 13.6281 10.4561 13.6281 10.9403ZM20.3017 14.5965C21.5508 13.7965 22.3087 12.4211 22.3017 10.9403C22.3017 10.4632 21.9158 10.0702 21.4316 10.0702C20.9544 10.0702 20.5614 10.4561 20.5614 10.9403C20.5614 11.8316 20.1052 12.6596 19.3614 13.1368C18.9544 13.3895 18.821 13.9228 19.0737 14.3298C19.3263 14.7368 19.8596 14.8702 20.2666 14.6175C20.2807 14.6105 20.2877 14.6035 20.3017 14.5965Z" fill="#628A40"/>
</svg>
