<svg width="36" height="24" viewBox="0 0 36 24" fill="none" xmlns="http://www.w3.org/2000/svg">
<g clip-path="url(#clip0_15_659)">
<path d="M0 0H35.9298V23.9509H0V0Z" fill="#D80027"/>
<path d="M0.778931 0.778961H35.1438V23.1719H0.778931V0.778961Z" fill="#0052B4"/>
<path d="M17.9649 20.021C17.9649 20.021 23.3263 16.421 23.3263 11.9789C23.3263 7.53683 17.9649 3.92981 17.9649 3.92981C17.9649 3.92981 12.6035 7.52981 12.6035 11.9719C12.6035 16.414 17.9649 20.021 17.9649 20.021Z" fill="#7DBEF1"/>
<path d="M12.6176 12.6807H23.3263L21.2702 17.2351H14.5895L12.6176 12.6807Z" fill="#1C8AE6"/>
<path d="M13.4948 14.4491C13.4948 14.4491 16.3369 17.1298 17.0737 17.1298C17.9439 17.1298 17.9579 15.8386 18.8632 15.3404C20.2807 14.5614 22.4421 14.4491 22.4421 14.4491L20.8421 17.4526L17.9649 20.0211L14.6807 17.2351L13.4948 14.4491Z" fill="#FFF042"/>
<path d="M17.9649 11.0526L16.386 12.1474L16.9403 10.3088L15.4105 9.15088L17.3333 9.11579L17.9649 7.29825L18.5965 9.11579L20.5193 9.15088L18.9895 10.3158L19.5439 12.1544L17.9649 11.0526Z" fill="#259C7B"/>
<path d="M17.5228 10.1474C17.4597 10.793 17.4176 11.4386 17.4035 12.0842C17.3825 12.9193 17.4246 13.5369 17.5439 13.9088C17.6983 14.3719 18.0491 14.814 18.5404 15.2351C18.9123 15.5579 19.2842 15.8035 19.5368 15.9439C19.7544 16.0632 20.0281 15.986 20.1474 15.7754C20.2667 15.5579 20.1895 15.2842 19.979 15.1649C19.6772 14.9895 19.3895 14.786 19.1228 14.5544C18.7439 14.2316 18.4842 13.9088 18.393 13.6211C18.3158 13.3825 18.2807 12.8281 18.2947 12.0983C18.3088 11.4737 18.3509 10.8491 18.414 10.2316C18.4421 9.98598 18.2597 9.76843 18.014 9.74036C17.7614 9.71931 17.5439 9.90177 17.5228 10.1474Z" fill="#8E5715"/>
<path d="M15.2842 11.9789L17.0737 14.6596H15.2842V11.9789Z" fill="white"/>
<path d="M17.9649 20.021C17.9649 20.021 23.3263 16.421 23.3263 11.9789C23.3263 7.53683 17.9649 3.92981 17.9649 3.92981C17.9649 3.92981 12.6035 7.52981 12.6035 11.9719C12.6035 16.414 17.9649 20.021 17.9649 20.021Z" stroke="#D80027" stroke-width="12" stroke-miterlimit="10"/>
</g>
<defs>
<clipPath id="clip0_15_659">
<rect width="36" height="24" fill="white"/>
</clipPath>
</defs>
</svg>
