<svg width="36" height="24" viewBox="0 0 36 24" fill="none" xmlns="http://www.w3.org/2000/svg">
<path d="M0 0H36V24H0V0Z" fill="white"/>
<path d="M0 0H36V8H0V0ZM0 16H36V24H0V16ZM14.2807 8.27368L14.7509 9.4386L15.986 9.50877L15.0035 10.2737L15.3333 11.5158L14.2807 10.8211L13.2281 11.5158L13.5579 10.2737L12.5754 9.50877L13.8105 9.4386L14.2807 8.27368ZM21.6491 8.27368L22.1193 9.4386L23.3544 9.50877L22.3719 10.2737L22.7018 11.5158L21.6491 10.8211L20.5965 11.5158L20.9263 10.2737L19.9439 9.50877L21.1789 9.4386L21.6491 8.27368ZM17.9649 10.3579L18.4351 11.5228L19.6702 11.593L18.6877 12.3579L19.0175 13.6L17.9649 12.9053L16.9123 13.6L17.2421 12.3579L16.2596 11.593L17.4947 11.5228L17.9649 10.3579ZM14.2807 12.4421L14.7509 13.607L15.986 13.6772L15.0035 14.4421L15.3333 15.6772L14.2807 14.9825L13.2281 15.6772L13.5579 14.4421L12.5754 13.6772L13.8105 13.607L14.2807 12.4421ZM21.6491 12.4421L22.1193 13.607L23.3544 13.6772L22.3719 14.4421L22.7018 15.6772L21.6491 14.9825L20.5965 15.6772L20.9263 14.4421L19.9439 13.6772L21.1789 13.607L21.6491 12.4421Z" fill="#338AF3"/>
</svg>
