<svg width="36" height="24" viewBox="0 0 36 24" fill="none" xmlns="http://www.w3.org/2000/svg">
<path d="M0 0H36V24H0V0Z" fill="white"/>
<path d="M0 0H36V8H0V0Z" fill="#D80027"/>
<path d="M0 16H36V24H0V16Z" fill="#0052B4"/>
<path d="M21.7053 7.94386V4.85614L22.9334 3.84561L24.1755 4.85614V7.94386H21.7053ZM14.2948 7.94386V4.85614L13.0807 3.84561L11.8246 4.85614V7.94386H14.2948ZM16.7649 7.94386V4.85614L18 3.84561L19.2351 4.85614V7.94386H16.7649Z" fill="#338AF3"/>
<path d="M21.7052 7.94386H19.235V4.85614L20.4631 3.84561L21.7052 4.85614V7.94386ZM16.7649 7.94386H14.2947V4.85614L15.5227 3.84561L16.7649 4.85614V7.94386Z" fill="#0052B4"/>
<path d="M11.8246 7.94386V15.0947C11.8246 16.8 12.8351 18.3368 14.3088 19.2632C15.8035 20.2035 17.2632 20.2947 18 20.2947C18.7369 20.2947 20.2035 20.1754 21.6913 19.2561C23.1649 18.3439 24.1755 16.793 24.1755 15.0947V7.94386H11.8246Z" fill="white" stroke="#D80027"/>
<path d="M11.8246 7.94386H14.2948V10.414H11.8246V7.94386ZM16.7649 7.94386H19.2351V10.414H16.7649V7.94386ZM21.7053 7.94386H24.1755V10.414H21.7053V7.94386ZM14.2948 10.414H16.7649V12.8842H14.2948V10.414ZM19.2351 10.414H21.7053V12.8842H19.2351V10.414ZM11.8246 12.8842H14.2948V15.3544H11.8246V12.8842ZM14.2948 15.3544H16.7649V17.8246H14.2948V15.3544ZM16.7649 12.8842H19.2351V15.3544H16.7649V12.8842ZM21.7053 12.8842H24.1755V15.3544H21.7053V12.8842ZM19.2351 15.3544H21.7053V17.8246H19.2351V15.3544ZM21.7053 19.2491C22.3088 18.8702 22.8421 18.386 23.2491 17.8246H21.7053V19.2491ZM12.7509 17.8246C13.1579 18.386 13.6842 18.8702 14.2948 19.2561V17.8246H12.7509ZM16.7649 17.8246V20.1895C17.2702 20.2737 17.6983 20.2947 18 20.2947C18.3018 20.2947 18.7298 20.2737 19.2351 20.1825V17.8246H16.7649Z" fill="#D80027"/>
</svg>
