<svg width="37" height="24" viewBox="0 0 37 24" fill="none" xmlns="http://www.w3.org/2000/svg">
<g clip-path="url(#clip0_15_723)">
<path d="M0.226318 0H36.2263V12.0702H0.226318V0Z" fill="#A2001D"/>
<path d="M0.226318 12.0702H36.2263V24.1404H0.226318V12.0702Z" fill="#0052B4"/>
<path d="M26.9912 17.6491L19.2228 16.6807L11.4474 17.6491V5.99298H26.9912V17.6491Z" fill="white"/>
<path d="M19.2228 16.6807C21.3699 16.6807 23.1105 14.9401 23.1105 12.793C23.1105 10.6459 21.3699 8.90527 19.2228 8.90527C17.0757 8.90527 15.3351 10.6459 15.3351 12.793C15.3351 14.9401 17.0757 16.6807 19.2228 16.6807Z" fill="#0052B4"/>
<path d="M19.2228 14.7368C20.2964 14.7368 21.1667 13.8665 21.1667 12.793C21.1667 11.7194 20.2964 10.8491 19.2228 10.8491C18.1492 10.8491 17.2789 11.7194 17.2789 12.793C17.2789 13.8665 18.1492 14.7368 19.2228 14.7368Z" fill="#A2001D"/>
<path d="M16.3035 7.93686H22.135L19.2228 10.8491L16.3035 7.93686Z" fill="#6DA544"/>
<path d="M18.2473 9.88071H20.1912V15.7053H18.2473V9.88071Z" fill="#FFDA44"/>
<path d="M22.3246 15.1228H16.1141L11.4474 17.6491H26.9912L22.3246 15.1228Z" fill="#6DA544"/>
</g>
<defs>
<clipPath id="clip0_15_723">
<rect width="36" height="24" fill="white" transform="translate(0.226318)"/>
</clipPath>
</defs>
</svg>
