<svg width="37" height="24" viewBox="0 0 37 24" fill="none" xmlns="http://www.w3.org/2000/svg">
<g clip-path="url(#clip0_15_736)">
<path d="M0.226318 0H36.2263V24H0.226318V0Z" fill="#E52D42"/>
<path d="M27.8264 4.78598H24.6123L22.2404 10.414L19.8264 8.80703C19.8264 8.80703 18.093 4.65966 17.4123 4.02106C16.7316 3.34036 16.1 3.97896 13.9807 4.56843C11.9036 5.15791 11.8193 5.88071 11.0193 5.88071C10.6825 5.88071 9.62285 4.65264 9.07548 4.3158C8.22636 3.76843 7.88952 4.02106 8.10004 4.82106C8.18425 5.15791 8.86496 5.58598 9.28601 6.21756C9.83338 7.02457 10.1772 8.0351 10.1772 8.0351C10.1772 8.0351 10.9421 7.31229 11.3632 7.18598C11.9948 7.01756 12.7176 7.31229 13.5667 7.18598C14.6264 7.01756 15.7702 6.42106 15.7702 6.42106L16.065 9.46668C16.065 9.46668 12.2544 13.0246 12.5913 14.4211C12.9281 15.8176 16.5281 17.5509 17.3772 18.8211C18.2264 20.0491 16.872 20.5123 16.872 21.1088C16.872 21.7053 16.7457 22.5053 17.3772 22.2526C18.0088 22 18.1 20.9825 18.6895 20.0491C19.1106 19.4176 19.4123 19.0737 19.4965 18.8211C19.6229 18.1895 17.8474 16.5755 16.872 15.3895C16.4088 14.8421 15.4755 14.0772 15.4755 14.0772L18.2264 12C18.2264 12 22.9702 13.9439 24.0229 13.3123C25.0825 12.6807 25.3772 6.41405 25.3772 6.41405L28.6755 5.60703L27.8264 4.78598Z" fill="white"/>
<path d="M19.8263 18.414C19.4053 18.414 19.0193 18.0772 19.0193 17.607C19.0193 17.1368 19.3561 16.8 19.8263 16.8C20.2474 16.8 20.6333 17.1368 20.6333 17.607C20.6333 18.0772 20.2474 18.414 19.8263 18.414ZM23.0404 5.58596C22.6193 5.58596 22.2333 5.24912 22.2333 4.77894C22.2333 4.30877 22.5702 3.97192 23.0404 3.97192C23.4614 3.97192 23.8474 4.30877 23.8474 4.77894C23.8474 5.24912 23.4614 5.58596 23.0404 5.58596ZM23.0404 11.9789C22.6193 11.9789 22.2333 11.6421 22.2333 11.1719C22.2333 10.7509 22.5702 10.3649 23.0404 10.3649C23.4614 10.3649 23.8474 10.7017 23.8474 11.1719C23.8053 11.6421 23.4614 11.9789 23.0404 11.9789ZM13.4333 15.193C13.0123 15.193 12.6263 14.8561 12.6263 14.386C12.6263 13.9649 12.9632 13.5789 13.4333 13.5789C13.8965 13.5789 14.2404 13.9158 14.2404 14.386C14.2404 14.8561 13.8544 15.193 13.4333 15.193ZM16.6053 5.58596C16.1842 5.58596 15.7983 5.24912 15.7983 4.77894C15.7983 4.30877 16.1351 3.97192 16.6053 3.97192C17.0263 3.97192 17.4123 4.30877 17.4123 4.77894C17.4123 5.24912 17.0754 5.58596 16.6053 5.58596ZM18.2123 11.9789C17.7912 11.9789 17.4053 11.2561 17.4053 10.3719C17.4053 9.48771 17.7421 8.7649 18.2123 8.7649C18.6333 8.7649 19.0193 9.48771 19.0193 10.3719C19.0193 11.2561 18.6825 11.9789 18.2123 11.9789ZM10.2123 8.80701C9.79124 8.80701 9.40527 8.47017 9.40527 7.99999C9.40527 7.53683 9.74212 7.19297 10.2123 7.19297C10.6754 7.19297 11.0193 7.52982 11.0193 7.99999C11.0193 8.46315 10.6825 8.80701 10.2123 8.80701Z" fill="#F8DD4E"/>
</g>
<defs>
<clipPath id="clip0_15_736">
<rect width="36" height="24" fill="white" transform="translate(0.226318)"/>
</clipPath>
</defs>
</svg>
