<svg width="37" height="24" viewBox="0 0 37 24" fill="none" xmlns="http://www.w3.org/2000/svg">
<g clip-path="url(#clip0_15_748)">
<path d="M0.226318 -0.0210571H36.2263V24H0.226318V-0.0210571Z" fill="white"/>
<path d="M32.7105 13.9018C32.4298 13.9018 31.7281 13.5509 31.2368 13.2702C30.4649 12.8491 29.7632 12.4281 29.0544 12.4281C28.3456 12.4281 27.6509 12.8491 26.8719 13.2702C26.3807 13.5509 25.7491 13.9018 25.4684 13.9018C25.1877 13.9018 24.486 13.5509 24.0649 13.2702C23.293 12.8491 22.5211 12.4281 21.8123 12.4281C21.1807 12.4281 20.4088 12.8491 19.6298 13.2702C19.1386 13.5509 18.507 13.9018 18.2263 13.9018C17.9456 13.9018 17.314 13.5509 16.8228 13.2702C16.0509 12.8491 15.2789 12.4281 14.6404 12.4281C13.9386 12.4281 13.1667 12.8491 12.3877 13.2702C11.9667 13.5509 11.2649 13.9018 10.9842 13.9018C10.7035 13.9018 10.0719 13.5509 9.5807 13.2702C8.80877 12.8491 8.10702 12.4281 7.39825 12.4281C6.68948 12.4281 5.99474 12.8491 5.21579 13.2702C4.72456 13.5509 4.02281 13.9018 3.74211 13.9018C3.46141 13.9018 2.82983 13.5509 2.3386 13.2702C1.63684 12.8491 0.93509 12.4281 0.226318 12.4281V13.9719L1.55965 14.6737C2.33158 15.0947 3.03334 15.5158 3.74211 15.5158C4.45088 15.5158 5.21579 15.0947 5.99474 14.6737C6.41579 14.393 7.11755 13.9719 7.39825 13.9719C7.67895 13.9719 8.31053 14.393 8.80176 14.6737C9.57369 15.0947 10.2754 15.5158 10.9842 15.5158C11.693 15.5158 12.3877 15.0947 13.1667 14.6737C13.6579 14.393 14.3597 13.9719 14.6404 13.9719C14.9211 13.9719 15.5526 14.393 16.0439 14.6737C16.8158 15.0947 17.5175 15.5158 18.2263 15.5158C18.9351 15.5158 19.6298 15.0947 20.4088 14.6737C20.9 14.393 21.5316 13.9719 21.8123 13.9719C22.093 13.9719 22.7947 14.393 23.286 14.6737C24.0579 15.0947 24.7597 15.5158 25.4684 15.5158C26.1772 15.5158 26.8719 15.0947 27.6509 14.6737C28.1421 14.393 28.7737 13.9719 29.0544 13.9719C29.3351 13.9719 30.0368 14.393 30.4579 14.6737C31.2298 15.0947 32.0018 15.5158 32.7105 15.5158C33.4193 15.5158 34.114 15.0947 34.893 14.6737L36.2263 13.9719V12.4281C35.5246 12.4281 34.8228 12.8491 34.114 13.2702C33.6228 13.5509 32.9912 13.9018 32.7105 13.9018ZM0.226318 2.22455L1.55965 2.92631C2.33158 3.34736 3.03334 3.76841 3.74211 3.76841C4.45088 3.76841 5.21579 3.34736 5.99474 2.92631C6.41579 2.64561 7.11755 2.22455 7.39825 2.22455C7.67895 2.22455 8.31053 2.64561 8.80176 2.92631C9.57369 3.34736 10.2754 3.76841 10.9842 3.76841C11.693 3.76841 12.3877 3.34736 13.1667 2.92631C13.6579 2.64561 14.3597 2.22455 14.6404 2.22455C14.9211 2.22455 15.5526 2.64561 16.0439 2.92631C16.8158 3.34736 17.5175 3.76841 18.2263 3.76841C18.9351 3.76841 19.6298 3.34736 20.4088 2.92631C20.9 2.64561 21.5316 2.22455 21.8123 2.22455C22.093 2.22455 22.7947 2.64561 23.286 2.92631C24.0579 3.34736 24.7597 3.76841 25.4684 3.76841C26.1772 3.76841 26.8719 3.34736 27.6509 2.92631C28.1421 2.64561 28.7737 2.22455 29.0544 2.22455C29.3351 2.22455 30.0368 2.64561 30.4579 2.92631C31.2298 3.34736 32.0018 3.76841 32.7105 3.76841C33.4193 3.76841 34.114 3.34736 34.893 2.92631L36.2263 2.22455V0.680695C35.5246 0.75087 34.8228 1.10175 34.114 1.5228C33.6228 1.8035 32.9912 2.15438 32.7105 2.15438C32.4298 2.15438 31.7281 1.8035 31.2368 1.5228C30.4649 1.10175 29.7632 0.680695 29.0544 0.680695C28.3456 0.680695 27.6509 1.10175 26.8719 1.5228C26.3807 1.8035 25.7491 2.15438 25.4684 2.15438C25.1877 2.15438 24.486 1.8035 24.0649 1.5228C23.293 1.10175 22.5211 0.680695 21.8123 0.680695C21.1035 0.680695 20.4088 1.10175 19.6298 1.5228C19.1386 1.8035 18.507 2.15438 18.2263 2.15438C17.9456 2.15438 17.314 1.8035 16.8228 1.5228C16.0509 1.10175 15.2789 0.680695 14.6404 0.680695C14.0018 0.680695 13.1667 1.10175 12.3877 1.5228C11.9667 1.8035 11.2649 2.15438 10.9842 2.15438C10.7035 2.15438 10.0719 1.8035 9.5807 1.5228C8.80877 1.10175 8.10702 0.680695 7.39825 0.680695C6.68948 0.680695 5.99474 1.10175 5.21579 1.5228C4.72456 1.8035 4.02281 2.15438 3.74211 2.15438C3.46141 2.15438 2.82983 1.8035 2.3386 1.5228C1.63684 1.10175 0.93509 0.75087 0.226318 0.680695V2.22455H0.226318ZM32.7105 6.09824C32.4298 6.09824 31.7281 5.74736 31.2368 5.46666C30.4649 5.04561 29.7632 4.62456 29.0544 4.62456C28.3456 4.62456 27.6509 5.04561 26.8719 5.46666C26.3807 5.74736 25.7491 6.09824 25.4684 6.09824C25.1877 6.09824 24.486 5.74736 24.0649 5.46666C23.293 5.04561 22.5211 4.62456 21.8123 4.62456C21.1807 4.62456 20.4088 5.04561 19.6298 5.46666C19.1386 5.74736 18.507 6.09824 18.2263 6.09824C17.9456 6.09824 17.314 5.74736 16.8228 5.46666C16.0509 5.04561 15.2789 4.62456 14.6404 4.62456C13.9386 4.62456 13.1667 5.04561 12.3877 5.46666C11.9667 5.74736 11.2649 6.09824 10.9842 6.09824C10.7035 6.09824 10.0719 5.74736 9.5807 5.46666C8.80877 5.04561 8.10702 4.62456 7.39825 4.62456C6.68948 4.62456 5.99474 5.04561 5.21579 5.46666C4.72456 5.74736 4.02281 6.09824 3.74211 6.09824C3.46141 6.09824 2.82983 5.74736 2.3386 5.46666C1.63684 5.04561 0.93509 4.62456 0.226318 4.62456V6.16842L1.55965 6.79999C2.33158 7.22105 3.03334 7.6421 3.74211 7.6421C4.45088 7.6421 5.21579 7.22105 5.99474 6.79999C6.41579 6.51929 7.11755 6.16842 7.39825 6.16842C7.67895 6.16842 8.31053 6.51929 8.80176 6.79999C9.57369 7.22105 10.2754 7.6421 10.9842 7.6421C11.693 7.6421 12.3877 7.22105 13.1667 6.79999C13.6579 6.51929 14.3597 6.16842 14.6404 6.16842C14.9211 6.16842 15.5526 6.51929 16.0439 6.79999C16.8158 7.22105 17.5175 7.6421 18.2263 7.6421C18.9351 7.6421 19.6298 7.22105 20.4088 6.79999C20.9 6.51929 21.5316 6.16842 21.8123 6.16842C22.093 6.16842 22.7947 6.51929 23.286 6.79999C24.0579 7.22105 24.7597 7.6421 25.4684 7.6421C26.1772 7.6421 26.8719 7.22105 27.6509 6.79999C28.1421 6.51929 28.7737 6.16842 29.0544 6.16842C29.3351 6.16842 30.0368 6.51929 30.4579 6.79999C31.2298 7.22105 32.0018 7.6421 32.7105 7.6421C33.4193 7.6421 34.114 7.22105 34.893 6.79999L36.2263 6.16842V4.62456C35.5246 4.62456 34.8228 5.04561 34.114 5.46666C33.6228 5.74035 32.9912 6.09824 32.7105 6.09824ZM36.2263 8.48421C35.5246 8.55438 34.8228 8.90526 34.114 9.32631C33.6228 9.60701 32.9912 10.0281 32.7105 10.0281C32.4298 10.0281 31.7281 9.60701 31.2368 9.32631C30.4649 8.90526 29.7632 8.48421 29.0544 8.48421C28.3456 8.48421 27.6509 8.90526 26.8719 9.32631C26.3807 9.60701 25.7491 10.0281 25.4684 10.0281C25.1877 10.0281 24.486 9.60701 24.0649 9.32631C23.293 8.90526 22.5211 8.48421 21.8123 8.48421C21.1035 8.48421 20.4088 8.90526 19.6298 9.32631C19.1386 9.60701 18.507 10.0281 18.2263 10.0281C17.9456 10.0281 17.314 9.60701 16.8228 9.32631C16.0509 8.90526 15.2789 8.48421 14.6404 8.48421C14.0018 8.48421 13.1667 8.90526 12.3877 9.32631C11.9667 9.60701 11.2649 10.0281 10.9842 10.0281C10.7035 10.0281 10.0719 9.60701 9.5807 9.32631C8.80877 8.90526 8.10702 8.48421 7.39825 8.48421C6.68948 8.48421 5.99474 8.90526 5.21579 9.32631C4.72456 9.60701 4.02281 10.0281 3.74211 10.0281C3.46141 10.0281 2.82983 9.60701 2.3386 9.32631C1.63684 8.90526 0.93509 8.55438 0.226318 8.48421V10.0982C0.50702 10.1684 1.1386 10.4491 1.55965 10.7298C2.33158 11.1509 3.03334 11.5719 3.74211 11.5719C4.45088 11.5719 5.21579 11.1509 5.99474 10.7298C6.41579 10.4491 7.11755 10.0982 7.39825 10.0982C7.67895 10.0982 8.31053 10.4491 8.80176 10.7298C9.57369 11.1509 10.2754 11.5719 10.9842 11.5719C11.693 11.5719 12.3877 11.1509 13.1667 10.7298C13.6579 10.4491 14.3597 10.0982 14.6404 10.0982C14.9211 10.0982 15.5526 10.4491 16.0439 10.7298C16.8158 11.1509 17.5175 11.5719 18.2263 11.5719C18.9351 11.5719 19.6298 11.1509 20.4088 10.7298C20.9 10.4491 21.5316 10.0982 21.8123 10.0982C22.093 10.0982 22.7947 10.4491 23.286 10.7298C24.0579 11.1509 24.7597 11.5719 25.4684 11.5719C26.1772 11.5719 26.8719 11.1509 27.6509 10.7298C28.1421 10.4491 28.7737 10.0982 29.0544 10.0982C29.3351 10.0982 30.0368 10.4491 30.4579 10.7298C31.2298 11.1509 32.0018 11.5719 32.7105 11.5719C33.4193 11.5719 34.114 11.1509 34.893 10.7298C35.314 10.4491 35.9456 10.1684 36.2263 10.0982V8.48421ZM32.7105 17.8386C32.4298 17.8386 31.7281 17.4877 31.2368 17.207C30.4649 16.786 29.7632 16.3649 29.0544 16.3649C28.3456 16.3649 27.6509 16.786 26.8719 17.207C26.3807 17.4877 25.7491 17.8386 25.4684 17.8386C25.1877 17.8386 24.486 17.4877 24.0649 17.207C23.293 16.786 22.5211 16.3649 21.8123 16.3649C21.1807 16.3649 20.4088 16.786 19.6298 17.207C19.1386 17.4877 18.507 17.8386 18.2263 17.8386C17.9456 17.8386 17.314 17.4877 16.8228 17.207C16.0509 16.786 15.2789 16.3649 14.6404 16.3649C13.9386 16.3649 13.1667 16.786 12.3877 17.207C11.9667 17.4877 11.2649 17.8386 10.9842 17.8386C10.7035 17.8386 10.0719 17.4877 9.5807 17.207C8.80877 16.786 8.10702 16.3649 7.39825 16.3649C6.68948 16.3649 5.99474 16.786 5.21579 17.207C4.72456 17.4877 4.02281 17.8386 3.74211 17.8386C3.46141 17.8386 2.82983 17.4877 2.3386 17.207C1.63684 16.786 0.93509 16.3649 0.226318 16.3649V17.9088L1.55965 18.5403C2.33158 18.9614 3.03334 19.3825 3.74211 19.3825C4.45088 19.3825 5.21579 18.9614 5.99474 18.5403C6.41579 18.2596 7.11755 17.9088 7.39825 17.9088C7.67895 17.9088 8.31053 18.2596 8.80176 18.5403C9.57369 18.9614 10.2754 19.3825 10.9842 19.3825C11.693 19.3825 12.3877 18.9614 13.1667 18.5403C13.6579 18.2596 14.3597 17.9088 14.6404 17.9088C14.9211 17.9088 15.5526 18.2596 16.0439 18.5403C16.8158 18.9614 17.5175 19.3825 18.2263 19.3825C18.9351 19.3825 19.6298 18.9614 20.4088 18.5403C20.9 18.2596 21.5316 17.9088 21.8123 17.9088C22.093 17.9088 22.7947 18.2596 23.286 18.5403C24.0579 18.9614 24.7597 19.3825 25.4684 19.3825C26.1772 19.3825 26.8719 18.9614 27.6509 18.5403C28.1421 18.2596 28.7737 17.9088 29.0544 17.9088C29.3351 17.9088 30.0368 18.2596 30.4579 18.5403C31.2298 18.9614 32.0018 19.3825 32.7105 19.3825C33.4193 19.3825 34.114 18.9614 34.893 18.5403L36.2263 17.9088V16.3649C35.5246 16.3649 34.8228 16.786 34.114 17.207C33.6228 17.4877 32.9912 17.8386 32.7105 17.8386ZM36.2263 20.2246C35.5246 20.2947 34.8228 20.6456 34.114 21.0667C33.6228 21.3474 32.9912 21.7684 32.7105 21.7684C32.4298 21.7684 31.7281 21.3474 31.2368 21.0667C30.4649 20.6456 29.7632 20.2246 29.0544 20.2246C28.3456 20.2246 27.6509 20.6456 26.8719 21.0667C26.3807 21.3474 25.7491 21.7684 25.4684 21.7684C25.1877 21.7684 24.486 21.3474 24.0649 21.0667C23.293 20.6456 22.5211 20.2246 21.8123 20.2246C21.1035 20.2246 20.4088 20.6456 19.6298 21.0667C19.1386 21.3474 18.507 21.7684 18.2263 21.7684C17.9456 21.7684 17.314 21.3474 16.8228 21.0667C16.0509 20.6456 15.2789 20.2246 14.6404 20.2246C14.0018 20.2246 13.1667 20.6456 12.3877 21.0667C11.9667 21.3474 11.2649 21.7684 10.9842 21.7684C10.7035 21.7684 10.0719 21.3474 9.5807 21.0667C8.80877 20.6456 8.10702 20.2246 7.39825 20.2246C6.68948 20.2246 5.99474 20.6456 5.21579 21.0667C4.72456 21.3474 4.02281 21.7684 3.74211 21.7684C3.46141 21.7684 2.82983 21.3474 2.3386 21.0667C1.63684 20.6456 0.93509 20.2947 0.226318 20.2246V21.8386C0.50702 21.8386 1.1386 22.1895 1.55965 22.4702C2.33158 22.8912 3.03334 23.3123 3.74211 23.3123C4.45088 23.3123 5.21579 22.8912 5.99474 22.4702C6.41579 22.1895 7.11755 21.8386 7.39825 21.8386C7.67895 21.8386 8.31053 22.1895 8.80176 22.4702C9.57369 22.8912 10.2754 23.3123 10.9842 23.3123C11.693 23.3123 12.3877 22.8912 13.1667 22.4702C13.6579 22.1895 14.3597 21.8386 14.6404 21.8386C14.9211 21.8386 15.5526 22.1895 16.0439 22.4702C16.8158 22.8912 17.5175 23.3123 18.2263 23.3123C18.9351 23.3123 19.6298 22.8912 20.4088 22.4702C20.9 22.1895 21.5316 21.8386 21.8123 21.8386C22.093 21.8386 22.7947 22.1895 23.286 22.4702C24.0579 22.8912 24.7597 23.3123 25.4684 23.3123C26.1772 23.3123 26.8719 22.8912 27.6509 22.4702C28.1421 22.1895 28.7737 21.8386 29.0544 21.8386C29.3351 21.8386 30.0368 22.1895 30.4579 22.4702C31.2298 22.8912 32.0018 23.3123 32.7105 23.3123C33.4193 23.3123 34.114 22.8912 34.893 22.4702C35.314 22.1895 35.9456 21.8386 36.2263 21.8386V20.2246Z" fill="#0052B4"/>
<path d="M0.226318 -0.0210571H18.1912V11.9789H0.226318V-0.0210571Z" fill="white"/>
<path d="M27.5807 8.41403H28.8579V13.9439H27.5737L27.5807 8.41403ZM27.5807 16.6807H28.8579V21.9509H27.5737L27.5807 16.6807Z" fill="#A2001D"/>
<path d="M10.3316 -0.0210571H8.08597V4.89122H0.226318V7.13684H8.08597V11.9789H10.3316V7.13684H18.1912V4.89122H10.3316V-0.0210571Z" fill="#D80027"/>
<path d="M0.226318 -0.0210571V1.03157L4.22632 3.76842H5.84035L0.226318 -0.0210571ZM18.1912 -0.0210571V1.03157L14.1912 3.76842H12.5772L18.1912 -0.0210571Z" fill="#D80027"/>
<path d="M0.226318 -0.0210571V1.03157L4.22632 3.76842H5.84035L0.226318 -0.0210571ZM18.1912 -0.0210571V1.03157L14.1912 3.76842H12.5772L18.1912 -0.0210571ZM0.226318 11.9789V10.9263L4.22632 8.25964H5.84035L0.226318 11.9789ZM18.1912 11.9789V10.9263L14.1912 8.25964H12.5772L18.1912 11.9789Z" fill="#D80027"/>
<path d="M0.226318 1.59298V3.76842H3.45439L0.226318 1.59298ZM6.96316 -0.0210571V3.41754L1.84035 -0.0210571H6.96316ZM18.1912 1.59298V3.76842H14.9632L18.1912 1.59298ZM11.4544 -0.0210571V3.41754L16.5772 -0.0210571H11.4544Z" fill="#2E52B2"/>
<path d="M0.226318 1.59298V3.76842H3.45439L0.226318 1.59298ZM6.96316 -0.0210571V3.41754L1.84035 -0.0210571H6.96316ZM18.1912 1.59298V3.76842H14.9632L18.1912 1.59298ZM11.4544 -0.0210571V3.41754L16.5772 -0.0210571H11.4544ZM0.226318 10.3649V8.25964H3.45439L0.226318 10.3649ZM6.96316 11.9789V8.54035L1.84035 11.9789H6.96316ZM18.1912 10.3649V8.25964H14.9632L18.1912 10.3649ZM11.4544 11.9789V8.54035L16.5772 11.9789H11.4544Z" fill="#2E52B2"/>
<path d="M32.7035 6.42105H30.6614L32.4649 4.61754C32.7807 4.30877 32.7807 3.81754 32.4649 3.50877L32.2263 3.27017C31.9175 2.9614 31.4263 2.9614 31.1175 3.27017L29.3 5.08771V2.62456C29.3 2.18947 28.9421 1.83157 28.507 1.83157H28.1771C27.7421 1.83157 27.3842 2.18947 27.3842 2.62456V4.84912L25.735 3.17894C25.4052 2.84912 24.8789 2.84912 24.5491 3.17894L24.2964 3.43157C23.9666 3.7614 23.9666 4.30175 24.2964 4.63859L26.0508 6.42105H23.9035C23.4824 6.42105 23.1385 6.76491 23.1385 7.18596V7.50877C23.1385 7.92982 23.4824 8.27368 23.9035 8.27368H26.121L24.6684 9.72631C24.3596 10.0351 24.3596 10.5263 24.6684 10.8351L24.907 11.0737C25.2157 11.3824 25.707 11.3824 26.0157 11.0737L27.3912 9.69824V11.7193C27.3912 12.1474 27.7491 12.4982 28.1842 12.5123H28.514C28.9491 12.5123 29.307 12.1544 29.307 11.7193V9.73333L30.8649 11.3193C31.1947 11.6491 31.735 11.6491 32.0649 11.3193L32.3175 11.0667C32.6473 10.7368 32.6473 10.1965 32.3175 9.85964L30.7666 8.2807H32.7035C33.1175 8.2807 33.4543 7.93684 33.4684 7.51578V7.19298C33.4684 6.76491 33.1245 6.42105 32.7035 6.42105Z" fill="#5DA51E" stroke="#45602C" stroke-width="4" stroke-miterlimit="10"/>
<path d="M31.0474 17.4807H25.4474C25.4474 17.4807 25.3842 16.5403 25.0263 15.9509C24.5912 15.2211 24.0509 13.979 24.9281 13.3754C26.0439 12.6105 27.293 13.4316 28.3105 13.4316C29.1386 13.4386 30.1983 12.4491 31.4684 13.3754C32.3246 14 31.7421 15.3544 31.3772 15.9509C30.886 16.7579 31.0474 17.4807 31.0474 17.4807Z" fill="#E2DD24" stroke="#525625" stroke-width="4" stroke-miterlimit="10"/>
</g>
<defs>
<clipPath id="clip0_15_748">
<rect width="36" height="24" fill="white" transform="translate(0.226318)"/>
</clipPath>
</defs>
</svg>
