<svg width="37" height="24" viewBox="0 0 37 24" fill="none" xmlns="http://www.w3.org/2000/svg">
<g clip-path="url(#clip0_15_795)">
<path d="M0.226318 0H36.2263V24H0.226318V0Z" fill="white"/>
<path d="M0.226318 0H36.2263V8H0.226318V0Z" fill="#CE1126"/>
<path d="M0.226318 16H36.2263V24H0.226318V16Z" fill="black"/>
<path d="M15.6087 11.2772H13.5526C13.6579 10.8772 14.0158 10.5825 14.4508 10.5825V9.18596C13.1666 9.18596 12.128 10.2316 12.128 11.5088V12.6667H15.6087C15.7351 12.6667 15.8403 12.7719 15.8403 12.8982V13.3614H11.1947V14.7579H17.2368V12.8982C17.2368 12.007 16.507 11.2772 15.6087 11.2772ZM19.0894 13.3684V9.18596H17.7V14.7649H20.0228V13.3684H19.0894ZM23.7351 13.3684V9.18596H22.3456V13.3684H21.8824V11.9789H20.4859V14.7649H24.6684V13.3684H23.7351Z" fill="#547C31"/>
</g>
<defs>
<clipPath id="clip0_15_795">
<rect width="36" height="24" fill="white" transform="translate(0.226318)"/>
</clipPath>
</defs>
</svg>
