<svg width="37" height="24" viewBox="0 0 37 24" fill="none" xmlns="http://www.w3.org/2000/svg">
<g clip-path="url(#clip0_15_801)">
<path d="M0.226318 0H36.1561V24H0.226318V0Z" fill="white"/>
<path d="M0.226318 0H36.2263V8H0.226318V0Z" fill="#6DA544"/>
<path d="M0.226318 15.993H36.2263V23.993H0.226318V15.993ZM19.7912 9.45965C19.7982 9.6 20.4018 11.2982 20.1 12.2246C19.6368 13.6491 18.9912 13.7544 18.7105 13.9439V9.40351L18.2263 9.10877L17.7421 9.40351V13.9439C17.4614 13.7544 16.8719 13.7754 16.3526 12.2246C16.0509 11.3333 16.7526 9.60702 16.7597 9.47368C16.7597 9.47368 16.093 10.0421 15.6509 11.1579C15.2368 12.1965 15.7842 14.6386 17.7211 15.0035C17.8825 15.0316 18.0509 15.3965 18.2263 15.3965C18.3737 15.3965 18.514 15.0316 18.6474 15.0105C20.6404 14.6877 21.1035 12.0842 20.7456 11.1088C20.3667 10.0842 19.7912 9.45965 19.7912 9.45965Z" fill="#D80027"/>
<g opacity="0.5">
<path opacity="0.5" d="M3.35614 6.94035H4.92106V8.65263H3.35614V6.94035ZM0.226318 6.94035H1.79123V8.65263H0.226318V6.94035ZM6.48597 6.94035H8.05088V8.65263H6.48597V6.94035ZM9.61579 6.94035H11.1807V8.65263H9.61579V6.94035ZM12.7456 6.94035H14.3105V8.65263H12.7456V6.94035ZM15.8754 6.94035H17.4404V8.65263H15.8754V6.94035ZM19.0123 6.94035H20.5772V8.65263H19.0123V6.94035ZM22.1421 6.94035H23.707V8.65263H22.1421V6.94035ZM25.2719 6.94035H26.8368V8.65263H25.2719V6.94035ZM28.4018 6.94035H29.9667V8.65263H28.4018V6.94035ZM31.5316 6.94035H33.0965V8.65263H31.5316V6.94035ZM34.6614 6.94035H36.2263V8.65263H34.6614V6.94035ZM3.35614 15.221H4.92106V17.0105H3.35614V15.221ZM0.226318 15.221H1.79123V17.0105H0.226318V15.221ZM6.48597 15.221H8.05088V17.0105H6.48597V15.221ZM9.61579 15.221H11.1807V17.0105H9.61579V15.221ZM12.7456 15.221H14.3105V17.0105H12.7456V15.221ZM15.8754 15.221H17.4404V17.0105H15.8754V15.221ZM19.0123 15.221H20.5772V17.0105H19.0123V15.221ZM22.1421 15.221H23.707V17.0105H22.1421V15.221ZM25.2719 15.221H26.8368V17.0105H25.2719V15.221ZM28.4018 15.221H29.9667V17.0105H28.4018V15.221ZM31.5316 15.221H33.0965V17.0105H31.5316V15.221ZM34.6614 15.221H36.2263V17.0105H34.6614V15.221Z" fill="white"/>
</g>
</g>
<defs>
<clipPath id="clip0_15_801">
<rect width="36" height="24" fill="white" transform="translate(0.226318)"/>
</clipPath>
</defs>
</svg>
