<svg width="37" height="24" viewBox="0 0 37 24" fill="none" xmlns="http://www.w3.org/2000/svg">
<g clip-path="url(#clip0_15_808)">
<path d="M0.226318 0H36.2263V24H0.226318V0Z" fill="white"/>
<path d="M21.4053 12L36.2263 2.1193V0H33.0474L18.2263 9.8807L3.40527 0H0.226318V2.1193L15.0474 12L0.226318 21.8807V24H3.40527L18.2263 14.1193L33.0474 24H36.2263V21.8807L21.4053 12Z" fill="#D80027"/>
<path d="M16.6263 3.12982L18.1912 3.52281L19.7561 3.12982L20.0368 1.66316L18.9912 2.1193L18.1912 1.0386L17.3912 2.1193L16.3456 1.66316L16.6263 3.12982Z" fill="#FFDA44"/>
<path d="M16.6263 3.12982C16.6263 3.12982 16.3456 4.03509 16.3456 5.22807C16.3456 7.18596 18.1912 8.12632 18.1912 8.12632C18.1912 8.12632 20.0368 7.0386 20.0368 5.22807C20.0368 4.14737 19.7561 3.12982 19.7561 3.12982C19.7561 3.12982 19.1877 2.77895 18.1912 2.77895C17.1947 2.77895 16.6263 3.12982 16.6263 3.12982Z" fill="#D80027"/>
</g>
<defs>
<clipPath id="clip0_15_808">
<rect width="36" height="24" fill="white" transform="translate(0.226318)"/>
</clipPath>
</defs>
</svg>
