<svg width="37" height="24" viewBox="0 0 37 24" fill="none" xmlns="http://www.w3.org/2000/svg">
<g clip-path="url(#clip0_15_770)">
<path d="M0.226318 0.000289917H36.2263V23.9998H0.226318V0.000289917Z" fill="#6DA544"/>
<path d="M15.4043 12.0005L0.226318 22.1188V1.88129L15.4043 12.0005ZM36.2263 1.88129V22.1188L21.0484 12.0005L36.2263 1.88129Z" fill="black"/>
<path d="M36.2263 1.88127L21.0484 12.0004L36.2263 22.1188V24.0001H33.405L18.2263 13.881L3.04761 24.0001H0.226318V22.1188L15.4043 12.0004L0.226318 1.88127V-0.000152588H3.04761L18.2263 10.119L33.405 -0.000152588H36.2263V1.88127Z" fill="#0052B4"/>
<path d="M36.2263 1.88127L21.0484 12.0004L36.2263 22.1188V24.0001H33.405L18.2263 13.881L3.04761 24.0001H0.226318V22.1188L15.4043 12.0004L0.226318 1.88127V-0.000152588H3.04761L18.2263 10.119L33.405 -0.000152588H36.2263V1.88127Z" fill="#FFDA44"/>
</g>
<defs>
<clipPath id="clip0_15_770">
<rect width="36" height="24" fill="white" transform="translate(0.226318)"/>
</clipPath>
</defs>
</svg>
