<svg width="37" height="24" viewBox="0 0 37 24" fill="none" xmlns="http://www.w3.org/2000/svg">
<g clip-path="url(#clip0_15_784)">
<path d="M0.226318 -0.000141144H36.2263V24.0001H0.226318V-0.000141144Z" fill="white"/>
<path d="M0.226318 -0.000141144H36.2263V6.3687H0.226318V-0.000141144Z" fill="black"/>
<path d="M0.226318 17.6313H36.2263V23.9994H0.226318V17.6313Z" fill="#496E2D"/>
<path d="M0.226318 7.96451H36.2263V16.0363H0.226318V7.96451Z" fill="#A2001D"/>
<path d="M22.9558 3.82992L21.157 2.9996L18.2263 9.63584L15.2955 2.9996L13.4967 3.82992L17.1353 11.9996L13.4967 20.1694L15.2955 20.9996L18.2263 14.3634L21.157 20.9996L22.9558 20.1694L19.3172 11.9996L22.9558 3.82992Z" fill="white"/>
<path d="M19.448 4.61236C18.7516 3.85186 18.2263 3.41473 18.2263 3.41473C18.2263 3.41473 17.7009 3.85179 17.0045 4.61229V19.3869C17.7009 20.1474 18.2263 20.5846 18.2263 20.5846C18.2263 20.5846 18.7516 20.1475 19.448 19.3869V4.61236Z" fill="white"/>
<path d="M14.9244 7.44561V16.5536C15.6603 17.8573 16.5609 18.926 17.2358 19.6345V4.36465C16.5608 5.07312 15.6602 6.1418 14.9244 7.44561ZM21.5282 7.44561C20.7924 6.1418 19.8917 5.07312 19.2169 4.36465V19.6346C19.8918 18.926 20.7924 17.8574 21.5282 16.5536V7.44561Z" fill="#A2001D"/>
<path d="M21.5281 7.44561V16.5535C22.273 15.2335 22.8489 13.6726 22.8489 11.9996C22.8489 10.3266 22.273 8.76573 21.5281 7.44561ZM14.9244 7.44561V16.5535C14.1795 15.2335 13.6036 13.6726 13.6036 11.9996C13.6036 10.3266 14.1795 8.76573 14.9244 7.44561Z" fill="black"/>
</g>
<defs>
<clipPath id="clip0_15_784">
<rect width="36" height="24" fill="white" transform="translate(0.226318)"/>
</clipPath>
</defs>
</svg>
