<svg width="37" height="24" viewBox="0 0 37 24" fill="none" xmlns="http://www.w3.org/2000/svg">
<g clip-path="url(#clip0_15_889)">
<path d="M0.452637 0H36.4526V24H0.452637V0Z" fill="#CE1126"/>
<path d="M18.6607 17.392C21.1437 17.392 23.1567 15.3791 23.1567 12.896C23.1567 10.4129 21.1437 8.4 18.6607 8.4C16.1776 8.4 14.1647 10.4129 14.1647 12.896C14.1647 15.3791 16.1776 17.392 18.6607 17.392Z" fill="#FCD116"/>
<path d="M20.7807 5.872L18.8847 7.952L21.1727 8.472L20.7807 5.872ZM16.6607 5.888L16.2767 8.536L18.5567 7.896L16.6607 5.888ZM24.2047 8.024L21.4287 8.704L23.0367 10.6L24.2047 8.024ZM13.1407 7.88L14.3807 10.496L15.9967 8.68L13.1407 7.88ZM25.8607 11.504L23.1087 10.712L23.5567 13.072L25.8607 11.504ZM11.3007 11.296L13.8527 12.88L14.2687 10.664L11.3007 11.296Z" fill="#FCD116"/>
<path d="M0.452637 14H36.4526V24H0.452637V14Z" fill="#003F87"/>
<path d="M0.452637 21.36C1.65264 21.36 2.85264 22.4 4.05264 22.4C5.25264 22.4 6.45264 21.36 7.65264 21.36C8.85264 21.36 10.0526 22.4 11.2526 22.4C12.4526 22.4 13.6526 21.36 14.8526 21.36C16.0526 21.36 17.2526 22.4 18.4526 22.4C19.6526 22.4 20.8526 21.36 22.0526 21.36C23.2526 21.36 24.4526 22.4 25.6526 22.4C26.8526 22.4 28.0526 21.36 29.2526 21.36C30.4526 21.36 31.6526 22.4 32.8526 22.4C34.0526 22.4 35.2526 21.36 36.4526 21.36V19.68C35.2526 19.68 34.0526 20.72 32.8526 20.72C31.6526 20.72 30.4526 19.68 29.2526 19.68C28.0526 19.68 26.8526 20.72 25.6526 20.72C24.4526 20.72 23.2526 19.68 22.0526 19.68C20.8526 19.68 19.6526 20.72 18.4526 20.72C17.2526 20.72 16.0526 19.68 14.8526 19.68C13.6526 19.68 12.4526 20.72 11.2526 20.72C10.0526 20.72 8.85264 19.68 7.65264 19.68C6.45264 19.68 5.25264 20.72 4.05264 20.72C2.85264 20.72 1.65264 19.68 0.452637 19.68V21.36ZM0.452637 17.92C1.65264 17.92 2.85264 18.96 4.05264 18.96C5.25264 18.96 6.45264 17.92 7.65264 17.92C8.85264 17.92 10.0526 18.96 11.2526 18.96C12.4526 18.96 13.6526 17.92 14.8526 17.92C16.0526 17.92 17.2526 18.96 18.4526 18.96C19.6526 18.96 20.8526 17.92 22.0526 17.92C23.2526 17.92 24.4526 18.96 25.6526 18.96C26.8526 18.96 28.0526 17.92 29.2526 17.92C30.4526 17.92 31.6526 18.96 32.8526 18.96C34.0526 18.96 35.2526 17.92 36.4526 17.92V16.24C35.2526 16.24 34.0526 17.28 32.8526 17.28C31.6526 17.28 30.4526 16.24 29.2526 16.24C28.0526 16.24 26.8526 17.28 25.6526 17.28C24.4526 17.28 23.2526 16.24 22.0526 16.24C20.8526 16.24 19.6526 17.28 18.4526 17.28C17.2526 17.28 16.0526 16.24 14.8526 16.24C13.6526 16.24 12.4526 17.28 11.2526 17.28C10.0526 17.28 8.85264 16.24 7.65264 16.24C6.45264 16.24 5.25264 17.28 4.05264 17.28C2.85264 17.28 1.65264 16.24 0.452637 16.24V17.92ZM0.452637 14.48C1.65264 14.48 2.85264 15.52 4.05264 15.52C5.25264 15.52 6.45264 14.48 7.65264 14.48C8.85264 14.48 10.0526 15.52 11.2526 15.52C12.4526 15.52 13.6526 14.48 14.8526 14.48C16.0526 14.48 17.2526 15.52 18.4526 15.52C19.6526 15.52 20.8526 14.48 22.0526 14.48C23.2526 14.48 24.4526 15.52 25.6526 15.52C26.8526 15.52 28.0526 14.48 29.2526 14.48C30.4526 14.48 31.6526 15.52 32.8526 15.52C34.0526 15.52 35.2526 14.48 36.4526 14.48V12.8C35.2526 12.8 34.0526 13.84 32.8526 13.84C31.6526 13.84 30.4526 12.8 29.2526 12.8C28.0526 12.8 26.8526 13.84 25.6526 13.84C24.4526 13.84 23.2526 12.8 22.0526 12.8C20.8526 12.8 19.6526 13.84 18.4526 13.84C17.2526 13.84 16.0526 12.8 14.8526 12.8C13.6526 12.8 12.4526 13.84 11.2526 13.84C10.0526 13.84 8.85264 12.8 7.65264 12.8C6.45264 12.8 5.25264 13.84 4.05264 13.84C2.85264 13.84 1.65264 12.8 0.452637 12.8V14.48Z" fill="white"/>
<path fill-rule="evenodd" clip-rule="evenodd" d="M15.1086 3.864L15.0206 3.44L16.8126 3.144C16.8126 3.144 14.4046 2.576 13.6126 2.288C12.4686 1.88 12.3086 1.32 12.3086 1.32C12.3086 1.32 15.8846 2.2 17.4926 2.2C17.8366 2.2 18.5166 3.056 18.5166 3.056C18.5166 3.056 19.7006 1.864 20.2686 1.824C22.8366 1.64 25.5966 1.312 25.5966 1.312C25.5966 1.312 24.7966 1.848 24.3166 1.992C23.0206 2.384 20.2686 2.928 20.2686 2.928L19.8846 3.528H22.6126L21.4606 3.872L22.0526 4.424C22.0526 4.424 21.4286 4.096 20.6046 4.256C20.0366 4.36 19.3726 4.736 18.7726 4.896C17.2766 5.28 16.3806 3.872 16.3806 3.872L15.1086 3.864Z" fill="#FCD116"/>
</g>
<defs>
<clipPath id="clip0_15_889">
<rect width="36" height="24" fill="white" transform="translate(0.452637)"/>
</clipPath>
</defs>
</svg>
