<svg width="37" height="24" viewBox="0 0 37 24" fill="none" xmlns="http://www.w3.org/2000/svg">
<g clip-path="url(#clip0_15_832)">
<path d="M0.452637 9.15527e-05H36.4526V24.0004H0.452637V9.15527e-05Z" fill="#0052B4"/>
<path d="M27.4526 8.86916C28.6052 8.86916 29.5396 7.93477 29.5396 6.78215C29.5396 5.62952 28.6052 4.69513 27.4526 4.69513C26.3 4.69513 25.3656 5.62952 25.3656 6.78215C25.3656 7.93477 26.3 8.86916 27.4526 8.86916Z" fill="#6DA544"/>
<path d="M23.8002 6.26093H31.1042V9.39138H23.8002V6.26093Z" fill="#D80027"/>
<path d="M23.8004 14.0868V16.1738H24.8984C25.5568 16.819 26.4579 17.2172 27.4526 17.2172C28.4473 17.2172 29.3483 16.819 30.0068 16.1738H31.1048V14.0868H23.8004Z" fill="#FFDA44"/>
<path d="M23.8004 8.86938V11.9998C23.8004 14.7954 27.4526 15.652 27.4526 15.652C27.4526 15.652 31.1048 14.7955 31.1048 11.9998V8.86938H23.8004Z" fill="#338AF3"/>
<path d="M27.4524 10.5415C26.5394 10.5415 26.5394 11.3763 25.6264 11.3763C24.7134 11.3763 24.7134 10.5415 23.8004 10.5415V12.0023C24.7134 12.0023 24.7134 12.8372 25.6264 12.8372C26.5394 12.8372 26.5394 12.0023 27.4524 12.0023C28.3655 12.0023 28.3655 12.8372 29.2787 12.8372C30.1917 12.8372 30.1917 12.0023 31.1049 12.0023V10.5415C30.1918 10.5415 30.1918 11.3763 29.2787 11.3763C28.3656 11.3762 28.3656 10.5415 27.4524 10.5415ZM27.4524 7.61716C26.5394 7.61716 26.5394 8.45198 25.6264 8.45198C24.7134 8.45198 24.7134 7.61716 23.8004 7.61716V9.07804C24.7134 9.07804 24.7134 9.91286 25.6264 9.91286C26.5394 9.91286 26.5394 9.07804 27.4524 9.07804C28.3655 9.07804 28.3655 9.91286 29.2787 9.91286C30.1917 9.91286 30.1917 9.07804 31.1049 9.07804V7.61716C30.1918 7.61716 30.1918 8.45198 29.2787 8.45198C28.3656 8.45198 28.3656 7.61716 27.4524 7.61716Z" fill="#F3F3F3"/>
<path d="M18.4526 9.15527e-05V1.59035L15.2134 3.74958H18.4526V8.24958H15.2134L18.4526 10.4096V11.9998H16.8616L11.7026 8.56022V11.9998H7.20264V8.56022L2.04367 11.9998H0.452637V10.4096L3.69186 8.24958H0.452637V3.74958H3.69186L0.452637 1.59035V9.15527e-05H2.04367L7.20264 3.43887V9.15527e-05H11.7026V3.43887L16.8616 9.15527e-05H18.4526Z" fill="white"/>
<path d="M10.5776 -0.000274658H8.32764V4.87478H0.452637V7.12478H8.32764V11.9998H10.5776V7.12478H18.4526V4.87478H10.5776V-0.000274658Z" fill="#D80027"/>
<path d="M0.452637 -0.000274658V1.06018L4.48696 3.74978H6.07764L0.452637 -0.000274658ZM18.4526 -0.000274658V1.06018L14.4183 3.74978H12.8276L18.4526 -0.000274658Z" fill="#D80027"/>
<path d="M0.452637 -0.000274658V1.06018L4.48696 3.74978H6.07764L0.452637 -0.000274658ZM18.4526 -0.000274658V1.06018L14.4183 3.74978H12.8276L18.4526 -0.000274658ZM0.452637 11.9998V10.9394L4.48696 8.24978H6.07764L0.452637 11.9998ZM18.4526 11.9998V10.9394L14.4183 8.24978H12.8276L18.4526 11.9998Z" fill="#D80027"/>
</g>
<defs>
<clipPath id="clip0_15_832">
<rect width="36" height="24" fill="white" transform="translate(0.452637)"/>
</clipPath>
</defs>
</svg>
