<svg width="37" height="24" viewBox="0 0 37 24" fill="none" xmlns="http://www.w3.org/2000/svg">
<g clip-path="url(#clip0_15_880)">
<path d="M0.452637 0H36.4526V24H0.452637V0Z" fill="#36B6CC"/>
<path d="M18.4526 16.793C21.1036 16.793 23.2526 14.6439 23.2526 11.993C23.2526 9.34201 21.1036 7.19298 18.4526 7.19298C15.8016 7.19298 13.6526 9.34201 13.6526 11.993C13.6526 14.6439 15.8016 16.793 18.4526 16.793Z" fill="#FFD400"/>
<path d="M18.4526 17.6491L16.4947 20.5754L15.9965 17.0877L12.9649 18.8772L14.0316 15.5228L10.5228 15.8175L12.9368 13.2561L9.64559 11.993L12.9298 10.7298L10.5158 8.16842L14.0245 8.46316L12.9579 5.10878L15.9895 6.89123L16.4877 3.40351L18.4456 6.32983L20.4035 3.40351L20.9017 6.89123L23.9333 5.10878L22.8666 8.46316L26.3754 8.16842L23.9684 10.7368L27.2526 11.993L23.9684 13.2561L26.3824 15.8175L22.8737 15.5228L23.9403 18.8772L20.9088 17.0947L20.4105 20.5825C20.4105 20.5754 18.4526 17.6491 18.4526 17.6491ZM18.4526 17.593C21.5473 17.593 24.0596 15.0807 24.0596 11.986C24.0596 8.89123 21.5473 6.38597 18.4526 6.38597C15.3579 6.38597 12.8456 8.89825 12.8456 11.993C12.8456 15.0877 15.3579 17.593 18.4526 17.593ZM2.05261 1.98597C2.05261 1.76141 2.22103 1.58597 2.45261 1.58597H3.24559C3.47016 1.58597 3.64559 1.75439 3.64559 1.98597V2.77895C3.65261 2.99649 3.47717 3.17895 3.25261 3.17895H2.45261C2.23507 3.17895 2.05261 3.00351 2.05261 2.78597V1.98597ZM2.05261 5.19299C2.05261 4.96842 2.22103 4.79299 2.45261 4.79299H3.24559C3.47016 4.79299 3.64559 4.96141 3.64559 5.19299V5.98597C3.65261 6.20351 3.47717 6.38597 3.25261 6.38597H2.45261C2.23507 6.38597 2.05261 6.21053 2.05261 5.99299V5.19299ZM2.05261 8.39299C2.05261 8.16842 2.22103 7.99299 2.45261 7.99299H3.24559C3.47016 7.99299 3.64559 8.16141 3.64559 8.39299V9.18597C3.65261 9.40351 3.47717 9.58597 3.25261 9.58597H2.45261C2.23507 9.58597 2.05261 9.41053 2.05261 9.19299V8.39299ZM2.05261 11.593C2.05261 11.3684 2.22103 11.193 2.45261 11.193H3.24559C3.47016 11.193 3.64559 11.3614 3.64559 11.593V12.386C3.65261 12.6035 3.47717 12.786 3.25261 12.786H2.45261C2.23507 12.786 2.05261 12.6105 2.05261 12.393V11.593ZM2.05261 14.8C2.05261 14.5754 2.22103 14.4 2.45261 14.4H3.24559C3.47016 14.4 3.64559 14.5684 3.64559 14.8V15.593C3.65261 15.8105 3.47717 15.993 3.25261 15.993H2.45261C2.23507 15.993 2.05261 15.8175 2.05261 15.6V14.8ZM2.05261 18C2.05261 17.7754 2.22103 17.6 2.45261 17.6H3.24559C3.47016 17.6 3.64559 17.7684 3.64559 18V18.793C3.65261 19.0105 3.47717 19.193 3.25261 19.193H2.45261C2.23507 19.193 2.05261 19.0175 2.05261 18.8V18ZM2.05261 21.2C2.05261 20.9754 2.22103 20.8 2.45261 20.8H3.24559C3.47016 20.8 3.64559 20.9684 3.64559 21.2V21.993C3.65261 22.2105 3.47717 22.393 3.25261 22.393H2.45261C2.23507 22.393 2.05261 22.2175 2.05261 22V21.2ZM3.65261 19.6C3.65261 19.3754 3.82103 19.2 4.05261 19.2H4.84559C5.07016 19.2 5.24559 19.3684 5.24559 19.6V20.393C5.25261 20.6105 5.07717 20.793 4.85261 20.793H4.05261C3.83507 20.793 3.65261 20.6175 3.65261 20.4V19.6ZM3.65261 16.4C3.65261 16.1754 3.82103 16 4.05261 16H4.84559C5.07016 16 5.24559 16.1684 5.24559 16.4V17.193C5.25261 17.4105 5.07717 17.593 4.85261 17.593H4.05261C3.83507 17.593 3.65261 17.4175 3.65261 17.2V16.4ZM3.65261 13.193C3.65261 12.9684 3.82103 12.793 4.05261 12.793H4.84559C5.07016 12.793 5.24559 12.9614 5.24559 13.193V13.986C5.25261 14.2035 5.07717 14.386 4.85261 14.386H4.05261C3.83507 14.386 3.65261 14.2105 3.65261 13.993V13.193ZM3.65261 9.99299C3.65261 9.76842 3.82103 9.59299 4.05261 9.59299H4.84559C5.07016 9.59299 5.24559 9.76141 5.24559 9.99299V10.786C5.25261 11.0035 5.07717 11.186 4.85261 11.186H4.05261C3.83507 11.186 3.65261 11.0105 3.65261 10.793V9.99299ZM3.65261 6.79299C3.65261 6.56842 3.82103 6.39299 4.05261 6.39299H4.84559C5.07016 6.39299 5.24559 6.56141 5.24559 6.79299V7.58597C5.25261 7.80351 5.07717 7.98597 4.85261 7.98597H4.05261C3.83507 7.98597 3.65261 7.81053 3.65261 7.59299V6.79299ZM3.65261 3.59299C3.65261 3.36842 3.82103 3.19299 4.05261 3.19299H4.84559C5.07016 3.19299 5.24559 3.36141 5.24559 3.59299V4.38597C5.25261 4.60351 5.07717 4.78597 4.85261 4.78597H4.05261C3.83507 4.78597 3.65261 4.61053 3.65261 4.39299V3.59299Z" fill="#FFD400"/>
</g>
<defs>
<clipPath id="clip0_15_880">
<rect width="36" height="24" fill="white" transform="translate(0.452637)"/>
</clipPath>
</defs>
</svg>
