<svg width="37" height="24" viewBox="0 0 37 24" fill="none" xmlns="http://www.w3.org/2000/svg">
<g clip-path="url(#clip0_15_927)">
<path d="M0.679199 0H36.6792V24H0.679199V0Z" fill="#FFDA44"/>
<path d="M16.3003 1.56491H35.0442V22.393H16.3003V1.56491Z" fill="#A2001D"/>
<path d="M2.24414 1.56491H16.3003V22.393H2.24414V1.56491Z" fill="#D80027"/>
<path d="M14.7354 0H16.3003V24H14.7354V0Z" fill="#FFDA44"/>
<path d="M2.24414 1.56491H8.48976V22.393H2.24414V1.56491Z" fill="#6DA544"/>
<path d="M8.48975 1.56491H14.7354V22.393H8.48975V1.56491Z" fill="#FF9811"/>
<path d="M26.5178 11.0035C26.4195 10.8632 26.5178 8.34387 26.5178 8.34387C26.5809 7.82457 26.5248 7.7544 26.588 7.54387C26.6511 7.34036 26.9669 6.72984 26.9669 6.72984C26.9669 6.72984 26.5458 6.56843 26.2441 6.68773C25.9423 6.80703 24.5108 6.16142 24.0546 6.92633C23.7458 7.41756 22.3985 8.06317 22.3283 7.90878C22.2581 7.7544 21.9143 7.55791 21.8441 7.70528C21.7739 7.85264 21.795 8.68072 21.8441 8.82808C21.9002 9.01054 22.5318 8.96843 22.7073 9.04563C22.9669 9.17194 23.5634 9.62107 23.5423 9.79651C23.5213 9.97194 21.9634 9.37545 21.8441 9.48072C21.7458 9.56493 21.7108 10.407 21.816 10.5333C21.9423 10.6807 23.4581 10.9263 23.5704 11.0597C23.6827 11.193 22.6511 11.579 22.7073 12.8141C22.7564 13.8456 23.2687 14.0351 23.2687 14.0351C23.2687 14.0351 23.1002 14.2877 22.7213 14.2526C22.2862 14.2105 20.7985 13.0105 20.7985 13.0105C20.7985 13.0105 20.5529 5.36142 21.0511 4.49124C21.395 3.89475 19.4581 5.20001 19.4581 8.05615V10.5965C19.4581 11.0597 19.3599 12.1684 19.6406 12.9825C19.6406 12.9825 19.6125 16.2737 19.7458 16.4632C19.8792 16.6526 20.6371 16.6176 20.7844 16.4632C20.9318 16.3088 20.7844 14.3579 20.7844 14.3579C21.3248 14.3719 22.0687 15.586 23.0651 15.5088C24.5108 15.3965 25.0792 14.8141 25.4722 15.1579C26.0406 15.6562 25.8581 16.786 25.5002 17.3684C25.3458 17.6141 24.4967 17.6983 24.3985 17.9018C24.3002 18.1053 24.4336 18.2807 24.4336 18.2807H26.5178C26.5178 18.2807 26.616 16.8421 26.7073 16.4491C26.7985 16.0491 26.6651 15.6983 27.1213 15.7193C28.7704 15.7965 29.9143 14.6456 30.3143 15.1579C30.5388 15.4456 30.7073 17.2562 30.5458 17.4948C30.3915 17.7334 29.5774 17.6912 29.4792 17.9649C29.3809 18.2456 29.5353 18.2737 29.5353 18.2737H31.6195C31.6195 18.2737 31.5915 16.786 31.795 16.3298C31.9985 15.8737 32.1388 15.6 32.4476 15.1228C32.7564 14.6456 33.2406 14.0211 33.2406 12.5825C33.2406 11.586 32.6722 10.9825 32.6722 10.9825H29.9423C28.9529 10.9965 26.616 11.1439 26.5178 11.0035ZM16.9739 2.26668C17.7248 1.52282 18.3915 2.0772 18.5318 2.41405C18.6651 2.75089 18.6792 2.98948 18.7283 3.36843C18.7915 3.85264 19.0722 4.35089 19.0722 4.35089C19.0722 4.35089 18.5739 4.08422 18.0406 4.05615C17.7108 4.0351 17.409 4.01405 17.0862 3.88071C16.6862 3.71931 16.2651 2.97545 16.9739 2.26668ZM34.4055 2.25966C35.1564 3.00352 34.602 3.6772 34.2651 3.81756C33.9283 3.95791 33.6897 3.96492 33.3108 4.01405C32.8265 4.0772 32.3283 4.36492 32.3283 4.36492C32.3283 4.36492 32.588 3.86668 32.623 3.33334C32.6441 3.00352 32.6651 2.69475 32.7915 2.37896C32.9458 1.97896 33.6897 1.55089 34.4055 2.25966ZM34.4125 21.6912C33.6616 22.4351 32.995 21.8737 32.8546 21.5369C32.7213 21.2 32.7073 20.9614 32.6651 20.5825C32.609 20.0983 32.3213 19.593 32.3213 19.593C32.3213 19.593 32.8125 19.8597 33.3529 19.8948C33.6827 19.9158 33.9844 19.9369 34.3073 20.0702C34.7073 20.2386 35.1283 20.9895 34.4125 21.6912ZM16.995 21.6842C16.2511 20.9334 16.8055 20.2667 17.1423 20.1263C17.4792 19.993 17.7178 19.979 18.0967 19.9298C18.5809 19.8667 19.0792 19.586 19.0792 19.586C19.0792 19.586 18.8125 20.0842 18.7844 20.6176C18.7634 20.9474 18.7423 21.2491 18.609 21.5719C18.4476 21.9719 17.7037 22.4 16.995 21.6842Z" fill="#FFDA44"/>
<path d="M32.0407 11.3965C32.0407 11.3965 32.567 11.214 32.6301 10.2667C32.6722 9.66317 31.2407 9.14387 29.8933 9.45966C28.5108 9.78246 27.5073 9.24211 27.5073 8.43509C27.5073 6.82808 29.5915 7.29825 30.2372 7.64211C30.8757 7.98597 32.3214 9.29124 32.7003 8.30176" stroke="#FFDA44" stroke-width="6" stroke-miterlimit="10"/>
</g>
<defs>
<clipPath id="clip0_15_927">
<rect width="36" height="24" fill="white" transform="translate(0.679199)"/>
</clipPath>
</defs>
</svg>
