<svg width="37" height="24" viewBox="0 0 37 24" fill="none" xmlns="http://www.w3.org/2000/svg">
<g clip-path="url(#clip0_15_936)">
<path d="M0.679199 0H36.609V2.18246H0.679199V0ZM0.679199 4.36491H36.609V6.54737H0.679199V4.36491ZM0.679199 8.73684H36.609V10.9193H0.679199V8.73684ZM0.679199 13.1088H36.609V15.2912H0.679199V13.1088ZM0.679199 17.4947H36.609V19.6772H0.679199V17.4947ZM0.679199 21.8175H36.609V24H0.679199V21.8175Z" fill="#BF0A30"/>
<path d="M0.679199 0H11.5985V10.9193H0.679199V0Z" fill="#002868"/>
<path d="M6.13891 2.11929L6.88979 4.42807H9.31785L7.35294 5.85965L8.10382 8.16842L6.13891 6.74386L4.174 8.16842L4.92487 5.85965L2.95996 4.42807H5.38803L6.13891 2.11929Z" fill="white"/>
</g>
<defs>
<clipPath id="clip0_15_936">
<rect width="36" height="24" fill="white" transform="translate(0.679199)"/>
</clipPath>
</defs>
</svg>
