<svg width="37" height="24" viewBox="0 0 37 24" fill="none" xmlns="http://www.w3.org/2000/svg">
<g clip-path="url(#clip0_15_905)">
<path d="M0.452637 0.000286102H36.4526V23.9998H0.452637V0.000286102Z" fill="black"/>
<path d="M0.452637 0.000286102H36.4526V8.0001H0.452637V0.000286102Z" fill="#D80027"/>
<path d="M0.452637 16H36.4526V23.9998H0.452637V16Z" fill="#496E2D"/>
<path d="M20.2402 10.5956L20.8704 11.464L21.8908 11.1331L21.2597 12.0007L21.8898 12.869L20.8697 12.5368L20.2385 13.4045L20.2392 12.3316L19.219 11.9994L20.2395 11.6685L20.2402 10.5956Z" fill="white"/>
<path d="M18.5205 14.1704C17.3218 14.1704 16.3501 13.1987 16.3501 12C16.3501 10.8014 17.3218 9.82963 18.5205 9.82963C18.881 9.82911 19.2359 9.91879 19.5529 10.0905C19.0712 9.61953 18.4126 9.32879 17.6857 9.32879C16.2104 9.32879 15.0144 10.5248 15.0144 12.0001C15.0144 13.4754 16.2104 14.6714 17.6857 14.6714C18.4126 14.6714 19.0713 14.3807 19.5529 13.9097C19.2359 14.0814 18.881 14.171 18.5205 14.1704Z" fill="white"/>
</g>
<defs>
<clipPath id="clip0_15_905">
<rect width="36" height="24" fill="white" transform="translate(0.452637)"/>
</clipPath>
</defs>
</svg>
