<svg width="37" height="24" viewBox="0 0 37 24" fill="none" xmlns="http://www.w3.org/2000/svg">
<g clip-path="url(#clip0_15_951)">
<path d="M0.679199 0.000305176V23.9998H36.6792V0.000305176H0.679199Z" fill="#D80027"/>
<path d="M25.4292 9.92468H20.2727L18.6792 5.02066L17.0857 9.92482H11.9292L16.1009 12.9558L14.5074 17.86L18.6792 14.8288L22.851 17.8598L21.2575 12.9556L25.4292 9.92468ZM17.2685 12.5762L17.8073 10.9179H19.5511L20.0899 12.5762V12.5763L18.6792 13.6012L17.2685 12.5762ZM19.2283 9.92468H18.1301L18.6792 8.23458L19.2283 9.92468ZM20.9348 11.9625L20.5954 10.9179H22.3724L20.9348 11.9625ZM16.763 10.9179L16.4236 11.9625L14.986 10.9179H16.763ZM16.3966 15.2596L16.9458 13.5695L17.8343 14.2151L16.3966 15.2596ZM19.5241 14.215L20.4125 13.5695L20.9617 15.2595L19.5241 14.215Z" fill="#20661B"/>
</g>
<defs>
<clipPath id="clip0_15_951">
<rect width="36" height="24" fill="white" transform="translate(0.679199)"/>
</clipPath>
</defs>
</svg>
