<svg width="37" height="24" viewBox="0 0 37 24" fill="none" xmlns="http://www.w3.org/2000/svg">
<g clip-path="url(#clip0_15_981)">
<path d="M0.679199 0H36.6792V24H0.679199V0Z" fill="#E6BE53"/>
<path d="M2.08276 1.40351H35.2757V22.5965H2.08276V1.40351Z" fill="#E01D24"/>
<path d="M18.1177 7.92281C18.4265 8.23158 18.9318 8.23158 19.2406 7.92281L18.9107 8.25263L20.5037 6.65965C20.8476 6.34386 21.3528 6.26667 21.7809 6.46316L21.9283 6.53333C22.3283 6.73684 22.3985 7.14386 22.0897 7.45263L22.4195 7.12281L20.8195 8.72281C20.5037 9.06667 20.4265 9.57193 20.623 10L20.6932 10.1474C20.8967 10.5474 21.0511 11.2281 21.0511 11.6632V10.8702C21.0511 11.3053 21.3599 11.5088 21.7669 11.3053L21.9142 11.2351C22.3142 11.0316 22.3844 10.6246 22.0756 10.3158L22.4055 10.6456C22.0967 10.3368 22.0967 9.83158 22.4055 9.52281L22.0756 9.85263C22.4406 9.46666 22.7493 9.03859 22.9949 8.57544L23.0651 8.42807C23.2686 8.02807 23.5072 7.36842 23.6195 6.94035L24.0265 5.30526C24.1318 4.88421 24.4406 4.82807 24.7002 5.17895L26.1177 7.06667C26.3844 7.42456 26.602 8.04912 26.602 8.51228V10.0842C26.602 10.5263 26.4476 11.193 26.2441 11.607L26.1739 11.7544C25.9283 12.2175 25.6195 12.6456 25.2546 13.0316L24.7774 13.5088C24.3984 13.8737 23.9704 14.1825 23.5002 14.4281L23.3528 14.4982C22.9528 14.7018 22.2651 14.8561 21.837 14.8561C21.402 14.8561 21.3528 15.0105 21.7599 15.214L21.9072 15.2842C22.3072 15.4877 22.8756 15.8947 23.1844 16.2035L22.8546 15.8737C23.1634 16.1825 23.6686 16.1825 23.9774 15.8737L23.6476 16.2035C23.9563 15.8947 24.4616 15.8947 24.7704 16.2035L24.4686 15.8596C24.7914 16.2035 24.8686 16.7088 24.6721 17.1368L24.602 17.2842C24.3984 17.6842 23.8721 18 23.4511 18C22.9248 17.9789 22.4125 17.8596 21.9353 17.6421L21.7879 17.5719C21.3318 17.3193 20.9599 16.9474 20.7072 16.4912L20.637 16.3439C20.4335 15.9439 20.0265 15.8737 19.7177 16.1825L20.0476 15.8526C19.7388 16.1825 19.6827 16.6807 19.9213 17.0667L20.6441 18.1474C20.8827 18.5053 20.7844 18.9965 20.4265 19.2351L19.3458 19.9579C18.9458 20.1965 18.4476 20.1965 18.0406 19.9579L16.9599 19.2351C16.602 18.9965 16.5037 18.5123 16.7423 18.1474L17.4651 17.0667C17.7037 16.6807 17.6476 16.1825 17.3388 15.8526L17.6686 16.1825C17.3599 15.8737 16.9528 15.9298 16.7493 16.3439L16.6792 16.4912C16.4756 16.8912 16.0125 17.3614 15.5985 17.5719L15.4511 17.6421C15.0511 17.8456 14.3634 18 13.9353 18C13.4511 17.9789 13.016 17.7053 12.7844 17.2842L12.7142 17.1368C12.5178 16.7088 12.602 16.2035 12.9177 15.8596L12.5879 16.1895C12.8967 15.8807 13.402 15.8807 13.7107 16.1895L13.3809 15.8596C13.6897 16.1684 14.1949 16.1684 14.5037 15.8596L14.1739 16.1895C14.5599 15.8246 14.9879 15.5158 15.4511 15.2702L15.5985 15.2C15.9985 14.9965 15.9493 14.8421 15.5213 14.8421C14.9949 14.821 14.4827 14.7017 14.0055 14.4842L13.8581 14.414C13.3949 14.1684 12.9669 13.8596 12.5809 13.4947L12.1037 13.0175C11.7388 12.6386 11.43 12.2105 11.1844 11.7403L11.1142 11.593C10.8967 11.1158 10.7704 10.5965 10.7563 10.0702V8.49123C10.7563 8.04912 10.9739 7.39649 11.2406 7.04561L12.6581 5.15789C12.9248 4.8 13.2265 4.85614 13.3318 5.28421L13.7388 6.9193C13.8792 7.43158 14.0616 7.92982 14.2932 8.40702L14.3634 8.55438C14.5669 8.95438 14.9739 9.52281 15.2827 9.83158L14.9528 9.50175C15.2616 9.81052 15.2616 10.3158 14.9528 10.6246L15.2827 10.2947C14.9739 10.6035 15.03 11.0105 15.4441 11.214L15.5914 11.2842C15.9914 11.4877 16.3072 11.2842 16.3072 10.8491V11.6421C16.3072 11.207 16.4616 10.5403 16.6651 10.1263L16.7353 9.97895C16.9318 9.55088 16.8546 9.05263 16.5388 8.70175L14.9458 7.10877L15.2756 7.4386C14.9669 7.12982 15.023 6.72281 15.437 6.5193L15.5844 6.44912C16.0125 6.25263 16.5107 6.32982 16.8616 6.64561L18.4546 8.2386L18.1177 7.92281ZM16.8546 5.06667C16.5458 4.75789 16.63 4.4 17.0511 4.25965L17.9213 3.96491C18.3423 3.82456 19.009 3.82456 19.43 3.96491L20.3002 4.25965C20.7213 4.4 20.8055 4.75789 20.4967 5.06667L20.0195 5.54386C19.6476 5.87368 19.1704 6.07018 18.6721 6.09825C18.237 6.09825 17.6335 5.85263 17.3248 5.54386C17.3318 5.54386 16.8546 5.06667 16.8546 5.06667Z" fill="#E6BE53"/>
<path d="M17.0933 14.0491C17.0933 14.4842 17.2126 14.4982 17.388 14.0842C17.388 14.0842 17.8862 12.4561 18.6792 12.4561C19.4722 12.4561 19.9845 14.1123 19.9845 14.1123C20.1389 14.5123 20.2652 14.4842 20.2652 14.0351V13.2491C20.2652 11.9368 19.5564 10.8702 18.6792 10.8702C17.802 10.8702 17.0933 11.9368 17.0933 13.2491V14.0491Z" fill="#215F90"/>
</g>
<defs>
<clipPath id="clip0_15_981">
<rect width="36" height="24" fill="white" transform="translate(0.679199)"/>
</clipPath>
</defs>
</svg>
