<svg width="37" height="24" viewBox="0 0 37 24" fill="none" xmlns="http://www.w3.org/2000/svg">
<g clip-path="url(#clip0_15_1026)">
<path d="M0.905518 0H36.9055V24H0.905518V0Z" fill="#095FAD"/>
<path d="M24.9055 0H36.9055V24H24.9055V0ZM0.905518 0H12.9055V24H0.905518V0Z" fill="#BE1229"/>
<path d="M8.50546 11.6702H9.54405V16.8772H8.50546V11.6702ZM4.33704 11.6702H5.37563V16.8772H4.33704V11.6702Z" fill="#FFDA44"/>
<path d="M6.94057 15.3123C7.51418 15.3123 7.97917 14.8473 7.97917 14.2737C7.97917 13.7001 7.51418 13.2351 6.94057 13.2351C6.36697 13.2351 5.90198 13.7001 5.90198 14.2737C5.90198 14.8473 6.36697 15.3123 6.94057 15.3123Z" fill="#FFDA44"/>
<path d="M5.90198 15.8386H7.98619V16.8772H5.90198V15.8386ZM5.90198 11.6702H7.98619V12.7088H5.90198V11.6702Z" fill="#FFDA44"/>
<path d="M6.94057 11.1439C7.51418 11.1439 7.97917 10.6789 7.97917 10.1053C7.97917 9.53168 7.51418 9.06668 6.94057 9.06668C6.36697 9.06668 5.90198 9.53168 5.90198 10.1053C5.90198 10.6789 6.36697 11.1439 6.94057 11.1439Z" fill="#FFDA44"/>
<path d="M6.25989 8.69474H7.62831L6.94059 7.60001L6.25989 8.69474Z" fill="#FFDA44"/>
</g>
<defs>
<clipPath id="clip0_15_1026">
<rect width="36" height="24" fill="white" transform="translate(0.905518)"/>
</clipPath>
</defs>
</svg>
