<svg width="37" height="24" viewBox="0 0 37 24" fill="none" xmlns="http://www.w3.org/2000/svg">
<g clip-path="url(#clip0_15_997)">
<path d="M0.905518 0H36.9055V24H0.905518V0Z" fill="#0071BC"/>
<path d="M18.9055 22.56C24.8701 22.56 29.7055 17.7247 29.7055 11.76C29.7055 5.79532 24.8701 0.959991 18.9055 0.959991C12.9408 0.959991 8.10547 5.79532 8.10547 11.76C8.10547 17.7247 12.9408 22.56 18.9055 22.56Z" fill="white" stroke="black" stroke-width="1.9"/>
<path d="M18.9055 19.68C23.2796 19.68 26.8255 16.1341 26.8255 11.76C26.8255 7.3859 23.2796 3.84 18.9055 3.84C14.5314 3.84 10.9855 7.3859 10.9855 11.76C10.9855 16.1341 14.5314 19.68 18.9055 19.68Z" fill="#0071BC" stroke="black" stroke-width="1.9"/>
<path d="M22.2511 21.6C22.2847 22.128 21.8767 22.56 21.3487 22.56H16.4383C15.9103 22.56 15.5023 22.128 15.5263 21.6L16.3279 6.00001C16.3567 5.47201 16.8079 5.04001 17.3359 5.04001H20.2831C20.8111 5.04001 21.2671 5.47201 21.3007 6.00001L22.2511 21.6Z" fill="#8C8A8C" stroke="black" stroke-width="1.9"/>
<path d="M18.8095 5.47202L20.2495 9.93602H24.9055L21.1615 12.624L22.5535 17.04L18.8095 14.352L15.0655 17.088L16.5055 12.624L12.7135 9.88802H17.3695L18.8095 5.47202Z" fill="white" stroke="black" stroke-width="2" stroke-linejoin="round"/>
</g>
<defs>
<clipPath id="clip0_15_997">
<rect width="36" height="24" fill="white" transform="translate(0.905518)"/>
</clipPath>
</defs>
</svg>
