<svg width="37" height="24" viewBox="0 0 37 24" fill="none" xmlns="http://www.w3.org/2000/svg">
<g clip-path="url(#clip0_15_1012)">
<path d="M0.905518 -0.000152588H36.9055V24.0001H0.905518V-0.000152588Z" fill="#496E2D"/>
<path d="M18.9055 15.013C15.6742 15.013 12.9748 12.742 12.3125 9.70938C12.2084 10.1845 12.1557 10.6695 12.1555 11.1559C12.1555 14.8838 15.1775 17.9059 18.9055 17.9059C22.6336 17.9059 25.6555 14.8838 25.6555 11.1559C25.6555 10.659 25.6003 10.1756 25.4985 9.70938C24.8362 12.742 22.1368 15.013 18.9055 15.013Z" fill="#FFDA44"/>
<path d="M18.9054 6.09335L19.5337 8.02709H21.567L19.9221 9.22212L20.5504 11.1559L18.9054 9.96075L17.2605 11.1559L17.8889 9.22212L16.244 8.02709H18.2771L18.9054 6.09335Z" fill="#FFDA44"/>
</g>
<defs>
<clipPath id="clip0_15_1012">
<rect width="36" height="24" fill="white" transform="translate(0.905518)"/>
</clipPath>
</defs>
</svg>
