<svg width="37" height="24" viewBox="0 0 37 24" fill="none" xmlns="http://www.w3.org/2000/svg">
<g clip-path="url(#clip0_15_1041)">
<path d="M0.905518 0H36.9055V24H0.905518V0Z" fill="#1B4991"/>
<path d="M23.2354 7.48772V14.9614C23.2354 18.6035 27.9932 19.7193 27.9932 19.7193C27.9932 19.7193 32.7511 18.6035 32.7511 14.9614V7.48772H23.2354Z" fill="#00A2B8" stroke="white" stroke-width="3"/>
<path d="M23.3406 14.9263C23.3406 18.4912 27.9932 19.5789 27.9932 19.5789C27.9932 19.5789 32.6458 18.4842 32.6458 14.9263H23.3406Z" fill="#A35023"/>
<path d="M30.0353 10.8842H28.6739V9.52281H27.3125V10.8842H25.9581V12.2456H27.3125V16.3228H28.6739V12.2456H30.0353V10.8842Z" fill="black"/>
<path d="M18.8704 0V2.14737L15.6985 3.90877H18.8704V8.07018H14.7231L18.8704 10.3719V11.9789H16.9967L11.8389 9.10877V11.9789H7.9371V8.56842L1.79675 11.9789H0.905518V9.83158L4.07745 8.07018H0.905518V3.90877H5.05289L0.905518 1.6V0H2.7792L7.9371 2.86316V0H11.8389V3.41053L17.9792 0H18.8704Z" fill="white"/>
<path d="M11.0108 0H8.76517V4.86316H0.905518V7.10877H8.76517V11.9789H11.0108V7.10877H18.8704V4.86316H11.0108V0Z" fill="#D80027"/>
<path d="M11.8389 8.07018L18.8704 11.9789V10.8702L13.8318 8.07018H11.8389Z" fill="#0052B4"/>
<path d="M11.8389 8.07018L18.8704 11.9789V10.8702L13.8318 8.07018H11.8389Z" fill="white"/>
<path d="M11.8389 8.07018L18.8704 11.9789V10.8702L13.8318 8.07018H11.8389ZM5.94411 8.07018L0.905518 10.8702V11.9789L7.9371 8.07018H5.94411Z" fill="#D80027"/>
<path d="M7.9371 3.90175L0.905518 0V1.10175L5.94411 3.90175H7.9371Z" fill="#0052B4"/>
<path d="M7.9371 3.90175L0.905518 0V1.10175L5.94411 3.90175H7.9371Z" fill="white"/>
<path d="M7.9371 3.90175L0.905518 0V1.10175L5.94411 3.90175H7.9371ZM13.8318 3.90175L18.8704 1.10175V0L11.8389 3.90175H13.8318Z" fill="#D80027"/>
</g>
<defs>
<clipPath id="clip0_15_1041">
<rect width="36" height="24" fill="white" transform="translate(0.905518)"/>
</clipPath>
</defs>
</svg>
