<svg width="37" height="24" viewBox="0 0 37 24" fill="none" xmlns="http://www.w3.org/2000/svg">
<g clip-path="url(#clip0_15_1022)">
<path d="M0.905518 -0.000152588H36.9055V23.9999H0.905518V-0.000152588Z" fill="#D01920"/>
<path d="M11.0795 6.26077H26.7317V17.7393H11.0795V6.26077Z" fill="#017C3B"/>
<path d="M20.838 15.3909C18.9651 15.3909 17.4467 13.8726 17.4467 11.9996C17.4467 10.1266 18.965 8.60829 20.838 8.60829C21.422 8.60829 21.9714 8.75595 22.4512 9.01589C21.6986 8.27993 20.6694 7.82571 19.5336 7.82571C17.2285 7.82571 15.3597 9.69441 15.3597 11.9996C15.3597 14.3048 17.2285 16.1735 19.5336 16.1735C20.6695 16.1735 21.6986 15.7192 22.4512 14.9833C21.9715 15.2433 21.4221 15.3909 20.838 15.3909Z" fill="white"/>
</g>
<defs>
<clipPath id="clip0_15_1022">
<rect width="36" height="24" fill="white" transform="translate(0.905518)"/>
</clipPath>
</defs>
</svg>
