<svg width="37" height="24" viewBox="0 0 37 24" fill="none" xmlns="http://www.w3.org/2000/svg">
<g clip-path="url(#clip0_15_1099)">
<path d="M0.131836 0H36.1318V24H0.131836V0Z" fill="white"/>
<path d="M0.131836 0H36.1318V1.71228H0.131836V0ZM0.131836 3.43158H36.1318V5.14386H0.131836V3.43158ZM0.131836 6.85614H36.1318V8.56842H0.131836V6.85614ZM0.131836 10.2877H36.1318V12H0.131836V10.2877ZM0.131836 13.7123H36.1318V15.4246H0.131836V13.7123ZM0.131836 17.1439H36.1318V18.8561H0.131836V17.1439ZM0.131836 20.5684H36.1318V22.2807H0.131836V20.5684Z" fill="#CC0000"/>
<path d="M0.131836 0H18.1318V13.7123H0.131836V0Z" fill="#000066"/>
<path d="M10.8898 2.95437C8.73538 2.15437 6.3424 3.24911 5.5424 5.4035C4.7424 7.55788 5.83713 9.95086 7.99152 10.7509C8.92485 11.1017 9.95643 11.1017 10.8968 10.7509C8.74239 12.4702 5.60555 12.1263 3.87924 9.97192C2.15292 7.81753 2.5038 4.68069 4.65818 2.95437C6.48275 1.50174 9.07222 1.50174 10.8898 2.95437ZM12.7634 8.21753L11.3178 9.85262L11.6968 7.70525L9.52134 7.59297L11.4371 6.54736L10.167 4.77192L12.174 5.61402L12.7634 3.51578L13.3529 5.61402L15.3599 4.77192L14.0968 6.55437L16.0126 7.59999L13.8371 7.71227L14.2161 9.85964L12.7634 8.21753Z" fill="#FFCC00"/>
</g>
<defs>
<clipPath id="clip0_15_1099">
<rect width="36" height="24" fill="white" transform="translate(0.131836)"/>
</clipPath>
</defs>
</svg>
