<svg width="37" height="24" viewBox="0 0 37 24" fill="none" xmlns="http://www.w3.org/2000/svg">
<g clip-path="url(#clip0_15_1074)">
<path d="M0.905518 0.000286341H36.9055V23.9998H0.905518V0.000286341Z" fill="#496E2D"/>
<path d="M0.905518 23.9998V0.000286341H36.9055" fill="#0052B4"/>
<path d="M36.9055 4.70314V0.000286341H29.8511L0.905518 19.2969V23.9998H7.95997L36.9055 4.70314Z" fill="white"/>
<path d="M36.9055 0.000286341V2.82158L5.13784 23.9998H0.905518V21.1785L32.6732 0.000286341H36.9055Z" fill="#A2001D"/>
<path d="M14.1057 7.304L12.5068 8.05606L13.3582 9.60463L11.622 9.27247L11.402 11.0264L10.1927 9.73639L8.98332 11.0264L8.76331 9.27247L7.02709 9.60455L7.8785 8.05606L6.27966 7.304L7.87857 6.55186L7.02709 5.00344L8.76331 5.33546L8.98339 3.58158L10.1927 4.87161L11.4021 3.58158L11.622 5.33546L13.3582 5.00344L12.5069 6.55201L14.1057 7.304Z" fill="#FFDA44"/>
</g>
<defs>
<clipPath id="clip0_15_1074">
<rect width="36" height="24" fill="white" transform="translate(0.905518)"/>
</clipPath>
</defs>
</svg>
