<svg width="37" height="24" viewBox="0 0 37 24" fill="none" xmlns="http://www.w3.org/2000/svg">
<g clip-path="url(#clip0_15_1063)">
<path d="M0.905518 16.48H36.9055V24H0.905518V16.48Z" fill="#009543"/>
<path d="M0.905518 7.42442H36.9055V16.4968H0.905518V7.42442Z" fill="#ED4135"/>
<path d="M0.905518 0H36.9055V7.49754H0.905518V0Z" fill="#0035AD"/>
<path d="M14.4055 20.8446C19.2922 20.8446 23.2536 16.8835 23.2536 11.9972C23.2536 7.11088 19.2922 3.14975 14.4055 3.14975C9.51881 3.14975 5.55737 7.11088 5.55737 11.9972C5.55737 16.8835 9.51881 20.8446 14.4055 20.8446Z" fill="#FAE600" stroke="black" stroke-width="5.3"/>
<path d="M18.2249 19.9391L16.4361 20.614L14.4055 20.8502L12.2793 20.7153L10.2599 19.8434C10.2599 19.8434 11.8686 18.1955 12.5493 17.9592C13.033 17.7905 13.8093 17.7511 13.8093 17.7511V6.86196L13.7924 3.14975H14.743L14.7149 6.94633V17.7286C14.7149 17.7286 15.5755 17.7961 15.958 17.9592C16.5936 18.2348 18.2249 19.9391 18.2249 19.9391Z" fill="black"/>
<path d="M12.8715 5.75815L15.2877 4.55347L15.6014 5.1827L13.1852 6.38731L12.8715 5.75815Z" fill="black"/>
<path d="M14.2818 17.2674C14.8037 17.2674 15.2268 16.6001 15.2268 15.7769C15.2268 14.9537 14.8037 14.2864 14.2818 14.2864C13.7599 14.2864 13.3368 14.9537 13.3368 15.7769C13.3368 16.6001 13.7599 17.2674 14.2818 17.2674Z" fill="black"/>
<path d="M14.2592 9.24115C14.9085 9.24115 15.4349 8.71485 15.4349 8.06562C15.4349 7.41639 14.9085 6.89009 14.2592 6.89009C13.61 6.89009 13.0836 7.41639 13.0836 8.06562C13.0836 8.71485 13.61 9.24115 14.2592 9.24115Z" fill="black"/>
<path d="M14.3155 12.554C14.9338 12.554 15.4349 12.2493 15.4349 11.8734C15.4349 11.4976 14.9338 11.1929 14.3155 11.1929C13.6973 11.1929 13.1962 11.4976 13.1962 11.8734C13.1962 12.2493 13.6973 12.554 14.3155 12.554Z" fill="black"/>
<path d="M12.9318 9.95547H15.5755V10.5179H12.9318V9.95547ZM12.9318 13.1615H15.5755V13.7239H12.9318V13.1615Z" fill="black"/>
</g>
<defs>
<clipPath id="clip0_15_1063">
<rect width="36" height="24" fill="white" transform="translate(0.905518)"/>
</clipPath>
</defs>
</svg>
