<svg width="37" height="24" viewBox="0 0 37 24" fill="none" xmlns="http://www.w3.org/2000/svg">
<g clip-path="url(#clip0_15_1128)">
<path d="M0.131836 0.000289917H36.1318V23.9998H0.131836V0.000289917Z" fill="white"/>
<path d="M0.131836 23.9998V0.000289917L19.8488 12.2874H6.29191L19.1996 23.9998H0.131836Z" fill="#0052B4"/>
<path d="M17.3422 11.5703L0.848999 1.29213V23.2827H17.3422L4.43451 11.5703H17.3422Z" fill="#D80027"/>
<path d="M7.02264 16.8117L5.99685 16.3292L6.54318 15.3357L5.42915 15.5487L5.28796 14.4234L4.51206 15.2511L3.73609 14.4234L3.59491 15.5487L2.48094 15.3356L3.02727 16.3292L2.00134 16.8117L3.02727 17.2942L2.48094 18.2877L3.59498 18.0748L3.73609 19.2L4.51206 18.3723L5.28796 19.2L5.42915 18.0748L6.54311 18.2878L5.99685 17.2943L7.02264 16.8117ZM6.33815 7.47627L5.59199 7.12534L5.98933 6.40267L5.17912 6.55771L5.07639 5.7392L4.51206 6.34114L3.94773 5.7392L3.84508 6.55771L3.03473 6.40267L3.43213 7.12534L2.68591 7.47627L4.51206 7.84147L6.33815 7.47627Z" fill="white"/>
<path d="M6.70338 7.47627C6.70338 8.68649 5.72231 9.66756 4.51209 9.66756C3.30187 9.66756 2.3208 8.68649 2.3208 7.47627" fill="white"/>
</g>
<defs>
<clipPath id="clip0_15_1128">
<rect width="36" height="24" fill="white" transform="translate(0.131836)"/>
</clipPath>
</defs>
</svg>
