<svg width="37" height="24" viewBox="0 0 37 24" fill="none" xmlns="http://www.w3.org/2000/svg">
<g clip-path="url(#clip0_15_1139)">
<path d="M0.131836 9.15527e-05H36.1318V24.0004H0.131836V9.15527e-05Z" fill="#FFDA44"/>
<path d="M0.131836 9.15527e-05H18.1318V11.9998H0.131836V9.15527e-05Z" fill="white"/>
<path d="M10.2568 -0.000198364H8.00684V4.87478H0.131836V7.12478H8.00684V11.9998H10.2568V7.12478H18.1318V4.87478H10.2568V-0.000198364Z" fill="#D80027"/>
<path d="M0.131836 -0.000289917V1.06023L4.16616 3.74976H5.75684L0.131836 -0.000289917Z" fill="#D80027"/>
<path d="M0.131836 1.59033V3.74977H3.37106L0.131836 1.59033ZM6.88184 -0.000137329V3.43906L1.72287 -0.000137329H6.88184Z" fill="#2E52B2"/>
<path d="M18.1318 -0.000274658V1.06025L14.0975 3.74978H12.5068L18.1318 -0.000274658Z" fill="#D80027"/>
<path d="M18.1318 1.59033V3.74977H14.8926L18.1318 1.59033ZM11.3818 -0.000137329V3.43906L16.5408 -0.000137329H11.3818Z" fill="#2E52B2"/>
<path d="M0.131836 -0.000289917V1.06023L4.16616 3.74976H5.75684L0.131836 -0.000289917Z" fill="#D80027"/>
<path d="M0.131836 1.59033V3.74977H3.37106L0.131836 1.59033ZM6.88184 -0.000137329V3.43906L1.72287 -0.000137329H6.88184Z" fill="#2E52B2"/>
<path d="M18.1318 -0.000274658V1.06025L14.0975 3.74978H12.5068L18.1318 -0.000274658Z" fill="#D80027"/>
<path d="M18.1318 1.59033V3.74977H14.8926L18.1318 1.59033ZM11.3818 -0.000137329V3.43906L16.5408 -0.000137329H11.3818Z" fill="#2E52B2"/>
<path d="M0.131836 11.9998V10.9394L4.16616 8.24977H5.75684L0.131836 11.9998Z" fill="#D80027"/>
<path d="M0.131836 10.4093V8.24977H3.37106L0.131836 10.4093ZM6.88184 11.9996V8.56048L1.72287 11.9996H6.88184Z" fill="#2E52B2"/>
<path d="M18.1318 11.9998V10.9394L14.0975 8.24977H12.5068L18.1318 11.9998Z" fill="#D80027"/>
<path d="M18.1318 10.4093V8.24977H14.8926L18.1318 10.4093ZM11.3818 11.9996V8.56048L16.5408 11.9996H11.3818Z" fill="#2E52B2"/>
<path d="M9.13185 7.59053C10.0105 7.59053 10.7228 6.87823 10.7228 5.99956C10.7228 5.1209 10.0105 4.4086 9.13185 4.4086C8.25319 4.4086 7.54089 5.1209 7.54089 5.99956C7.54089 6.87823 8.25319 7.59053 9.13185 7.59053Z" fill="#2E52B2"/>
<path d="M9.13179 4.87477L9.41093 5.73413H10.3147L9.58362 6.26541L9.86283 7.12477L9.13179 6.59363L8.40068 7.12477L8.67996 6.26541L7.94885 5.73413H8.85258L9.13179 4.87477ZM9.13179 9.45493L9.29801 9.96667H9.83611L9.40088 10.2829L9.5671 10.7947L9.13179 10.4784L8.69649 10.7947L8.86271 10.2829L8.42747 9.96667H8.9655L9.13179 9.45493ZM9.13179 1.20488L9.29801 1.71661H9.83611L9.40088 2.03288L9.5671 2.54462L9.13179 2.22835L8.69649 2.54462L8.86271 2.03288L8.42747 1.71661H8.9655L9.13179 1.20488ZM14.0488 5.32991L14.2151 5.84157H14.7532L14.3178 6.15791L14.4841 6.66971L14.0488 6.35345L13.6135 6.66971L13.7798 6.15791L13.3445 5.84157H13.8825L14.0488 5.32991ZM4.21477 5.32991L4.38099 5.84157H4.91909L4.48378 6.15791L4.65 6.66971L4.21477 6.35345L3.77946 6.66971L3.94575 6.15791L3.51038 5.84157H4.04848L4.21477 5.32991Z" fill="#FFDA44"/>
</g>
<defs>
<clipPath id="clip0_15_1139">
<rect width="36" height="24" fill="white" transform="translate(0.131836)"/>
</clipPath>
</defs>
</svg>
