<svg width="37" height="24" viewBox="0 0 37 24" fill="none" xmlns="http://www.w3.org/2000/svg">
<g clip-path="url(#clip0_15_1165)">
<path d="M0.131836 9.15527e-05H36.1318V24.0004H0.131836V9.15527e-05Z" fill="#0052B4"/>
<path d="M30.0358 10.4352L30.274 11.1685H31.0448L30.4211 11.6215L30.6594 12.3547L30.0358 11.9016L29.412 12.3547L29.6502 11.6215L29.0266 11.1685H29.7974L30.0358 10.4352ZM27.2799 15.7137L27.6373 16.8136H28.7936L27.8581 17.4933L28.2154 18.593L27.2799 17.9133L26.3444 18.593L26.7018 17.4933L25.7663 16.8136H26.9226L27.2799 15.7137ZM27.3841 7.07612L27.6819 7.99271H28.6455L27.8658 8.55901L28.1636 9.47547L27.3841 8.90903L26.6044 9.47547L26.9022 8.55901L26.1227 7.99271H27.0862L27.3841 7.07612ZM24.7324 10.4033L25.0898 11.5031H26.2461L25.3105 12.1827L25.668 13.2825L24.7324 12.6028L23.7969 13.2825L24.1543 12.1827L23.2188 11.5031H24.375L24.7324 10.4033Z" fill="#D80027"/>
<path d="M18.1321 -0.000282288V2.14875L14.9555 3.91275H18.1321V8.08644H13.9757L18.1321 10.3959V11.9995H16.2554L11.0886 9.12889V11.9995H7.17557V8.58418L1.02821 11.9995H0.13208V9.85121L3.30796 8.08644H0.13208V3.91275H4.28776L0.13208 1.60411V-0.000282288H2.00802L7.17557 2.87114V-0.000282288H11.0886V3.41501L17.236 -0.000282288H18.1321Z" fill="white"/>
<path d="M10.2568 -0.000213623H8.00684V4.87484H0.131836V7.12484H8.00684V11.9999H10.2568V7.12484H18.1318V4.87484H10.2568V-0.000213623Z" fill="#D80027"/>
<path d="M11.0884 8.08672L18.1319 11.9999V10.8932L13.0801 8.08672H11.0884Z" fill="#0052B4"/>
<path d="M11.0884 8.08672L18.1319 11.9999V10.8932L13.0801 8.08672H11.0884Z" fill="white"/>
<path d="M11.0884 8.08672L18.1318 11.9999V10.8932L13.0801 8.08672H11.0884ZM5.18351 8.08672L0.131836 10.8932V11.9999L7.17532 8.08672H5.18351Z" fill="#D80027"/>
<path d="M7.17532 3.91289L0.131836 -0.000213623V1.10637L5.18358 3.91289H7.17532Z" fill="#0052B4"/>
<path d="M7.17532 3.91289L0.131836 -0.000213623V1.10637L5.18358 3.91289H7.17532Z" fill="white"/>
<path d="M7.17532 3.91289L0.131836 -0.000213623V1.10637L5.18358 3.91289H7.17532ZM13.0802 3.91289L18.1318 1.10637V-0.000213623L11.0884 3.91289H13.0802Z" fill="#D80027"/>
</g>
<defs>
<clipPath id="clip0_15_1165">
<rect width="36" height="24" fill="white" transform="translate(0.131836)"/>
</clipPath>
</defs>
</svg>
