<svg width="37" height="24" viewBox="0 0 37 24" fill="none" xmlns="http://www.w3.org/2000/svg">
<g clip-path="url(#clip0_15_1179)">
<path d="M0.131836 0.000286102H36.1318V23.9998H0.131836V0.000286102Z" fill="white"/>
<path d="M18.1318 12V23.9998H0.131836V12H18.1318Z" fill="#0052B4"/>
<path d="M36.1318 0.000282288V12H18.1318V0.000282288H36.1318Z" fill="#D80027"/>
<path d="M9.13185 2.65086L9.96322 5.20946H12.6536L10.4771 6.79086L11.3084 9.34947L9.13185 7.76814L6.95533 9.34947L7.78663 6.79086L5.61011 5.20946H8.30047L9.13185 2.65086Z" fill="#0052B4"/>
<path d="M27.1318 14.6506L27.9632 17.2092H30.6536L28.4771 18.7906L29.3084 21.3492L27.1318 19.7679L24.9553 21.3492L25.7866 18.7906L23.6101 17.2092H26.3005L27.1318 14.6506Z" fill="#D80027"/>
</g>
<defs>
<clipPath id="clip0_15_1179">
<rect width="36" height="24" fill="white" transform="translate(0.131836)"/>
</clipPath>
</defs>
</svg>
