<svg width="37" height="24" viewBox="0 0 37 24" fill="none" xmlns="http://www.w3.org/2000/svg">
<g clip-path="url(#clip0_15_1189)">
<path d="M0.131836 0.000286102H36.1318V23.9998H0.131836V0.000286102Z" fill="white"/>
<path d="M0.131836 0.000286102H36.1318V8.0001H0.131836V0.000286102ZM0.131836 16H36.1318V23.9998H0.131836V16Z" fill="#D80027"/>
<path d="M20.8031 12C20.8031 13.4753 19.6071 14.3374 18.1318 14.3374C16.6565 14.3374 15.4606 13.4753 15.4606 12C15.4606 10.5247 16.6566 9.32872 18.1319 9.32872C19.6072 9.32872 20.8031 10.5247 20.8031 12Z" fill="#FFDA44"/>
<path d="M20.8031 12C20.8031 13.4753 19.6071 14.6713 18.1318 14.6713C16.6565 14.6713 15.4604 13.4753 15.4604 12" fill="#0052B4"/>
<path d="M16.4625 11.3325H17.1304V12.6684H16.4625V11.3325ZM19.1336 11.3325H19.8014V12.6684H19.1336V11.3325ZM17.7976 10.3307H18.4654V12.6681H17.7976V10.3307Z" fill="#D80027"/>
</g>
<defs>
<clipPath id="clip0_15_1189">
<rect width="36" height="24" fill="white" transform="translate(0.131836)"/>
</clipPath>
</defs>
</svg>
