<svg width="37" height="24" viewBox="0 0 37 24" fill="none" xmlns="http://www.w3.org/2000/svg">
<g clip-path="url(#clip0_15_1197)">
<path d="M0.131836 0H36.1318V24.0003H0.131836V0Z" fill="black"/>
<path d="M0.131836 -0.000213623H36.1318V23.9997" fill="#A2001D"/>
<path d="M14.52 16.9562L14.7142 17.5542H15.3429L14.8343 17.9237L15.0286 18.5215L14.52 18.152L14.0114 18.5215L14.2056 17.9237L13.6971 17.5542H14.3257L14.52 16.9562ZM12.9145 11.2172L13.2383 12.2136H14.286L13.4383 12.8294L13.7621 13.8258L12.9145 13.21L12.0669 13.8258L12.3907 12.8294L11.543 12.2136H12.5908L12.9145 11.2172ZM12.9145 18.5215L13.2382 19.518H14.286L13.4382 20.1337L13.7621 21.1303L12.9145 20.5144L12.0669 21.1303L12.3906 20.1337L11.543 19.518H12.5906L12.9145 18.5215ZM15.9777 13.8258L16.3016 14.8223H17.3493L16.5016 15.4381L16.8254 16.4346L15.9777 15.8187L15.1302 16.4346L15.454 15.4381L14.6063 14.8223H15.6541L15.9777 13.8258ZM9.85118 13.8258L10.175 14.8223H11.2226L10.3751 15.4381L10.6987 16.4346L9.85118 15.8187L9.00356 16.4346L9.32735 15.4381L8.47974 14.8223H9.52739L9.85118 13.8258Z" fill="white"/>
<path d="M26.6063 8.35525C26.07 7.8189 25.3732 7.50215 24.6243 7.44765L26.8659 5.70425C25.973 4.81142 24.7766 4.40832 23.6091 4.49361C23.465 3.97476 23.1889 3.5021 22.8078 3.12174L21.9223 4.89264C21.863 4.78424 21.7884 4.68487 21.701 4.59753C21.1916 4.08812 20.3657 4.08819 19.8564 4.59753C19.3471 5.10688 19.347 5.93277 19.8564 6.44211C19.9438 6.52951 20.0431 6.60404 20.1515 6.66346L18.3806 7.5489C18.7611 7.93024 19.234 8.20639 19.753 8.3504C19.6675 9.51801 20.0702 10.7142 20.9631 11.6071L22.9215 9.0891C23.0675 8.94441 23.2649 8.86346 23.4705 8.86396C23.6795 8.86396 23.876 8.94538 24.0238 9.09318C24.0967 9.16567 24.1545 9.25191 24.1939 9.34689C24.2332 9.44188 24.2533 9.54373 24.253 9.64654C24.253 9.85565 24.1716 10.0521 24.0238 10.1999L24.7617 10.9378C25.1066 10.5929 25.2966 10.1342 25.2966 9.64654C25.2966 9.24751 25.1693 8.86811 24.9342 8.5543C25.2877 8.64833 25.6101 8.8342 25.8685 9.09304C26.6823 9.90669 26.6823 11.2308 25.8685 12.0444L26.6064 12.7823C27.1977 12.191 27.5232 11.4048 27.5232 10.5688C27.5231 9.7326 27.1975 8.94651 26.6063 8.35525Z" fill="#FFDA44"/>
</g>
<defs>
<clipPath id="clip0_15_1197">
<rect width="36" height="24" fill="white" transform="translate(0.131836)"/>
</clipPath>
</defs>
</svg>
