<svg width="36" height="24" viewBox="0 0 36 24" fill="none" xmlns="http://www.w3.org/2000/svg">
<path d="M0 0.000274658H36V23.9998H0V0.000274658Z" fill="white"/>
<path d="M36 0.000274658V12H18L0 0.000274658H36Z" fill="#0052B4"/>
<path d="M36 12V23.9998H0L18 12H36Z" fill="#D80027"/>
<path d="M11.3842 12L9.4655 11.0976L10.4873 9.23934L8.40378 9.63787L8.13975 7.53321L6.6885 9.08114L5.23732 7.53321L4.9733 9.63787L2.88987 9.23927L3.91158 11.0975L1.9929 12L3.91158 12.9025L2.88987 14.7607L4.97344 14.3622L5.23732 16.4668L6.6885 14.9189L8.13975 16.4668L8.40378 14.3622L10.4872 14.7608L9.46543 12.9026L11.3842 12ZM1.53207 2.26926L2.17058 3.16194L3.21675 2.83049L2.5651 3.71362L3.20361 4.60616L2.16235 4.25938L1.51069 5.14244L1.51892 4.045L0.477661 3.69808L1.52391 3.36677L1.53207 2.26926ZM1.53207 18.8576L2.17058 19.7503L3.21675 19.4188L2.5651 20.302L3.20361 21.1946L2.16235 20.8477L1.51069 21.7307L1.51892 20.6334L0.477661 20.2864L1.52391 19.9551L1.53207 18.8576ZM14.7934 10.5635L14.1549 11.4561L13.1087 11.1247L13.7604 12.0078L13.1219 12.9004L14.1631 12.5536L14.8148 13.4366L14.8066 12.3392L15.8478 11.9923L14.8016 11.6609L14.7934 10.5635Z" fill="#FFDA44"/>
</svg>
