<svg width="36" height="24" viewBox="0 0 36 24" fill="none" xmlns="http://www.w3.org/2000/svg">
<g clip-path="url(#clip0_15_1215)">
<path d="M27.6685 5.98941L28.8998 7.31656L30.5426 6.55571L29.6608 8.13683L30.8922 9.46405L29.1158 9.11403L28.2342 10.6952L28.0181 8.89775L26.2418 8.54773L27.8845 7.78695L27.6685 5.98941Z" fill="white"/>
<path d="M0 0.000701904H36V24.0002H0V0.000701904Z" fill="white"/>
<path d="M9 -0.000152588H36V24.0001H9V-0.000152588Z" fill="#01411C"/>
<path d="M25.4468 15.0089C23.2645 16.5858 20.2171 16.095 18.6402 13.9126C17.0633 11.7302 17.5542 8.68283 19.7366 7.10607C20.417 6.61444 21.1816 6.32384 21.9594 6.22273C20.463 5.99892 18.8813 6.33614 17.558 7.29225C14.8721 9.23302 14.2679 12.9836 16.2086 15.6697C18.1493 18.3555 21.9 18.9597 24.586 17.0189C25.9093 16.0628 26.726 14.6671 26.9834 13.1759C26.6431 13.8826 26.1273 14.5172 25.4468 15.0089ZM25.3533 6.15628L26.5827 7.48111L28.2225 6.7216L27.3423 8.2999L28.5715 9.62487L26.7983 9.27556L25.9181 10.8541L25.7024 9.05963L23.9292 8.71025L25.569 7.95073L25.3533 6.15628Z" fill="white"/>
</g>
<defs>
<clipPath id="clip0_15_1215">
<rect width="36" height="24" fill="white"/>
</clipPath>
</defs>
</svg>
