<svg width="36" height="24" viewBox="0 0 36 24" fill="none" xmlns="http://www.w3.org/2000/svg">
<g clip-path="url(#clip0_15_1284)">
<path d="M0 -0.000141144H36V24.0001H0V-0.000141144Z" fill="#0052B4"/>
<path d="M0 -0.000141144H36V7.99967H0V-0.000141144Z" fill="#D80027"/>
<path d="M0 15.9996H36V23.9994H0V15.9996Z" fill="white"/>
<path d="M9.10327 6.78235V12.7685C9.10327 16.1736 13.5517 17.2169 13.5517 17.2169C13.5517 17.2169 18.0001 16.1735 18.0001 12.7685V6.78235H9.10327Z" fill="#D80027"/>
<path d="M10.943 7.82586H16.1603V5.73891L15.1168 6.26063L13.5515 4.69547L11.9864 6.26063L10.943 5.73891V7.82586ZM16.9566 13.6019L13.5653 10.2106L10.1741 13.6019L11.2809 14.7086L13.5653 12.4242L15.8498 14.7086L16.9566 13.6019Z" fill="#FFDA44"/>
<path d="M16.9566 10.4345H15.3742C15.4664 10.2761 15.515 10.0961 15.5149 9.91288C15.5149 9.3366 15.0477 8.86944 14.4715 8.86944C14.0733 8.86944 13.7275 9.09247 13.5516 9.42041C13.3757 9.09254 13.0298 8.86944 12.6317 8.86944C12.0555 8.86944 11.5883 9.3366 11.5883 9.91288C11.5883 10.1031 11.64 10.281 11.729 10.4345H10.1741C10.1741 11.0107 10.676 11.4779 11.2522 11.4779H11.2175C11.2175 12.0542 11.6847 12.5213 12.2609 12.5213C12.2609 13.0316 12.6273 13.4555 13.1113 13.5462L12.2891 15.4025C12.6943 15.5674 13.1277 15.652 13.5652 15.6517C14.0027 15.652 14.436 15.5674 14.8413 15.4025L14.019 13.5462C14.503 13.4555 14.8694 13.0316 14.8694 12.5213C15.4457 12.5213 15.9128 12.0542 15.9128 11.4779H15.8781C16.4546 11.4779 16.9566 11.0107 16.9566 10.4345Z" fill="white"/>
</g>
<defs>
<clipPath id="clip0_15_1284">
<rect width="36" height="24" fill="white"/>
</clipPath>
</defs>
</svg>
