<svg width="37" height="24" viewBox="0 0 37 24" fill="none" xmlns="http://www.w3.org/2000/svg">
<g clip-path="url(#clip0_15_1308)">
<path d="M0.226562 9.15527e-05H36.2266V24.0004H0.226562V9.15527e-05Z" fill="#496E2D"/>
<path d="M0.226562 23.9998V-0.000274658H36.2266" fill="#0052B4"/>
<path d="M0.226562 21.8785V23.9998H3.40855L36.2266 2.12106V-0.000274658H33.0446L0.226562 21.8785Z" fill="#FFDA44"/>
<path d="M6.2515 1.64911L6.6115 2.75695H7.7763L6.8339 3.44159L7.1939 4.5495L6.2515 3.8648L5.30896 4.5495L5.66896 3.44159L4.72656 2.75695H5.89143L6.2515 1.64911ZM12.2016 1.64911L12.5617 2.75695H13.7266L12.7842 3.44159L13.1442 4.5495L12.2016 3.8648L11.2592 4.5495L11.6192 3.44159L10.6768 2.75695H11.8416L12.2016 1.64911ZM6.2515 7.45004L6.6115 8.55788H7.7763L6.8339 9.24259L7.1939 10.3505L6.2515 9.66573L5.30896 10.3505L5.66896 9.24259L4.72656 8.55788H5.89143L6.2515 7.45004ZM12.2016 7.45004L12.5617 8.55788H13.7266L12.7842 9.24259L13.1442 10.3505L12.2016 9.66573L11.2592 10.3505L11.6192 9.24259L10.6768 8.55788H11.8416L12.2016 7.45004ZM9.22656 4.5495L9.58656 5.65735H10.7515L9.80896 6.34205L10.169 7.45004L9.22656 6.76526L8.28416 7.45004L8.64416 6.34205L7.70162 5.65735H8.86656L9.22656 4.5495Z" fill="white"/>
</g>
<defs>
<clipPath id="clip0_15_1308">
<rect width="36" height="24" fill="white" transform="translate(0.226562)"/>
</clipPath>
</defs>
</svg>
