<svg width="37" height="24" viewBox="0 0 37 24" fill="none" xmlns="http://www.w3.org/2000/svg">
<g clip-path="url(#clip0_15_1347)">
<path d="M0.226562 0.000289917H36.2266V23.9998H0.226562V0.000289917Z" fill="white"/>
<path d="M0.226562 0.000289917H36.2266V12H0.226562V0.000289917Z" fill="#D80027"/>
<path d="M6.09616 5.99998C6.09616 4.25166 7.32494 2.79113 8.96576 2.43275C8.70871 2.37639 8.44633 2.34791 8.18318 2.34781C6.16605 2.34781 4.53101 3.98286 4.53101 5.99991C4.53101 8.01697 6.16612 9.65209 8.18318 9.65209C8.45191 9.65209 8.71354 9.62221 8.96576 9.56715C7.32494 9.20891 6.09616 7.74838 6.09616 5.99998ZM10.7918 2.60874L11.0509 3.40587H11.8891L11.2109 3.89855L11.4699 4.69569L10.7918 4.20308L10.1137 4.69569L10.3728 3.89855L9.69461 3.40587H10.5328L10.7918 2.60874Z" fill="white"/>
<path d="M8.7586 4.17397L9.01756 4.9711H9.85576L9.1776 5.46378L9.43663 6.26091L8.7586 5.7683L8.08044 6.26091L8.33954 5.46378L7.66138 4.9711H8.49957L8.7586 4.17397ZM12.8251 4.17397L13.0841 4.9711H13.9223L13.2441 5.46378L13.5032 6.26091L12.8251 5.7683L12.147 6.26091L12.4061 5.46378L11.7279 4.9711H12.5661L12.8251 4.17397ZM12.0424 6.52177L12.3014 7.31891H13.1396L12.4615 7.81159L12.7206 8.60872L12.0424 8.11611L11.3644 8.60872L11.6234 7.81159L10.9453 7.31891H11.7834L12.0424 6.52177ZM9.54118 6.52177L9.80014 7.31891H10.6383L9.96024 7.81159L10.2193 8.60872L9.54118 8.11611L8.86309 8.60872L9.12212 7.81159L8.44403 7.31891H9.28215L9.54118 6.52177Z" fill="white"/>
</g>
<defs>
<clipPath id="clip0_15_1347">
<rect width="36" height="24" fill="white" transform="translate(0.226562)"/>
</clipPath>
</defs>
</svg>
