<svg width="37" height="24" viewBox="0 0 37 24" fill="none" xmlns="http://www.w3.org/2000/svg">
<g clip-path="url(#clip0_15_1328)">
<path d="M0.226562 0H36.2266V24H0.226562V0Z" fill="#0052B4"/>
<path d="M18.2266 0V8.25549H14.9852L18.2266 10.4143V12.0035H16.6375L11.4766 8.5649V12.0035H6.97656V8.5649L1.81563 12.0035H0.226562V10.4143L3.46797 8.25549H0.226562V3.75505H3.46797L0.226562 1.59625V0H1.81563L6.97656 3.43862V0H11.4766V3.43862L16.6375 0H18.2266Z" fill="white"/>
<path d="M10.3516 0H8.10156V4.88016H0.226562V7.13038H8.10156V12.0035H10.3516V7.13038H18.2266V4.88016H10.3516V0Z" fill="#D80027"/>
<path d="M0.226562 0V1.06182L4.2625 3.75505H5.85156L0.226562 0ZM18.2266 0V1.06182L14.1906 3.75505H12.6016L18.2266 0Z" fill="#D80027"/>
<path d="M18.2265 1.59625V3.75506H14.9851L18.2265 1.59625Z" fill="#2E52B2"/>
<path d="M0.226562 0V1.06182L4.2625 3.75505H5.85156L0.226562 0ZM18.2266 0V1.06182L14.1906 3.75505H12.6016L18.2266 0Z" fill="#D80027"/>
<path d="M18.2265 1.59625V3.75506H14.9851L18.2265 1.59625Z" fill="#2E52B2"/>
<path d="M0.226562 12.0035V10.9417L4.2625 8.25549H5.85156L0.226562 12.0035ZM18.2266 12.0035V10.9417L14.1906 8.25549H12.6016L18.2266 12.0035Z" fill="#D80027"/>
<path d="M31.7969 9.82361C31.7898 12.9458 31.2906 16.3 27.2266 17.9033C23.1625 16.3 22.6633 12.9458 22.6562 9.82361H31.7969Z" fill="#29DBFF"/>
<path d="M31.7969 9.82361C31.7969 8.64928 31.7336 7.5101 31.7617 6.51157C30.243 5.8365 28.2391 5.69586 27.2196 5.69586C26.2 5.69586 24.2031 5.8365 22.6774 6.51157C22.7055 7.5101 22.6422 8.64928 22.6422 9.82361H31.7969Z" fill="#FFDA44"/>
<path d="M26.207 14.3803L26.2281 15.1046L25.3281 15.1186L25.6726 16.0469H24.4562C23.1906 14.6264 22.8109 13.0653 22.7054 11.2581L23.3453 10.576L23.9289 11.5816L24.6883 10.6815L25.1804 11.23L25.2367 12.334L26.207 14.3803Z" fill="#BF521B"/>
<path d="M30.925 13.5365L30.3203 14.8233H27.0157L24.9625 13.4521L26.7696 14.1905H28.5344L28.7946 13.7334L29.3008 13.7474L29.4414 13.5365H30.925Z" fill="#474747"/>
</g>
<defs>
<clipPath id="clip0_15_1328">
<rect width="36" height="24" fill="white" transform="translate(0.226562)"/>
</clipPath>
</defs>
</svg>
