<svg width="37" height="24" viewBox="0 0 37 24" fill="none" xmlns="http://www.w3.org/2000/svg">
<g clip-path="url(#clip0_15_1364)">
<path d="M0.226562 0.000286102H36.2266V23.9998H0.226562V0.000286102Z" fill="white"/>
<path d="M0.226562 7.82635H36.2266V16.1736H0.226562V7.82635Z" fill="#0052B4"/>
<path d="M0.226562 16.1737H36.2266V23.9998H0.226562V16.1737Z" fill="#D80027"/>
<path d="M9.32983 6.78277V12.7689C9.32983 16.1741 13.7783 17.2174 13.7783 17.2174C13.7783 17.2174 18.2266 16.1739 18.2266 12.7689V6.78277H9.32983Z" fill="white"/>
<path d="M10.5011 6.9582V12.7197C10.5011 13.1044 10.5865 13.4678 10.7558 13.8085H16.8006C16.9699 13.4679 17.0553 13.1045 17.0553 12.7197V6.9582H10.5011Z" fill="#D80027"/>
<path d="M15.7868 10.9754H14.2803V9.9711H15.2847V8.96682H14.2803V7.96247H13.276V8.96682H12.2718V9.9711H13.276V10.9754H11.7695V11.9797H13.276V12.984H14.2803V11.9797H15.7868V10.9754Z" fill="white"/>
<path d="M12.1257 15.2104C12.7728 15.617 13.4377 15.8532 13.7782 15.9582C14.1186 15.8532 14.7835 15.6171 15.4306 15.2104C16.0833 14.8002 16.5409 14.331 16.8006 13.8084C16.5043 13.5984 16.15 13.4857 15.7868 13.4862C15.6493 13.4862 15.5157 13.5025 15.3873 13.5324C15.1151 12.9139 14.4973 12.4819 13.7783 12.4819C13.0592 12.4819 12.4414 12.9139 12.1693 13.5324C12.0383 13.5018 11.9042 13.4863 11.7697 13.4862C11.4066 13.4857 11.0523 13.5984 10.756 13.8084C11.0155 14.331 11.473 14.8002 12.1257 15.2104Z" fill="#0052B4"/>
</g>
<defs>
<clipPath id="clip0_15_1364">
<rect width="36" height="24" fill="white" transform="translate(0.226562)"/>
</clipPath>
</defs>
</svg>
