<svg width="37" height="24" viewBox="0 0 37 24" fill="none" xmlns="http://www.w3.org/2000/svg">
<g clip-path="url(#clip0_15_1376)">
<path d="M0.226562 0.000499725H36.2266V24H0.226562V0.000499725Z" fill="#338AF3"/>
<path d="M36.2266 9.53674e-05V11.7205L0.226562 12.0124V9.53674e-05H36.2266Z" fill="white"/>
<path d="M22.9898 8.28043L18.2265 13.0437L13.4633 8.28043C12.826 9.22509 12.4861 10.3389 12.4874 11.4785V13.0437C12.4874 15.5569 14.1114 17.6979 16.365 18.4727C16.0643 19.0623 16.115 19.798 16.5557 20.348L18.2614 18.9812L19.967 20.348C20.4129 19.7915 20.46 19.0449 20.1473 18.4518C22.3701 17.6601 23.9658 15.5349 23.9658 13.0437V11.4785C23.967 10.3389 23.6271 9.2251 22.9898 8.28043Z" fill="#6DA544"/>
<path d="M18.2265 17.2176C15.925 17.2176 14.0526 15.3452 14.0526 13.0438V11.4785C14.0526 9.17698 15.925 7.30456 18.2265 7.30456C20.528 7.30456 22.4004 9.17699 22.4004 11.4785V13.0437C22.4004 15.3452 20.528 17.2176 18.2265 17.2176Z" fill="#FFDA44"/>
<path d="M20.8352 13.0437V11.4785C20.8352 10.04 19.665 8.86979 18.2266 8.86979C16.7881 8.86979 15.6179 10.04 15.6179 11.4785V13.0437L18.2266 13.5655L20.8352 13.0437Z" fill="#338AF3"/>
<path d="M15.6179 13.0437C15.6179 14.4821 16.7881 15.6524 18.2266 15.6524C19.665 15.6524 20.8352 14.4821 20.8352 13.0437H15.6179Z" fill="#6DA544"/>
<path d="M21.357 7.30456C21.357 6.44007 20.6563 5.73934 19.7918 5.73934C19.4067 5.73883 19.035 5.88089 18.7484 6.13815V5.21755H19.2702V4.17411H18.7484V3.65232H17.7049V4.17411H17.1831V5.21755H17.7049V6.13815C17.4183 5.8809 17.0466 5.73884 16.6614 5.73934C15.7969 5.73934 15.0962 6.44007 15.0962 7.30456C15.0962 7.768 15.2978 8.18432 15.618 8.47098V9.39158H20.8354V8.47098C21.1554 8.18432 21.357 7.76807 21.357 7.30456Z" fill="#FFDA44"/>
</g>
<defs>
<clipPath id="clip0_15_1376">
<rect width="36" height="24" fill="white" transform="translate(0.226562)"/>
</clipPath>
</defs>
</svg>
