<svg width="37" height="24" viewBox="0 0 37 24" fill="none" xmlns="http://www.w3.org/2000/svg">
<g clip-path="url(#clip0_15_1426)">
<path d="M0.452881 0.000274658H36.4529V23.9998H0.452881V0.000274658Z" fill="white"/>
<path d="M0.452881 0.000274658H36.4529V8.00009H0.452881V0.000274658ZM0.452881 16H36.4529V23.9998H0.452881V16Z" fill="#0052B4"/>
<path d="M16.525 12.4174L18.4529 9.07834L20.3807 12.4174H16.525Z" fill="#FFDA44"/>
<path d="M20.9571 13.5199L18.4529 14.7721L15.9486 13.5199V11.8504H20.9571V13.5199Z" fill="#6DA544"/>
<path d="M20.8139 9.22162L19.9285 10.107C20.3061 10.4847 20.5398 11.0064 20.5398 11.5827C20.5398 12.7353 19.6054 13.6696 18.4529 13.6696C17.3003 13.6696 16.366 12.7352 16.366 11.5827C16.366 11.0065 16.5996 10.4847 16.9773 10.107L16.0919 9.22162C15.4876 9.82588 15.1138 10.6606 15.1138 11.5826C15.1138 13.4268 16.6087 14.9217 18.4529 14.9217C20.2971 14.9217 21.792 13.4268 21.792 11.5826C21.792 10.6606 21.4182 9.82574 20.8139 9.22162Z" fill="#FFDA44"/>
</g>
<defs>
<clipPath id="clip0_15_1426">
<rect width="36" height="24" fill="white" transform="translate(0.452881)"/>
</clipPath>
</defs>
</svg>
