<svg width="37" height="24" viewBox="0 0 37 24" fill="none" xmlns="http://www.w3.org/2000/svg">
<g clip-path="url(#clip0_15_1433)">
<path d="M0.452881 0.000274658H36.4529V23.9998H0.452881V0.000274658Z" fill="#0052B4"/>
<path d="M36.4529 -0.000152588V11.7202L0.452881 12.0122V-0.000152588H36.4529Z" fill="#D80027"/>
<path d="M18.4529 12.0004L0.452881 24.0001V-0.000152588L18.4529 12.0004Z" fill="white"/>
<path d="M4.64498 12C4.63634 12.1069 4.63182 12.2141 4.63141 12.3214C4.63141 14.6291 6.50221 16.5 8.81001 16.5C11.1178 16.5 12.9886 14.6292 12.9886 12.3214C12.9886 12.2131 12.9831 12.1061 12.975 12H4.64498Z" fill="#FFDA44"/>
<path d="M8.81033 10.0716C9.52042 10.0716 10.0961 9.49592 10.0961 8.78583C10.0961 8.07573 9.52042 7.50009 8.81033 7.50009C8.10024 7.50009 7.5246 8.07573 7.5246 8.78583C7.5246 9.49592 8.10024 10.0716 8.81033 10.0716Z" fill="#FFDA44"/>
<path d="M5.91724 8.46429V12.6429C5.91724 14.8573 8.81017 15.5358 8.81017 15.5358C8.81017 15.5358 11.7031 14.8573 11.7031 12.6429V8.46429H5.91724Z" fill="#D80027"/>
<path d="M8.81141 14.1901C8.27479 13.997 7.20294 13.5034 7.20294 12.6428V9.74988H10.4173V12.6428C10.4172 13.5063 9.34543 13.9987 8.81141 14.1901Z" fill="#338AF3"/>
<path d="M9.45296 11.3571V10.7143L8.81002 10.3929L8.16722 10.7143V11.3571L7.84583 11.6786V12.9643H9.77436V11.6786L9.45296 11.3571Z" fill="#F3F3F3"/>
</g>
<defs>
<clipPath id="clip0_15_1433">
<rect width="36" height="24" fill="white" transform="translate(0.452881)"/>
</clipPath>
</defs>
</svg>
