<svg width="37" height="24" viewBox="0 0 37 24" fill="none" xmlns="http://www.w3.org/2000/svg">
<g clip-path="url(#clip0_15_1443)">
<path d="M0.452881 -0.000152588H36.4529V24.0001H0.452881V-0.000152588Z" fill="white"/>
<path d="M0.452881 -0.000152588H36.4529V7.99966H0.452881V-0.000152588Z" fill="#D80027"/>
<path d="M0.452881 15.9996H36.4529V23.9994H0.452881V15.9996Z" fill="black"/>
<path d="M13.6231 9.13016L14.2706 11.1229H16.366L14.6708 12.3546L15.3183 14.3474L13.6231 13.1158L11.9279 14.3474L12.5754 12.3546L10.8802 11.1229H12.9756L13.6231 9.13016ZM23.2827 9.13016L23.9302 11.1229H26.0256L24.3304 12.3546L24.9779 14.3474L23.2827 13.1158L21.5875 14.3474L22.235 12.3546L20.5398 11.1229H22.6352L23.2827 9.13016Z" fill="#6DA544"/>
</g>
<defs>
<clipPath id="clip0_15_1443">
<rect width="36" height="24" fill="white" transform="translate(0.452881)"/>
</clipPath>
</defs>
</svg>
