<svg width="37" height="24" viewBox="0 0 37 24" fill="none" xmlns="http://www.w3.org/2000/svg">
<g clip-path="url(#clip0_15_1400)">
<path d="M0.452881 0H36.4529V24H0.452881V0Z" fill="#0052B4"/>
<path d="M18.4529 0V8.25549H15.2115L18.4529 10.4143V12.0035H16.8638L11.7029 8.5649V12.0035H7.20288V8.5649L2.04194 12.0035H0.452881V10.4143L3.69429 8.25549H0.452881V3.75505H3.69429L0.452881 1.59625V0H2.04194L7.20288 3.43862V0H11.7029V3.43862L16.8638 0H18.4529Z" fill="white"/>
<path d="M10.5779 0H8.32788V4.88016H0.452881V7.13038H8.32788V12.0035H10.5779V7.13038H18.4529V4.88016H10.5779V0Z" fill="#D80027"/>
<path d="M0.452881 0V1.06182L4.48882 3.75505H6.07788L0.452881 0ZM18.4529 0V1.06182L14.4169 3.75505H12.8279L18.4529 0Z" fill="#D80027"/>
<path d="M18.4529 1.59625V3.75506H15.2115L18.4529 1.59625Z" fill="#2E52B2"/>
<path d="M0.452881 0V1.06182L4.48882 3.75505H6.07788L0.452881 0ZM18.4529 0V1.06182L14.4169 3.75505H12.8279L18.4529 0Z" fill="#D80027"/>
<path d="M18.4529 1.59625V3.75506H15.2115L18.4529 1.59625Z" fill="#2E52B2"/>
<path d="M0.452881 12.0035V10.9417L4.48882 8.25549H6.07788L0.452881 12.0035ZM18.4529 12.0035V10.9417L14.4169 8.25549H12.8279L18.4529 12.0035Z" fill="#D80027"/>
<path d="M32.0162 11.9191C32.0162 12.5942 31.9951 14.0006 31.9177 14.6756C31.6294 17.1298 30.2654 19.5136 27.5513 20.7161C24.3662 19.4574 23.2763 17.1298 22.988 14.6756C22.9107 14.0006 22.8826 13.3114 22.8826 12.6364L22.9037 9.32434H31.988L32.0162 11.9191Z" fill="#29DBFF"/>
<path d="M31.9177 14.6757C31.9036 14.7882 31.8896 14.9077 31.8755 15.0202C31.538 17.3478 30.2654 19.6191 27.5513 20.7161C24.5138 19.5207 23.3747 17.3478 23.0372 15.0202C23.0232 14.9077 23.0091 14.7952 22.9951 14.6757" fill="white"/>
<path d="M27.5513 17.6994L25.9412 14.6757H29.1615L27.5513 17.6994Z" fill="#29DBFF"/>
<path d="M27.5513 11.6589L25.9412 14.6756H29.1615L27.5513 11.6589Z" fill="white"/>
<path d="M33.8373 19.6965C34.4896 19.6965 35.0185 18.3333 35.0185 16.6516C35.0185 14.97 34.4896 13.6068 33.8373 13.6068C33.1849 13.6068 32.656 14.97 32.656 16.6516C32.656 18.3333 33.1849 19.6965 33.8373 19.6965Z" fill="#FFBE57"/>
<path d="M21.2162 19.6965C21.8685 19.6965 22.3974 18.3333 22.3974 16.6516C22.3974 14.97 21.8685 13.6068 21.2162 13.6068C20.5638 13.6068 20.0349 14.97 20.0349 16.6516C20.0349 18.3333 20.5638 19.6965 21.2162 19.6965Z" fill="#FFBE57"/>
<path d="M27.5513 2.21506L25.2029 5.30911H30.0193L27.5513 2.21506ZM22.6365 19.6894C22.6365 19.6894 25.013 21.7638 27.5513 21.7638C30.0896 21.7638 32.2693 19.6894 32.2693 19.6894L32.8669 20.7161C32.8669 20.7161 31.3341 22.9241 27.5513 22.9241C23.7685 22.9241 22.0388 20.7161 22.0388 20.7161L22.6365 19.6894Z" fill="white"/>
<path d="M27.6146 8.97274C28.9466 8.97274 30.0263 8.23919 30.0263 7.3343C30.0263 6.42942 28.9466 5.69586 27.6146 5.69586C26.2826 5.69586 25.2029 6.42942 25.2029 7.3343C25.2029 8.23919 26.2826 8.97274 27.6146 8.97274Z" fill="#A5A5A5"/>
</g>
<defs>
<clipPath id="clip0_15_1400">
<rect width="36" height="24" fill="white" transform="translate(0.452881)"/>
</clipPath>
</defs>
</svg>
