<svg width="37" height="24" viewBox="0 0 37 24" fill="none" xmlns="http://www.w3.org/2000/svg">
<g clip-path="url(#clip0_15_1542)">
<path d="M0.679321 0H34.2793V24H0.679321V0Z" fill="white"/>
<path d="M0.679321 0H36.6793V24H0.679321V0Z" fill="#073AB6"/>
<path d="M0.679321 0H18.7593V12H0.679321V0Z" fill="white"/>
<path d="M12.0393 0H17.7993V11.2H12.0393V0Z" fill="#F44653"/>
<path d="M0.679321 0H6.43932V11.2H0.679321V0Z" fill="#1035BB"/>
<path d="M6.43927 0H12.1993V11.2H6.43927V0ZM23.8793 9.6H31.8793L31.0793 11.2H28.6793V12H30.2793L29.4793 13.6H28.6793V16H27.0793V11.2H24.6793L23.8793 9.6ZM30.2793 13.6L31.8793 16H28.6793L30.2793 13.6ZM25.4793 13.6L27.0793 16H23.8793L25.4793 13.6ZM27.8793 18.4L26.2793 16H29.4793L27.8793 18.4ZM32.6793 12.8C32.1993 12.8 31.8793 12.48 31.8793 12C31.8793 11.52 32.1993 11.2 32.6793 11.2C33.1593 11.2 33.4793 11.52 33.4793 12C33.4793 12.48 33.1593 12.8 32.6793 12.8ZM23.0793 12.8C22.5993 12.8 22.2793 12.48 22.2793 12C22.2793 11.52 22.5993 11.2 23.0793 11.2C23.5593 11.2 23.8793 11.52 23.8793 12C23.8793 12.48 23.5593 12.8 23.0793 12.8ZM24.6793 19.2C24.1993 19.2 23.8793 18.88 23.8793 18.4C23.8793 17.92 24.1993 17.6 24.6793 17.6C25.1593 17.6 25.4793 17.92 25.4793 18.4C25.4793 18.88 25.1593 19.2 24.6793 19.2ZM31.0793 19.2C30.5993 19.2 30.2793 18.88 30.2793 18.4C30.2793 17.92 30.5993 17.6 31.0793 17.6C31.5593 17.6 31.8793 17.92 31.8793 18.4C31.8793 18.88 31.5593 19.2 31.0793 19.2ZM27.8793 20.8C27.3993 20.8 27.0793 20.48 27.0793 20C27.0793 19.52 27.3993 19.2 27.8793 19.2C28.3593 19.2 28.6793 19.52 28.6793 20C28.6793 20.48 28.3593 20.8 27.8793 20.8Z" fill="white"/>
</g>
<defs>
<clipPath id="clip0_15_1542">
<rect width="36" height="24" fill="white" transform="translate(0.679321)"/>
</clipPath>
</defs>
</svg>
