<svg width="37" height="24" viewBox="0 0 37 24" fill="none" xmlns="http://www.w3.org/2000/svg">
<g clip-path="url(#clip0_15_1500)">
<path d="M0.452881 0.000282288H36.4529V23.9998H0.452881V0.000282288Z" fill="#0052B4"/>
<path d="M15.2688 6.26091L15.5278 7.05812H16.3659L15.6878 7.55072L15.9469 8.34786L15.2688 7.85518L14.5907 8.34786L14.8497 7.55072L14.1715 7.05812H15.0097L15.2688 6.26091ZM8.66649 13.8261L8.99028 14.8226H10.0379L9.19032 15.4383L9.51418 16.4349L8.66649 15.8189L7.81888 16.4349L8.1426 15.4383L7.29505 14.8226H8.34264L8.66649 13.8261ZM10.6268 2.41496L10.9505 3.41142H11.9983L11.1506 4.02722L11.4744 5.02362L10.6268 4.40775L9.77912 5.02362L10.103 4.02722L9.25536 3.41142H10.303L10.6268 2.41496ZM5.34233 6.32799L5.66605 7.32446H6.71371L5.86609 7.94026L6.18995 8.93666L5.34233 8.32086L4.49464 8.93666L4.8185 7.94026L3.97089 7.32446H5.01854L5.34233 6.32799Z" fill="white"/>
<path d="M34.4409 18.926H8.73576C8.73576 18.926 16.4163 12.699 30.5743 3.39132C30.5744 3.39132 24.3557 12.4571 34.4409 18.926ZM8.73576 19.7407C7.94988 19.7407 7.94861 20.962 8.73576 20.962H34.4409C35.2268 20.962 35.2281 19.7407 34.4409 19.7407H8.73576Z" fill="#FFDA44"/>
</g>
<defs>
<clipPath id="clip0_15_1500">
<rect width="36" height="24" fill="white" transform="translate(0.452881)"/>
</clipPath>
</defs>
</svg>
