<svg width="37" height="24" viewBox="0 0 37 24" fill="none" xmlns="http://www.w3.org/2000/svg">
<g clip-path="url(#clip0_15_1529)">
<path d="M0.679321 -0.000152588H36.6793V24.0001H0.679321V-0.000152588Z" fill="#D80027"/>
<path d="M18.6793 18.7496C22.4072 18.7496 25.4293 15.7275 25.4293 11.9996C25.4293 8.27168 22.4072 5.2496 18.6793 5.2496C14.9514 5.2496 11.9293 8.27168 11.9293 11.9996C11.9293 15.7275 14.9514 18.7496 18.6793 18.7496Z" fill="white"/>
<path d="M19.5109 9.41895L20.6689 11.0147L22.5444 10.4066L21.3845 12.001L22.5424 13.5967L20.6676 12.9863L19.5078 14.5807L19.509 12.6092L17.6342 11.9987L19.5097 11.3907L19.5109 9.41895Z" fill="#D80027"/>
<path d="M20.2134 15.9885C18.0105 15.9885 16.2248 14.2027 16.2248 11.9998C16.2248 9.79694 18.0105 8.01121 20.2134 8.01121C20.9003 8.01121 21.5465 8.18489 22.1108 8.49067C21.2256 7.62513 20.0152 7.09082 18.6793 7.09082C15.9682 7.09082 13.7703 9.28872 13.7703 11.9999C13.7703 14.7111 15.9682 16.909 18.6793 16.909C20.0152 16.909 21.2257 16.3747 22.1108 15.5091C21.5465 15.8148 20.9003 15.9885 20.2134 15.9885Z" fill="#D80027"/>
</g>
<defs>
<clipPath id="clip0_15_1529">
<rect width="36" height="24" fill="white" transform="translate(0.679321)"/>
</clipPath>
</defs>
</svg>
