<svg width="37" height="24" viewBox="0 0 37 24" fill="none" xmlns="http://www.w3.org/2000/svg">
<g clip-path="url(#clip0_15_1539)">
<path d="M0.679321 0H36.6793V24H0.679321V0Z" fill="#E30A17"/>
<path d="M18.9039 8.32281C17.9846 7.65615 16.8688 7.29825 15.725 7.30527C12.8618 7.30527 10.546 9.46668 10.546 12.1404C10.546 14.814 12.8688 16.9754 15.725 16.9754C16.925 16.9754 18.0337 16.5965 18.9039 15.9579C16.7986 18.6667 12.8899 19.1579 10.1811 17.0456C7.47232 14.9333 6.98109 11.0316 9.09337 8.32281C11.2057 5.61404 15.1074 5.12282 17.8162 7.2351C18.2232 7.55089 18.5881 7.92282 18.9039 8.32281ZM21.7039 12.9404L20.4337 14.4772L20.5179 12.4842L18.6653 11.7544L20.5811 11.2211L20.7074 9.2351L21.8021 10.8983L23.732 10.4L22.5039 11.9439L23.5776 13.6211L21.7039 12.9404Z" fill="white"/>
</g>
<defs>
<clipPath id="clip0_15_1539">
<rect width="36" height="24" fill="white" transform="translate(0.679321)"/>
</clipPath>
</defs>
</svg>
