<svg width="37" height="24" viewBox="0 0 37 24" fill="none" xmlns="http://www.w3.org/2000/svg">
<g clip-path="url(#clip0_15_1558)">
<path d="M0.679321 0H36.6793V24H0.679321V0Z" fill="#232323"/>
<path d="M0.679321 4.00117H36.6793V8.00235H0.679321V4.00117Z" fill="#FFDA44"/>
<path d="M0.679321 8.00235H36.6793V12.0035H0.679321V8.00235Z" fill="#D32300"/>
<path d="M0.679321 16.0047H36.6793V20.0059H0.679321V16.0047Z" fill="#FFDA44"/>
<path d="M0.679321 19.9988H36.6793V24H0.679321V19.9988Z" fill="#D32300"/>
<path d="M18.6793 17.6783C21.8131 17.6783 24.3536 15.1376 24.3536 12.0035C24.3536 8.86942 21.8131 6.32874 18.6793 6.32874C15.5456 6.32874 13.0051 8.86942 13.0051 12.0035C13.0051 15.1376 15.5456 17.6783 18.6793 17.6783Z" fill="white"/>
<path d="M17.1676 8.96571C17.2309 8.86727 15.7895 8.82508 15.7895 8.82508C15.909 8.64928 17.0832 8.08672 17.0832 8.08672C17.0832 8.08672 17.02 7.66481 17.2731 7.39759L16.9567 6.70846C16.9567 6.70846 17.4489 6.46938 18.2504 6.46938C19.052 6.46938 19.6496 6.96161 19.727 7.39056L19.277 7.62965C19.27 7.96015 19.3965 8.44535 18.9746 8.84617C18.5598 9.24699 18.391 9.33138 18.377 10.1682C18.377 10.4424 18.5387 10.7448 18.9957 10.9909C20.2192 11.6449 21.7098 12.9739 22.1317 13.3747C22.5606 13.7756 22.4903 14.7249 22.3145 15.1468C22.1387 15.5687 21.4637 16.1524 21.309 16.1031C21.1543 16.0609 21.3934 15.4562 21.0629 15.2874C21.0629 15.2874 20.4371 14.753 19.8817 15.3296C19.3262 15.9062 19.8676 17.1017 20.1559 17.2986C20.4442 17.4955 20.2754 17.6502 20.0223 17.6502H18.0465C17.7793 17.6502 17.6668 17.4884 17.9129 17.2986C18.4473 17.0313 18.7848 16.2227 18.4332 15.8711C18.0887 15.5265 17.1465 15.9766 16.9215 16.3141C16.7246 16.511 16.3028 16.5672 16.0145 16.2156C15.7262 15.864 15.7262 15.4843 15.9371 15.3367C16.4293 14.9991 15.9371 15.3367 15.9442 15.3296C15.9442 15.3296 16.7809 14.7249 18.0465 14.6967C18.3207 14.6967 18.384 14.542 18.2012 14.3592C18.2012 14.3592 16.0285 12.4325 16.2254 11.2511C16.4364 9.96425 17.6317 9.40169 17.1676 8.96571C17.1676 8.96571 17.0762 8.83914 17.1676 8.96571Z" fill="black"/>
</g>
<defs>
<clipPath id="clip0_15_1558">
<rect width="36" height="24" fill="white" transform="translate(0.679321)"/>
</clipPath>
</defs>
</svg>
