<svg width="37" height="24" viewBox="0 0 37 24" fill="none" xmlns="http://www.w3.org/2000/svg">
<g clip-path="url(#clip0_15_1599)">
<path d="M0.679321 0H36.6793V24H0.679321V0Z" fill="white"/>
<path d="M0.679321 0H36.6793V1.84561H0.679321V0ZM0.679321 3.69123H36.6793V5.53684H0.679321V3.69123ZM0.679321 7.38246H36.6793V9.22807H0.679321V7.38246ZM0.679321 11.0737H36.6793V12.9193H0.679321V11.0737ZM0.679321 14.7719H36.6793V16.6175H0.679321V14.7719ZM0.679321 18.4632H36.6793V20.3088H0.679321V18.4632ZM0.679321 22.1544H36.6793V24H0.679321V22.1544Z" fill="#D80027"/>
<path d="M0.679321 0H18.6793V12.9193H0.679321V0Z" fill="#2E52B2"/>
<path d="M4.03373 9.74737L3.75303 8.84912L3.44426 9.74737H2.51794L3.26882 10.2877L2.98812 11.186L3.75303 10.6316L4.49689 11.186L4.20917 10.2877L4.97409 9.74737H4.03373ZM7.98461 9.74737L7.69689 8.84912L7.40216 9.74737H6.47584L7.22672 10.2877L6.94602 11.186L7.69689 10.6316L8.45479 11.186L8.17409 10.2877L8.92496 9.74737H7.98461ZM11.9495 9.74737L11.6478 8.84912L11.3671 9.74737H10.4197L11.1916 10.2877L10.8969 11.186L11.6478 10.6316L12.4197 11.186L12.125 10.2877L12.8758 9.74737H11.9495ZM15.8934 9.74737L15.6127 8.84912L15.3179 9.74737H14.3846L15.1425 10.2877L14.8618 11.186L15.6127 10.6316L16.3706 11.186L16.0688 10.2877L16.8408 9.74737H15.8934ZM7.69689 5.28421L7.40216 6.18245H6.47584L7.22672 6.73684L6.94602 7.62105L7.69689 7.07368L8.45479 7.62105L8.17409 6.73684L8.92496 6.18245H7.98461L7.69689 5.28421ZM3.75303 5.28421L3.44426 6.18245H2.51794L3.26882 6.73684L2.98812 7.62105L3.75303 7.07368L4.49689 7.62105L4.20917 6.73684L4.97409 6.18245H4.03373L3.75303 5.28421ZM11.6478 5.28421L11.3671 6.18245H10.4197L11.1916 6.73684L10.8969 7.62105L11.6478 7.07368L12.4197 7.62105L12.125 6.73684L12.8758 6.18245H11.9495L11.6478 5.28421ZM15.6127 5.28421L15.3179 6.18245H14.3846L15.1425 6.73684L14.8618 7.62105L15.6127 7.07368L16.3706 7.62105L16.0688 6.73684L16.8408 6.18245H15.8934L15.6127 5.28421ZM3.75303 1.73333L3.44426 2.61754H2.51794L3.26882 3.17193L2.98812 4.06315L3.75303 3.50877L4.49689 4.06315L4.20917 3.17193L4.97409 2.61754H4.03373L3.75303 1.73333ZM7.69689 1.73333L7.40216 2.61754H6.47584L7.22672 3.17193L6.94602 4.06315L7.69689 3.50877L8.45479 4.06315L8.17409 3.17193L8.92496 2.61754H7.98461L7.69689 1.73333ZM11.6478 1.73333L11.3671 2.61754H10.4197L11.1916 3.17193L10.8969 4.06315L11.6478 3.50877L12.4197 4.06315L12.125 3.17193L12.8758 2.61754H11.9495L11.6478 1.73333ZM15.6127 1.73333L15.3179 2.61754H14.3846L15.1425 3.17193L14.8618 4.06315L15.6127 3.50877L16.3706 4.06315L16.0688 3.17193L16.8408 2.61754H15.8934L15.6127 1.73333Z" fill="white"/>
</g>
<defs>
<clipPath id="clip0_15_1599">
<rect width="36" height="24" fill="white" transform="translate(0.679321)"/>
</clipPath>
</defs>
</svg>
