<svg width="37" height="24" viewBox="0 0 37 24" fill="none" xmlns="http://www.w3.org/2000/svg">
<g clip-path="url(#clip0_15_1584)">
<path d="M0.679321 0.000285864H36.6793V23.9998H0.679321V0.000285864Z" fill="#D80027"/>
<path d="M0.679321 16.6957H36.6793V23.9998H0.679321V16.6957Z" fill="#6DA544"/>
<path d="M0.679321 0.000285864H36.6793V7.349H0.679321V0.000285864Z" fill="#338AF3"/>
<path d="M0.679321 8.82732H36.6793V15.1313H0.679321V8.82732Z" fill="white"/>
<path d="M0.679321 0.000285864H36.6793V7.349H0.679321V0.000285864Z" fill="#338AF3"/>
<path d="M13.9464 3.67425C13.9464 2.55038 14.7363 1.61135 15.7911 1.38108C15.6259 1.34487 15.4572 1.32656 15.2881 1.32645C13.9913 1.32645 12.9402 2.37755 12.9402 3.67425C12.9402 4.97096 13.9913 6.02206 15.2881 6.02206C15.4609 6.02206 15.6291 6.00287 15.7911 5.96743C14.7363 5.73716 13.9464 4.79813 13.9464 3.67425ZM17.1787 4.74139L17.3377 5.23055H17.852L17.4359 5.53297L17.5949 6.02206L17.1787 5.71972L16.7626 6.02206L16.9216 5.53297L16.5054 5.23055H17.0198L17.1787 4.74139ZM18.8203 4.74139L18.9792 5.23055H19.4936L19.0775 5.53297L19.2365 6.02206L18.8203 5.71972L18.4042 6.02206L18.5631 5.53297L18.1471 5.23055H18.6614L18.8203 4.74139ZM20.4619 4.74139L20.6208 5.23055H21.1352L20.7191 5.53297L20.878 6.02206L20.4619 5.71972L20.0458 6.02206L20.2047 5.53297L19.7886 5.23055H20.3029L20.4619 4.74139ZM22.1035 4.74139L22.2626 5.23055H22.7769L22.3607 5.53297L22.5197 6.02206L22.1035 5.71972L21.6874 6.02206L21.8464 5.53297L21.4303 5.23055H21.9445L22.1035 4.74139ZM23.7452 4.74139L23.9041 5.23055H24.4184L24.0023 5.53297L24.1613 6.02206L23.7452 5.71972L23.3291 6.02206L23.488 5.53297L23.0719 5.23055H23.5862L23.7452 4.74139ZM18.8203 3.03392L18.9792 3.52301H19.4936L19.0775 3.82536L19.2365 4.31452L18.8203 4.01225L18.4042 4.31452L18.5631 3.82536L18.1471 3.52301H18.6614L18.8203 3.03392ZM20.4619 3.03392L20.6208 3.52301H21.1352L20.7191 3.82536L20.878 4.31452L20.4619 4.01225L20.0458 4.31452L20.2047 3.82536L19.7886 3.52301H20.3029L20.4619 3.03392ZM22.1035 3.03392L22.2626 3.52301H22.7769L22.3607 3.82536L22.5197 4.31452L22.1035 4.01225L21.6874 4.31452L21.8464 3.82536L21.4303 3.52301H21.9445L22.1035 3.03392ZM23.7452 3.03392L23.9041 3.52301H24.4184L24.0023 3.82536L24.1613 4.31452L23.7452 4.01225L23.3291 4.31452L23.488 3.82536L23.0719 3.52301H23.5862L23.7452 3.03392ZM20.4619 1.32645L20.6208 1.81554H21.1352L20.7191 2.11789L20.878 2.60705L20.4619 2.30471L20.0458 2.60705L20.2047 2.11789L19.7886 1.81554H20.3029L20.4619 1.32645ZM22.1035 1.32645L22.2626 1.81554H22.7769L22.3607 2.11789L22.5197 2.60705L22.1035 2.30471L21.6874 2.60705L21.8464 2.11789L21.4303 1.81554H21.9445L22.1035 1.32645ZM23.7452 1.32645L23.9041 1.81554H24.4184L24.0023 2.11789L24.1613 2.60705L23.7452 2.30471L23.3291 2.60705L23.488 2.11789L23.0719 1.81554H23.5862L23.7452 1.32645Z" fill="white"/>
</g>
<defs>
<clipPath id="clip0_15_1584">
<rect width="36" height="24" fill="white" transform="translate(0.679321)"/>
</clipPath>
</defs>
</svg>
