<svg width="37" height="24" viewBox="0 0 37 24" fill="none" xmlns="http://www.w3.org/2000/svg">
<g clip-path="url(#clip0_15_1681)">
<path d="M0.905762 0H36.9058V8H0.905762V0Z" fill="#FFCE00"/>
<path d="M0.905762 8H36.9058V16H0.905762V8Z" fill="#203899"/>
<path d="M0.905762 16H36.9058V24H0.905762V16Z" fill="#D82B2B"/>
<path d="M20.3138 8.60782L20.5378 9.34382L21.2578 9.56782L20.6338 9.99982L20.6498 10.7678L20.0418 10.3038L19.3218 10.5438L19.5618 9.83982L19.1138 9.23182H19.8658L20.3138 8.60782ZM17.4818 8.60782L17.9138 9.23182H18.6658L18.2178 9.83982L18.4578 10.5598L17.7378 10.3038L17.1298 10.7518L17.1458 9.99982L16.5218 9.55182L17.2418 9.34382L17.4818 8.60782ZM22.9858 9.50382L22.9698 10.2718L23.5938 10.7038L22.8578 10.9278L22.6338 11.6478L22.2018 11.0398H21.4338L21.8978 10.4318L21.6578 9.71182L22.3778 9.96782L22.9858 9.50382ZM14.8098 9.53582L15.4498 9.96782L16.1538 9.67982L15.9458 10.4158L16.4258 10.9918L15.6738 11.0238L15.2578 11.6638L15.0018 10.9598L14.2658 10.7678L14.8578 10.2878L14.8098 9.53582ZM25.2898 11.4078L24.9698 12.1118L25.3698 12.7518L24.6178 12.6718L24.1218 13.2478L23.9618 12.5118L23.2738 12.2238L23.9298 11.8398L23.9778 11.0878L24.5378 11.5838L25.2898 11.4078ZM25.5938 13.1998L25.9298 13.8878L26.6818 13.9998L26.1378 14.5278L26.2658 15.2638L25.5938 14.9118L24.9218 15.2638L25.0498 14.5278L24.5058 13.9998L25.2578 13.8878L25.5938 13.1998ZM12.1058 13.1198L12.4418 13.8078L13.1938 13.9038L12.6498 14.4318L12.7778 15.1838L12.1058 14.8318L11.4338 15.1838L11.5618 14.4318L11.0178 13.9038L11.7698 13.8078L12.1058 13.1198ZM12.6018 11.2798L13.3218 11.5038L13.9298 11.0398V11.8078L14.5538 12.2238L13.8338 12.4638L13.6258 13.1998L13.1778 12.5918L12.4258 12.6078L12.8578 11.9998L12.6018 11.2798Z" fill="white"/>
</g>
<defs>
<clipPath id="clip0_15_1681">
<rect width="36" height="24" fill="white" transform="translate(0.905762)"/>
</clipPath>
</defs>
</svg>
