<svg width="37" height="24" viewBox="0 0 37 24" fill="none" xmlns="http://www.w3.org/2000/svg">
<g clip-path="url(#clip0_15_1641)">
<path d="M0.905762 9.15527e-05H36.9058V24.0004H0.905762V9.15527e-05Z" fill="#0052B4"/>
<path d="M18.9058 9.15527e-05V8.24958H15.6665L18.9058 10.4096V11.9998H17.3147L12.1558 8.56022V11.9998H7.65576V8.56022L2.49679 11.9998H0.905762V10.4096L4.14499 8.24958H0.905762V3.74958H4.14499L0.905762 1.59035V9.15527e-05H2.49679L7.65576 3.43887V9.15527e-05H12.1558V3.43887L17.3147 9.15527e-05H18.9058Z" fill="white"/>
<path d="M11.0308 -0.000183105H8.78076V4.8748H0.905762V7.1248H8.78076V11.9998H11.0308V7.1248H18.9058V4.8748H11.0308V-0.000183105Z" fill="#D80027"/>
<path d="M0.905762 -0.000274658V1.06025L4.94008 3.74978H6.53076L0.905762 -0.000274658ZM18.9058 -0.000274658V1.06025L14.8714 3.74978H13.2808L18.9058 -0.000274658Z" fill="#D80027"/>
<path d="M18.9058 1.59033V3.74977H15.6666L18.9058 1.59033Z" fill="#2E52B2"/>
<path d="M0.905762 -0.000274658V1.06025L4.94008 3.74978H6.53076L0.905762 -0.000274658ZM18.9058 -0.000274658V1.06025L14.8714 3.74978H13.2808L18.9058 -0.000274658Z" fill="#D80027"/>
<path d="M18.9058 1.59033V3.74977H15.6666L18.9058 1.59033Z" fill="#2E52B2"/>
<path d="M0.905762 11.9998V10.9394L4.94008 8.24979H6.53076L0.905762 11.9998ZM18.9058 11.9998V10.9394L14.8714 8.24979H13.2808L18.9058 11.9998Z" fill="#D80027"/>
<path d="M27.9057 12.2606L24.6623 15.5041C25.2701 16.6765 26.494 17.478 27.9057 17.478C29.3175 17.478 30.5413 16.6765 31.1492 15.5041L27.9057 12.2606Z" fill="#FFDA44"/>
<path d="M24.2536 6.52155V12.2607C24.2537 15.0563 27.9058 15.9128 27.9058 15.9128C27.9058 15.9128 31.5579 15.0563 31.5579 12.2607V6.52155H24.2536Z" fill="#6DA544"/>
<path d="M27.1232 9.12994H28.6884V13.3036H27.1232V9.12994Z" fill="white"/>
<path d="M27.9057 9.91251C28.338 9.91251 28.6883 9.56214 28.6883 9.12993C28.6883 8.69772 28.338 8.34735 27.9057 8.34735C27.4735 8.34735 27.1232 8.69772 27.1232 9.12993C27.1232 9.56214 27.4735 9.91251 27.9057 9.91251Z" fill="#A2001D"/>
<path d="M25.2973 7.56473H26.3407V8.60817H25.2973V7.56473ZM25.2973 9.9126H26.3407V10.956H25.2973V9.9126ZM25.2973 12.2604H26.3407V13.3038H25.2973V12.2604ZM29.471 7.56473H30.5144V8.60817H29.471V7.56473ZM29.471 9.9126H30.5144V10.956H29.471V9.9126ZM29.471 12.2604H30.5144V13.3038H29.471V12.2604Z" fill="#FFDA44"/>
</g>
<defs>
<clipPath id="clip0_15_1641">
<rect width="36" height="24" fill="white" transform="translate(0.905762)"/>
</clipPath>
</defs>
</svg>
