<svg width="37" height="24" viewBox="0 0 37 24" fill="none" xmlns="http://www.w3.org/2000/svg">
<g clip-path="url(#clip0_15_1612)">
<path d="M0.905762 0H36.9058V24H0.905762V0Z" fill="white"/>
<path d="M28.869 11.6941L25.2831 18.5643C25.2058 18.705 25.262 18.8808 25.4097 18.9581C25.5503 19.0355 25.7261 18.9792 25.8034 18.8315L29.3893 11.9613C29.4597 11.8137 29.3964 11.6379 29.2487 11.5746C29.1081 11.5113 28.9464 11.5605 28.869 11.6941Z" fill="#1583C4"/>
<path d="M29.3753 13.22L25.3112 18.5221C25.2198 18.6557 25.255 18.8386 25.3886 18.93C25.5081 19.0144 25.6769 18.9933 25.7753 18.8808L29.8394 13.5787C29.9378 13.4521 29.9167 13.2693 29.7831 13.1708C29.6566 13.0653 29.4737 13.0935 29.3753 13.22Z" fill="#1583C4"/>
<path d="M27.5542 12.7489L25.2691 18.5924C25.2128 18.7401 25.2831 18.9159 25.4378 18.9722C25.5855 19.0284 25.7612 18.9581 25.8175 18.8034L28.1026 12.9599C28.1519 12.8052 28.0745 12.6434 27.9198 12.5872C27.7722 12.545 27.6175 12.6153 27.5542 12.7489Z" fill="#1583C4"/>
<path d="M9.49094 12.0879C9.51906 12.2074 9.57531 12.4184 9.64563 12.6856C9.76516 13.1357 9.89875 13.5857 10.0394 14.0006C10.2011 14.4858 11.073 16.2086 11.4597 16.7501C11.9448 17.4322 12.4511 18.1072 12.9714 18.7612C13.0839 18.8948 13.2878 18.9089 13.4214 18.7964C13.548 18.6839 13.5691 18.494 13.4706 18.3604C12.9573 17.7134 12.4581 17.0524 11.98 16.3774C11.6847 15.9695 10.7706 14.1904 10.6441 13.7967C10.4402 13.1849 10.2644 12.559 10.1097 11.9332C10.0745 11.7644 9.90578 11.6519 9.73703 11.6871C9.56828 11.7222 9.45578 11.891 9.49094 12.0598C9.48391 12.0738 9.49094 12.0809 9.49094 12.0879Z" fill="#409347"/>
<path d="M21.7956 8.07969C21.7956 8.07969 20.5581 3.00966 19.2573 3.00966C18.7722 3.00966 18.4206 2.96747 18.1745 3.45971C18.1112 3.57925 16.719 3.3472 16.8315 4.92235C16.8667 5.40755 16.9089 4.23322 17.8792 4.68326C18.3222 4.89422 16.7261 8.07266 16.7261 8.07266H21.7956V8.07969Z" fill="#FFD836" stroke="#231F20" stroke-miterlimit="10"/>
<path d="M33.6784 3.40346L27.287 4.95049C21.9925 6.23733 24.3268 8.07267 24.3268 8.07267L19.2573 8.9165L14.1878 8.07267C14.1878 8.07267 16.5221 6.23733 11.2276 4.95049L4.83621 3.40346C3.93621 3.18547 3.58464 3.64255 4.09089 4.43013C4.09089 4.43013 11.5862 11.7433 13.0065 12.3059C14.4268 12.8755 15.8753 12.3059 15.8753 12.3059C15.8753 12.3059 14.8276 12.9177 14.1878 13.9936C13.5409 15.0694 13.8643 16.4336 11.4526 16.8204C11.0659 17.2845 11.101 17.8049 11.6565 18.2198C12.212 18.6276 16.726 14.8374 16.726 14.8374C16.726 14.8374 15.0385 16.5532 15.0385 17.3759C15.0385 17.7345 18.1393 21.1591 19.2643 21.1591C20.3893 21.1591 23.4901 17.7345 23.4901 17.3759C23.4901 16.5532 21.8026 14.8374 21.8026 14.8374C21.8026 14.8374 26.3167 18.6276 26.8721 18.2198C27.4276 17.8119 27.6737 16.8626 27.069 16.8204C25.1003 16.6938 24.9807 15.0694 24.3339 13.9936C23.687 12.9177 22.6464 12.3059 22.6464 12.3059C22.6464 12.3059 24.0948 12.8755 25.5151 12.3059C26.9354 11.7363 34.4237 4.43013 34.4237 4.43013C34.93 3.64255 34.5854 3.18547 33.6784 3.40346Z" fill="#FFD836" stroke="#231F20" stroke-miterlimit="10"/>
<path d="M15.0597 7.86169V13.5083C15.0597 16.7219 19.2573 17.7064 19.2573 17.7064C19.2573 17.7064 23.455 16.7219 23.455 13.5083V7.86169H15.0597Z" fill="white" stroke="#231F20" stroke-miterlimit="10"/>
<path d="M16.7401 9.68298V16.5251C17.3167 16.947 17.9354 17.2423 18.4206 17.4322V9.68298H16.7401ZM21.7745 9.68298V16.5251C21.1979 16.947 20.5792 17.2423 20.094 17.4322V9.68298H21.7745Z" fill="#D80027"/>
<path d="M15.0597 7.86169H23.455V10.5268H15.0597V7.86169Z" fill="#0052B4"/>
<path d="M5.13152 14.8022L3.59167 10.7167H2.00964L4.24558 16.3985H6.01746L8.2323 10.7167H6.65027L5.13152 14.8022ZM32.6518 10.6815H33.9807V16.4266H32.6518V10.6815Z" fill="#1583C4"/>
</g>
<defs>
<clipPath id="clip0_15_1612">
<rect width="36" height="24" fill="white" transform="translate(0.905762)"/>
</clipPath>
</defs>
</svg>
