<svg width="37" height="24" viewBox="0 0 37 24" fill="none" xmlns="http://www.w3.org/2000/svg">
<g clip-path="url(#clip0_15_1626)">
<path d="M0.905762 0H36.9058V24.0007H0.905762V0Z" fill="#0052B4"/>
<path d="M16.4251 2.99744L16.9841 4.13019L18.2336 4.3116L17.3293 5.19332L17.5431 6.43787L16.4251 5.85005L15.3071 6.43787L15.5202 5.19332L14.616 4.3116L15.8661 4.13019L16.4251 2.99744ZM21.3864 2.99323L21.9454 4.12527L23.1955 4.30738L22.2913 5.1884L22.5043 6.43365L21.3864 5.84583L20.2684 6.43365L20.4822 5.1884L19.5779 4.30738L20.8274 4.12527L21.3864 2.99323ZM25.7514 3.79198L26.3104 4.92473L27.5598 5.10614L26.6556 5.98786L26.8693 7.23241L25.7514 6.64529L24.6334 7.23241L24.8472 5.98786L23.9422 5.10614L25.1924 4.92473L25.7514 3.79198ZM30.1818 5.07871L30.7407 6.21146L31.9902 6.39357L31.086 7.27459L31.2997 8.51984L30.1818 7.93202L29.0638 8.51984L29.2768 7.27459L28.3726 6.39357L29.6228 6.21146L30.1818 5.07871ZM12.0601 3.79198L12.6191 4.92473L13.8693 5.10614L12.9643 5.98786L13.1781 7.23241L12.0601 6.64529L10.9421 7.23241L11.1559 5.98786L10.2517 5.10614L11.5011 4.92473L12.0601 3.79198ZM7.62973 5.07871L8.18871 6.21146L9.43887 6.39357L8.53465 7.27459L8.7477 8.51984L7.62973 7.93202L6.51176 8.51984L6.72551 7.27459L5.82129 6.39357L7.07074 6.21146L7.62973 5.07871Z" fill="white"/>
<path d="M16.2009 18.2343L14.287 17.2774L12.373 13.4502H14.287L16.2009 11.5363L17.1578 9.62237L19.0717 8.66541L20.0287 9.62237L21.9426 10.5793V11.5363L22.8995 12.4933L25.7704 14.4072L24.812 17.2781L21.9412 20.149L20.9842 18.235L18.1134 20.149V22.0629L17.1564 21.1059L16.2009 18.2343Z" fill="#FFDA44"/>
</g>
<defs>
<clipPath id="clip0_15_1626">
<rect width="36" height="24" fill="white" transform="translate(0.905762)"/>
</clipPath>
</defs>
</svg>
