<svg width="37" height="24" viewBox="0 0 37 24" fill="none" xmlns="http://www.w3.org/2000/svg">
<g clip-path="url(#clip0_15_1715)">
<path d="M0.905762 0H36.9058V24H0.905762V0Z" fill="white"/>
<path d="M31.1457 15.8399C30.7057 16.1199 31.1457 16.5599 30.9057 16.5999C30.6657 16.6399 30.3057 16.0399 30.8257 15.5999C31.4657 14.9999 33.1457 15.5999 33.1857 17.3199C33.1857 18.1999 32.8257 20.0399 30.3057 20.0399C27.2657 20.0399 25.7457 17.7599 25.7457 15.4799C25.7457 13.5599 27.2257 10.0799 28.3457 9.63994C29.5857 9.15994 31.0257 8.23994 31.0657 7.63994C31.0657 7.43994 30.5057 7.59994 29.7457 7.99994C28.5057 8.67994 27.1057 8.99994 27.1057 8.55994C27.1057 8.11994 28.2657 7.31994 28.7057 6.71994C29.1857 6.07994 29.0657 4.51994 29.9057 4.51994C32.9457 4.51994 33.8657 7.59994 32.7057 9.19994C31.9457 10.2399 34.4257 9.59994 34.4257 9.59994C34.4257 9.59994 34.4257 11.7199 33.1457 12.5199C31.9457 13.2399 31.2257 14.0799 31.2257 14.0799C31.2257 14.0799 31.3057 12.2399 31.0257 12.5199C30.7857 12.7999 26.5857 14.3199 26.9057 17.3199C27.0257 18.5199 28.7057 19.4799 30.3057 19.3999C31.9057 19.3199 32.5857 18.4399 32.6257 17.4399C32.6657 15.8799 31.4257 15.6799 31.1457 15.8399ZM5.18574 17.4399C5.22574 18.4399 5.90574 19.3199 7.50574 19.3999C9.10574 19.4799 10.7857 18.5199 10.9057 17.3199C11.2257 14.3199 7.02574 12.7999 6.78574 12.5199C6.50574 12.2399 6.58574 14.0799 6.58574 14.0799C6.58574 14.0799 5.86574 13.2399 4.66574 12.5199C3.38574 11.7199 3.38574 9.59994 3.38574 9.59994C3.38574 9.59994 5.86574 10.2399 5.10574 9.19994C3.94574 7.59994 4.86574 4.51994 7.90574 4.51994C8.74574 4.51994 8.62574 6.07994 9.10574 6.71994C9.54574 7.31994 10.7057 8.11994 10.7057 8.55994C10.7057 8.99994 9.30574 8.67994 8.06574 7.99994C7.30574 7.59994 6.74574 7.43994 6.74574 7.63994C6.78574 8.23994 8.22574 9.15994 9.46574 9.63994C10.5857 10.0799 12.0657 13.5599 12.0657 15.4799C12.0657 17.7599 10.5457 20.0399 7.50574 20.0399C4.98574 20.0399 4.62574 18.1999 4.62574 17.3199C4.66574 15.5999 6.34574 14.9999 6.98574 15.5999C7.46574 16.0399 7.14574 16.6799 6.90574 16.5999C6.66574 16.5599 7.14574 16.1199 6.66574 15.8399C6.42574 15.6799 5.18574 15.8799 5.18574 17.4399Z" fill="#ABABAB" stroke="#7F7F7F" stroke-width="0.25"/>
<path d="M13.3058 11.5201V17.1201C13.3058 17.8801 14.1458 17.7601 14.1458 17.7601H17.8658C18.3458 17.7601 18.9058 18.6801 18.9058 18.6801C18.9058 18.6801 19.4658 17.7601 19.9058 17.7601H23.7458C23.7458 17.7601 24.5458 17.8401 24.5458 17.0401V11.4801H13.3058V11.5201Z" fill="#DE393A"/>
<path d="M13.3058 5.24004H24.5058V11.52H13.3058V5.24004Z" fill="#3951A3"/>
<path d="M20.9458 6.60001C20.7858 7.56001 19.9458 8.28001 18.9058 8.28001C17.9058 8.28001 17.0658 7.56001 16.8658 6.60001C16.6658 6.96001 16.5458 7.36001 16.5458 7.80001C16.5458 9.12001 17.5858 10.16 18.9058 10.16C20.2258 10.16 21.2658 9.12001 21.2658 7.80001C21.2658 7.36001 21.1458 6.96001 20.9458 6.60001Z" fill="white"/>
<path d="M16.5458 15.8C17.2085 15.8 17.7458 15.2627 17.7458 14.6C17.7458 13.9373 17.2085 13.4 16.5458 13.4C15.883 13.4 15.3458 13.9373 15.3458 14.6C15.3458 15.2627 15.883 15.8 16.5458 15.8Z" fill="#FEE05F"/>
<path d="M21.2658 15.8C21.9285 15.8 22.4658 15.2627 22.4658 14.6C22.4658 13.9373 21.9285 13.4 21.2658 13.4C20.6031 13.4 20.0658 13.9373 20.0658 14.6C20.0658 15.2627 20.6031 15.8 21.2658 15.8Z" fill="#FEE05F"/>
</g>
<defs>
<clipPath id="clip0_15_1715">
<rect width="36" height="24" fill="white" transform="translate(0.905762)"/>
</clipPath>
</defs>
</svg>
