<svg width="37" height="24" viewBox="0 0 37 24" fill="none" xmlns="http://www.w3.org/2000/svg">
<g clip-path="url(#clip0_15_1690)">
<path d="M0.905762 0.000285864H36.9058V23.9998H0.905762V0.000285864Z" fill="white"/>
<path d="M8.92307 12.0001L0.905762 3.9792V20.0224L8.92307 12.0001Z" fill="black"/>
<path d="M12.2396 12L0.905762 0.658618V3.9792L8.92307 12.0001L0.905762 20.0224V23.3368L12.2396 12Z" fill="#FFB915"/>
<path d="M36.7534 14.3478C36.7575 14.3169 36.8099 14.2861 36.9058 14.2552V9.65223H16.5575L6.90553 0.000285864H0.905762V0.658622L12.2396 12L0.905762 23.3368V23.9998H6.90553L16.5575 14.3478H36.7534Z" fill="#007847"/>
<path d="M36.2857 16.6957H17.53L10.2258 23.9998H36.9058V16.6957H36.2857Z" fill="#000C8A"/>
<path d="M36.2857 7.30435H36.9058V0.000281096H10.2258L17.53 7.30435H36.2857Z" fill="#E1392D"/>
</g>
<defs>
<clipPath id="clip0_15_1690">
<rect width="36" height="24" fill="white" transform="translate(0.905762)"/>
</clipPath>
</defs>
</svg>
