<svg width="37" height="24" viewBox="0 0 37 24" fill="none" xmlns="http://www.w3.org/2000/svg">
<g clip-path="url(#clip0_15_1703)">
<path d="M0.905762 0H36.9058V24.0003H0.905762V0Z" fill="black"/>
<path d="M0.905762 3.43568H36.9058V6.87172H0.905762V3.43568ZM0.905762 17.1798H36.9058V20.6159H0.905762V17.1798Z" fill="#FFDA44"/>
<path d="M0.905762 0H36.9058V3.43604H0.905762V0Z" fill="#057F44"/>
<path d="M0.905762 6.87207H36.9058V10.3081H0.905762V6.87207ZM0.905762 13.7442H36.9058V17.1802H0.905762V13.7442Z" fill="#D80027"/>
<path d="M0.905762 20.6163H36.9058V24.0003H0.905762V20.6163Z" fill="#057F44"/>
<path d="M20.3818 11.9998L8.38202 23.9995H0.905762V0H8.38202L20.3818 11.9998Z" fill="white"/>
<path d="M18.9058 11.9997L6.90582 23.9997H8.38147L20.3815 11.9997L8.38147 -0.000213623H6.90582L18.9058 11.9997Z" fill="black"/>
<path d="M8.11034 8.24323L9.04261 11.1128H12.0602L9.6191 12.8865L10.5514 15.7563L8.11034 13.9827L5.66909 15.7563L6.60157 12.8865L4.16046 11.1128H7.17792L8.11034 8.24323Z" fill="#D80027"/>
<path d="M10.675 12.2345L8.24502 11.3737C8.24502 11.3737 8.06551 9.68935 8.05461 9.63233C7.97214 9.1978 7.59034 8.86937 7.1319 8.86937C6.61328 8.86937 6.19274 9.28984 6.19274 9.80853C6.19274 9.89453 6.20526 9.97742 6.22691 10.0566L5.54565 10.7425H6.75707C6.75707 11.9998 5.81882 11.9998 5.81882 13.252L6.33927 14.5042H9.46972L9.99158 13.252H9.9913C10.0422 13.1351 10.075 13.0111 10.0884 12.8842C10.5382 12.7022 10.675 12.2345 10.675 12.2345Z" fill="#FFDA44"/>
</g>
<defs>
<clipPath id="clip0_15_1703">
<rect width="36" height="24" fill="white" transform="translate(0.905762)"/>
</clipPath>
</defs>
</svg>
