<svg width="22" height="22" viewBox="0 0 22 22" fill="none" xmlns="http://www.w3.org/2000/svg">
<path d="M10.8166 18.3334C9.9543 18.3334 9.14398 18.1682 8.38558 17.8377C7.62719 17.5072 6.9675 17.0587 6.4065 16.4922C5.8455 15.9257 5.40138 15.2595 5.07413 14.4936C4.74688 13.7278 4.58325 12.9095 4.58325 12.0387C4.58325 11.3673 4.68195 10.7273 4.87933 10.1188C5.07673 9.51033 5.35203 8.95168 5.70525 8.44286C6.05848 7.93403 6.47922 7.48554 6.9675 7.09736C7.45578 6.70919 7.9908 6.3997 8.57258 6.16889V8.41925C7.97003 8.79694 7.48695 9.30313 7.12333 9.93785C6.75972 10.5726 6.57792 11.2728 6.57792 12.0387C6.57792 12.6262 6.6896 13.1796 6.91296 13.6989C7.13632 14.2183 7.44019 14.672 7.82458 15.0602C8.20898 15.4483 8.65829 15.7552 9.17254 15.9808C9.6868 16.2063 10.2348 16.3191 10.8166 16.3191C11.3984 16.3191 11.9464 16.2063 12.4606 15.9808C12.9749 15.7552 13.4242 15.4483 13.8086 15.0602C14.193 14.672 14.4968 14.2183 14.7202 13.6989C14.9436 13.1796 15.0553 12.6262 15.0553 12.0387C15.0553 11.3883 14.9202 10.7798 14.6501 10.2132C14.38 9.64672 14.0164 9.16937 13.5593 8.7812V6.38921C14.0787 6.65149 14.5514 6.97671 14.9773 7.36489C15.4033 7.75306 15.7695 8.18844 16.076 8.67104C16.3824 9.15364 16.6214 9.68081 16.7928 10.2526C16.9642 10.8244 17.0499 11.4197 17.0499 12.0387C17.0499 12.9095 16.8863 13.7278 16.559 14.4936C16.2318 15.2595 15.7877 15.9257 15.2267 16.4922C14.6657 17.0587 14.006 17.5072 13.2476 17.8377C12.4892 18.1682 11.6789 18.3334 10.8166 18.3334ZM11.0659 11.2833C10.7958 11.2833 10.5621 11.1837 10.3647 10.9843C10.1673 10.785 10.0686 10.549 10.0686 10.2762V4.6739C10.0686 4.40113 10.1673 4.16508 10.3647 3.96575C10.5621 3.76641 10.7958 3.66675 11.0659 3.66675C11.336 3.66675 11.5698 3.76641 11.7672 3.96575C11.9646 4.16508 12.0633 4.40113 12.0633 4.6739V10.2762C12.0633 10.5595 11.9646 10.7981 11.7672 10.9922C11.5698 11.1863 11.336 11.2833 11.0659 11.2833Z" fill="#6FA6FE"/>
</svg>
