<svg width="40" height="40" viewBox="0 0 40 40" fill="none" xmlns="http://www.w3.org/2000/svg">
<path d="M0 20C0 8.95431 8.95431 0 20 0C31.0457 0 40 8.95431 40 20C40 31.0457 31.0457 40 20 40C8.95431 40 0 31.0457 0 20Z" fill="#6FA6FE"/>
<path d="M20 11C19.3889 11 18.8125 11.1188 18.2708 11.3564C17.7292 11.5939 17.2569 11.9153 16.8542 12.3206C16.4514 12.7259 16.1319 13.201 15.8958 13.746C15.6736 14.291 15.5625 14.8709 15.5625 15.4858C15.5625 16.1007 15.6736 16.6806 15.8958 17.2256C16.1319 17.7567 16.4514 18.2248 16.8542 18.6301C17.2569 19.0353 17.7292 19.3568 18.2708 19.5943C18.8125 19.8319 19.3889 19.9507 20 19.9507C20.6111 19.9507 21.1875 19.8319 21.7292 19.5943C22.2708 19.3568 22.7431 19.0353 23.1458 18.6301C23.5486 18.2248 23.8681 17.7567 24.1042 17.2256C24.3264 16.6806 24.4375 16.1007 24.4375 15.4858C24.4375 14.8709 24.3264 14.291 24.1042 13.746C23.8681 13.201 23.5486 12.7259 23.1458 12.3206C22.7431 11.9153 22.2708 11.5939 21.7292 11.3564C21.1875 11.1188 20.6111 11 20 11ZM20 18.1689C19.2639 18.1689 18.6354 17.9069 18.1146 17.3829C17.5937 16.8588 17.3333 16.2265 17.3333 15.4858C17.3333 14.7452 17.5937 14.1128 18.1146 13.5888C18.6354 13.0647 19.2639 12.8027 20 12.8027C20.7361 12.8027 21.3646 13.0647 21.8854 13.5888C22.4063 14.1128 22.6667 14.7452 22.6667 15.4858C22.6667 16.2265 22.4063 16.8588 21.8854 17.3829C21.3646 17.9069 20.7361 18.1689 20 18.1689ZM28 28V27.0986C28 26.2462 27.8333 25.4357 27.5 24.6671C27.1806 23.9124 26.7396 23.2522 26.1771 22.6862C25.6146 22.1202 24.9514 21.6695 24.1875 21.3342C23.4375 21.0127 22.6319 20.852 21.7708 20.852H18.2292C17.3681 20.852 16.5625 21.0127 15.8125 21.3342C15.0486 21.6695 14.3854 22.1202 13.8229 22.6862C13.2604 23.2522 12.8194 23.9124 12.5 24.6671C12.1667 25.4357 12 26.2462 12 27.0986V28H13.7708V27.0986C13.7708 26.4838 13.8889 25.9038 14.125 25.3588C14.3611 24.8278 14.6806 24.3596 15.0833 23.9544C15.4861 23.5491 15.9583 23.2277 16.5 22.9901C17.0417 22.7526 17.6181 22.6338 18.2292 22.6338H21.7708C22.3819 22.6338 22.9583 22.7526 23.5 22.9901C24.0417 23.2277 24.5139 23.5491 24.9167 23.9544C25.3194 24.3596 25.6389 24.8278 25.875 25.3588C26.1111 25.9038 26.2292 26.4838 26.2292 27.0986V28H28Z" fill="white"/>
<rect x="0.5" y="0.5" width="39" height="39" rx="19.5" stroke="white" stroke-opacity="0.15"/>
</svg>
