<svg width="90" height="91" viewBox="0 0 90 91" fill="none" xmlns="http://www.w3.org/2000/svg">
<path d="M49.9158 16.5812H10.3325C9.96531 16.5812 9.66809 16.284 9.66809 15.9168C9.66809 15.5497 9.96531 15.2524 10.3325 15.2524H49.8983C50.2655 15.2524 50.5627 15.5497 50.5627 15.9168C50.5627 16.284 50.2655 16.5812 49.8983 16.5812H49.9158Z" fill="#277AFF"/>
<path d="M8.91637 12C6.76586 12 5 13.7484 5 15.9164C5 18.0844 6.74838 19.8327 8.91637 19.8327C11.0844 19.8327 12.8327 18.0844 12.8327 15.9164C12.8327 13.7659 11.0844 12 8.91637 12Z" fill="#222222"/>
<path d="M22.5887 12C20.4207 12 18.6724 13.7484 18.6724 15.9164C18.6724 18.0844 20.4207 19.8327 22.5887 19.8327C24.7567 19.8327 26.5051 18.0844 26.5051 15.9164C26.5051 13.7484 24.7392 12 22.5887 12Z" fill="#222222"/>
<path d="M49.9159 12C47.7654 12 45.9995 13.7484 45.9995 15.9164C45.9995 18.0844 47.7479 19.8327 49.9159 19.8327C52.0839 19.8327 53.8323 18.0844 53.8323 15.9164C53.8323 13.7484 52.0664 12 49.9159 12Z" fill="#222222"/>
<path d="M49.9158 29.3087H10.3325C9.96531 29.3087 9.66809 29.0115 9.66809 28.6444C9.66809 28.2772 9.96531 27.98 10.3325 27.98H49.8983C50.2655 27.98 50.5627 28.2772 50.5627 28.6444C50.5627 29.0115 50.2655 29.3087 49.8983 29.3087H49.9158Z" fill="#277AFF"/>
<path d="M8.91637 24.7283C6.76586 24.7283 5 26.4767 5 28.6446C5 30.8126 6.74838 32.561 8.91637 32.561C11.0844 32.561 12.8327 30.8126 12.8327 28.6446C12.8327 26.4767 11.0844 24.7283 8.91637 24.7283" fill="#222222"/>
<path d="M36.2435 24.7283C34.093 24.7283 32.3271 26.4767 32.3271 28.6446C32.3271 30.7951 34.0755 32.561 36.2435 32.561C38.4115 32.561 40.1599 30.8126 40.1599 28.6446C40.1599 26.4767 38.4115 24.7283 36.2435 24.7283" fill="#222222"/>
<path d="M49.9159 24.7283C47.7654 24.7283 45.9995 26.4767 45.9995 28.6446C45.9995 30.8126 47.7479 32.561 49.9159 32.561C52.0839 32.561 53.8323 30.8126 53.8323 28.6446C53.8323 26.4767 52.0839 24.7283 49.9159 24.7283" fill="#222222"/>
<path d="M49.9158 42.0194H10.3325C9.96531 42.0194 9.66809 41.7222 9.66809 41.3551C9.66809 40.9879 9.96531 40.6907 10.3325 40.6907H49.8983C50.2655 40.6907 50.5627 40.9879 50.5627 41.3551C50.5627 41.7222 50.2655 42.0194 49.8983 42.0194H49.9158Z" fill="#277AFF"/>
<path d="M8.91637 37.4392C6.76586 37.4392 5 39.1876 5 41.3556C5 43.5236 6.74838 45.272 8.91637 45.272C11.0844 45.272 12.8327 43.5236 12.8327 41.3556C12.8327 39.1876 11.0844 37.4392 8.91637 37.4392" fill="#222222"/>
<path d="M22.5887 37.4392C20.4382 37.4392 18.6724 39.1876 18.6724 41.3556C18.6724 43.5236 20.4207 45.272 22.5887 45.272C24.7567 45.272 26.5051 43.5236 26.5051 41.3556C26.5051 39.2051 24.7567 37.4392 22.5887 37.4392" fill="#222222"/>
<path d="M49.9159 37.4392C47.7654 37.4392 45.9995 39.1876 45.9995 41.3556C45.9995 43.5236 47.7479 45.272 49.9159 45.272C52.0839 45.272 53.8323 43.5236 53.8323 41.3556C53.8323 39.1876 52.0839 37.4392 49.9159 37.4392" fill="#222222"/>
<path d="M49.9158 54.748H10.3325C9.96531 54.748 9.66809 54.4507 9.66809 54.0836C9.66809 53.7164 9.96531 53.4192 10.3325 53.4192H49.8983C50.2655 53.4192 50.5627 53.7164 50.5627 54.0836C50.5627 54.4507 50.2655 54.748 49.8983 54.748H49.9158Z" fill="#277AFF"/>
<path d="M8.91637 50.1672C6.76586 50.1672 5 51.9156 5 54.0836C5 56.2516 6.74838 58 8.91637 58C11.0844 58 12.8327 56.2516 12.8327 54.0836C12.8327 51.9156 11.0844 50.1672 8.91637 50.1672Z" fill="#222222"/>
<path d="M36.2435 50.1672C34.093 50.1672 32.3271 51.9156 32.3271 54.0836C32.3271 56.2341 34.0755 58 36.2435 58C38.4115 58 40.1599 56.2516 40.1599 54.0836C40.1599 51.9156 38.4115 50.1672 36.2435 50.1672Z" fill="#222222"/>
<path d="M49.9159 50.1672C47.7654 50.1672 45.9995 51.9156 45.9995 54.0836C45.9995 56.2516 47.7479 58 49.9159 58C52.0839 58 53.8323 56.2516 53.8323 54.0836C53.8323 51.9156 52.0839 50.1672 49.9159 50.1672Z" fill="#222222"/>
</svg>
