<svg width="90" height="91" viewBox="0 0 90 91" fill="none" xmlns="http://www.w3.org/2000/svg">
<path d="M20.7506 26.8114C20.7506 24.6583 22.5044 22.9218 24.6402 22.9218C26.5669 22.9218 28.1599 24.3261 28.4737 26.1516H34.3849C34.697 24.3142 36.291 22.9218 38.2192 22.9218C40.1318 22.9218 41.7381 24.3142 42.0529 26.1516H61.526C61.8408 24.3142 63.4471 22.9218 65.3598 22.9218C67.4956 22.9218 69.2494 24.6583 69.2494 26.8114C69.2494 28.9646 67.5129 30.701 65.3598 30.701C63.4316 30.701 61.8376 29.3086 61.5255 27.4713H42.0534C41.7413 29.3086 40.1474 30.701 38.2192 30.701C36.291 30.701 34.697 29.3086 34.3849 27.4713H28.4745C28.1624 29.3086 26.5684 30.701 24.6402 30.701C22.4871 30.701 20.7506 28.9646 20.7506 26.8114Z" fill="white"/>
<path d="M28.4745 38.7929C28.1624 36.9556 26.5684 35.5632 24.6402 35.5632C22.5044 35.5632 20.7506 37.2996 20.7506 39.4528C20.7506 41.6059 22.4871 43.3424 24.6402 43.3424C26.5684 43.3424 28.1624 41.95 28.4745 40.1126H47.9473C48.2612 41.9381 49.8542 43.3424 51.7808 43.3424C53.709 43.3424 55.303 41.95 55.6151 40.1126H61.5255C61.8376 41.95 63.4316 43.3424 65.3598 43.3424C67.5129 43.3424 69.2494 41.6059 69.2494 39.4528C69.2494 37.2996 67.5129 35.5632 65.3598 35.5632C63.4471 35.5632 61.8408 36.9556 61.526 38.7929H55.6151C55.303 36.9556 53.709 35.5632 51.7808 35.5632C49.8682 35.5632 48.2619 36.9556 47.9471 38.7929H28.4745Z" fill="white"/>
<path d="M28.4745 51.4169C28.1624 49.5795 26.5684 48.1871 24.6402 48.1871C22.5044 48.1871 20.7506 49.9235 20.7506 52.0767C20.7506 54.2299 22.4871 55.9663 24.6402 55.9663C26.5684 55.9663 28.1624 54.5739 28.4745 52.7366H34.3849C34.697 54.5739 36.291 55.9663 38.2192 55.9663C40.1474 55.9663 41.7413 54.5739 42.0534 52.7366H61.5255C61.8376 54.5739 63.4316 55.9663 65.3598 55.9663C67.5129 55.9663 69.2494 54.2299 69.2494 52.0767C69.2494 49.9235 67.5129 48.1871 65.3598 48.1871C63.4471 48.1871 61.8408 49.5795 61.526 51.4169H42.0527C41.7388 49.5914 40.1458 48.1871 38.2192 48.1871C36.3066 48.1871 34.7003 49.5795 34.3854 51.4169H28.4745Z" fill="white"/>
<path d="M28.4745 64.058C28.1624 62.2206 26.5684 60.8282 24.6402 60.8282C22.5044 60.8282 20.7506 62.5647 20.7506 64.7178C20.7506 66.871 22.4871 68.6075 24.6402 68.6075C26.5684 68.6075 28.1624 67.215 28.4745 65.3777H47.9473C48.2612 67.2032 49.8542 68.6075 51.7808 68.6075C53.709 68.6075 55.303 67.215 55.6151 65.3777H61.5255C61.8376 67.215 63.4316 68.6075 65.3598 68.6075C67.5129 68.6075 69.2494 66.871 69.2494 64.7178C69.2494 62.5647 67.5129 60.8282 65.3598 60.8282C63.4471 60.8282 61.8408 62.2206 61.526 64.058H55.6151C55.303 62.2206 53.709 60.8282 51.7808 60.8282C49.8682 60.8282 48.2619 62.2206 47.9471 64.058H28.4745Z" fill="white"/>
</svg>
