<svg width="200" height="70" viewBox="0 0 200 70" fill="none" xmlns="http://www.w3.org/2000/svg">
<path d="M49.9158 16.5812H10.3325C9.96531 16.5812 9.66809 16.284 9.66809 15.9168C9.66809 15.5497 9.96531 15.2524 10.3325 15.2524H49.8983C50.2655 15.2524 50.5627 15.5497 50.5627 15.9168C50.5627 16.284 50.2655 16.5812 49.8983 16.5812H49.9158Z" fill="#fff"/>
<path d="M8.91637 12C6.76586 12 5 13.7484 5 15.9164C5 18.0844 6.74838 19.8327 8.91637 19.8327C11.0844 19.8327 12.8327 18.0844 12.8327 15.9164C12.8327 13.7659 11.0844 12 8.91637 12Z" fill="#fff"/>
<path d="M22.5887 12C20.4207 12 18.6724 13.7484 18.6724 15.9164C18.6724 18.0844 20.4207 19.8327 22.5887 19.8327C24.7567 19.8327 26.5051 18.0844 26.5051 15.9164C26.5051 13.7484 24.7392 12 22.5887 12Z" fill="#fff"/>
<path d="M49.9159 12C47.7654 12 45.9995 13.7484 45.9995 15.9164C45.9995 18.0844 47.7479 19.8327 49.9159 19.8327C52.0839 19.8327 53.8323 18.0844 53.8323 15.9164C53.8323 13.7484 52.0664 12 49.9159 12Z" fill="#fff"/>
<path d="M49.9158 29.3087H10.3325C9.96531 29.3087 9.66809 29.0115 9.66809 28.6444C9.66809 28.2772 9.96531 27.98 10.3325 27.98H49.8983C50.2655 27.98 50.5627 28.2772 50.5627 28.6444C50.5627 29.0115 50.2655 29.3087 49.8983 29.3087H49.9158Z" fill="#fff"/>
<path d="M8.91637 24.7283C6.76586 24.7283 5 26.4767 5 28.6446C5 30.8126 6.74838 32.561 8.91637 32.561C11.0844 32.561 12.8327 30.8126 12.8327 28.6446C12.8327 26.4767 11.0844 24.7283 8.91637 24.7283" fill="#fff"/>
<path d="M36.2435 24.7283C34.093 24.7283 32.3271 26.4767 32.3271 28.6446C32.3271 30.7951 34.0755 32.561 36.2435 32.561C38.4115 32.561 40.1599 30.8126 40.1599 28.6446C40.1599 26.4767 38.4115 24.7283 36.2435 24.7283" fill="#fff"/>
<path d="M49.9159 24.7283C47.7654 24.7283 45.9995 26.4767 45.9995 28.6446C45.9995 30.8126 47.7479 32.561 49.9159 32.561C52.0839 32.561 53.8323 30.8126 53.8323 28.6446C53.8323 26.4767 52.0839 24.7283 49.9159 24.7283" fill="#fff"/>
<path d="M49.9158 42.0194H10.3325C9.96531 42.0194 9.66809 41.7222 9.66809 41.3551C9.66809 40.9879 9.96531 40.6907 10.3325 40.6907H49.8983C50.2655 40.6907 50.5627 40.9879 50.5627 41.3551C50.5627 41.7222 50.2655 42.0194 49.8983 42.0194H49.9158Z" fill="#fff"/>
<path d="M8.91637 37.4392C6.76586 37.4392 5 39.1876 5 41.3556C5 43.5236 6.74838 45.272 8.91637 45.272C11.0844 45.272 12.8327 43.5236 12.8327 41.3556C12.8327 39.1876 11.0844 37.4392 8.91637 37.4392" fill="#fff"/>
<path d="M22.5887 37.4392C20.4382 37.4392 18.6724 39.1876 18.6724 41.3556C18.6724 43.5236 20.4207 45.272 22.5887 45.272C24.7567 45.272 26.5051 43.5236 26.5051 41.3556C26.5051 39.2051 24.7567 37.4392 22.5887 37.4392" fill="#fff"/>
<path d="M49.9159 37.4392C47.7654 37.4392 45.9995 39.1876 45.9995 41.3556C45.9995 43.5236 47.7479 45.272 49.9159 45.272C52.0839 45.272 53.8323 43.5236 53.8323 41.3556C53.8323 39.1876 52.0839 37.4392 49.9159 37.4392" fill="#fff"/>
<path d="M49.9158 54.748H10.3325C9.96531 54.748 9.66809 54.4507 9.66809 54.0836C9.66809 53.7164 9.96531 53.4192 10.3325 53.4192H49.8983C50.2655 53.4192 50.5627 53.7164 50.5627 54.0836C50.5627 54.4507 50.2655 54.748 49.8983 54.748H49.9158Z" fill="#fff"/>
<path d="M8.91637 50.1672C6.76586 50.1672 5 51.9156 5 54.0836C5 56.2516 6.74838 58 8.91637 58C11.0844 58 12.8327 56.2516 12.8327 54.0836C12.8327 51.9156 11.0844 50.1672 8.91637 50.1672Z" fill="#fff"/>
<path d="M36.2435 50.1672C34.093 50.1672 32.3271 51.9156 32.3271 54.0836C32.3271 56.2341 34.0755 58 36.2435 58C38.4115 58 40.1599 56.2516 40.1599 54.0836C40.1599 51.9156 38.4115 50.1672 36.2435 50.1672Z" fill="#fff"/>
<path d="M49.9159 50.1672C47.7654 50.1672 45.9995 51.9156 45.9995 54.0836C45.9995 56.2516 47.7479 58 49.9159 58C52.0839 58 53.8323 56.2516 53.8323 54.0836C53.8323 51.9156 52.0839 50.1672 49.9159 50.1672Z" fill="#fff"/>
<path fill-rule="evenodd" clip-rule="evenodd" d="M88.0198 23.853C86.7354 23.853 86.0933 24.4331 86.0933 25.5724H86.114C86.114 26.7325 86.7562 27.3126 88.0405 27.3126C88.662 27.3126 89.1592 27.1676 89.4699 26.8568C89.7807 26.5461 89.9464 26.111 89.9464 25.5724C89.9464 24.4331 89.3042 23.853 88.0198 23.853ZM86.2383 41.8343H89.76V28.9077H86.2383V41.8343ZM84.1252 30.7092V28.907H79.6092C79.4642 28.8655 79.1535 28.8241 78.6563 28.762C78.1591 28.6998 77.7241 28.6584 77.3719 28.6584C75.6732 28.6584 74.3474 29.052 73.4359 29.8185C72.5244 30.5849 72.0686 31.6829 72.0686 33.0916C72.0686 33.9823 72.2758 34.7488 72.6694 35.391C73.063 36.0332 73.6016 36.5097 74.2852 36.7997C73.7466 37.1311 73.3323 37.4419 73.0423 37.7733C72.7523 38.0841 72.6073 38.4984 72.6073 38.9956C72.6073 39.3892 72.7523 39.762 73.0216 40.1142C73.2909 40.4664 73.6223 40.7357 73.9745 40.8807C73.0423 41.1086 72.3172 41.4814 71.8408 41.9993C71.3643 42.5172 71.1157 43.1594 71.1157 43.9466C71.1157 45.086 71.5922 45.9768 72.5451 46.5983C73.498 47.2197 74.886 47.5305 76.6883 47.5305C79.0499 47.5305 80.8521 47.1161 82.1158 46.2875C83.3795 45.4382 84.0009 44.2781 84.0009 42.7658C84.0009 41.6057 83.6281 40.6942 82.8823 40.0935C82.1365 39.4927 81.0386 39.182 79.6299 39.182H77.434C76.1289 39.182 75.4868 38.9334 75.4868 38.4155C75.4868 38.0633 75.6732 37.7526 76.0254 37.4833L76.5433 37.5454L77.1855 37.5869C78.8841 37.5869 80.2307 37.1933 81.2043 36.4268C82.178 35.6396 82.6544 34.5624 82.6544 33.1744C82.6544 32.4494 82.468 31.8072 82.0951 31.2271L84.1252 30.7092ZM74.8446 44.796C74.3681 44.5267 74.1402 44.1331 74.1402 43.6566V43.6359C74.1402 43.1387 74.3681 42.7451 74.8031 42.4344C75.2382 42.1236 75.7768 41.9786 76.419 41.9786H78.242C79.1327 41.9786 79.7749 42.0615 80.21 42.2479C80.645 42.4344 80.8521 42.7865 80.8521 43.263C80.8521 43.8638 80.5 44.3402 79.7749 44.6924C79.0706 45.0446 78.0762 45.2103 76.8126 45.2103C75.9632 45.2103 75.321 45.0653 74.8446 44.796ZM75.9011 34.7902C75.5903 34.3966 75.4246 33.8373 75.4246 33.133H75.4039C75.4039 31.5793 76.0668 30.7921 77.3512 30.7921C78.6356 30.7921 79.2777 31.5793 79.2777 33.133C79.2777 33.8166 79.1327 34.3759 78.822 34.7902C78.5113 35.2046 78.0348 35.4117 77.3719 35.4117C76.709 35.4117 76.2118 35.2046 75.9011 34.7902ZM104.717 28.907V30.7092L102.687 31.2271C103.059 31.8072 103.246 32.4494 103.246 33.1744C103.246 34.5624 102.769 35.6396 101.796 36.4268C100.822 37.1933 99.4756 37.5869 97.7769 37.5869L97.1347 37.5454L96.6168 37.4833C96.2647 37.7526 96.0782 38.0633 96.0782 38.4155C96.0782 38.9334 96.7204 39.182 98.0255 39.182H100.221C101.63 39.182 102.728 39.4927 103.474 40.0935C104.22 40.6942 104.592 41.6057 104.592 42.7658C104.592 44.2781 103.971 45.4382 102.707 46.2875C101.444 47.1161 99.6413 47.5305 97.2797 47.5305C95.4775 47.5305 94.0895 47.2197 93.1366 46.5983C92.1837 45.9768 91.7072 45.086 91.7072 43.9466C91.7072 43.1594 91.9558 42.5172 92.4323 41.9993C92.9087 41.4814 93.6338 41.1086 94.566 40.8807C94.2138 40.7357 93.8824 40.4664 93.6131 40.1142C93.3437 39.762 93.1987 39.3892 93.1987 38.9956C93.1987 38.4984 93.3437 38.0841 93.6338 37.7733C93.9238 37.4419 94.3381 37.1311 94.8767 36.7997C94.1931 36.5097 93.6545 36.0332 93.2609 35.391C92.8673 34.7488 92.6601 33.9823 92.6601 33.0916C92.6601 31.6829 93.1159 30.5849 94.0274 29.8185C94.9389 29.052 96.2647 28.6584 97.9634 28.6584C98.3155 28.6584 98.7506 28.6998 99.2477 28.762C99.7449 28.8241 100.056 28.8655 100.201 28.907H104.717ZM94.7317 43.6566C94.7317 44.1331 94.9596 44.5267 95.436 44.796C95.9125 45.0653 96.5547 45.2103 97.404 45.2103C98.6677 45.2103 99.6621 45.0446 100.366 44.6924C101.091 44.3402 101.444 43.8638 101.444 43.263C101.444 42.7865 101.236 42.4344 100.801 42.2479C100.366 42.0615 99.7242 41.9786 98.8334 41.9786H97.0104C96.3683 41.9786 95.8296 42.1236 95.3946 42.4344C94.9596 42.7451 94.7317 43.1387 94.7317 43.6359V43.6566ZM96.0161 33.133C96.0161 33.8373 96.1818 34.3966 96.4925 34.7902C96.8033 35.2046 97.3005 35.4117 97.9634 35.4117C98.6263 35.4117 99.1027 35.2046 99.4135 34.7902C99.7242 34.3759 99.8692 33.8166 99.8692 33.133C99.8692 31.5793 99.227 30.7921 97.9427 30.7921C96.6583 30.7921 95.9954 31.5793 95.9954 33.133H96.0161ZM114.37 40.0728L115.054 41.8336L115.075 41.8543H117.54V33.2366C117.54 31.7036 117.084 30.5642 116.152 29.7977C115.22 29.0313 113.977 28.6584 112.154 28.6584C110.331 28.6584 108.694 29.0313 107.203 29.8185L108.363 32.2008C109.771 31.5793 110.973 31.2686 112.009 31.2686C113.355 31.2686 114.018 31.9315 114.018 33.2366V33.7959L111.781 33.858C109.833 33.9202 108.383 34.2931 107.43 34.9353C106.478 35.5982 106.001 36.6754 106.001 37.9805C106.001 39.2856 106.374 40.3006 107.078 41.005C107.783 41.7093 108.756 42.0615 109.999 42.0615C111.014 42.0615 111.843 41.9165 112.464 41.6265C113.086 41.3364 113.687 40.8185 114.287 40.0728H114.37ZM112.651 35.8882L114.018 35.8467V35.8675V36.924C114.018 37.6905 113.79 38.3119 113.293 38.7884C112.796 39.2649 112.133 39.4927 111.325 39.4927C110.186 39.4927 109.606 38.9956 109.606 38.0012C109.606 37.2969 109.833 36.7997 110.351 36.4475C110.869 36.0953 111.636 35.9089 112.651 35.8882ZM126.406 42.0616C124.48 42.0616 123.009 41.5023 121.994 40.3629C120.979 39.2443 120.482 37.6077 120.482 35.4947C120.482 33.3817 120.999 31.683 122.056 30.5436C123.112 29.3836 124.625 28.8035 126.613 28.8035C127.96 28.8035 129.182 29.0521 130.259 29.5493L129.431 31.7244C128.291 31.2687 127.338 31.0615 126.593 31.0615C124.376 31.0615 123.278 32.5324 123.278 35.474C123.278 36.9034 123.547 37.9806 124.107 38.7057C124.666 39.4307 125.474 39.7829 126.531 39.7829C127.732 39.7829 128.892 39.4722 129.969 38.8714V41.233C129.493 41.523 128.975 41.7302 128.416 41.8545C127.856 41.9788 127.193 42.0409 126.406 42.0409V42.0616ZM142.689 40.301C143.766 39.1409 144.305 37.5044 144.305 35.4121H144.284C144.284 33.4026 143.745 31.7868 142.668 30.606C141.591 29.4252 140.203 28.8245 138.276 28.8245C136.35 28.8245 134.837 29.4045 133.781 30.5646C132.724 31.7247 132.186 33.3405 132.186 35.4121C132.186 36.7586 132.434 37.9187 132.932 38.9338C133.429 39.9488 134.133 40.7153 135.045 41.2539C135.956 41.7925 137.013 42.0618 138.214 42.0618C140.12 42.0618 141.612 41.4611 142.689 40.301ZM138.276 39.8453C136.101 39.8453 135.003 38.3537 135.003 35.4121C135.003 34.0034 135.252 32.9055 135.77 32.1597C136.288 31.3932 137.116 31.0203 138.256 31.0203C140.431 31.0203 141.508 32.4497 141.508 35.4121C141.508 38.3744 140.451 39.8453 138.276 39.8453ZM156.444 41.8345L156.071 40.1565H155.926C155.553 40.7573 155.015 41.213 154.31 41.5652C153.606 41.9174 152.819 42.0831 151.928 42.0831C150.374 42.0831 149.214 41.6895 148.468 40.923C147.702 40.1565 147.329 38.9757 147.329 37.4221V29.0529H150.064V36.9456C150.064 37.9192 150.271 38.665 150.664 39.1415C151.058 39.6179 151.7 39.8665 152.549 39.8665C153.689 39.8665 154.538 39.5351 155.056 38.8514C155.595 38.1678 155.864 37.0284 155.864 35.4333V29.0529H158.598V41.8345H156.465H156.444ZM170.986 41.834H173.7V33.5062C173.7 30.3781 172.167 28.8245 169.101 28.8245C168.231 28.8245 167.444 28.9902 166.74 29.3216C166.035 29.6531 165.497 30.1296 165.103 30.7303H164.958L164.585 29.0523H162.452V41.834H165.165V35.4742C165.165 33.8791 165.435 32.7397 165.973 32.0561C166.512 31.3725 167.361 31.041 168.501 31.041C169.35 31.041 169.992 31.2896 170.386 31.7661C170.779 32.2633 170.986 32.9883 170.986 33.9827V41.834ZM182.256 39.8658C182.919 39.8658 183.582 39.7622 184.245 39.5551V41.6059C183.934 41.7302 183.561 41.8545 183.085 41.9374C182.608 42.0202 182.111 42.0617 181.614 42.0617C179.045 42.0617 177.761 40.7151 177.761 38.0014V31.103H176.021V29.9015L177.885 28.9071L178.817 26.1934H180.495V29.0314H184.141V31.0823H180.495V37.9185C180.495 38.5814 180.661 39.0579 180.992 39.3686C181.324 39.6793 181.759 39.8451 182.277 39.8451L182.256 39.8658ZM194.023 41.0675C194.934 40.3839 195.39 39.4309 195.39 38.188L195.41 38.2087C195.41 37.5872 195.286 37.0486 195.058 36.6136C194.83 36.1578 194.478 35.7642 194.002 35.4328C193.525 35.1013 192.759 34.7285 191.702 34.3141C190.439 33.8377 189.631 33.4441 189.258 33.1748C188.885 32.9055 188.699 32.5533 188.699 32.1597C188.699 31.3518 189.424 30.9375 190.853 30.9375C191.785 30.9375 192.945 31.2068 194.333 31.7868L195.203 29.7359C193.857 29.1352 192.448 28.8245 190.936 28.8245C189.424 28.8245 188.222 29.1352 187.331 29.7359C186.441 30.3367 186.006 31.1861 186.006 32.284C186.006 33.1955 186.275 33.9205 186.793 34.5006C187.311 35.0806 188.305 35.6399 189.776 36.22C190.522 36.51 191.122 36.7793 191.537 37.0072C191.951 37.2351 192.262 37.4629 192.448 37.6701C192.635 37.8773 192.717 38.1466 192.717 38.478C192.717 39.4931 191.889 39.9903 190.211 39.9903C188.906 39.9903 187.518 39.6381 186.006 38.9545V41.2954C187.041 41.8133 188.409 42.0618 190.107 42.0618C191.806 42.0618 193.111 41.7304 194.023 41.0675Z" fill="#fff"/>
</svg>
