<svg width="205" height="91" viewBox="0 0 205 91" fill="none" xmlns="http://www.w3.org/2000/svg">
<path d="M8.24581 22.9218C6.10997 22.9218 4.35617 24.6583 4.35617 26.8114C4.35617 28.9646 6.09261 30.701 8.24581 30.701C10.174 30.701 11.7679 29.3086 12.08 27.4713H17.9905C18.3026 29.3086 19.8966 30.701 21.8248 30.701C23.7529 30.701 25.3469 29.3086 25.659 27.4713H45.1311C45.4432 29.3086 47.0371 30.701 48.9653 30.701C51.1185 30.701 52.8549 28.9646 52.8549 26.8114C52.8549 24.6583 51.1011 22.9218 48.9653 22.9218C47.0527 22.9218 45.4464 24.3142 45.1316 26.1516H25.6585C25.3437 24.3142 23.7374 22.9218 21.8248 22.9218C19.8966 22.9218 18.3026 24.3142 17.9905 26.1516H12.0793C11.7654 24.3261 10.1724 22.9218 8.24581 22.9218Z" fill="white"/>
<path d="M8.24581 35.5632C10.174 35.5632 11.7679 36.9556 12.08 38.7929H31.5526C31.8674 36.9556 33.4737 35.5632 35.3864 35.5632C37.3145 35.5632 38.9085 36.9556 39.2206 38.7929H45.1316C45.4464 36.9556 47.0527 35.5632 48.9653 35.5632C51.1185 35.5632 52.8549 37.2996 52.8549 39.4528C52.8549 41.6059 51.1185 43.3424 48.9653 43.3424C47.0371 43.3424 45.4432 41.95 45.1311 40.1126H39.2206C38.9085 41.95 37.3145 43.3424 35.3864 43.3424C33.4597 43.3424 31.8667 41.9381 31.5529 40.1126H12.08C11.7679 41.95 10.174 43.3424 8.24581 43.3424C6.09261 43.3424 4.35617 41.6059 4.35617 39.4528C4.35617 37.2996 6.10997 35.5632 8.24581 35.5632Z" fill="white"/>
<path d="M12.08 51.4169C11.7679 49.5795 10.174 48.1871 8.24581 48.1871C6.10997 48.1871 4.35617 49.9235 4.35617 52.0767C4.35617 54.2299 6.09261 55.9663 8.24581 55.9663C10.174 55.9663 11.7679 54.5739 12.08 52.7366H17.9905C18.3026 54.5739 19.8966 55.9663 21.8248 55.9663C23.7529 55.9663 25.3469 54.5739 25.659 52.7366H45.1311C45.4432 54.5739 47.0371 55.9663 48.9653 55.9663C51.1185 55.9663 52.8549 54.2299 52.8549 52.0767C52.8549 49.9235 51.1185 48.1871 48.9653 48.1871C47.0527 48.1871 45.4464 49.5795 45.1316 51.4169H25.6582C25.3444 49.5914 23.7514 48.1871 21.8248 48.1871C19.9121 48.1871 18.3058 49.5795 17.991 51.4169H12.08Z" fill="white"/>
<path d="M8.24581 60.8282C10.174 60.8282 11.7679 62.2206 12.08 64.058H31.5526C31.8674 62.2206 33.4737 60.8282 35.3864 60.8282C37.3145 60.8282 38.9085 62.2206 39.2206 64.058H45.1316C45.4464 62.2206 47.0527 60.8282 48.9653 60.8282C51.1185 60.8282 52.8549 62.5647 52.8549 64.7178C52.8549 66.871 51.1185 68.6075 48.9653 68.6075C47.0371 68.6075 45.4432 67.215 45.1311 65.3777H39.2206C38.9085 67.215 37.3145 68.6075 35.3864 68.6075C33.4597 68.6075 31.8667 67.2032 31.5529 65.3777H12.08C11.7679 67.215 10.174 68.6075 8.24581 68.6075C6.09261 68.6075 4.35617 66.871 4.35617 64.7178C4.35617 62.5647 6.10997 60.8282 8.24581 60.8282Z" fill="white"/>
<path d="M89.5006 37.4866C88.1637 37.4866 87.4953 38.0904 87.4953 39.2762H87.5168C87.5168 40.4839 88.1853 41.0877 89.5222 41.0877C90.1691 41.0877 90.6866 40.9366 91.0101 40.6131C91.3335 40.2899 91.506 39.8369 91.506 39.2762C91.506 38.0904 90.8376 37.4866 89.5006 37.4866Z" fill="white"/>
<path fill-rule="evenodd" clip-rule="evenodd" d="M85.4468 42.7478V44.6238L83.3336 45.1629C83.7217 45.7667 83.9158 46.435 83.9158 47.1899C83.9158 48.6345 83.4199 49.7558 82.4064 50.5752C81.3929 51.373 79.9913 51.7826 78.2232 51.7826L77.5547 51.7397L77.0156 51.675C76.6491 51.9553 76.455 52.2788 76.455 52.6452C76.455 53.1843 77.1235 53.443 78.4819 53.443H80.7676C82.2339 53.443 83.3768 53.7665 84.153 54.3919C84.9293 55.0171 85.3174 55.966 85.3174 57.1734C85.3174 58.7477 84.6705 59.9551 83.3552 60.8392C82.0398 61.7018 80.1639 62.133 77.7057 62.133C75.8297 62.133 74.3849 61.8095 73.3931 61.1627C72.4012 60.5157 71.9052 59.5887 71.9052 58.4026C71.9052 57.5832 72.164 56.9146 72.6599 56.3755C73.1559 55.8365 73.9106 55.4485 74.8809 55.2113C74.5144 55.0602 74.1693 54.7799 73.889 54.4135C73.6087 54.0468 73.4578 53.6588 73.4578 53.249C73.4578 52.7315 73.6087 52.3004 73.9106 51.9769C74.2125 51.6318 74.6437 51.3083 75.2044 50.9635C74.4928 50.6616 73.9321 50.1656 73.5224 49.4971C73.1127 48.8285 72.8971 48.0307 72.8971 47.1036C72.8971 45.6372 73.3715 44.4946 74.3203 43.6965C75.269 42.8987 76.6491 42.4891 78.4173 42.4891C78.7838 42.4891 79.2366 42.5322 79.7542 42.597C80.2717 42.6615 80.5951 42.7047 80.7461 42.7478H85.4468ZM75.0534 58.1007C75.0534 58.5966 75.2906 59.0064 75.7866 59.2868C76.2825 59.5671 76.951 59.7179 77.835 59.7179C79.1504 59.7179 80.1854 59.5455 80.9185 59.1788C81.6733 58.8122 82.0398 58.3163 82.0398 57.6911C82.0398 57.195 81.8242 56.8285 81.3714 56.6343C80.9185 56.4403 80.2501 56.3542 79.3229 56.3542H77.4253C76.7569 56.3542 76.1963 56.5051 75.7434 56.8286C75.2906 57.1521 75.0534 57.5616 75.0534 58.0791V58.1007ZM76.3903 47.1468C76.3903 47.8798 76.5628 48.4621 76.8863 48.8717C77.2097 49.3031 77.7272 49.5187 78.4173 49.5187C79.1073 49.5187 79.6032 49.3031 79.9267 48.8717C80.2501 48.4405 80.4011 47.8583 80.4011 47.1468C80.4011 45.5295 79.7326 44.7101 78.3957 44.7101C77.0588 44.7101 76.3688 45.5295 76.3688 47.1468H76.3903Z" fill="white"/>
<path d="M91.3119 56.2034H87.6462V42.7478H91.3119V56.2034Z" fill="white"/>
<path fill-rule="evenodd" clip-rule="evenodd" d="M106.88 42.7478V44.6238L104.767 45.1629C105.155 45.7667 105.349 46.435 105.349 47.1899C105.349 48.6345 104.854 49.7558 103.84 50.5752C102.827 51.373 101.425 51.7826 99.6569 51.7826L98.9884 51.7397L98.4493 51.675C98.0827 51.9553 97.8887 52.2788 97.8887 52.6452C97.8887 53.1843 98.5571 53.443 99.9156 53.443H102.201C103.668 53.443 104.81 53.7665 105.587 54.3919C106.363 55.0171 106.751 55.966 106.751 57.1734C106.751 58.7477 106.104 59.9551 104.789 60.8392C103.473 61.7018 101.598 62.133 99.1393 62.133C97.2634 62.133 95.8186 61.8095 94.8267 61.1627C93.8348 60.5157 93.3389 59.5887 93.3389 58.4026C93.3389 57.5832 93.5976 56.9146 94.0936 56.3755C94.5895 55.8365 95.3442 55.4485 96.3146 55.2113C95.948 55.0602 95.603 54.7799 95.3227 54.4135C95.0423 54.0468 94.8914 53.6588 94.8914 53.249C94.8914 52.7315 95.0423 52.3004 95.3443 51.9769C95.6461 51.6318 96.0774 51.3083 96.638 50.9635C95.9264 50.6616 95.3658 50.1656 94.9561 49.4971C94.5464 48.8285 94.3308 48.0307 94.3308 47.1036C94.3308 45.6372 94.8051 44.4946 95.7539 43.6965C96.7027 42.8987 98.0827 42.4891 99.8509 42.4891C100.019 42.4891 100.205 42.498 100.407 42.5141L100.491 42.5212L100.627 42.5338C100.705 42.5415 100.784 42.5499 100.865 42.5588L100.952 42.5686L101 42.5743C101.062 42.5815 101.124 42.5891 101.188 42.597C101.705 42.6615 102.029 42.7047 102.18 42.7478H106.88ZM96.4871 58.1007C96.4871 58.5966 96.7243 59.0064 97.2202 59.2868C97.7162 59.5671 98.3846 59.7179 99.2687 59.7179C100.584 59.7179 101.619 59.5455 102.352 59.1788C103.107 58.8122 103.473 58.3163 103.473 57.6911C103.473 57.195 103.258 56.8285 102.805 56.6343C102.352 56.4403 101.684 56.3542 100.757 56.3542H98.859C98.1906 56.3542 97.6299 56.5051 97.1771 56.8286C96.7243 57.1521 96.4871 57.5616 96.4871 58.0791V58.1007ZM97.824 47.1468C97.824 47.8798 97.9965 48.4621 98.3199 48.8717C98.6434 49.3031 99.1609 49.5187 99.8509 49.5187C100.541 49.5187 101.037 49.3031 101.36 48.8717C101.684 48.4405 101.835 47.8583 101.835 47.1468C101.835 45.5295 101.166 44.7101 99.8293 44.7101C98.4924 44.7101 97.8024 45.5295 97.8024 47.1468H97.824Z" fill="white"/>
<path fill-rule="evenodd" clip-rule="evenodd" d="M117.64 56.2031L116.929 54.3703H116.843C116.217 55.1466 115.592 55.6856 114.945 55.9876C114.298 56.2895 113.436 56.4403 112.379 56.4403C111.085 56.4403 110.072 56.0739 109.339 55.3406C108.606 54.6075 108.217 53.5509 108.217 52.1924C108.217 50.834 108.713 49.7126 109.705 49.0227C110.697 48.3542 112.207 47.9662 114.233 47.9014L116.562 47.8367V47.2544C116.562 45.8959 115.872 45.206 114.471 45.206C113.392 45.206 112.142 45.5295 110.676 46.1763L109.468 43.6965C111.021 42.8773 112.724 42.4891 114.622 42.4891C116.519 42.4891 117.813 42.8773 118.783 43.6752C119.754 44.473 120.228 45.6588 120.228 47.2544V56.2247H117.662L117.64 56.2031ZM116.562 49.9714L115.139 50.0146C114.082 50.0361 113.285 50.2301 112.746 50.5968C112.207 50.9635 111.969 51.481 111.969 52.214C111.969 53.249 112.573 53.7665 113.759 53.7665C114.6 53.7665 115.29 53.5293 115.808 53.0334C116.325 52.5375 116.562 51.8905 116.562 51.0927V49.9714Z" fill="white"/>
<path d="M129.457 56.4406C127.452 56.4406 125.921 55.8583 124.864 54.6722C123.807 53.508 123.29 51.8045 123.29 49.605C123.29 47.4055 123.829 45.6375 124.929 44.4514C126.028 43.244 127.603 42.6402 129.673 42.6402C131.074 42.6402 132.346 42.8989 133.468 43.4164L132.605 45.6806C131.419 45.206 130.427 44.9905 129.651 44.9905C127.344 44.9905 126.201 46.5216 126.201 49.5834C126.201 51.0714 126.481 52.1927 127.063 52.9474C127.646 53.702 128.487 54.0687 129.586 54.0687C130.837 54.0687 132.045 53.7452 133.166 53.1198V55.578C132.67 55.8799 132.131 56.0955 131.549 56.225C130.966 56.3542 130.276 56.419 129.457 56.419V56.4406Z" fill="white"/>
<path fill-rule="evenodd" clip-rule="evenodd" d="M148.087 49.5189C148.087 51.6965 147.527 53.4001 146.406 54.6078C145.284 55.8152 143.732 56.4406 141.748 56.4406C140.497 56.4406 139.398 56.1602 138.449 55.5996C137.5 55.0389 136.767 54.2411 136.249 53.1845C135.732 52.128 135.473 50.9203 135.473 49.5189C135.473 47.3626 136.034 45.6806 137.133 44.473C138.233 43.2656 139.807 42.6618 141.813 42.6618C143.818 42.6618 145.263 43.2872 146.384 44.5161C147.505 45.7454 148.066 47.4271 148.066 49.5189H148.087ZM138.406 49.5189C138.406 52.5807 139.548 54.1332 141.813 54.1332C144.077 54.1332 145.176 52.6023 145.176 49.5189C145.176 46.4353 144.055 44.9476 141.791 44.9476C140.605 44.9476 139.742 45.3355 139.203 46.1334C138.664 46.9096 138.406 48.0525 138.406 49.5189Z" fill="white"/>
<path d="M160.723 56.2034L160.335 54.4567H160.184C159.796 55.0821 159.235 55.5564 158.502 55.9231C157.769 56.2895 156.95 56.4622 156.023 56.4622C154.405 56.4622 153.198 56.0523 152.422 55.2545C151.624 54.4567 151.236 53.2277 151.236 51.6105V42.8989H154.082V51.1146C154.082 52.128 154.298 52.9042 154.707 53.4001C155.117 53.896 155.785 54.1548 156.669 54.1548C157.855 54.1548 158.74 53.8099 159.279 53.0982C159.839 52.3867 160.12 51.2006 160.12 49.5402V42.8989H162.966V56.2034H160.723Z" fill="white"/>
<path d="M178.685 56.2034H175.861V48.0309C175.861 46.9959 175.645 46.2413 175.235 45.7238C174.826 45.2276 174.157 44.9689 173.273 44.9689C172.087 44.9689 171.203 45.314 170.642 46.0257C170.082 46.7372 169.801 47.923 169.801 49.5834V56.2034H166.977V42.8989H169.198L169.586 44.6456H169.737C170.146 44.0202 170.707 43.5243 171.44 43.1792C172.173 42.8342 172.993 42.6618 173.898 42.6618C177.09 42.6618 178.685 44.279 178.685 47.535V56.2034Z" fill="white"/>
<path d="M187.591 54.1548C188.281 54.1548 188.971 54.0471 189.661 53.8313V55.9662C189.337 56.0955 188.949 56.225 188.453 56.3111C187.957 56.3974 187.44 56.4406 186.922 56.4406C184.249 56.4406 182.912 55.0389 182.912 52.214V45.0336H181.1V43.7831L183.041 42.7481L184.011 39.9232H185.758V42.8773H189.553V45.0121H185.758V52.128C185.758 52.8179 185.931 53.3138 186.276 53.6373C186.621 53.9608 187.073 54.1332 187.612 54.1332L187.591 54.1548Z" fill="white"/>
<path d="M201.262 52.4083C201.262 53.702 200.787 54.6938 199.839 55.4056C198.89 56.0955 197.531 56.4406 195.763 56.4406C193.995 56.4406 192.572 56.1818 191.494 55.6427V53.2061C193.068 53.9176 194.513 54.2843 195.871 54.2843C197.618 54.2843 198.48 53.7668 198.48 52.7102C198.48 52.3651 198.394 52.0848 198.2 51.8692C198.006 51.6536 197.682 51.4165 197.251 51.179C196.82 50.9419 196.195 50.6616 195.418 50.3596C193.887 49.7561 192.852 49.1738 192.313 48.57C191.774 47.9662 191.494 47.2115 191.494 46.2629C191.494 45.12 191.947 44.2358 192.874 43.6104C193.801 42.9853 195.052 42.6618 196.626 42.6618C198.2 42.6618 199.666 42.9853 201.068 43.6104L200.162 45.7454C198.717 45.1416 197.51 44.8612 196.54 44.8612C195.052 44.8612 194.297 45.2924 194.297 46.1334C194.297 46.5432 194.491 46.9096 194.879 47.1899C195.267 47.4703 196.108 47.8801 197.424 48.376C198.523 48.8072 199.321 49.1954 199.817 49.5402C200.313 49.8853 200.68 50.2952 200.917 50.7695C201.154 51.2222 201.283 51.7829 201.283 52.4299L201.262 52.4083Z" fill="white"/>
</svg>
