<svg width="84" height="58" viewBox="0 0 84 58" fill="none" xmlns="http://www.w3.org/2000/svg">
<path d="M45.4532 9.89747C45.5877 9.65374 45.5388 9.34952 45.3337 9.16048C45.1287 8.97143 44.821 8.94701 44.5886 9.09999C37.905 13.5097 29.4864 19.9535 22.9845 27.8713C20.3948 26.8982 17.9968 26.2036 15.8476 25.7115L15.848 25.7236L15.8493 25.747C15.8502 25.7617 15.8511 25.7764 15.8511 25.7912C15.8511 26.1955 15.7527 26.5771 15.5825 26.9156C17.6304 27.381 19.8402 28.0144 22.1799 28.8712C20.3721 31.1653 18.7315 33.5764 17.3461 36.0939C16.062 38.4253 15.198 40.4774 14.6148 42.1905C14.4867 41.1743 14.2822 40.072 13.9629 38.9209C12.8163 34.7863 9.95052 29.3232 2.84859 25.8296C4.58824 25.6941 7.33405 25.6377 10.8285 26.0757C10.818 25.982 10.8116 25.8878 10.8116 25.7912C10.8116 25.4591 10.8774 25.1427 10.9951 24.8518C4.59698 24.0503 0.655092 24.8716 0.478563 24.9094C0.217557 24.9658 0.0241324 25.1857 0.00199347 25.4515C-0.0195628 25.7168 0.135408 25.9657 0.38418 26.0635C6.89185 28.6333 11.0633 33.0523 12.782 39.1977C13.3133 41.0987 13.5155 42.8809 13.5691 44.3229C13.8784 44.1868 14.2192 44.1106 14.5781 44.1106C14.6395 44.1106 14.6999 44.1148 14.7601 44.1191L14.7803 44.1205C14.9487 44.1344 15.1124 44.1641 15.2697 44.2095C15.7952 42.2841 16.7448 39.6788 18.4647 36.5744C19.8658 34.0447 21.5327 31.6231 23.3696 29.3214C25.3726 30.1049 27.463 31.0513 29.6221 32.1932C29.7555 31.8011 29.9821 31.4527 30.2769 31.1735C28.1592 30.0491 26.1177 29.112 24.1742 28.3332C29.9921 21.3362 37.3264 15.5101 43.5183 11.2778C43.0546 12.4801 42.4807 14.2281 41.9855 16.5077C41.9991 16.5072 42.0125 16.5062 42.0259 16.5052C42.0446 16.5038 42.0634 16.5024 42.0828 16.5024C42.4784 16.5024 42.8507 16.5966 43.1833 16.7589C43.3115 16.1691 43.4426 15.6223 43.5714 15.1314C44.4651 11.7164 45.4438 9.91434 45.4532 9.89747Z" fill="white"/>
<path d="M41.1928 21.3716C40.9161 23.8572 40.7792 26.7178 40.8957 29.9467C39.8511 30.1544 37.3564 30.7076 34.2139 31.7878C34.409 32.1426 34.5215 32.5492 34.5244 32.9808C38.5595 31.5824 41.5459 31.0543 41.6234 31.0415C41.9252 30.9903 42.1413 30.7233 42.1273 30.4185C41.9782 27.0226 42.1238 24.0421 42.4076 21.5118C42.2998 21.5258 42.1914 21.5357 42.079 21.5357C41.7667 21.5357 41.4696 21.4758 41.1928 21.3716Z" fill="white"/>
<path d="M38.5275 37.8378C36.6078 37.8104 33.4565 37.893 29.9172 38.4991C25.2057 39.3059 21.2352 40.8206 18.1445 42.9542C21.5697 39.2064 26.0376 36.5459 30.156 34.7043C29.8752 34.403 29.6696 34.033 29.563 33.6223C24.9709 35.6861 19.3109 39.082 15.4978 44.2886C15.7005 44.3688 15.8899 44.4753 16.0623 44.6021C16.3897 44.8435 16.656 45.1611 16.836 45.5293C25.0449 37.9558 40.2036 39.1099 40.3714 39.1233C40.6382 39.1448 40.8888 38.9901 40.9866 38.7417C41.0839 38.4921 41.0064 38.2089 40.7961 38.0443C38.6387 36.358 36.5175 34.8811 34.4487 33.5869C34.3508 33.9923 34.1544 34.3587 33.8865 34.6618C35.4094 35.6181 36.9585 36.6727 38.5275 37.8378Z" fill="white"/>
<path d="M40.8245 18.4206C40.9131 18.2391 41.0389 18.0797 41.1927 17.9512C41.4369 17.7459 41.7474 17.6173 42.0905 17.6173C42.8648 17.6173 43.4946 18.2467 43.4946 19.0192C43.4946 19.0791 43.4894 19.1378 43.4818 19.1948C43.4731 19.2524 43.4614 19.3083 43.4468 19.3641C43.3379 19.7905 43.0367 20.1418 42.637 20.3105C42.4686 20.382 42.2845 20.421 42.0905 20.421C41.8004 20.421 41.5301 20.3326 41.3058 20.1814C40.9795 19.9609 40.7505 19.6067 40.6981 19.1977C40.6911 19.139 40.687 19.0797 40.687 19.0192C40.687 18.8045 40.7366 18.6015 40.8245 18.4206Z" fill="white"/>
<path d="M13.0531 27.1637C13.1445 27.1823 13.2389 27.1922 13.3356 27.1922C14.1093 27.1922 14.7397 26.5628 14.7397 25.7903C14.7397 25.0173 14.1093 24.3885 13.3356 24.3885C12.5613 24.3885 11.9321 25.0173 11.9321 25.7903C11.9321 26.4662 12.4139 27.0322 13.0531 27.1637Z" fill="white"/>
<path d="M31.1665 31.8712C31.3996 31.6996 31.6839 31.5949 31.995 31.5949C32.7693 31.5949 33.3985 32.2237 33.3985 32.9967C33.3985 33.6732 32.9167 34.2392 32.2776 34.3701C32.1861 34.3887 32.0917 34.3986 31.995 34.3986C31.8016 34.3986 31.6169 34.359 31.4491 34.288C30.9451 34.0752 30.5909 33.5761 30.5909 32.9967C30.5909 32.9391 30.595 32.8815 30.6014 32.8257C30.6498 32.4342 30.863 32.0945 31.1665 31.8712Z" fill="white"/>
<path d="M15.5656 45.6359C15.5587 45.6287 15.5505 45.6225 15.5422 45.6163L15.5363 45.6119C15.5313 45.608 15.5264 45.6041 15.522 45.5999C15.4037 45.4911 15.2697 45.3992 15.1194 45.3352C14.9516 45.2643 14.7669 45.2247 14.5735 45.2247C13.7998 45.2247 13.17 45.8541 13.17 46.6271C13.17 47.1099 13.4158 47.5369 13.7893 47.7887C13.8639 47.8393 13.9437 47.883 14.0276 47.9185C14.1954 47.9894 14.38 48.0284 14.5735 48.0284C14.944 48.0284 15.2813 47.8847 15.5324 47.6497C15.5686 47.616 15.6024 47.5805 15.6344 47.5439C15.6717 47.5014 15.7055 47.4566 15.7375 47.4101C15.889 47.1861 15.9775 46.9168 15.9775 46.6271C15.9775 46.2572 15.8307 45.9233 15.5959 45.672C15.5905 45.6666 15.5859 45.6605 15.5812 45.6544L15.5751 45.6466C15.5722 45.643 15.5691 45.6394 15.5656 45.6359Z" fill="white"/>
<path d="M61.1679 23.3284C61.1679 22.5379 61.8123 21.8951 62.6035 21.8951C63.3952 21.8951 64.039 22.5379 64.039 23.3284C64.039 24.1189 63.3952 24.7616 62.6035 24.7616C61.8123 24.7616 61.1679 24.1189 61.1679 23.3284Z" fill="white"/>
<path fill-rule="evenodd" clip-rule="evenodd" d="M59.8212 27.0339V25.7589H56.607C56.508 25.7368 56.2819 25.7025 55.9271 25.656C55.5729 25.6094 55.2665 25.5856 55.0084 25.5856C53.7942 25.5856 52.8597 25.8607 52.206 26.4086C51.5524 26.9572 51.2255 27.7337 51.2255 28.7371C51.2255 29.3624 51.3671 29.9057 51.6502 30.3664C51.9334 30.8271 52.3162 31.1615 52.7997 31.3703C52.4152 31.5949 52.121 31.8241 51.9177 32.0573C51.7149 32.2906 51.613 32.5826 51.613 32.9333C51.613 33.2131 51.7091 33.4778 51.9013 33.7273C52.0936 33.9774 52.3191 34.1566 52.5772 34.2665C51.9072 34.4253 51.3991 34.6917 51.0525 35.0646C50.7064 35.4369 50.5334 35.9004 50.5334 36.4548C50.5334 37.261 50.8725 37.8875 51.5512 38.3348C52.2293 38.7815 53.2116 39.0054 54.4974 39.0054C56.1788 39.0054 57.4681 38.7094 58.3665 38.1166C59.2648 37.5245 59.7135 36.6904 59.7135 35.616C59.7135 34.7766 59.4484 34.1403 58.9188 33.7069C58.3886 33.2736 57.6178 33.0566 56.607 33.0566H55.0416C54.1181 33.0566 53.6567 32.8757 53.6567 32.5139C53.6567 32.2725 53.7855 32.0532 54.0442 31.8555L54.4147 31.8968L54.868 31.9212C56.0932 31.9212 57.051 31.6455 57.7402 31.0946C58.4294 30.5432 58.7743 29.7742 58.7743 28.7865C58.7743 28.2764 58.6426 27.8157 58.3787 27.4045L59.8212 27.0339ZM53.9655 29.9551C53.7377 29.6643 53.6241 29.2693 53.6241 28.7703C53.6241 27.6622 54.0855 27.1084 55.0084 27.1084C55.9201 27.1084 56.3763 27.6622 56.3763 28.7703C56.3763 29.2693 56.2662 29.6643 56.0466 29.9551C55.8269 30.246 55.4809 30.3914 55.0084 30.3914C54.5411 30.3914 54.1939 30.246 53.9655 29.9551ZM53.2075 37.0719C52.8755 36.8748 52.7094 36.6031 52.7094 36.2576C52.7094 35.9004 52.8644 35.6143 53.1749 35.3979C53.4849 35.1809 53.8711 35.0727 54.3325 35.0727H55.6347C56.2662 35.0727 56.7334 35.1385 57.0352 35.2699C57.3376 35.402 57.4891 35.6404 57.4891 35.986C57.4891 36.4141 57.2333 36.7509 56.7224 36.9981C56.2114 37.2447 55.5053 37.368 54.6046 37.368C54.0051 37.368 53.5396 37.2691 53.2075 37.0719Z" fill="white"/>
<path d="M61.3486 25.76H63.8614V34.9586H61.3486V25.76Z" fill="white"/>
<path fill-rule="evenodd" clip-rule="evenodd" d="M74.5028 27.0339V25.7589H71.2886C71.1895 25.7368 70.9635 25.7025 70.6087 25.656C70.2545 25.6094 69.948 25.5856 69.6899 25.5856C68.4758 25.5856 67.5413 25.8607 66.8876 26.4086C66.2339 26.9572 65.9077 27.7337 65.9077 28.7371C65.9077 29.3624 66.0487 29.9057 66.3318 30.3664C66.615 30.8271 66.9977 31.1615 67.4813 31.3703C67.0968 31.5949 66.8031 31.8241 66.5992 32.0573C66.3965 32.2906 66.2951 32.5826 66.2951 32.9333C66.2951 33.2131 66.3912 33.4778 66.5835 33.7273C66.7752 33.9774 67.0006 34.1566 67.2587 34.2665C66.5887 34.4253 66.0807 34.6917 65.7346 35.0646C65.388 35.4369 65.215 35.9004 65.215 36.4548C65.215 37.261 65.554 37.8875 66.2328 38.3348C66.9109 38.7815 67.8932 39.0054 69.179 39.0054C70.8604 39.0054 72.1503 38.7094 73.048 38.1166C73.9464 37.5245 74.3956 36.6904 74.3956 35.616C74.3956 34.7766 74.1305 34.1403 73.6004 33.7069C73.0702 33.2736 72.2994 33.0566 71.2886 33.0566H69.7231C68.8003 33.0566 68.3389 32.8757 68.3389 32.5139C68.3389 32.2725 68.467 32.0532 68.7257 31.8555L69.0963 31.8968L69.5501 31.9212C70.7747 31.9212 71.7325 31.6455 72.4218 31.0946C73.111 30.5432 73.4559 29.7742 73.4559 28.7865C73.4559 28.2764 73.3242 27.8157 73.0603 27.4045L74.5028 27.0339ZM68.6477 29.9551C68.4193 29.6643 68.3057 29.2693 68.3057 28.7703C68.3057 27.6622 68.7671 27.1084 69.6899 27.1084C70.6017 27.1084 71.0585 27.6622 71.0585 28.7703C71.0585 29.2693 70.9478 29.6643 70.7281 29.9551C70.5085 30.246 70.1624 30.3914 69.6899 30.3914C69.2227 30.3914 68.876 30.246 68.6477 29.9551ZM67.8891 37.0719C67.557 36.8748 67.391 36.6031 67.391 36.2576C67.391 35.9004 67.546 35.6143 67.8565 35.3979C68.167 35.1809 68.5527 35.0727 69.0141 35.0727H70.3162C70.9478 35.0727 71.415 35.1385 71.7168 35.2699C72.0192 35.402 72.1706 35.6404 72.1706 35.986C72.1706 36.4141 71.9149 36.7509 71.4039 36.9981C70.893 37.2447 70.1869 37.368 69.2862 37.368C68.6873 37.368 68.2212 37.2691 67.8891 37.0719Z" fill="white"/>
<path fill-rule="evenodd" clip-rule="evenodd" d="M81.3853 33.7073L81.8718 34.9579H83.6271V28.8281C83.6271 27.7311 83.298 26.9144 82.6385 26.3764C81.979 25.8389 81.0311 25.5702 79.7954 25.5702C78.5037 25.5702 77.3286 25.847 76.2683 26.4014L77.1003 28.0958C78.0947 27.652 78.9599 27.4298 79.6963 27.4298C80.6524 27.4298 81.1301 27.8957 81.1301 28.8281V29.2312L79.5314 29.2807C78.1524 29.3301 77.1212 29.5866 76.4367 30.0502C75.7533 30.5138 75.4113 31.2334 75.4113 32.21C75.4113 33.1424 75.6653 33.8608 76.1733 34.3657C76.6814 34.87 77.3782 35.1225 78.2625 35.1225C78.982 35.1225 79.5658 35.0195 80.0138 34.8142C80.4613 34.6083 80.8971 34.2395 81.3195 33.7073H81.3853ZM80.1577 30.7291L81.1301 30.6959V31.4527C81.1301 32.007 80.9553 32.4514 80.6069 32.7859C80.2579 33.1203 79.7924 33.2879 79.2098 33.2879C78.3971 33.2879 77.9905 32.9342 77.9905 32.2263C77.9905 31.733 78.1687 31.3654 78.5259 31.124C78.8836 30.8826 79.4272 30.7512 80.1577 30.7291Z" fill="white"/>
</svg>
