<svg width="24" height="24" viewBox="0 0 24 24" fill="none" xmlns="http://www.w3.org/2000/svg">
<path fill-rule="evenodd" clip-rule="evenodd" d="M14.5585 15.8314C13.5629 16.5659 12.3321 17 11 17C7.68629 17 5 14.3137 5 11C5 7.68629 7.68629 5 11 5C14.3137 5 17 7.68629 17 11C17 12.3322 16.5658 13.563 15.8313 14.5586L19.1364 17.8637C19.4878 18.2152 19.4878 18.785 19.1364 19.1365C18.7849 19.488 18.2151 19.488 17.8636 19.1365L14.5585 15.8314ZM15.2 11C15.2 13.3196 13.3196 15.2 11 15.2C8.6804 15.2 6.8 13.3196 6.8 11C6.8 8.6804 8.6804 6.8 11 6.8C13.3196 6.8 15.2 8.6804 15.2 11Z" fill="#F8F3FB"/>
</svg>
