<svg width="110" height="110" viewBox="0 0 110 110" fill="none" xmlns="http://www.w3.org/2000/svg">
<path d="M92.1945 10.0161C92.413 9.61937 92.333 9.12448 92.0006 8.81682C91.6671 8.50977 91.1674 8.46883 90.7893 8.71869C79.9281 15.8958 66.2481 26.3837 55.6819 39.2702C51.4747 37.6862 47.5776 36.5556 44.085 35.7548C44.0853 35.7643 44.0858 35.7737 44.0863 35.783C44.0869 35.7927 44.0876 35.8023 44.0882 35.812C44.09 35.8361 44.0917 35.8602 44.0917 35.8849C44.0917 36.5429 43.9315 37.1636 43.6546 37.7151C46.9822 38.4719 50.5728 39.5038 54.3755 40.897C51.438 44.631 48.7715 48.5558 46.5198 52.6528C44.433 56.4482 43.0302 59.7879 42.082 62.5754C41.8737 60.9215 41.5407 59.128 41.0224 57.2538C39.1602 50.5246 34.5027 41.6333 22.9618 35.9475C25.789 35.7265 30.2509 35.6344 35.9295 36.3478C35.9121 36.1955 35.9012 36.0414 35.9012 35.8849C35.9012 35.3442 36.009 34.8288 36.1999 34.3562C25.8029 33.051 19.3976 34.3875 19.1104 34.4495C18.6865 34.5411 18.3728 34.8993 18.3367 35.3316C18.3018 35.7638 18.5529 36.1684 18.9562 36.328C29.5326 40.5105 36.3106 47.7027 39.103 57.7047C39.9676 60.7993 40.2957 63.6995 40.3824 66.0463C40.8851 65.8253 41.439 65.7013 42.0224 65.7013C42.1332 65.7013 42.2415 65.7091 42.3505 65.7176C42.6244 65.7398 42.8899 65.7886 43.1458 65.8615C44.0001 62.7283 45.5426 58.4874 48.3368 53.4355C50.6144 49.318 53.3237 45.3763 56.3087 41.6297C59.5634 42.9055 62.9596 44.4468 66.469 46.3041C66.6852 45.6659 67.0536 45.0988 67.5323 44.6448C64.0915 42.8152 60.7736 41.2896 57.6151 40.0222C67.0693 28.6336 78.9871 19.1512 89.0493 12.2624C88.2961 14.2203 87.3647 17.0651 86.5586 20.7749C86.5812 20.7742 86.6034 20.7726 86.6255 20.771C86.6559 20.7687 86.6862 20.7665 86.7175 20.7665C87.3593 20.7665 87.965 20.9194 88.5063 21.1837C88.7146 20.2241 88.9265 19.3342 89.136 18.5347C90.5737 13.0317 92.1478 10.103 92.1936 10.0178L92.1945 10.0161Z" fill="#277AFF"/>
<path d="M85.2859 28.6911C84.8367 32.7363 84.6146 37.3927 84.8036 42.6481C83.1058 42.9858 79.0521 43.8859 73.9449 45.6445C74.2628 46.2219 74.4446 46.8829 74.4494 47.5862C81.007 45.3104 85.8602 44.4506 85.9861 44.4296C86.4761 44.3459 86.8277 43.9112 86.8049 43.4151C86.5616 37.8888 86.7988 33.038 87.26 28.9187C87.0848 28.9421 86.9078 28.9578 86.7272 28.9578C86.2191 28.9578 85.735 28.8609 85.2859 28.6911Z" fill="#277AFF"/>
<path d="M66.9592 56.569C72.7101 55.5823 77.8312 55.4474 80.9511 55.492C78.4014 53.5961 75.8842 51.879 73.4091 50.3227C73.845 49.8302 74.1641 49.2335 74.323 48.5737C77.6843 50.6803 81.1323 53.0831 84.6369 55.8285C84.9789 56.0964 85.1047 56.5582 84.9464 56.9628C84.7874 57.368 84.3811 57.6196 83.9476 57.5847C83.6736 57.5624 59.0415 55.684 45.7023 68.0106C45.4103 67.4115 44.9774 66.8944 44.4452 66.5024C44.164 66.2947 43.857 66.1219 43.5276 65.9913C49.7234 57.5173 58.9217 51.991 66.3843 48.6315C66.5564 49.2998 66.8912 49.9012 67.347 50.3925C60.6538 53.3896 53.3942 57.7196 47.8282 63.8203C52.8511 60.3464 59.3028 57.8821 66.9592 56.569Z" fill="#277AFF"/>
<path d="M85.2636 23.1239C85.0143 23.3334 84.809 23.5929 84.6663 23.8879C84.523 24.1823 84.4424 24.5128 84.4424 24.8626C84.4424 24.9608 84.4484 25.0577 84.4604 25.1528C84.5453 25.8181 84.9174 26.3949 85.4484 26.7537C85.8127 26.9999 86.2516 27.1438 86.7236 27.1438C87.0378 27.1438 87.3377 27.08 87.6104 26.9644C88.2606 26.6893 88.7495 26.1179 88.9265 25.4231C88.9494 25.3328 88.9693 25.2413 88.9831 25.148C88.9964 25.0553 89.0048 24.9596 89.0048 24.8626C89.0048 23.6043 87.9819 22.5808 86.7236 22.5808C86.1655 22.5808 85.6603 22.7897 85.2636 23.1239Z" fill="#222222"/>
<path d="M40.0047 38.1663C39.8469 38.1663 39.6934 38.1506 39.5447 38.1199C38.5055 37.9068 37.7228 36.9856 37.7228 35.885C37.7228 34.6267 38.7458 33.6032 40.0047 33.6032C41.2618 33.6032 42.2853 34.6267 42.2853 35.885C42.2853 37.1428 41.2618 38.1663 40.0047 38.1663Z" fill="#222222"/>
<path d="M68.9938 45.7807C69.3725 45.502 69.8349 45.3316 70.34 45.3316C71.5984 45.3316 72.6213 46.3551 72.6213 47.6128C72.6213 48.714 71.838 49.6351 70.7994 49.8482C70.6507 49.8784 70.4972 49.8946 70.34 49.8946C70.0258 49.8946 69.7253 49.8308 69.4526 49.7152C68.6344 49.3684 68.0588 48.5562 68.0588 47.6128C68.0588 47.5189 68.0649 47.4262 68.0757 47.3352C68.1546 46.6983 68.5001 46.1444 68.9938 45.7807Z" fill="#222222"/>
<path d="M43.5938 68.1525C43.6068 68.1625 43.6198 68.1724 43.6312 68.1839C43.6409 68.1936 43.6492 68.2044 43.6575 68.2153C43.6647 68.2248 43.6719 68.2342 43.68 68.2429C44.0617 68.6505 44.3001 69.1947 44.3001 69.7962C44.3001 70.2676 44.1562 70.7065 43.91 71.0708C43.8588 71.1466 43.8028 71.2195 43.7438 71.2887C43.6915 71.3489 43.6355 71.4067 43.5771 71.4609C43.1689 71.8438 42.621 72.078 42.0189 72.078C41.7047 72.078 41.4048 72.0142 41.1321 71.898C40.9954 71.8408 40.8654 71.7697 40.7444 71.6879C40.1375 71.2773 39.7377 70.5825 39.7377 69.7962C39.7377 68.5385 40.7612 67.515 42.0189 67.515C42.3338 67.515 42.6336 67.5788 42.9064 67.6944C43.1502 67.798 43.3681 67.9479 43.5602 68.1249C43.5707 68.1348 43.5822 68.1437 43.5938 68.1525Z" fill="#222222"/>
<path fill-rule="evenodd" clip-rule="evenodd" d="M73.3289 88.6632L72.5384 86.6282H72.4313C71.7437 87.494 71.0363 88.0948 70.309 88.429C69.5811 88.7637 68.6329 88.9311 67.4631 88.9311C66.0259 88.9311 64.8941 88.5211 64.0686 87.6993C63.2426 86.8781 62.8296 85.7089 62.8296 84.1905C62.8296 82.6022 63.3853 81.43 64.4973 80.6756C65.6087 79.9213 67.2848 79.504 69.5257 79.4234L72.1236 79.3433V78.687C72.1236 77.1692 71.347 76.4106 69.793 76.4106C68.5973 76.4106 67.1909 76.7725 65.575 77.4956L64.2228 74.7369C65.9453 73.835 67.8556 73.3841 69.9538 73.3841C71.9623 73.3841 73.5029 73.8218 74.574 74.696C75.6457 75.5714 76.1809 76.9013 76.1809 78.687V88.6632H73.3289ZM72.1236 81.7268L70.5432 81.7804C69.3559 81.8159 68.4721 82.0303 67.8917 82.4234C67.3113 82.816 67.0211 83.4144 67.0211 84.2176C67.0211 85.3693 67.6816 85.9449 69.0031 85.9449C69.9496 85.9449 70.7064 85.6727 71.2729 85.1279C71.8394 84.5836 72.1236 83.8605 72.1236 82.9586V81.7268Z" fill="#222222"/>
<path fill-rule="evenodd" clip-rule="evenodd" d="M37.4914 75.7679V73.692H32.2685C32.1078 73.6565 31.7399 73.6005 31.1637 73.5247C30.5882 73.4488 30.0902 73.4109 29.67 73.4109C27.6977 73.4109 26.1799 73.8576 25.1178 74.7505C24.0552 75.6433 23.5236 76.9058 23.5236 78.5398C23.5236 79.5573 23.7536 80.4411 24.2141 81.1913C24.6735 81.9415 25.296 82.4857 26.0817 82.8253C25.4568 83.1913 24.9788 83.5634 24.6488 83.9433C24.3189 84.3232 24.1533 84.7982 24.1533 85.369C24.1533 85.8248 24.3099 86.2552 24.6223 86.6616C24.9342 87.068 25.3009 87.36 25.7205 87.5388C24.6308 87.7977 23.8053 88.2306 23.243 88.8381C22.6807 89.4443 22.3989 90.1987 22.3989 91.1006C22.3989 92.4131 22.9504 93.433 24.0528 94.1609C25.1552 94.8882 26.7512 95.2524 28.8404 95.2524C31.5725 95.2524 33.6677 94.7702 35.1277 93.8057C36.5877 92.8418 37.3168 91.4847 37.3168 89.7351C37.3168 88.3691 36.8863 87.3335 36.0248 86.6285C35.1626 85.9229 33.9109 85.5701 32.2685 85.5701H29.7242C28.2245 85.5701 27.4743 85.2757 27.4743 84.6863C27.4743 84.2937 27.6838 83.9367 28.1041 83.6152L28.7067 83.682L29.4424 83.7224C31.4334 83.7224 32.9898 83.2732 34.1096 82.3762C35.23 81.4791 35.7906 80.2268 35.7906 78.6199C35.7906 77.7903 35.5762 77.0395 35.1476 76.3706L37.4914 75.7679ZM27.9764 80.5218C27.6067 80.0486 27.4207 79.4056 27.4207 78.5934C27.4207 76.7902 28.1709 75.8884 29.67 75.8884C31.1523 75.8884 31.894 76.7902 31.894 78.5934C31.894 79.4056 31.7152 80.0486 31.3582 80.5218C31.0006 80.995 30.4382 81.2316 29.67 81.2316C28.912 81.2316 28.3473 80.995 27.9764 80.5218ZM26.7446 92.1048C26.2039 91.7839 25.9342 91.342 25.9342 90.7797C25.9342 90.1987 26.1865 89.7327 26.691 89.3805C27.1955 89.0271 27.8229 88.8513 28.5725 88.8513H30.6887C31.7152 88.8513 32.4738 88.9585 32.9651 89.1722C33.4552 89.3871 33.702 89.7749 33.702 90.3372C33.702 91.0344 33.286 91.5829 32.4557 91.9844C31.6255 92.3866 30.4786 92.5871 29.0144 92.5871C28.0408 92.5871 27.2846 92.4269 26.7446 92.1048Z" fill="#222222"/>
<path d="M39.9567 73.692H44.0417V88.6634H39.9567V73.692Z" fill="#222222"/>
<path fill-rule="evenodd" clip-rule="evenodd" d="M61.3555 73.692V75.7679L59.0117 76.3706C59.4404 77.0395 59.6541 77.7903 59.6541 78.6199C59.6541 80.2268 59.0942 81.4791 57.9738 82.3762C56.8533 83.2732 55.2976 83.7224 53.3066 83.7224L52.5709 83.682L51.9676 83.6152C51.548 83.9367 51.3385 84.2937 51.3385 84.6863C51.3385 85.2757 52.0886 85.5701 53.5884 85.5701H56.1327C57.7751 85.5701 59.0268 85.9229 59.8889 86.6285C60.7505 87.3335 61.1809 88.3691 61.1809 89.7351C61.1809 91.4847 60.4512 92.8418 58.9919 93.8057C57.5319 94.7702 55.4367 95.2524 52.7039 95.2524C50.6154 95.2524 49.0193 94.8882 47.917 94.1609C46.814 93.433 46.2631 92.4131 46.2631 91.1006C46.2631 90.1987 46.5443 89.4443 47.1072 88.8381C47.6695 88.2306 48.4949 87.7977 49.5841 87.5388C49.165 87.36 48.7984 87.068 48.4865 86.6616C48.1734 86.2552 48.0175 85.8248 48.0175 85.369C48.0175 84.7982 48.1831 84.3232 48.513 83.9433C48.8429 83.5634 49.3204 83.1913 49.9459 82.8253C49.1602 82.4857 48.5377 81.9415 48.0777 81.1913C47.6177 80.4411 47.3877 79.5573 47.3877 78.5398C47.3877 76.9058 47.9188 75.6433 48.9814 74.7505C50.0434 73.8576 51.5618 73.4109 53.5342 73.4109C53.9544 73.4109 54.4523 73.4488 55.0279 73.5247C55.6035 73.6005 55.9719 73.6565 56.1327 73.692H61.3555ZM51.2849 78.5934C51.2849 79.4056 51.4703 80.0486 51.8406 80.5218C52.2109 80.995 52.7762 81.2316 53.5342 81.2316C54.3024 81.2316 54.8647 80.995 55.2218 80.5218C55.5788 80.0486 55.7582 79.4056 55.7582 78.5934C55.7582 76.7902 55.0164 75.8884 53.5342 75.8884C52.0345 75.8884 51.2849 76.7902 51.2849 78.5934ZM49.7984 90.7797C49.7984 91.342 50.0681 91.7839 50.6088 92.1048C51.1482 92.4269 51.905 92.5871 52.8785 92.5871C54.3421 92.5871 55.4897 92.3866 56.3199 91.9844C57.1502 91.5829 57.5656 91.0344 57.5656 90.3372C57.5656 89.7749 57.3193 89.3871 56.8287 89.1722C56.338 88.9585 55.5788 88.8513 54.5523 88.8513H52.4366C51.6865 88.8513 51.0591 89.0271 50.5552 89.3805C50.0507 89.7327 49.7984 90.1987 49.7984 90.7797Z" fill="#222222"/>
</svg>
