<svg width="58" height="58" viewBox="0 0 58 58" fill="none" xmlns="http://www.w3.org/2000/svg">
<path d="M48.6116 5.28129C48.7269 5.07209 48.6846 4.81115 48.5094 4.64893C48.3335 4.48703 48.0701 4.46545 47.8707 4.59719C42.1439 8.38151 34.9308 13.9115 29.3596 20.7062C27.1412 19.871 25.0864 19.2748 23.2448 18.8526C23.245 18.8576 23.2452 18.8625 23.2455 18.8675C23.2458 18.8726 23.2462 18.8776 23.2465 18.8827C23.2474 18.8955 23.2483 18.9082 23.2483 18.9212C23.2483 19.2681 23.1639 19.5954 23.0179 19.8862C24.7724 20.2853 26.6657 20.8294 28.6707 21.5639C27.1219 23.5328 25.7159 25.6022 24.5286 27.7625C23.4283 29.7637 22.6887 31.5246 22.1887 32.9944C22.0788 32.1223 21.9033 31.1766 21.63 30.1884C20.6481 26.6403 18.1923 21.9522 12.1071 18.9542C13.5978 18.8377 15.9505 18.7891 18.9447 19.1653C18.9355 19.085 18.9297 19.0037 18.9297 18.9212C18.9297 18.6361 18.9866 18.3644 19.0872 18.1152C13.6052 17.4269 10.2278 18.1317 10.0764 18.1644C9.85289 18.2126 9.6875 18.4015 9.66845 18.6294C9.65004 18.8574 9.78241 19.0707 9.99511 19.1548C15.5718 21.3601 19.1456 25.1524 20.6179 30.4262C21.0738 32.0579 21.2468 33.587 21.2925 34.8245C21.5576 34.708 21.8496 34.6426 22.1573 34.6426C22.2157 34.6426 22.2728 34.6467 22.3303 34.6511C22.4747 34.6629 22.6147 34.6886 22.7496 34.727C23.2001 33.075 24.0134 30.8389 25.4867 28.1752C26.6876 26.0041 28.1161 23.9258 29.69 21.9503C31.4062 22.623 33.1969 23.4356 35.0473 24.415C35.1613 24.0785 35.3556 23.7794 35.6079 23.5401C33.7937 22.5753 32.0442 21.7709 30.3789 21.1027C35.3638 15.0978 41.6477 10.098 46.9533 6.4657C46.5561 7.49805 46.065 8.998 45.64 10.9541C45.6519 10.9537 45.6636 10.9529 45.6753 10.952C45.6913 10.9508 45.7073 10.9497 45.7238 10.9497C46.0622 10.9497 46.3815 11.0303 46.6669 11.1697C46.7768 10.6637 46.8885 10.1945 46.999 9.77289C47.7571 6.87134 48.587 5.3271 48.6111 5.28219L48.6116 5.28129Z" fill="white"/>
<path d="M44.9689 15.1281C44.7321 17.261 44.6149 19.7162 44.7146 22.4872C43.8194 22.6653 41.682 23.1399 38.9891 24.0672C39.1567 24.3716 39.2526 24.7202 39.2551 25.0909C42.7128 23.891 45.2718 23.4377 45.3381 23.4266C45.5965 23.3824 45.7819 23.1532 45.7698 22.8916C45.6416 19.9778 45.7667 17.4201 46.0098 15.2481C45.9174 15.2605 45.8241 15.2687 45.7289 15.2687C45.461 15.2687 45.2057 15.2176 44.9689 15.1281Z" fill="white"/>
<path d="M35.3058 29.8274C38.338 29.3071 41.0383 29.236 42.6833 29.2595C41.3389 28.2598 40.0116 27.3544 38.7066 26.5338C38.9364 26.2742 39.1047 25.9596 39.1885 25.6116C40.9608 26.7224 42.7789 27.9893 44.6267 29.4369C44.807 29.5782 44.8734 29.8217 44.7899 30.035C44.7061 30.2486 44.4918 30.3813 44.2633 30.3629C44.1188 30.3512 31.131 29.3607 24.0976 35.8602C23.9436 35.5443 23.7154 35.2716 23.4347 35.065C23.2865 34.9555 23.1246 34.8643 22.9509 34.7955C26.2178 30.3274 31.0678 27.4135 35.0026 25.6421C35.0934 25.9945 35.2699 26.3116 35.5102 26.5707C31.9811 28.1509 28.1533 30.434 25.2185 33.6507C27.867 31.8191 31.2688 30.5197 35.3058 29.8274Z" fill="white"/>
<path d="M44.9571 12.1926C44.8257 12.3031 44.7174 12.4399 44.6422 12.5954C44.5667 12.7507 44.5241 12.9249 44.5241 13.1094C44.5241 13.1611 44.5273 13.2122 44.5336 13.2624C44.5784 13.6132 44.7746 13.9173 45.0546 14.1065C45.2466 14.2363 45.4781 14.3122 45.7269 14.3122C45.8926 14.3122 46.0507 14.2786 46.1945 14.2176C46.5374 14.0725 46.7952 13.7713 46.8885 13.4049C46.9005 13.3573 46.911 13.3091 46.9183 13.2599C46.9253 13.211 46.9297 13.1605 46.9297 13.1094C46.9297 12.4459 46.3904 11.9062 45.7269 11.9062C45.4327 11.9062 45.1663 12.0164 44.9571 12.1926Z" fill="white"/>
<path d="M21.0933 20.124C21.0102 20.124 20.9292 20.1158 20.8508 20.0996C20.3029 19.9872 19.8902 19.5015 19.8902 18.9212C19.8902 18.2577 20.4295 17.7181 21.0933 17.7181C21.7562 17.7181 22.2958 18.2577 22.2958 18.9212C22.2958 19.5844 21.7562 20.124 21.0933 20.124Z" fill="white"/>
<path d="M36.3785 24.1389C36.5782 23.992 36.822 23.9021 37.0883 23.9021C37.7518 23.9021 38.2912 24.4418 38.2912 25.1049C38.2912 25.6856 37.8782 26.1713 37.3306 26.2836C37.2521 26.2995 37.1712 26.3081 37.0883 26.3081C36.9226 26.3081 36.7642 26.2744 36.6204 26.2135C36.189 26.0306 35.8855 25.6024 35.8855 25.1049C35.8855 25.0554 35.8887 25.0065 35.8944 24.9586C35.936 24.6227 36.1182 24.3307 36.3785 24.1389Z" fill="white"/>
<path d="M22.9858 35.935C22.9926 35.9402 22.9995 35.9455 23.0055 35.9515C23.0106 35.9566 23.015 35.9623 23.0194 35.9681C23.0232 35.9731 23.027 35.978 23.0312 35.9826C23.2325 36.1975 23.3582 36.4845 23.3582 36.8016C23.3582 37.0502 23.2823 37.2816 23.1525 37.4737C23.1255 37.5137 23.096 37.5521 23.0649 37.5886C23.0373 37.6203 23.0077 37.6508 22.977 37.6794C22.7617 37.8813 22.4728 38.0048 22.1554 38.0048C21.9897 38.0048 21.8316 37.9711 21.6878 37.9099C21.6157 37.8797 21.5472 37.8422 21.4834 37.7991C21.1634 37.5826 20.9526 37.2162 20.9526 36.8016C20.9526 36.1385 21.4922 35.5988 22.1554 35.5988C22.3214 35.5988 22.4795 35.6325 22.6233 35.6934C22.7519 35.748 22.8668 35.8271 22.9681 35.9204C22.9736 35.9256 22.9797 35.9303 22.9858 35.935Z" fill="white"/>
<path fill-rule="evenodd" clip-rule="evenodd" d="M38.6643 46.7497L38.2475 45.6767H38.191C37.8285 46.1332 37.4555 46.45 37.072 46.6262C36.6882 46.8027 36.1882 46.8909 35.5714 46.8909C34.8136 46.8909 34.2168 46.6748 33.7816 46.2414C33.3461 45.8084 33.1283 45.192 33.1283 44.3913C33.1283 43.5539 33.4213 42.9358 34.0076 42.5381C34.5936 42.1403 35.4774 41.9203 36.659 41.8778L38.0288 41.8356V41.4895C38.0288 40.6892 37.6193 40.2893 36.7999 40.2893C36.1695 40.2893 35.4279 40.48 34.5759 40.8613L33.8629 39.4067C34.7711 38.9312 35.7784 38.6934 36.8847 38.6934C37.9437 38.6934 38.7561 38.9242 39.3208 39.3852C39.8859 39.8467 40.1681 40.548 40.1681 41.4895V46.7497H38.6643ZM38.0288 43.0923L37.1955 43.1206C36.5695 43.1393 36.1034 43.2523 35.7974 43.4596C35.4914 43.6666 35.3384 43.9822 35.3384 44.4056C35.3384 45.0129 35.6866 45.3164 36.3834 45.3164C36.8825 45.3164 37.2815 45.1729 37.5802 44.8856C37.8789 44.5986 38.0288 44.2174 38.0288 43.7418V43.0923Z" fill="white"/>
<path fill-rule="evenodd" clip-rule="evenodd" d="M19.7681 39.9504V38.8558H17.0143C16.9295 38.8371 16.7355 38.8076 16.4317 38.7676C16.1283 38.7276 15.8657 38.7076 15.6441 38.7076C14.6042 38.7076 13.8039 38.9431 13.2439 39.4139C12.6836 39.8847 12.4033 40.5504 12.4033 41.4119C12.4033 41.9484 12.5246 42.4144 12.7674 42.81C13.0096 43.2055 13.3379 43.4925 13.7521 43.6715C13.4226 43.8645 13.1706 44.0607 12.9966 44.261C12.8227 44.4613 12.7354 44.7118 12.7354 45.0127C12.7354 45.2531 12.8179 45.48 12.9826 45.6943C13.1471 45.9086 13.3404 46.0626 13.5617 46.1568C12.9871 46.2933 12.5519 46.5216 12.2554 46.8419C11.9589 47.1616 11.8103 47.5593 11.8103 48.0349C11.8103 48.7269 12.1011 49.2647 12.6823 49.6485C13.2636 50.0319 14.1051 50.224 15.2067 50.224C16.6473 50.224 17.752 49.9697 18.5218 49.4612C19.2916 48.9529 19.6761 48.2374 19.6761 47.3149C19.6761 46.5946 19.4491 46.0486 18.9948 45.6769C18.5402 45.3048 17.8803 45.1188 17.0143 45.1188H15.6727C14.8819 45.1188 14.4864 44.9635 14.4864 44.6528C14.4864 44.4458 14.5969 44.2575 14.8185 44.088L15.1362 44.1233L15.5242 44.1445C16.574 44.1445 17.3946 43.9077 17.985 43.4347C18.5758 42.9617 18.8713 42.3014 18.8713 41.4541C18.8713 41.0167 18.7583 40.6208 18.5323 40.2681L19.7681 39.9504ZM14.7512 42.457C14.5562 42.2074 14.4582 41.8684 14.4582 41.4402C14.4582 40.4894 14.8537 40.0139 15.6441 40.0139C16.4257 40.0139 16.8168 40.4894 16.8168 41.4402C16.8168 41.8684 16.7225 42.2074 16.5343 42.457C16.3457 42.7065 16.0492 42.8312 15.6441 42.8312C15.2445 42.8312 14.9467 42.7065 14.7512 42.457ZM14.1017 48.5644C13.8166 48.3952 13.6744 48.1622 13.6744 47.8657C13.6744 47.5593 13.8074 47.3136 14.0734 47.1279C14.3394 46.9416 14.6702 46.8489 15.0654 46.8489H16.1813C16.7225 46.8489 17.1225 46.9054 17.3815 47.0181C17.64 47.1314 17.7701 47.3358 17.7701 47.6323C17.7701 48 17.5508 48.2892 17.113 48.5009C16.6752 48.7129 16.0705 48.8187 15.2984 48.8187C14.7851 48.8187 14.3864 48.7342 14.1017 48.5644Z" fill="white"/>
<path d="M21.068 38.8558H23.2219V46.7498H21.068V38.8558Z" fill="white"/>
<path fill-rule="evenodd" clip-rule="evenodd" d="M32.3511 38.8558V39.9504L31.1152 40.2681C31.3413 40.6208 31.4539 41.0167 31.4539 41.4541C31.4539 42.3014 31.1587 42.9617 30.5679 43.4347C29.9772 43.9077 29.1569 44.1445 28.1071 44.1445L27.7192 44.1233L27.4011 44.088C27.1798 44.2575 27.0693 44.4458 27.0693 44.6528C27.0693 44.9635 27.4649 45.1188 28.2556 45.1188H29.5972C30.4632 45.1188 31.1232 45.3048 31.5778 45.6769C32.032 46.0486 32.259 46.5946 32.259 47.3149C32.259 48.2374 31.8743 48.9529 31.1048 49.4612C30.3349 49.9697 29.2302 50.224 27.7893 50.224C26.6881 50.224 25.8465 50.0319 25.2653 49.6485C24.6837 49.2647 24.3932 48.7269 24.3932 48.0349C24.3932 47.5593 24.5415 47.1616 24.8383 46.8419C25.1348 46.5216 25.57 46.2933 26.1443 46.1568C25.9233 46.0626 25.73 45.9086 25.5656 45.6943C25.4005 45.48 25.3183 45.2531 25.3183 45.0127C25.3183 44.7118 25.4056 44.4613 25.5795 44.261C25.7535 44.0607 26.0052 43.8645 26.3351 43.6715C25.9208 43.4925 25.5926 43.2055 25.35 42.81C25.1075 42.4144 24.9862 41.9484 24.9862 41.4119C24.9862 40.5504 25.2662 39.8847 25.8265 39.4139C26.3865 38.9431 27.1871 38.7076 28.2271 38.7076C28.4487 38.7076 28.7112 38.7276 29.0147 38.7676C29.3181 38.8076 29.5124 38.8371 29.5972 38.8558H32.3511ZM27.0411 41.4402C27.0411 41.8684 27.1389 42.2074 27.3341 42.457C27.5293 42.7065 27.8274 42.8312 28.2271 42.8312C28.6321 42.8312 28.9286 42.7065 29.1169 42.457C29.3051 42.2074 29.3997 41.8684 29.3997 41.4402C29.3997 40.4894 29.0086 40.0139 28.2271 40.0139C27.4363 40.0139 27.0411 40.4894 27.0411 41.4402ZM26.2573 47.8657C26.2573 48.1622 26.3995 48.3952 26.6846 48.5644C26.969 48.7342 27.3681 48.8187 27.8814 48.8187C28.6531 48.8187 29.2581 48.7129 29.6959 48.5009C30.1337 48.2892 30.3527 48 30.3527 47.6323C30.3527 47.3358 30.2229 47.1314 29.9642 47.0181C29.7054 46.9054 29.3051 46.8489 28.7639 46.8489H27.6484C27.2528 46.8489 26.922 46.9416 26.6563 47.1279C26.3903 47.3136 26.2573 47.5593 26.2573 47.8657Z" fill="white"/>
</svg>
