<svg width="58" height="58" viewBox="0 0 58 58" fill="none" xmlns="http://www.w3.org/2000/svg">
<path d="M48.6116 5.28117C48.7269 5.07197 48.6846 4.81103 48.5094 4.64881C48.3335 4.48691 48.0701 4.46532 47.8707 4.59707C42.1439 8.38139 34.9308 13.9114 29.3596 20.7061C27.1412 19.8709 25.0864 19.2747 23.2448 18.8525L23.2455 18.8673L23.2465 18.8826C23.2474 18.8953 23.2483 18.908 23.2483 18.921C23.2483 19.268 23.1639 19.5953 23.0179 19.8861C24.7724 20.2851 26.6657 20.8292 28.6707 21.5638C27.1219 23.5326 25.7159 25.6021 24.5286 27.7624C23.4283 29.7636 22.6887 31.5245 22.1887 32.9942C22.0788 32.1222 21.9033 31.1765 21.63 30.1883C20.6481 26.6402 18.1923 21.9521 12.1071 18.9541C13.5978 18.8376 15.9505 18.789 18.9447 19.1652C18.9355 19.0849 18.9297 19.0036 18.9297 18.921C18.9297 18.636 18.9866 18.3642 19.0872 18.115C13.6052 17.4268 10.2278 18.1315 10.0764 18.1642C9.85289 18.2125 9.6875 18.4014 9.66845 18.6293C9.65004 18.8572 9.78241 19.0706 9.99511 19.1547C15.5718 21.36 19.1456 25.1523 20.6179 30.4261C21.0738 32.0578 21.2468 33.5869 21.2925 34.8243C21.5576 34.7078 21.8496 34.6424 22.1573 34.6424C22.2157 34.6424 22.2728 34.6466 22.3303 34.651C22.4747 34.6628 22.6147 34.6885 22.7496 34.7269C23.2001 33.0749 24.0134 30.8388 25.4867 28.175C26.6876 26.004 28.1161 23.9256 29.69 21.9502C31.4062 22.6228 33.1969 23.4355 35.0473 24.4148C35.1613 24.0783 35.3556 23.7793 35.6079 23.5399C33.7937 22.5752 32.0442 21.7708 30.3789 21.1026C35.3638 15.0977 41.6477 10.0978 46.9533 6.46558C46.5561 7.49792 46.065 8.99788 45.64 10.954C45.6519 10.9536 45.6636 10.9528 45.6752 10.9519C45.6912 10.9507 45.7073 10.9496 45.7238 10.9496C46.0622 10.9496 46.3815 11.0302 46.6669 11.1696C46.7768 10.6635 46.8885 10.1943 46.999 9.77277C47.7571 6.87122 48.587 5.32698 48.6111 5.28207L48.6116 5.28117Z" fill="white"/>
<path d="M44.9689 15.128C44.7321 17.2609 44.6149 19.7161 44.7146 22.4871C43.8194 22.6652 41.682 23.1398 38.9891 24.067C39.1567 24.3715 39.2526 24.72 39.2551 25.0908C42.7128 23.8909 45.2718 23.4375 45.3381 23.4264C45.5965 23.3823 45.7819 23.1531 45.7698 22.8915C45.6416 19.9777 45.7667 17.42 46.0098 15.248C45.9174 15.2603 45.8241 15.2686 45.7289 15.2686C45.461 15.2686 45.2057 15.2175 44.9689 15.128Z" fill="white"/>
<path d="M42.6833 29.2593C41.0383 29.2358 38.338 29.3069 35.3058 29.8272C31.2688 30.5196 27.867 31.8189 25.2185 33.6506C28.1533 30.4339 31.9811 28.1508 35.5102 26.5705C35.2699 26.3115 35.0934 25.9944 35.0026 25.642C31.0678 27.4134 26.2178 30.3272 22.9509 34.7953C23.1246 34.8642 23.2865 34.9553 23.4347 35.0649C23.7154 35.2715 23.9436 35.5442 24.0976 35.8601C31.131 29.3606 44.1188 30.351 44.2633 30.3628C44.4918 30.3812 44.7061 30.2485 44.7899 30.0349C44.8734 29.8215 44.807 29.5781 44.6267 29.4368C42.7789 27.9892 40.9608 26.7223 39.1885 25.6115C39.1047 25.9594 38.9364 26.274 38.7066 26.5337C40.0116 27.3543 41.3389 28.2597 42.6833 29.2593Z" fill="white"/>
<path d="M44.642 12.5954C44.7172 12.4399 44.8254 12.3031 44.9569 12.1926C45.1661 12.0164 45.4324 11.9062 45.7267 11.9062C46.3902 11.9062 46.9295 12.4459 46.9295 13.1094C46.9295 13.1605 46.9251 13.211 46.9181 13.2599C46.9108 13.3091 46.9003 13.3573 46.8882 13.4049C46.7949 13.7713 46.5371 14.0725 46.1943 14.2176C46.0505 14.2786 45.8924 14.3122 45.7267 14.3122C45.4778 14.3122 45.2464 14.2363 45.0543 14.1065C44.7743 13.9173 44.5782 13.6132 44.5334 13.2624C44.527 13.2122 44.5239 13.1611 44.5239 13.1094C44.5239 12.9249 44.5664 12.7507 44.642 12.5954Z" fill="white"/>
<path d="M20.8505 20.0996C20.929 20.1158 21.0099 20.124 21.0931 20.124C21.7559 20.124 22.2956 19.5844 22.2956 18.9212C22.2956 18.2577 21.7559 17.7181 21.0931 17.7181C20.4293 17.7181 19.8899 18.2577 19.8899 18.9212C19.8899 19.5015 20.3026 19.9872 20.8505 20.0996Z" fill="white"/>
<path d="M36.3783 24.1389C36.578 23.992 36.8218 23.9021 37.0881 23.9021C37.7516 23.9021 38.2909 24.4418 38.2909 25.1049C38.2909 25.6856 37.8779 26.1713 37.3303 26.2836C37.2519 26.2995 37.171 26.3081 37.0881 26.3081C36.9224 26.3081 36.764 26.2744 36.6202 26.2135C36.1888 26.0306 35.8853 25.6024 35.8853 25.1049C35.8853 25.0554 35.8885 25.0065 35.8942 24.9586C35.9358 24.6227 36.118 24.3307 36.3783 24.1389Z" fill="white"/>
<path d="M23.0053 35.9515C22.9992 35.9455 22.9924 35.9402 22.9855 35.935C22.9794 35.9303 22.9733 35.9256 22.9678 35.9204C22.8666 35.8271 22.7516 35.748 22.6231 35.6934C22.4793 35.6325 22.3212 35.5988 22.1552 35.5988C21.492 35.5988 20.9523 36.1385 20.9523 36.8016C20.9523 37.2162 21.1631 37.5826 21.4831 37.7991C21.5469 37.8422 21.6155 37.8797 21.6875 37.9099C21.8314 37.9711 21.9894 38.0048 22.1552 38.0048C22.4726 38.0048 22.7615 37.8813 22.9767 37.6794C23.0075 37.6508 23.037 37.6203 23.0646 37.5886C23.0958 37.5521 23.1253 37.5137 23.1523 37.4737C23.2821 37.2816 23.358 37.0502 23.358 36.8016C23.358 36.4845 23.2323 36.1975 23.031 35.9826C23.0267 35.978 23.0229 35.9731 23.0191 35.9681C23.0148 35.9623 23.0104 35.9566 23.0053 35.9515Z" fill="white"/>
<path fill-rule="evenodd" clip-rule="evenodd" d="M38.6641 46.7497L38.2472 45.6767H38.1907C37.8282 46.1332 37.4552 46.45 37.0717 46.6262C36.6879 46.8027 36.188 46.8909 35.5711 46.8909C34.8134 46.8909 34.2166 46.6748 33.7814 46.2414C33.3458 45.8084 33.128 45.192 33.128 44.3913C33.128 43.5539 33.4211 42.9358 34.0074 42.5381C34.5934 42.1403 35.4772 41.9203 36.6587 41.8778L38.0285 41.8356V41.4895C38.0285 40.6892 37.619 40.2893 36.7997 40.2893C36.1692 40.2893 35.4277 40.48 34.5756 40.8613L33.8626 39.4067C34.7709 38.9312 35.7781 38.6934 36.8844 38.6934C37.9435 38.6934 38.7558 38.9242 39.3206 39.3852C39.8856 39.8467 40.1678 40.548 40.1678 41.4895V46.7497H38.6641ZM38.0285 43.0923L37.1952 43.1206C36.5692 43.1393 36.1032 43.2523 35.7972 43.4596C35.4911 43.6666 35.3381 43.9822 35.3381 44.4056C35.3381 45.0129 35.6864 45.3164 36.3832 45.3164C36.8822 45.3164 37.2812 45.1729 37.58 44.8856C37.8787 44.5986 38.0285 44.2174 38.0285 43.7418V43.0923Z" fill="white"/>
<path fill-rule="evenodd" clip-rule="evenodd" d="M19.7679 38.8558V39.9504L18.5321 40.2681C18.7581 40.6208 18.8711 41.0167 18.8711 41.4541C18.8711 42.3014 18.5756 42.9617 17.9848 43.4347C17.3943 43.9077 16.5737 44.1445 15.5239 44.1445L15.136 44.1233L14.8182 44.088C14.5966 44.2575 14.4862 44.4458 14.4862 44.6528C14.4862 44.9635 14.8817 45.1188 15.6725 45.1188H17.014C17.88 45.1188 18.54 45.3048 18.9946 45.6769C19.4489 46.0486 19.6758 46.5946 19.6758 47.3149C19.6758 48.2374 19.2914 48.9529 18.5216 49.4612C17.7518 49.9697 16.647 50.224 15.2065 50.224C14.1049 50.224 13.2633 50.0319 12.6821 49.6485C12.1008 49.2647 11.8101 48.7269 11.8101 48.0349C11.8101 47.5593 11.9586 47.1616 12.2551 46.8419C12.5516 46.5216 12.9868 46.2933 13.5614 46.1568C13.3402 46.0626 13.1468 45.9086 12.9824 45.6943C12.8176 45.48 12.7351 45.2531 12.7351 45.0127C12.7351 44.7118 12.8224 44.4613 12.9964 44.261C13.1703 44.0607 13.4224 43.8645 13.7519 43.6715C13.3376 43.4925 13.0094 43.2055 12.7672 42.81C12.5243 42.4144 12.4031 41.9484 12.4031 41.4119C12.4031 40.5504 12.6834 39.8847 13.2437 39.4139C13.8036 38.9431 14.6039 38.7076 15.6439 38.7076C15.8655 38.7076 16.128 38.7276 16.4315 38.7676C16.7353 38.8076 16.9293 38.8371 17.014 38.8558H19.7679ZM14.4579 41.4402C14.4579 41.8684 14.556 42.2074 14.7509 42.457C14.9465 42.7065 15.2442 42.8312 15.6439 42.8312C16.049 42.8312 16.3455 42.7065 16.534 42.457C16.7223 42.2074 16.8166 41.8684 16.8166 41.4402C16.8166 40.4894 16.4255 40.0139 15.6439 40.0139C14.8535 40.0139 14.4579 40.4894 14.4579 41.4402ZM13.6741 47.8657C13.6741 48.1622 13.8163 48.3952 14.1014 48.5644C14.3862 48.7342 14.7849 48.8187 15.2982 48.8187C16.0702 48.8187 16.675 48.7129 17.1127 48.5009C17.5505 48.2892 17.7699 48 17.7699 47.6323C17.7699 47.3358 17.6397 47.1314 17.3813 47.0181C17.1223 46.9054 16.7223 46.8489 16.181 46.8489H15.0652C14.67 46.8489 14.3392 46.9416 14.0732 47.1279C13.8071 47.3136 13.6741 47.5593 13.6741 47.8657Z" fill="white"/>
<path d="M21.0678 38.8558H23.2217V46.7498H21.0678V38.8558Z" fill="white"/>
<path fill-rule="evenodd" clip-rule="evenodd" d="M32.3508 39.9504V38.8558H29.5969C29.5122 38.8371 29.3179 38.8076 29.0144 38.7676C28.7109 38.7276 28.4484 38.7076 28.2268 38.7076C27.1869 38.7076 26.3863 38.9431 25.8263 39.4139C25.266 39.8847 24.986 40.5504 24.986 41.4119C24.986 41.9484 25.1072 42.4144 25.3498 42.81C25.5923 43.2055 25.9206 43.4925 26.3348 43.6715C26.005 43.8645 25.7533 44.0607 25.5793 44.261C25.4053 44.4613 25.318 44.7118 25.318 45.0127C25.318 45.2531 25.4003 45.48 25.5653 45.6943C25.7298 45.9086 25.9231 46.0626 26.144 46.1568C25.5698 46.2933 25.1345 46.5216 24.8381 46.8419C24.5412 47.1616 24.393 47.5593 24.393 48.0349C24.393 48.7269 24.6835 49.2647 25.265 49.6485C25.8463 50.0319 26.6878 50.224 27.7891 50.224C29.23 50.224 30.3347 49.9697 31.1045 49.4612C31.874 48.9529 32.2588 48.2374 32.2588 47.3149C32.2588 46.5946 32.0318 46.0486 31.5775 45.6769C31.1229 45.3048 30.4629 45.1188 29.5969 45.1188H28.2554C27.4646 45.1188 27.0691 44.9635 27.0691 44.6528C27.0691 44.4458 27.1796 44.2575 27.4008 44.088L27.7189 44.1233L28.1068 44.1445C29.1566 44.1445 29.9769 43.9077 30.5677 43.4347C31.1585 42.9617 31.4537 42.3014 31.4537 41.4541C31.4537 41.0167 31.341 40.6208 31.115 40.2681L32.3508 39.9504ZM27.3338 42.457C27.1386 42.2074 27.0408 41.8684 27.0408 41.4402C27.0408 40.4894 27.4361 40.0139 28.2268 40.0139C29.0084 40.0139 29.3995 40.4894 29.3995 41.4402C29.3995 41.8684 29.3049 42.2074 29.1166 42.457C28.9284 42.7065 28.6319 42.8312 28.2268 42.8312C27.8272 42.8312 27.5291 42.7065 27.3338 42.457ZM26.6843 48.5644C26.3993 48.3952 26.2571 48.1622 26.2571 47.8657C26.2571 47.5593 26.3901 47.3136 26.6561 47.1279C26.9218 46.9416 27.2526 46.8489 27.6481 46.8489H28.7636C29.3049 46.8489 29.7052 46.9054 29.9639 47.0181C30.2226 47.1314 30.3525 47.3358 30.3525 47.6323C30.3525 48 30.1334 48.2892 29.6957 48.5009C29.2579 48.7129 28.6528 48.8187 27.8811 48.8187C27.3678 48.8187 26.9688 48.7342 26.6843 48.5644Z" fill="white"/>
</svg>
