<svg width="102" height="52" viewBox="0 0 102 52" fill="none" xmlns="http://www.w3.org/2000/svg">
<path d="M50.1303 4.96125C50.2787 4.69245 50.2247 4.35693 49.9986 4.14843C49.7724 3.93993 49.4331 3.91299 49.1767 4.08171C41.8054 8.94517 32.5205 16.0521 25.3496 24.7846C22.4935 23.7113 19.8487 22.9453 17.4783 22.4026C17.4786 22.4157 17.4794 22.4287 17.4802 22.4417C17.4812 22.4579 17.4822 22.4741 17.4822 22.4905C17.4822 22.9363 17.3736 23.3572 17.186 23.7306C19.4446 24.2438 21.8818 24.9424 24.4622 25.8874C22.4684 28.4176 20.659 31.0767 19.131 33.8533C17.7148 36.4246 16.7619 38.6879 16.1187 40.5772C15.9773 39.4564 15.7518 38.2407 15.3997 36.9711C14.1351 32.4111 10.9744 26.3859 3.14171 22.5328C5.06037 22.3833 8.08872 22.3211 11.9428 22.8042C11.9312 22.7009 11.9241 22.597 11.9241 22.4905C11.9241 22.1242 11.9967 21.7752 12.1265 21.4544C5.07001 20.5704 0.7225 21.4762 0.527807 21.5179C0.239944 21.5801 0.0266156 21.8226 0.0021986 22.1158C-0.0215758 22.4084 0.149342 22.6829 0.423712 22.7907C7.60102 25.625 12.2017 30.4987 14.0972 37.2765C14.6832 39.373 14.9062 41.3387 14.9653 42.9291C15.3065 42.7789 15.6824 42.6949 16.0782 42.6949C16.1459 42.6949 16.2126 42.6996 16.2792 42.7043L16.3012 42.7058C16.4869 42.7212 16.6674 42.7539 16.8409 42.804C17.4205 40.6805 18.4679 37.8071 20.3647 34.3832C21.91 31.5932 23.7484 28.9225 25.7743 26.3839C27.9834 27.2481 30.2889 28.2919 32.6702 29.5512C32.8173 29.1188 33.0673 28.7345 33.3924 28.4266C31.0568 27.1865 28.8053 26.153 26.6617 25.294C33.0782 17.577 41.1673 11.1514 47.9964 6.48361C47.4849 7.80965 46.852 9.73746 46.3058 12.2516C46.3208 12.2511 46.3355 12.25 46.3503 12.2489C46.371 12.2474 46.3918 12.2458 46.4131 12.2458C46.8494 12.2458 47.26 12.3498 47.6269 12.5288C47.7683 11.8783 47.9128 11.2752 48.0548 10.7338C49.0405 6.96732 50.12 4.97986 50.1303 4.96125Z" fill="white"/>
<path d="M45.4316 17.6161C45.1264 20.3574 44.9754 23.5124 45.1039 27.0736C43.9518 27.3026 41.2004 27.9127 37.7345 29.104C37.9497 29.4954 38.0737 29.9438 38.0769 30.4198C42.5273 28.8776 45.821 28.2951 45.9064 28.281C46.2393 28.2245 46.4777 27.93 46.4622 27.5939C46.2977 23.8486 46.4584 20.5614 46.7713 17.7707C46.6524 17.7861 46.5329 17.797 46.4089 17.797C46.0645 17.797 45.7368 17.731 45.4316 17.6161Z" fill="white"/>
<path d="M32.9957 36.506C36.8992 35.8375 40.3747 35.7464 42.4919 35.7766C40.7615 34.4916 39.053 33.3285 37.3734 32.2738C37.6689 31.9396 37.8855 31.5354 37.9934 31.0883C40.2751 32.5157 42.6147 34.1445 44.994 36.0043C45.226 36.1859 45.3115 36.4983 45.2042 36.7735C45.0962 37.0475 44.8199 37.2181 44.5256 37.1944C44.3406 37.1796 27.622 35.9068 18.5684 44.2596C18.3699 43.8535 18.0762 43.5032 17.7151 43.237C17.5249 43.0971 17.3161 42.9797 17.0925 42.8912C21.298 37.1488 27.5404 33.4036 32.605 31.1274C32.7226 31.5803 32.9494 31.9884 33.2591 32.3207C28.7169 34.3518 23.7892 37.2861 20.0116 41.4195C23.4203 39.0664 27.7993 37.3958 32.9957 36.506Z" fill="white"/>
<path d="M45.0253 14.3615C45.123 14.1614 45.2618 13.9856 45.4314 13.8438C45.7007 13.6174 46.0431 13.4756 46.4216 13.4756C47.2756 13.4756 47.9702 14.1697 47.9702 15.0217C47.9702 15.0878 47.9644 15.1526 47.956 15.2154C47.9464 15.2789 47.9335 15.3405 47.9175 15.4021C47.7973 15.8724 47.4651 16.2598 47.0243 16.4459C46.8386 16.5248 46.6356 16.5678 46.4216 16.5678C46.1016 16.5678 45.8035 16.4703 45.5561 16.3035C45.1963 16.0603 44.9437 15.6696 44.8859 15.2186C44.8782 15.1538 44.8737 15.0884 44.8737 15.0217C44.8737 14.785 44.9283 14.5611 45.0253 14.3615Z" fill="white"/>
<path d="M14.3962 24.0043C14.4971 24.0248 14.6012 24.0357 14.7078 24.0357C15.5611 24.0357 16.2564 23.3416 16.2564 22.4896C16.2564 21.637 15.5611 20.9435 14.7078 20.9435C13.8539 20.9435 13.1599 21.637 13.1599 22.4896C13.1599 23.2351 13.6913 23.8593 14.3962 24.0043Z" fill="white"/>
<path d="M35.2872 28.8914C34.9441 28.8914 34.6306 29.0069 34.3735 29.1962C34.0388 29.4425 33.8036 29.8172 33.7503 30.2489C33.7432 30.3105 33.7387 30.374 33.7387 30.4375C33.7387 31.0765 34.1294 31.6269 34.6852 31.8617C34.8702 31.94 35.0739 31.9836 35.2872 31.9836C35.3939 31.9836 35.498 31.9727 35.5989 31.9522C36.3038 31.8078 36.8352 31.1836 36.8352 30.4375C36.8352 29.5849 36.1412 28.8914 35.2872 28.8914Z" fill="white"/>
<path d="M17.1673 44.3773C17.1597 44.3694 17.1506 44.3625 17.1415 44.3557C17.1337 44.3499 17.1259 44.3441 17.1191 44.3376C16.9887 44.2176 16.8409 44.1162 16.6751 44.0457C16.4901 43.9674 16.2864 43.9238 16.0731 43.9238C15.2197 43.9238 14.5251 44.6179 14.5251 45.4705C14.5251 46.003 14.7963 46.4739 15.2082 46.7517C15.2904 46.8075 15.3785 46.8556 15.471 46.8947C15.656 46.973 15.8597 47.016 16.0731 47.016C16.4817 47.016 16.8538 46.8575 17.1307 46.5983C17.1705 46.5611 17.2078 46.522 17.2431 46.4816C17.2843 46.4347 17.3215 46.3853 17.3569 46.334C17.5239 46.087 17.6216 45.79 17.6216 45.4705C17.6216 45.0625 17.4597 44.6943 17.2007 44.4171C17.1947 44.4111 17.1896 44.4045 17.1845 44.3977C17.1792 44.3908 17.1738 44.3838 17.1673 44.3773Z" fill="white"/>
<path d="M69.0453 18.1936C68.1727 18.1936 67.4621 18.9025 67.4621 19.7743C67.4621 20.6462 68.1727 21.3551 69.0453 21.3551C69.9186 21.3551 70.6286 20.6462 70.6286 19.7743C70.6286 18.9025 69.9186 18.1936 69.0453 18.1936Z" fill="white"/>
<path fill-rule="evenodd" clip-rule="evenodd" d="M65.9768 23.8612V22.455H62.4318C62.3226 22.4306 62.0733 22.3927 61.682 22.3414C61.2913 22.2901 60.9533 22.2638 60.6687 22.2638C59.3296 22.2638 58.2989 22.5672 57.578 23.1715C56.8571 23.7765 56.4966 24.633 56.4966 25.7396C56.4966 26.4292 56.6527 27.0284 56.965 27.5365C57.2773 28.0446 57.6994 28.4135 58.2328 28.6438C57.8087 28.8914 57.4842 29.1442 57.2599 29.4015C57.0363 29.6587 56.9239 29.9808 56.9239 30.3676C56.9239 30.6762 57.0299 30.9681 57.2419 31.2433C57.454 31.5192 57.7027 31.7167 57.9873 31.838C57.2484 32.0131 56.6881 32.307 56.3058 32.7182C55.9241 33.1288 55.7332 33.6401 55.7332 34.2514C55.7332 35.1406 56.1072 35.8315 56.8558 36.3249C57.6037 36.8176 58.687 37.0646 60.1052 37.0646C61.9596 37.0646 63.3815 36.738 64.3723 36.0843C65.3632 35.4312 65.8579 34.5113 65.8579 33.3264C65.8579 32.4006 65.5656 31.6988 64.9815 31.2208C64.3968 30.7429 63.5467 30.5036 62.4318 30.5036H60.7053C59.6869 30.5036 59.178 30.3041 59.178 29.9051C59.178 29.6388 59.32 29.397 59.6053 29.1788L60.0139 29.2244L60.5138 29.2513C61.8651 29.2513 62.9215 28.9473 63.6816 28.3397C64.4417 27.7316 64.8221 26.8834 64.8221 25.7941C64.8221 25.2315 64.6769 24.7234 64.3858 24.2698L65.9768 23.8612ZM59.5185 27.083C59.2673 26.7622 59.142 26.3266 59.142 25.7762C59.142 24.554 59.6509 23.9433 60.6687 23.9433C61.6743 23.9433 62.1774 24.554 62.1774 25.7762C62.1774 26.3266 62.0559 26.7622 61.8137 27.083C61.5715 27.4037 61.1898 27.5641 60.6687 27.5641C60.1534 27.5641 59.7704 27.4037 59.5185 27.083ZM58.6825 34.9321C58.3163 34.7146 58.1332 34.415 58.1332 34.034C58.1332 33.6401 58.3041 33.3244 58.6466 33.0858C58.9884 32.8465 59.4144 32.7272 59.9233 32.7272H61.3594C62.0559 32.7272 62.5713 32.7997 62.9041 32.9446C63.2376 33.0903 63.4047 33.3533 63.4047 33.7344C63.4047 34.2065 63.1226 34.578 62.5591 34.8506C61.9955 35.1226 61.2168 35.2586 60.2234 35.2586C59.5622 35.2586 59.0488 35.1496 58.6825 34.9321Z" fill="white"/>
<path d="M70.4327 22.4561H67.6614V32.6013H70.4327V22.4561Z" fill="white"/>
<path fill-rule="evenodd" clip-rule="evenodd" d="M82.1691 23.8612V22.455H78.6241C78.5149 22.4306 78.2656 22.3927 77.8743 22.3414C77.4836 22.2901 77.1456 22.2638 76.861 22.2638C75.5219 22.2638 74.4912 22.5672 73.7703 23.1715C73.0494 23.7765 72.6895 24.633 72.6895 25.7396C72.6895 26.4292 72.845 27.0284 73.1573 27.5365C73.4696 28.0446 73.8917 28.4135 74.4251 28.6438C74.001 28.8914 73.6771 29.1442 73.4522 29.4015C73.2286 29.6587 73.1168 29.9808 73.1168 30.3676C73.1168 30.6762 73.2228 30.9681 73.4349 31.2433C73.6463 31.5192 73.895 31.7167 74.1796 31.838C73.4407 32.0131 72.8804 32.307 72.4987 32.7182C72.1164 33.1288 71.9255 33.6401 71.9255 34.2514C71.9255 35.1406 72.2995 35.8315 73.0481 36.3249C73.796 36.8176 74.8793 37.0646 76.2975 37.0646C78.1519 37.0646 79.5745 36.738 80.5646 36.0843C81.5555 35.4312 82.0509 34.5113 82.0509 33.3264C82.0509 32.4006 81.7585 31.6988 81.1738 31.2208C80.5891 30.7429 79.739 30.5036 78.6241 30.5036H76.8976C75.8798 30.5036 75.3709 30.3041 75.3709 29.9051C75.3709 29.6388 75.5123 29.397 75.7976 29.1788L76.2062 29.2244L76.7068 29.2513C78.0574 29.2513 79.1138 28.9473 79.8739 28.3397C80.634 27.7316 81.0144 26.8834 81.0144 25.7941C81.0144 25.2315 80.8692 24.7234 80.5781 24.2698L82.1691 23.8612ZM75.7114 27.083C75.4596 26.7622 75.3343 26.3266 75.3343 25.7762C75.3343 24.554 75.8432 23.9433 76.861 23.9433C77.8666 23.9433 78.3703 24.554 78.3703 25.7762C78.3703 26.3266 78.2482 26.7622 78.006 27.083C77.7638 27.4037 77.3821 27.5641 76.861 27.5641C76.3456 27.5641 75.9633 27.4037 75.7114 27.083ZM74.8748 34.9321C74.5086 34.7146 74.3255 34.415 74.3255 34.034C74.3255 33.6401 74.4964 33.3244 74.8389 33.0858C75.1813 32.8465 75.6067 32.7272 76.1156 32.7272H77.5517C78.2482 32.7272 78.7636 32.7997 79.0964 32.9446C79.4299 33.0903 79.597 33.3533 79.597 33.7344C79.597 34.2065 79.3149 34.578 78.7514 34.8506C78.1878 35.1226 77.4091 35.2586 76.4157 35.2586C75.7551 35.2586 75.2411 35.1496 74.8748 34.9321Z" fill="white"/>
<path fill-rule="evenodd" clip-rule="evenodd" d="M90.2963 32.6005L89.7598 31.2212H89.6872C89.2213 31.8082 88.7407 32.2149 88.2472 32.442C87.7531 32.6685 87.1093 32.782 86.3157 32.782C85.3403 32.782 84.5718 32.5036 84.0115 31.9474C83.4512 31.3906 83.1711 30.5983 83.1711 29.5699C83.1711 28.4927 83.5482 27.6992 84.3019 27.1879C85.0569 26.6766 86.1943 26.3937 87.7152 26.3391L89.4783 26.2846V25.84C89.4783 24.8116 88.9514 24.2978 87.897 24.2978C87.0848 24.2978 86.1307 24.5428 85.0338 25.0323L84.1162 23.1635C85.2857 22.5522 86.5817 22.2468 88.0063 22.2468C89.3691 22.2468 90.4145 22.5432 91.1419 23.1359C91.8693 23.7294 92.2323 24.6301 92.2323 25.84V32.6005H90.2963ZM89.4783 27.9L88.4059 27.9365C87.6002 27.9609 87.0007 28.1059 86.6061 28.3721C86.2122 28.6384 86.0156 29.0438 86.0156 29.5878C86.0156 30.3686 86.4641 30.7586 87.3605 30.7586C88.003 30.7586 88.5164 30.5739 88.9013 30.205C89.2856 29.8361 89.4783 29.346 89.4783 28.7346V27.9Z" fill="white"/>
</svg>
