<?xml version="1.0" encoding="UTF-8" standalone="no"?>
<!DOCTYPE svg PUBLIC "-//W3C//DTD SVG 1.1//EN" "http://www.w3.org/Graphics/SVG/1.1/DTD/svg11.dtd">
<svg width="100%" height="100%" viewBox="0 0 201 126" version="1.1" xmlns="http://www.w3.org/2000/svg" xmlns:xlink="http://www.w3.org/1999/xlink" xml:space="preserve" xmlns:serif="http://www.serif.com/" style="fill-rule:evenodd;clip-rule:evenodd;stroke-linejoin:round;stroke-miterlimit:2;">
    <path d="M200.806,74.445C200.806,102.611 177.748,125.445 149.306,125.445C120.863,125.445 97.806,102.611 97.806,74.445C97.806,46.278 120.863,23.445 149.306,23.445C177.748,23.445 200.806,46.278 200.806,74.445ZM105.531,74.445C105.531,98.386 125.129,117.795 149.306,117.795C173.482,117.795 193.081,98.386 193.081,74.445C193.081,50.503 173.482,31.095 149.306,31.095C125.129,31.095 105.531,50.503 105.531,74.445Z" style="fill-opacity:0.1;fill-rule:nonzero;"/>
    <path d="M149.306,23.445C157.433,23.445 165.445,25.35 172.686,29.004C179.928,32.657 186.193,37.957 190.97,44.468C195.747,50.979 198.9,58.517 200.172,66.467C201.443,74.416 200.797,82.55 198.285,90.205C195.774,97.859 191.468,104.816 185.722,110.507C179.975,116.198 172.95,120.462 165.22,122.949C157.491,125.436 149.276,126.076 141.249,124.817C133.222,123.558 125.61,120.435 119.035,115.705L123.575,109.516C129.164,113.537 135.635,116.191 142.458,117.261C149.281,118.331 156.263,117.787 162.833,115.673C169.403,113.559 175.374,109.935 180.259,105.098C185.144,100.261 188.803,94.347 190.938,87.841C193.073,81.334 193.622,74.42 192.542,67.663C191.461,60.907 188.781,54.499 184.72,48.964C180.66,43.43 175.334,38.926 169.179,35.82C163.024,32.714 156.214,31.095 149.306,31.095L149.306,23.445Z" style="fill:rgb(111,166,254);fill-rule:nonzero;"/>
    <ellipse cx="149.306" cy="74.445" rx="34.333" ry="34" style="fill:rgb(249,75,75);"/>
    <path d="M149.306,40.445C155.729,40.445 162.024,42.229 167.474,45.596C172.925,48.962 177.312,53.774 180.138,59.487C182.964,65.199 184.115,71.582 183.461,77.91C182.806,84.238 180.372,90.257 176.435,95.284C172.498,100.31 167.216,104.142 161.189,106.343C155.163,108.545 148.634,109.028 142.344,107.738C136.054,106.448 130.255,103.437 125.607,99.046C120.96,94.655 117.649,89.062 116.051,82.9L149.306,74.445L149.306,40.445Z" style="fill:rgb(249,75,75);fill-rule:nonzero;"/>
    <path d="M149.306,40.445C154.998,40.445 160.6,41.846 165.609,44.523C170.619,47.199 174.877,51.067 178.002,55.778C181.127,60.489 183.02,65.896 183.511,71.511C184.002,77.127 183.076,82.775 180.816,87.948C178.555,93.121 175.031,97.656 170.562,101.146C166.092,104.635 160.816,106.969 155.209,107.939C149.602,108.908 143.84,108.481 138.44,106.697C133.041,104.913 128.174,101.828 124.278,97.719L149.306,74.445L149.306,40.445Z" style="fill:rgb(255,159,64);fill-rule:nonzero;"/>
    <path d="M149.306,40.445C153.815,40.445 158.279,41.324 162.445,43.033C166.61,44.742 170.395,47.246 173.583,50.403C176.771,53.56 179.3,57.309 181.026,61.434C182.751,65.559 183.639,69.98 183.639,74.445L149.306,74.445L149.306,40.445Z" style="fill:rgb(70,198,109);fill-rule:nonzero;"/>
    <path d="M99.032,73.975L66.052,73.975L66.052,74.975L99.032,74.975C99.266,76.209 100.35,77.142 101.652,77.142C103.125,77.142 104.319,75.948 104.319,74.475C104.319,73.002 103.125,71.809 101.652,71.809C100.35,71.809 99.266,72.741 99.032,73.975ZM136.836,64.067L97.396,24.627L96.689,25.334L136.129,64.774C135.838,65.201 135.668,65.717 135.668,66.272C135.668,67.745 136.862,68.939 138.335,68.939C139.807,68.939 141.001,67.745 141.001,66.272C141.001,64.8 139.807,63.606 138.335,63.606C137.779,63.606 137.263,63.776 136.836,64.067Z" style="fill:rgb(95,95,95);fill-rule:nonzero;"/>
    <path d="M3.615,68.945C4.721,68.945 5.527,69.171 6.035,69.625C6.543,70.078 6.797,70.712 6.797,71.529C6.797,71.9 6.738,72.253 6.621,72.589C6.508,72.921 6.32,73.216 6.059,73.474C5.797,73.728 5.451,73.929 5.021,74.078C4.596,74.226 4.07,74.3 3.445,74.3L2.531,74.3L2.531,77.511L1.125,77.511L1.125,68.945L3.615,68.945ZM3.521,70.111L2.531,70.111L2.531,73.128L3.299,73.128C3.74,73.128 4.115,73.078 4.424,72.976C4.732,72.871 4.967,72.705 5.127,72.478C5.287,72.251 5.367,71.953 5.367,71.582C5.367,71.085 5.217,70.716 4.916,70.474C4.619,70.232 4.154,70.111 3.521,70.111ZM11.126,70.902C11.947,70.902 12.566,71.084 12.984,71.447C13.406,71.81 13.616,72.376 13.616,73.146L13.616,77.511L12.638,77.511L12.374,76.591L12.327,76.591C12.144,76.826 11.954,77.019 11.759,77.171C11.564,77.324 11.337,77.437 11.079,77.511C10.825,77.589 10.515,77.628 10.148,77.628C9.761,77.628 9.415,77.558 9.111,77.418C8.806,77.273 8.566,77.054 8.39,76.761C8.214,76.468 8.126,76.097 8.126,75.648C8.126,74.98 8.374,74.478 8.87,74.142C9.37,73.806 10.124,73.621 11.132,73.585L12.257,73.544L12.257,73.205C12.257,72.755 12.152,72.435 11.941,72.244C11.734,72.052 11.441,71.957 11.062,71.957C10.738,71.957 10.423,72.003 10.118,72.097C9.814,72.191 9.517,72.306 9.228,72.443L8.782,71.47C9.099,71.302 9.458,71.166 9.861,71.06C10.267,70.955 10.689,70.902 11.126,70.902ZM12.251,74.412L11.413,74.441C10.726,74.464 10.243,74.582 9.966,74.793C9.689,75.003 9.55,75.293 9.55,75.66C9.55,75.98 9.646,76.214 9.837,76.363C10.029,76.507 10.281,76.58 10.593,76.58C11.07,76.58 11.464,76.445 11.777,76.175C12.093,75.902 12.251,75.501 12.251,74.974L12.251,74.412ZM14.782,71.025L16.282,71.025L17.612,74.728C17.67,74.896 17.723,75.062 17.77,75.226C17.821,75.386 17.864,75.544 17.899,75.701C17.938,75.857 17.969,76.013 17.993,76.169L18.028,76.169C18.067,75.966 18.122,75.74 18.192,75.49C18.266,75.236 18.348,74.982 18.438,74.728L19.715,71.025L21.198,71.025L18.414,78.402C18.254,78.824 18.057,79.183 17.823,79.48C17.592,79.781 17.319,80.007 17.002,80.16C16.686,80.316 16.325,80.394 15.918,80.394C15.723,80.394 15.553,80.382 15.409,80.359C15.264,80.339 15.141,80.318 15.039,80.294L15.039,79.193C15.121,79.212 15.225,79.23 15.35,79.246C15.475,79.261 15.604,79.269 15.737,79.269C15.983,79.269 16.196,79.22 16.375,79.123C16.555,79.025 16.707,78.886 16.832,78.707C16.957,78.531 17.061,78.33 17.143,78.103L17.372,77.494L14.782,71.025ZM29.728,70.902C30.455,70.902 31.002,71.089 31.369,71.464C31.74,71.839 31.925,72.441 31.925,73.269L31.925,77.511L30.548,77.511L30.548,73.515C30.548,73.023 30.453,72.652 30.261,72.402C30.07,72.152 29.779,72.027 29.388,72.027C28.841,72.027 28.447,72.203 28.205,72.554C27.966,72.902 27.847,73.408 27.847,74.072L27.847,77.511L26.47,77.511L26.47,73.515C26.47,73.187 26.427,72.914 26.341,72.695C26.259,72.472 26.132,72.306 25.961,72.197C25.789,72.084 25.572,72.027 25.31,72.027C24.931,72.027 24.629,72.113 24.402,72.285C24.179,72.457 24.019,72.71 23.921,73.046C23.824,73.378 23.775,73.787 23.775,74.271L23.775,77.511L22.398,77.511L22.398,71.025L23.47,71.025L23.664,71.898L23.74,71.898C23.873,71.671 24.037,71.486 24.232,71.341C24.431,71.193 24.652,71.084 24.894,71.013C25.136,70.939 25.388,70.902 25.65,70.902C26.134,70.902 26.543,70.988 26.875,71.16C27.207,71.328 27.455,71.585 27.619,71.933L27.724,71.933C27.927,71.582 28.211,71.322 28.574,71.154C28.937,70.986 29.322,70.902 29.728,70.902ZM36.647,70.902C37.225,70.902 37.721,71.021 38.136,71.259C38.55,71.498 38.868,71.835 39.091,72.273C39.313,72.71 39.425,73.234 39.425,73.843L39.425,74.582L35.094,74.582C35.11,75.21 35.278,75.695 35.598,76.035C35.923,76.375 36.376,76.544 36.958,76.544C37.372,76.544 37.743,76.505 38.071,76.427C38.403,76.345 38.745,76.226 39.096,76.07L39.096,77.189C38.772,77.341 38.442,77.453 38.106,77.523C37.77,77.593 37.368,77.628 36.899,77.628C36.262,77.628 35.702,77.505 35.218,77.259C34.737,77.009 34.36,76.638 34.087,76.146C33.817,75.654 33.682,75.043 33.682,74.312C33.682,73.585 33.805,72.968 34.052,72.46C34.298,71.953 34.643,71.566 35.089,71.3C35.534,71.035 36.054,70.902 36.647,70.902ZM36.647,71.939C36.214,71.939 35.862,72.08 35.593,72.361C35.327,72.642 35.171,73.054 35.124,73.597L38.077,73.597C38.073,73.273 38.018,72.986 37.913,72.736C37.811,72.486 37.655,72.291 37.444,72.15C37.237,72.009 36.971,71.939 36.647,71.939ZM44.574,70.902C45.305,70.902 45.873,71.091 46.279,71.47C46.689,71.845 46.895,72.449 46.895,73.281L46.895,77.511L45.518,77.511L45.518,73.539C45.518,73.035 45.414,72.658 45.207,72.408C45,72.154 44.68,72.027 44.246,72.027C43.617,72.027 43.18,72.22 42.934,72.607C42.691,72.994 42.57,73.554 42.57,74.289L42.57,77.511L41.193,77.511L41.193,71.025L42.266,71.025L42.459,71.904L42.535,71.904C42.676,71.677 42.85,71.492 43.057,71.347C43.268,71.199 43.502,71.087 43.76,71.013C44.021,70.939 44.293,70.902 44.574,70.902ZM51.452,76.515C51.632,76.515 51.81,76.5 51.986,76.468C52.161,76.433 52.321,76.392 52.466,76.345L52.466,77.388C52.314,77.455 52.116,77.511 51.874,77.558C51.632,77.605 51.38,77.628 51.118,77.628C50.751,77.628 50.421,77.568 50.128,77.447C49.835,77.322 49.603,77.109 49.431,76.808C49.259,76.507 49.173,76.091 49.173,75.56L49.173,72.074L48.288,72.074L48.288,71.459L49.237,70.972L49.689,69.584L50.556,69.584L50.556,71.025L52.413,71.025L52.413,72.074L50.556,72.074L50.556,75.543C50.556,75.871 50.638,76.115 50.802,76.275C50.966,76.435 51.183,76.515 51.452,76.515ZM58.36,75.66C58.36,76.085 58.256,76.445 58.049,76.738C57.842,77.031 57.539,77.253 57.141,77.406C56.746,77.554 56.262,77.628 55.688,77.628C55.235,77.628 54.844,77.595 54.516,77.529C54.192,77.466 53.885,77.369 53.596,77.236L53.596,76.046C53.905,76.191 54.25,76.316 54.633,76.421C55.02,76.527 55.385,76.58 55.729,76.58C56.182,76.58 56.508,76.509 56.707,76.369C56.907,76.224 57.006,76.033 57.006,75.794C57.006,75.654 56.965,75.529 56.883,75.419C56.805,75.306 56.657,75.191 56.438,75.074C56.223,74.953 55.907,74.808 55.489,74.64C55.078,74.476 54.733,74.312 54.452,74.148C54.17,73.984 53.957,73.787 53.813,73.556C53.668,73.322 53.596,73.023 53.596,72.66C53.596,72.085 53.823,71.65 54.276,71.353C54.733,71.052 55.336,70.902 56.086,70.902C56.485,70.902 56.86,70.943 57.211,71.025C57.567,71.103 57.914,71.218 58.254,71.371L57.821,72.408C57.528,72.279 57.233,72.173 56.936,72.091C56.643,72.005 56.344,71.962 56.039,71.962C55.684,71.962 55.412,72.017 55.225,72.126C55.041,72.236 54.95,72.392 54.95,72.595C54.95,72.748 54.994,72.876 55.084,72.982C55.174,73.087 55.328,73.193 55.547,73.298C55.77,73.404 56.078,73.535 56.473,73.691C56.86,73.839 57.194,73.996 57.475,74.16C57.76,74.32 57.979,74.517 58.131,74.751C58.283,74.986 58.36,75.289 58.36,75.66Z" style="fill:rgb(116,116,116);fill-rule:nonzero;"/>
    <path d="M6.07,12.168C6.07,12.676 5.945,13.113 5.695,13.48C5.449,13.848 5.094,14.129 4.629,14.324C4.168,14.52 3.617,14.617 2.977,14.617C2.664,14.617 2.365,14.6 2.08,14.565C1.795,14.529 1.525,14.479 1.271,14.412C1.021,14.342 0.793,14.258 0.586,14.16L0.586,12.836C0.934,12.988 1.322,13.127 1.752,13.252C2.182,13.373 2.619,13.434 3.064,13.434C3.428,13.434 3.729,13.387 3.967,13.293C4.209,13.195 4.389,13.059 4.506,12.883C4.623,12.703 4.682,12.494 4.682,12.256C4.682,12.002 4.613,11.787 4.477,11.611C4.34,11.436 4.133,11.275 3.855,11.131C3.582,10.982 3.238,10.824 2.824,10.656C2.543,10.543 2.273,10.414 2.016,10.27C1.762,10.125 1.535,9.955 1.336,9.76C1.137,9.564 0.979,9.334 0.861,9.068C0.748,8.799 0.691,8.482 0.691,8.119C0.691,7.635 0.807,7.221 1.037,6.877C1.271,6.533 1.6,6.27 2.021,6.086C2.447,5.902 2.943,5.811 3.51,5.811C3.959,5.811 4.381,5.857 4.775,5.951C5.174,6.045 5.564,6.178 5.947,6.35L5.502,7.48C5.15,7.336 4.809,7.221 4.477,7.135C4.148,7.049 3.813,7.006 3.469,7.006C3.172,7.006 2.92,7.051 2.713,7.141C2.506,7.23 2.348,7.357 2.238,7.521C2.133,7.682 2.08,7.873 2.08,8.096C2.08,8.346 2.141,8.557 2.262,8.729C2.387,8.896 2.578,9.051 2.836,9.191C3.098,9.332 3.434,9.488 3.844,9.66C4.316,9.855 4.717,10.061 5.045,10.275C5.377,10.49 5.631,10.748 5.807,11.049C5.982,11.346 6.07,11.719 6.07,12.168ZM10.411,14.617C9.798,14.617 9.267,14.498 8.818,14.26C8.368,14.022 8.023,13.656 7.78,13.164C7.538,12.672 7.417,12.047 7.417,11.289C7.417,10.5 7.55,9.855 7.816,9.355C8.081,8.855 8.448,8.486 8.917,8.248C9.39,8.01 9.931,7.891 10.54,7.891C10.927,7.891 11.277,7.93 11.589,8.008C11.906,8.082 12.173,8.174 12.392,8.283L11.982,9.385C11.743,9.287 11.499,9.205 11.249,9.139C10.999,9.072 10.759,9.039 10.528,9.039C10.15,9.039 9.833,9.123 9.579,9.291C9.329,9.459 9.142,9.709 9.017,10.041C8.896,10.373 8.835,10.785 8.835,11.277C8.835,11.754 8.898,12.156 9.023,12.484C9.148,12.809 9.333,13.055 9.579,13.223C9.825,13.387 10.128,13.469 10.488,13.469C10.843,13.469 11.161,13.426 11.443,13.34C11.724,13.254 11.989,13.143 12.239,13.006L12.239,14.201C11.993,14.342 11.73,14.445 11.448,14.512C11.167,14.582 10.822,14.617 10.411,14.617ZM15.356,5.383L15.356,7.674C15.356,7.912 15.348,8.145 15.332,8.371C15.321,8.598 15.307,8.773 15.291,8.898L15.368,8.898C15.504,8.672 15.672,8.486 15.871,8.342C16.071,8.193 16.293,8.082 16.539,8.008C16.789,7.934 17.055,7.896 17.336,7.896C17.832,7.896 18.254,7.98 18.602,8.148C18.95,8.313 19.215,8.568 19.399,8.916C19.586,9.264 19.68,9.715 19.68,10.27L19.68,14.5L18.303,14.5L18.303,10.527C18.303,10.023 18.2,9.646 17.993,9.396C17.786,9.143 17.465,9.016 17.032,9.016C16.614,9.016 16.282,9.104 16.035,9.279C15.793,9.451 15.62,9.707 15.514,10.047C15.409,10.383 15.356,10.793 15.356,11.277L15.356,14.5L13.979,14.5L13.979,5.383L15.356,5.383ZM27.566,11.242C27.566,11.781 27.496,12.26 27.355,12.678C27.214,13.096 27.009,13.449 26.74,13.738C26.47,14.023 26.146,14.242 25.767,14.395C25.388,14.543 24.961,14.617 24.484,14.617C24.039,14.617 23.63,14.543 23.259,14.395C22.888,14.242 22.566,14.023 22.293,13.738C22.023,13.449 21.814,13.096 21.666,12.678C21.517,12.26 21.443,11.781 21.443,11.242C21.443,10.527 21.566,9.922 21.812,9.426C22.062,8.926 22.418,8.545 22.879,8.283C23.339,8.021 23.888,7.891 24.525,7.891C25.123,7.891 25.65,8.021 26.107,8.283C26.564,8.545 26.921,8.926 27.179,9.426C27.437,9.926 27.566,10.531 27.566,11.242ZM22.861,11.242C22.861,11.715 22.918,12.119 23.031,12.455C23.148,12.791 23.328,13.049 23.57,13.229C23.812,13.404 24.125,13.492 24.507,13.492C24.89,13.492 25.203,13.404 25.445,13.229C25.687,13.049 25.865,12.791 25.978,12.455C26.091,12.119 26.148,11.715 26.148,11.242C26.148,10.77 26.091,10.369 25.978,10.041C25.865,9.709 25.687,9.457 25.445,9.285C25.203,9.109 24.888,9.021 24.502,9.021C23.931,9.021 23.515,9.213 23.254,9.596C22.992,9.979 22.861,10.527 22.861,11.242ZM35.106,11.242C35.106,11.781 35.036,12.26 34.895,12.678C34.755,13.096 34.55,13.449 34.28,13.738C34.011,14.023 33.686,14.242 33.307,14.395C32.929,14.543 32.501,14.617 32.024,14.617C31.579,14.617 31.171,14.543 30.799,14.395C30.429,14.242 30.106,14.023 29.833,13.738C29.563,13.449 29.354,13.096 29.206,12.678C29.057,12.26 28.983,11.781 28.983,11.242C28.983,10.527 29.106,9.922 29.352,9.426C29.602,8.926 29.958,8.545 30.419,8.283C30.88,8.021 31.429,7.891 32.065,7.891C32.663,7.891 33.19,8.021 33.647,8.283C34.104,8.545 34.462,8.926 34.719,9.426C34.977,9.926 35.106,10.531 35.106,11.242ZM30.401,11.242C30.401,11.715 30.458,12.119 30.571,12.455C30.688,12.791 30.868,13.049 31.11,13.229C31.352,13.404 31.665,13.492 32.048,13.492C32.43,13.492 32.743,13.404 32.985,13.229C33.227,13.049 33.405,12.791 33.518,12.455C33.632,12.119 33.688,11.715 33.688,11.242C33.688,10.77 33.632,10.369 33.518,10.041C33.405,9.709 33.227,9.457 32.985,9.285C32.743,9.109 32.429,9.021 32.042,9.021C31.471,9.021 31.055,9.213 30.794,9.596C30.532,9.979 30.401,10.527 30.401,11.242ZM38.287,14.5L36.904,14.5L36.904,5.383L38.287,5.383L38.287,14.5ZM44.831,12.648C44.831,13.074 44.728,13.434 44.521,13.727C44.314,14.02 44.011,14.242 43.612,14.395C43.218,14.543 42.734,14.617 42.159,14.617C41.706,14.617 41.316,14.584 40.987,14.518C40.663,14.455 40.356,14.357 40.068,14.225L40.068,13.035C40.376,13.18 40.722,13.305 41.105,13.41C41.491,13.516 41.856,13.568 42.2,13.568C42.653,13.568 42.98,13.498 43.179,13.357C43.378,13.213 43.478,13.022 43.478,12.783C43.478,12.643 43.437,12.518 43.355,12.408C43.277,12.295 43.128,12.18 42.909,12.063C42.694,11.941 42.378,11.797 41.96,11.629C41.55,11.465 41.204,11.301 40.923,11.137C40.642,10.973 40.429,10.775 40.284,10.545C40.14,10.311 40.068,10.012 40.068,9.648C40.068,9.074 40.294,8.639 40.747,8.342C41.204,8.041 41.808,7.891 42.558,7.891C42.956,7.891 43.331,7.932 43.683,8.014C44.038,8.092 44.386,8.207 44.726,8.359L44.292,9.396C43.999,9.268 43.704,9.162 43.407,9.08C43.114,8.994 42.816,8.951 42.511,8.951C42.155,8.951 41.884,9.006 41.696,9.115C41.513,9.225 41.421,9.381 41.421,9.584C41.421,9.736 41.466,9.865 41.556,9.971C41.646,10.076 41.8,10.182 42.019,10.287C42.241,10.393 42.55,10.523 42.944,10.68C43.331,10.828 43.665,10.984 43.946,11.148C44.231,11.309 44.45,11.506 44.603,11.74C44.755,11.975 44.831,12.277 44.831,12.648ZM53.66,7.006C53.25,7.006 52.882,7.08 52.558,7.229C52.238,7.377 51.966,7.592 51.744,7.873C51.521,8.15 51.351,8.488 51.234,8.887C51.117,9.281 51.058,9.727 51.058,10.223C51.058,10.887 51.152,11.459 51.339,11.94C51.527,12.416 51.812,12.783 52.195,13.041C52.578,13.295 53.062,13.422 53.648,13.422C54.011,13.422 54.365,13.387 54.709,13.316C55.052,13.246 55.408,13.15 55.775,13.029L55.775,14.225C55.427,14.361 55.076,14.461 54.72,14.523C54.365,14.586 53.955,14.617 53.49,14.617C52.615,14.617 51.888,14.435 51.31,14.072C50.736,13.709 50.306,13.197 50.021,12.537C49.74,11.877 49.599,11.104 49.599,10.217C49.599,9.568 49.689,8.975 49.869,8.436C50.048,7.896 50.31,7.432 50.654,7.041C50.998,6.646 51.421,6.344 51.925,6.133C52.433,5.918 53.013,5.811 53.666,5.811C54.095,5.811 54.517,5.859 54.931,5.957C55.349,6.051 55.736,6.186 56.091,6.361L55.599,7.521C55.302,7.381 54.992,7.26 54.667,7.158C54.343,7.057 54.007,7.006 53.66,7.006ZM63.432,11.242C63.432,11.781 63.362,12.26 63.221,12.678C63.081,13.096 62.876,13.449 62.606,13.738C62.337,14.023 62.012,14.242 61.634,14.395C61.255,14.543 60.827,14.617 60.35,14.617C59.905,14.617 59.497,14.543 59.126,14.395C58.755,14.242 58.432,14.023 58.159,13.738C57.889,13.449 57.68,13.096 57.532,12.678C57.384,12.26 57.309,11.781 57.309,11.242C57.309,10.527 57.432,9.922 57.678,9.426C57.928,8.926 58.284,8.545 58.745,8.283C59.206,8.021 59.755,7.891 60.391,7.891C60.989,7.891 61.516,8.021 61.973,8.283C62.43,8.545 62.788,8.926 63.046,9.426C63.303,9.926 63.432,10.531 63.432,11.242ZM58.727,11.242C58.727,11.715 58.784,12.119 58.897,12.455C59.014,12.791 59.194,13.049 59.436,13.229C59.678,13.404 59.991,13.492 60.374,13.492C60.757,13.492 61.069,13.404 61.311,13.229C61.553,13.049 61.731,12.791 61.844,12.455C61.958,12.119 62.014,11.715 62.014,11.242C62.014,10.77 61.958,10.369 61.844,10.041C61.731,9.709 61.553,9.457 61.311,9.285C61.069,9.109 60.755,9.021 60.368,9.021C59.798,9.021 59.382,9.213 59.12,9.596C58.858,9.979 58.727,10.527 58.727,11.242ZM68.611,7.891C69.342,7.891 69.91,8.08 70.316,8.459C70.726,8.834 70.932,9.438 70.932,10.27L70.932,14.5L69.555,14.5L69.555,10.527C69.555,10.023 69.451,9.646 69.244,9.396C69.037,9.143 68.717,9.016 68.283,9.016C67.654,9.016 67.217,9.209 66.971,9.596C66.728,9.982 66.607,10.543 66.607,11.277L66.607,14.5L65.23,14.5L65.23,8.014L66.303,8.014L66.496,8.893L66.572,8.893C66.713,8.666 66.887,8.48 67.094,8.336C67.305,8.188 67.539,8.076 67.797,8.002C68.058,7.928 68.33,7.891 68.611,7.891ZM76.456,7.891C77.187,7.891 77.755,8.08 78.161,8.459C78.571,8.834 78.776,9.438 78.776,10.27L78.776,14.5L77.399,14.5L77.399,10.527C77.399,10.023 77.296,9.646 77.089,9.396C76.882,9.143 76.562,9.016 76.128,9.016C75.499,9.016 75.062,9.209 74.816,9.596C74.573,9.982 74.452,10.543 74.452,11.277L74.452,14.5L73.075,14.5L73.075,8.014L74.147,8.014L74.341,8.893L74.417,8.893C74.558,8.666 74.732,8.48 74.939,8.336C75.149,8.188 75.384,8.076 75.642,8.002C75.903,7.928 76.175,7.891 76.456,7.891ZM83.504,7.891C84.082,7.891 84.578,8.01 84.992,8.248C85.406,8.486 85.725,8.824 85.948,9.262C86.17,9.699 86.281,10.223 86.281,10.832L86.281,11.57L81.951,11.57C81.967,12.199 82.135,12.684 82.455,13.023C82.78,13.363 83.233,13.533 83.815,13.533C84.229,13.533 84.6,13.494 84.928,13.416C85.26,13.334 85.602,13.215 85.953,13.059L85.953,14.178C85.629,14.33 85.299,14.441 84.963,14.512C84.627,14.582 84.225,14.617 83.756,14.617C83.119,14.617 82.559,14.494 82.074,14.248C81.594,13.998 81.217,13.627 80.944,13.135C80.674,12.643 80.539,12.031 80.539,11.301C80.539,10.574 80.662,9.957 80.908,9.449C81.155,8.941 81.5,8.555 81.946,8.289C82.391,8.023 82.91,7.891 83.504,7.891ZM83.504,8.928C83.071,8.928 82.719,9.068 82.449,9.35C82.184,9.631 82.028,10.043 81.981,10.586L84.934,10.586C84.93,10.262 84.875,9.975 84.77,9.725C84.668,9.475 84.512,9.279 84.301,9.139C84.094,8.998 83.828,8.928 83.504,8.928ZM90.664,14.617C90.05,14.617 89.519,14.498 89.07,14.26C88.621,14.022 88.275,13.656 88.033,13.164C87.79,12.672 87.669,12.047 87.669,11.289C87.669,10.5 87.802,9.855 88.068,9.355C88.333,8.855 88.701,8.486 89.169,8.248C89.642,8.01 90.183,7.891 90.792,7.891C91.179,7.891 91.529,7.93 91.841,8.008C92.158,8.082 92.425,8.174 92.644,8.283L92.234,9.385C91.996,9.287 91.751,9.205 91.501,9.139C91.251,9.072 91.011,9.039 90.781,9.039C90.402,9.039 90.085,9.123 89.831,9.291C89.581,9.459 89.394,9.709 89.269,10.041C89.148,10.373 89.087,10.785 89.087,11.277C89.087,11.754 89.15,12.156 89.275,12.484C89.4,12.809 89.585,13.055 89.831,13.223C90.078,13.387 90.38,13.469 90.74,13.469C91.095,13.469 91.414,13.426 91.695,13.34C91.976,13.254 92.242,13.143 92.492,13.006L92.492,14.201C92.246,14.342 91.982,14.445 91.701,14.512C91.419,14.582 91.074,14.617 90.664,14.617ZM96.645,13.504C96.825,13.504 97.003,13.488 97.178,13.457C97.354,13.422 97.514,13.381 97.659,13.334L97.659,14.377C97.506,14.443 97.309,14.5 97.067,14.547C96.825,14.594 96.573,14.617 96.311,14.617C95.944,14.617 95.614,14.557 95.321,14.435C95.028,14.31 94.796,14.098 94.624,13.797C94.452,13.496 94.366,13.08 94.366,12.549L94.366,9.063L93.481,9.063L93.481,8.447L94.43,7.961L94.881,6.572L95.749,6.572L95.749,8.014L97.606,8.014L97.606,9.063L95.749,9.063L95.749,12.531C95.749,12.859 95.831,13.104 95.995,13.264C96.159,13.424 96.376,13.504 96.645,13.504ZM100.57,8.014L100.57,14.5L99.193,14.5L99.193,8.014L100.57,8.014ZM99.89,5.529C100.101,5.529 100.283,5.586 100.435,5.699C100.592,5.813 100.67,6.008 100.67,6.285C100.67,6.559 100.592,6.754 100.435,6.871C100.283,6.984 100.101,7.041 99.89,7.041C99.672,7.041 99.486,6.984 99.334,6.871C99.185,6.754 99.111,6.559 99.111,6.285C99.111,6.008 99.185,5.813 99.334,5.699C99.486,5.586 99.672,5.529 99.89,5.529ZM104.243,14.5L101.776,8.014L103.235,8.014L104.571,11.822C104.657,12.065 104.735,12.326 104.806,12.607C104.876,12.889 104.925,13.125 104.952,13.316L104.999,13.316C105.026,13.117 105.079,12.879 105.157,12.602C105.235,12.32 105.315,12.06 105.397,11.822L106.733,8.014L108.186,8.014L105.72,14.5L104.243,14.5ZM110.764,8.014L110.764,14.5L109.387,14.5L109.387,8.014L110.764,8.014ZM110.084,5.529C110.295,5.529 110.477,5.586 110.629,5.699C110.785,5.813 110.863,6.008 110.863,6.285C110.863,6.559 110.785,6.754 110.629,6.871C110.477,6.984 110.295,7.041 110.084,7.041C109.865,7.041 109.68,6.984 109.527,6.871C109.379,6.754 109.305,6.559 109.305,6.285C109.305,6.008 109.379,5.813 109.527,5.699C109.68,5.586 109.865,5.529 110.084,5.529ZM115.368,13.504C115.548,13.504 115.726,13.488 115.902,13.457C116.077,13.422 116.238,13.381 116.382,13.334L116.382,14.377C116.23,14.443 116.033,14.5 115.79,14.547C115.548,14.594 115.296,14.617 115.034,14.617C114.667,14.617 114.337,14.557 114.044,14.435C113.751,14.31 113.519,14.098 113.347,13.797C113.175,13.496 113.089,13.08 113.089,12.549L113.089,9.063L112.204,9.063L112.204,8.447L113.154,7.961L113.605,6.572L114.472,6.572L114.472,8.014L116.329,8.014L116.329,9.063L114.472,9.063L114.472,12.531C114.472,12.859 114.554,13.104 114.718,13.264C114.882,13.424 115.099,13.504 115.368,13.504ZM116.938,8.014L118.438,8.014L119.768,11.717C119.827,11.885 119.879,12.051 119.926,12.215C119.977,12.375 120.02,12.533 120.055,12.69C120.094,12.846 120.125,13.002 120.149,13.158L120.184,13.158C120.223,12.955 120.278,12.729 120.348,12.479C120.422,12.225 120.504,11.971 120.594,11.717L121.872,8.014L123.354,8.014L120.571,15.391C120.411,15.813 120.213,16.172 119.979,16.469C119.749,16.77 119.475,16.996 119.159,17.148C118.842,17.305 118.481,17.383 118.075,17.383C117.879,17.383 117.709,17.371 117.565,17.348C117.42,17.328 117.297,17.307 117.196,17.283L117.196,16.182C117.278,16.201 117.381,16.219 117.506,16.234C117.631,16.25 117.76,16.258 117.893,16.258C118.139,16.258 118.352,16.209 118.532,16.111C118.711,16.014 118.864,15.875 118.989,15.695C119.114,15.52 119.217,15.318 119.299,15.092L119.528,14.482L116.938,8.014Z" style="fill:rgb(116,116,116);fill-rule:nonzero;"/>
</svg>
