<svg width="350" height="126" viewBox="0 0 350 126" fill="none" xmlns="http://www.w3.org/2000/svg">
<path d="M0 2C0 0.89543 0.895431 0 2 0H348C349.105 0 350 0.895431 350 2V124C350 125.105 349.105 126 348 126H2C0.895435 126 0 125.105 0 124V2Z" fill="black" fill-opacity="0.1"/>
<rect width="19" height="24" transform="translate(0 1)" fill="#FAFAFA"/>
<path d="M10.6543 18H9.27148V12.4863C9.27148 12.3027 9.27344 12.1191 9.27734 11.9355C9.28125 11.752 9.28516 11.5723 9.28906 11.3965C9.29688 11.2207 9.30664 11.0527 9.31836 10.8926C9.23633 10.9824 9.13477 11.0801 9.01367 11.1855C8.89648 11.291 8.77148 11.4004 8.63867 11.5137L7.6543 12.2988L6.96289 11.4258L9.50586 9.43359H10.6543V18Z" fill="#9E9E9E"/>
<rect width="158" height="24" transform="translate(20 1)" fill="white"/>
<path d="M34.8963 16.0312H33.6249V18H32.6932V16.0312H28.5272V15.1816L32.5936 9.38672H33.6249V15.1465H34.8963V16.0312ZM32.6932 15.1465V12.2988C32.6932 11.7402 32.7127 11.1094 32.7518 10.4062H32.7049C32.5174 10.7812 32.3417 11.0918 32.1776 11.3379L29.4999 15.1465H32.6932ZM41.253 11.4492C41.253 11.9961 41.0987 12.4434 40.7901 12.791C40.4854 13.1387 40.0518 13.3711 39.4893 13.4883V13.5352C40.1768 13.6211 40.6866 13.8398 41.0186 14.1914C41.3506 14.543 41.5166 15.0039 41.5166 15.5742C41.5166 16.3906 41.2334 17.0195 40.667 17.4609C40.1006 17.8984 39.2959 18.1172 38.253 18.1172C37.7998 18.1172 37.3838 18.082 37.0049 18.0117C36.6299 17.9453 36.2647 17.8262 35.9092 17.6543V16.7285C36.2803 16.9121 36.6748 17.0527 37.0928 17.1504C37.5147 17.2441 37.9131 17.291 38.2881 17.291C39.7686 17.291 40.5088 16.7109 40.5088 15.5508C40.5088 14.5117 39.6924 13.9922 38.0596 13.9922H37.2159V13.1543H38.0713C38.7393 13.1543 39.2686 13.0078 39.6592 12.7148C40.0498 12.418 40.2452 12.0078 40.2452 11.4844C40.2452 11.0664 40.1006 10.7383 39.8116 10.5C39.5264 10.2617 39.1377 10.1426 38.6455 10.1426C38.2705 10.1426 37.917 10.1934 37.585 10.2949C37.253 10.3965 36.8741 10.584 36.4483 10.8574L35.9561 10.2012C36.3077 9.92383 36.712 9.70703 37.169 9.55078C37.6299 9.39062 38.1143 9.31055 38.6221 9.31055C39.4541 9.31055 40.1006 9.50195 40.5616 9.88477C41.0225 10.2637 41.253 10.7852 41.253 11.4492ZM48.3362 11.4492C48.3362 11.9961 48.1819 12.4434 47.8733 12.791C47.5686 13.1387 47.135 13.3711 46.5725 13.4883V13.5352C47.26 13.6211 47.7697 13.8398 48.1018 14.1914C48.4338 14.543 48.5998 15.0039 48.5998 15.5742C48.5998 16.3906 48.3166 17.0195 47.7502 17.4609C47.1838 17.8984 46.3791 18.1172 45.3362 18.1172C44.883 18.1172 44.467 18.082 44.0881 18.0117C43.7131 17.9453 43.3479 17.8262 42.9924 17.6543V16.7285C43.3635 16.9121 43.758 17.0527 44.176 17.1504C44.5979 17.2441 44.9963 17.291 45.3713 17.291C46.8518 17.291 47.592 16.7109 47.592 15.5508C47.592 14.5117 46.7756 13.9922 45.1428 13.9922H44.299V13.1543H45.1545C45.8225 13.1543 46.3518 13.0078 46.7424 12.7148C47.133 12.418 47.3283 12.0078 47.3283 11.4844C47.3283 11.0664 47.1838 10.7383 46.8947 10.5C46.6096 10.2617 46.2209 10.1426 45.7287 10.1426C45.3537 10.1426 45.0002 10.1934 44.6682 10.2949C44.3362 10.3965 43.9572 10.584 43.5315 10.8574L43.0393 10.2012C43.3908 9.92383 43.7951 9.70703 44.2522 9.55078C44.7131 9.39062 45.1975 9.31055 45.7053 9.31055C46.5373 9.31055 47.1838 9.50195 47.6447 9.88477C48.1057 10.2637 48.3362 10.7852 48.3362 11.4492ZM56.1459 16.0312H54.8744V18H53.9428V16.0312H49.7768V15.1816L53.8432 9.38672H54.8744V15.1465H56.1459V16.0312ZM53.9428 15.1465V12.2988C53.9428 11.7402 53.9623 11.1094 54.0014 10.4062H53.9545C53.767 10.7812 53.5912 11.0918 53.4272 11.3379L50.7494 15.1465H53.9428ZM60.7975 18H59.8482V11.8945C59.8482 11.3867 59.8639 10.9062 59.8951 10.4531C59.8131 10.5352 59.7213 10.6211 59.6197 10.7109C59.5182 10.8008 59.0533 11.1816 58.2252 11.8535L57.7096 11.1855L59.9771 9.43359H60.7975V18ZM67.8806 18H66.9314V11.8945C66.9314 11.3867 66.947 10.9062 66.9783 10.4531C66.8963 10.5352 66.8045 10.6211 66.7029 10.7109C66.6013 10.8008 66.1365 11.1816 65.3084 11.8535L64.7928 11.1855L67.0603 9.43359H67.8806V18ZM72.4443 18L75.9951 10.3301H71.3252V9.43359H77.0263V10.2129L73.5224 18H72.4443ZM82.047 18H81.0978V11.8945C81.0978 11.3867 81.1134 10.9062 81.1447 10.4531C81.0626 10.5352 80.9708 10.6211 80.8693 10.7109C80.7677 10.8008 80.3029 11.1816 79.4748 11.8535L78.9591 11.1855L81.2267 9.43359H82.047V18Z" fill="#175DCE"/>
<rect width="85" height="24" transform="translate(179 1)" fill="white"/>
<rect width="85" height="24" transform="translate(265 1)" fill="white"/>
<rect width="19" height="24" transform="translate(0 26)" fill="#FAFAFA"/>
<path d="M12.4062 43H6.60547V41.9629L8.82617 39.7129C9.25586 39.2754 9.60938 38.8984 9.88672 38.582C10.1641 38.2617 10.3691 37.959 10.502 37.6738C10.6387 37.3887 10.707 37.0781 10.707 36.7422C10.707 36.3281 10.5879 36.0156 10.3496 35.8047C10.1113 35.5898 9.79688 35.4824 9.40625 35.4824C9.03516 35.4824 8.69141 35.5566 8.375 35.7051C8.0625 35.8496 7.73828 36.0566 7.40234 36.3262L6.64648 35.418C6.88477 35.2148 7.13867 35.0293 7.4082 34.8613C7.68164 34.6934 7.98633 34.5605 8.32227 34.4629C8.6582 34.3613 9.04102 34.3105 9.4707 34.3105C10.0137 34.3105 10.4824 34.4082 10.877 34.6035C11.2715 34.7949 11.5742 35.0625 11.7852 35.4062C12 35.75 12.1074 36.1504 12.1074 36.6074C12.1074 37.0684 12.0156 37.4941 11.832 37.8848C11.6484 38.2754 11.3867 38.6621 11.0469 39.0449C10.707 39.4238 10.3027 39.8359 9.83398 40.2812L8.35156 41.7285V41.793H12.4062V43Z" fill="#9E9E9E"/>
<rect width="158" height="24" transform="translate(20 26)" fill="white"/>
<path d="M34.492 43H28.8612V42.1621L31.117 39.8945C31.8045 39.1992 32.2577 38.7031 32.4764 38.4062C32.6952 38.1094 32.8592 37.8203 32.9686 37.5391C33.078 37.2578 33.1327 36.9551 33.1327 36.6309C33.1327 36.1738 32.994 35.8125 32.7167 35.5469C32.4393 35.2773 32.0545 35.1426 31.5624 35.1426C31.2069 35.1426 30.869 35.2012 30.5487 35.3184C30.2323 35.4355 29.8788 35.6484 29.4881 35.957L28.9725 35.2949C29.7616 34.6387 30.621 34.3105 31.5506 34.3105C32.3553 34.3105 32.9862 34.5176 33.4432 34.9316C33.9002 35.3418 34.1288 35.8945 34.1288 36.5898C34.1288 37.1328 33.9764 37.6699 33.6717 38.2012C33.367 38.7324 32.7967 39.4043 31.9608 40.2168L30.0858 42.0508V42.0977H34.492V43ZM41.253 36.4492C41.253 36.9961 41.0987 37.4434 40.7901 37.791C40.4854 38.1387 40.0518 38.3711 39.4893 38.4883V38.5352C40.1768 38.6211 40.6866 38.8398 41.0186 39.1914C41.3506 39.543 41.5166 40.0039 41.5166 40.5742C41.5166 41.3906 41.2334 42.0195 40.667 42.4609C40.1006 42.8984 39.2959 43.1172 38.253 43.1172C37.7998 43.1172 37.3838 43.082 37.0049 43.0117C36.6299 42.9453 36.2647 42.8262 35.9092 42.6543V41.7285C36.2803 41.9121 36.6748 42.0527 37.0928 42.1504C37.5147 42.2441 37.9131 42.291 38.2881 42.291C39.7686 42.291 40.5088 41.7109 40.5088 40.5508C40.5088 39.5117 39.6924 38.9922 38.0596 38.9922H37.2159V38.1543H38.0713C38.7393 38.1543 39.2686 38.0078 39.6592 37.7148C40.0498 37.418 40.2452 37.0078 40.2452 36.4844C40.2452 36.0664 40.1006 35.7383 39.8116 35.5C39.5264 35.2617 39.1377 35.1426 38.6455 35.1426C38.2705 35.1426 37.917 35.1934 37.585 35.2949C37.253 35.3965 36.8741 35.584 36.4483 35.8574L35.9561 35.2012C36.3077 34.9238 36.712 34.707 37.169 34.5508C37.6299 34.3906 38.1143 34.3105 38.6221 34.3105C39.4541 34.3105 40.1006 34.502 40.5616 34.8848C41.0225 35.2637 41.253 35.7852 41.253 36.4492ZM48.3362 36.4492C48.3362 36.9961 48.1819 37.4434 47.8733 37.791C47.5686 38.1387 47.135 38.3711 46.5725 38.4883V38.5352C47.26 38.6211 47.7697 38.8398 48.1018 39.1914C48.4338 39.543 48.5998 40.0039 48.5998 40.5742C48.5998 41.3906 48.3166 42.0195 47.7502 42.4609C47.1838 42.8984 46.3791 43.1172 45.3362 43.1172C44.883 43.1172 44.467 43.082 44.0881 43.0117C43.7131 42.9453 43.3479 42.8262 42.9924 42.6543V41.7285C43.3635 41.9121 43.758 42.0527 44.176 42.1504C44.5979 42.2441 44.9963 42.291 45.3713 42.291C46.8518 42.291 47.592 41.7109 47.592 40.5508C47.592 39.5117 46.7756 38.9922 45.1428 38.9922H44.299V38.1543H45.1545C45.8225 38.1543 46.3518 38.0078 46.7424 37.7148C47.133 37.418 47.3283 37.0078 47.3283 36.4844C47.3283 36.0664 47.1838 35.7383 46.8947 35.5C46.6096 35.2617 46.2209 35.1426 45.7287 35.1426C45.3537 35.1426 45.0002 35.1934 44.6682 35.2949C44.3362 35.3965 43.9572 35.584 43.5315 35.8574L43.0393 35.2012C43.3908 34.9238 43.7951 34.707 44.2522 34.5508C44.7131 34.3906 45.1975 34.3105 45.7053 34.3105C46.5373 34.3105 47.1838 34.502 47.6447 34.8848C48.1057 35.2637 48.3362 35.7852 48.3362 36.4492ZM53.7143 43H52.765V36.8945C52.765 36.3867 52.7807 35.9062 52.8119 35.4531C52.7299 35.5352 52.6381 35.6211 52.5365 35.7109C52.435 35.8008 51.9701 36.1816 51.142 36.8535L50.6264 36.1855L52.894 34.4336H53.7143V43ZM59.8717 37.7676C60.774 37.7676 61.483 37.9922 61.9986 38.4414C62.5182 38.8867 62.7779 39.498 62.7779 40.2754C62.7779 41.1621 62.4947 41.8574 61.9283 42.3613C61.3658 42.8652 60.5885 43.1172 59.5963 43.1172C58.6314 43.1172 57.8951 42.9629 57.3873 42.6543V41.7168C57.6607 41.8926 58.0006 42.0312 58.4068 42.1328C58.8131 42.2305 59.2135 42.2793 59.608 42.2793C60.2955 42.2793 60.8287 42.1172 61.2076 41.793C61.5904 41.4688 61.7818 41 61.7818 40.3867C61.7818 39.1914 61.0494 38.5938 59.5846 38.5938C59.2135 38.5938 58.7174 38.6504 58.0963 38.7637L57.5924 38.4414L57.9146 34.4336H62.1744V35.3301H58.7467L58.5299 37.9023C58.9791 37.8125 59.4264 37.7676 59.8717 37.7676ZM64.3767 39.3379C64.3767 37.6543 64.7029 36.3965 65.3553 35.5645C66.0115 34.7285 66.9803 34.3105 68.2615 34.3105C68.7029 34.3105 69.0506 34.3477 69.3045 34.4219V35.2598C69.0037 35.1621 68.6599 35.1133 68.2732 35.1133C67.3553 35.1133 66.6541 35.4004 66.1697 35.9746C65.6853 36.5449 65.4197 37.4434 65.3728 38.6699H65.4431C65.8728 37.998 66.5525 37.6621 67.4822 37.6621C68.2517 37.6621 68.8572 37.8945 69.2986 38.3594C69.7439 38.8242 69.9666 39.4551 69.9666 40.252C69.9666 41.1426 69.7224 41.8438 69.2342 42.3555C68.7498 42.8633 68.0935 43.1172 67.2654 43.1172C66.3787 43.1172 65.6756 42.7852 65.156 42.1211C64.6365 41.4531 64.3767 40.5254 64.3767 39.3379ZM67.2537 42.291C67.8084 42.291 68.2381 42.1172 68.5428 41.7695C68.8513 41.418 69.0056 40.9121 69.0056 40.252C69.0056 39.6855 68.8631 39.2402 68.5779 38.916C68.2928 38.5918 67.867 38.4297 67.3006 38.4297C66.949 38.4297 66.6267 38.502 66.3338 38.6465C66.0408 38.791 65.8064 38.9902 65.6306 39.2441C65.4588 39.498 65.3728 39.7617 65.3728 40.0352C65.3728 40.4375 65.451 40.8125 65.6072 41.1602C65.7635 41.5078 65.9842 41.7832 66.2693 41.9863C66.5584 42.1895 66.8865 42.291 67.2537 42.291ZM74.038 37.7676C74.9404 37.7676 75.6494 37.9922 76.165 38.4414C76.6845 38.8867 76.9443 39.498 76.9443 40.2754C76.9443 41.1621 76.6611 41.8574 76.0947 42.3613C75.5322 42.8652 74.7548 43.1172 73.7627 43.1172C72.7978 43.1172 72.0615 42.9629 71.5537 42.6543V41.7168C71.8271 41.8926 72.167 42.0312 72.5732 42.1328C72.9795 42.2305 73.3798 42.2793 73.7744 42.2793C74.4619 42.2793 74.9951 42.1172 75.374 41.793C75.7568 41.4688 75.9482 41 75.9482 40.3867C75.9482 39.1914 75.2158 38.5938 73.7509 38.5938C73.3798 38.5938 72.8838 38.6504 72.2627 38.7637L71.7588 38.4414L72.081 34.4336H76.3408V35.3301H72.913L72.6963 37.9023C73.1455 37.8125 73.5927 37.7676 74.038 37.7676ZM79.5275 43L83.0783 35.3301H78.4083V34.4336H84.1095V35.2129L80.6056 43H79.5275Z" fill="#175DCE"/>
<rect width="85" height="24" transform="translate(179 26)" fill="white"/>
<rect width="85" height="24" transform="translate(265 26)" fill="white"/>
<rect width="19" height="24" transform="translate(0 51)" fill="#FAFAFA"/>
<path d="M12.0781 61.3906C12.0781 61.7773 12 62.1133 11.8438 62.3984C11.6875 62.6836 11.4727 62.918 11.1992 63.1016C10.9297 63.2812 10.6172 63.4102 10.2617 63.4883V63.5293C10.9453 63.6152 11.4609 63.8301 11.8086 64.1738C12.1602 64.5176 12.3359 64.9727 12.3359 65.5391C12.3359 66.0352 12.2168 66.4785 11.9785 66.8691C11.7402 67.2559 11.375 67.5605 10.8828 67.7832C10.3906 68.0059 9.75781 68.1172 8.98438 68.1172C8.51953 68.1172 8.08789 68.0801 7.68945 68.0059C7.29492 67.9316 6.91992 67.8125 6.56445 67.6484V66.4238C6.92773 66.6035 7.31445 66.7422 7.72461 66.8398C8.13477 66.9375 8.52344 66.9863 8.89062 66.9863C9.60547 66.9863 10.1152 66.8535 10.4199 66.5879C10.7246 66.3184 10.877 65.9473 10.877 65.4746C10.877 65.1699 10.7969 64.9199 10.6367 64.7246C10.4805 64.5293 10.2363 64.3828 9.9043 64.2852C9.57617 64.1875 9.15234 64.1387 8.63281 64.1387H7.87695V63.0312H8.63867C9.13477 63.0312 9.5332 62.9727 9.83398 62.8555C10.1348 62.7344 10.3516 62.5684 10.4844 62.3574C10.6211 62.1465 10.6895 61.9004 10.6895 61.6191C10.6895 61.252 10.5703 60.9668 10.332 60.7637C10.0938 60.5566 9.74023 60.4531 9.27148 60.4531C8.98242 60.4531 8.71875 60.4863 8.48047 60.5527C8.24609 60.6191 8.0293 60.7031 7.83008 60.8047C7.63086 60.9062 7.44141 61.0156 7.26172 61.1328L6.59961 60.1777C6.92383 59.9355 7.31055 59.7305 7.75977 59.5625C8.20898 59.3945 8.73242 59.3105 9.33008 59.3105C10.209 59.3105 10.8867 59.5 11.3633 59.8789C11.8398 60.2539 12.0781 60.7578 12.0781 61.3906Z" fill="#9E9E9E"/>
<rect width="158" height="24" transform="translate(20 51)" fill="white"/>
<path d="M34.1698 61.4492C34.1698 61.9961 34.0155 62.4434 33.7069 62.791C33.4022 63.1387 32.9686 63.3711 32.4061 63.4883V63.5352C33.0936 63.6211 33.6034 63.8398 33.9354 64.1914C34.2674 64.543 34.4335 65.0039 34.4335 65.5742C34.4335 66.3906 34.1502 67.0195 33.5838 67.4609C33.0174 67.8984 32.2127 68.1172 31.1698 68.1172C30.7167 68.1172 30.3006 68.082 29.9217 68.0117C29.5467 67.9453 29.1815 67.8262 28.826 67.6543V66.7285C29.1971 66.9121 29.5917 67.0527 30.0096 67.1504C30.4315 67.2441 30.8299 67.291 31.2049 67.291C32.6854 67.291 33.4256 66.7109 33.4256 65.5508C33.4256 64.5117 32.6092 63.9922 30.9764 63.9922H30.1327V63.1543H30.9881C31.6561 63.1543 32.1854 63.0078 32.576 62.7148C32.9667 62.418 33.162 62.0078 33.162 61.4844C33.162 61.0664 33.0174 60.7383 32.7284 60.5C32.4432 60.2617 32.0545 60.1426 31.5624 60.1426C31.1874 60.1426 30.8338 60.1934 30.5018 60.2949C30.1698 60.3965 29.7909 60.584 29.3651 60.8574L28.8729 60.2012C29.2245 59.9238 29.6288 59.707 30.0858 59.5508C30.5467 59.3906 31.0311 59.3105 31.5389 59.3105C32.371 59.3105 33.0174 59.502 33.4784 59.8848C33.9393 60.2637 34.1698 60.7852 34.1698 61.4492ZM41.253 61.4492C41.253 61.9961 41.0987 62.4434 40.7901 62.791C40.4854 63.1387 40.0518 63.3711 39.4893 63.4883V63.5352C40.1768 63.6211 40.6866 63.8398 41.0186 64.1914C41.3506 64.543 41.5166 65.0039 41.5166 65.5742C41.5166 66.3906 41.2334 67.0195 40.667 67.4609C40.1006 67.8984 39.2959 68.1172 38.253 68.1172C37.7998 68.1172 37.3838 68.082 37.0049 68.0117C36.6299 67.9453 36.2647 67.8262 35.9092 67.6543V66.7285C36.2803 66.9121 36.6748 67.0527 37.0928 67.1504C37.5147 67.2441 37.9131 67.291 38.2881 67.291C39.7686 67.291 40.5088 66.7109 40.5088 65.5508C40.5088 64.5117 39.6924 63.9922 38.0596 63.9922H37.2159V63.1543H38.0713C38.7393 63.1543 39.2686 63.0078 39.6592 62.7148C40.0498 62.418 40.2452 62.0078 40.2452 61.4844C40.2452 61.0664 40.1006 60.7383 39.8116 60.5C39.5264 60.2617 39.1377 60.1426 38.6455 60.1426C38.2705 60.1426 37.917 60.1934 37.585 60.2949C37.253 60.3965 36.8741 60.584 36.4483 60.8574L35.9561 60.2012C36.3077 59.9238 36.712 59.707 37.169 59.5508C37.6299 59.3906 38.1143 59.3105 38.6221 59.3105C39.4541 59.3105 40.1006 59.502 40.5616 59.8848C41.0225 60.2637 41.253 60.7852 41.253 61.4492ZM48.3362 61.4492C48.3362 61.9961 48.1819 62.4434 47.8733 62.791C47.5686 63.1387 47.135 63.3711 46.5725 63.4883V63.5352C47.26 63.6211 47.7697 63.8398 48.1018 64.1914C48.4338 64.543 48.5998 65.0039 48.5998 65.5742C48.5998 66.3906 48.3166 67.0195 47.7502 67.4609C47.1838 67.8984 46.3791 68.1172 45.3362 68.1172C44.883 68.1172 44.467 68.082 44.0881 68.0117C43.7131 67.9453 43.3479 67.8262 42.9924 67.6543V66.7285C43.3635 66.9121 43.758 67.0527 44.176 67.1504C44.5979 67.2441 44.9963 67.291 45.3713 67.291C46.8518 67.291 47.592 66.7109 47.592 65.5508C47.592 64.5117 46.7756 63.9922 45.1428 63.9922H44.299V63.1543H45.1545C45.8225 63.1543 46.3518 63.0078 46.7424 62.7148C47.133 62.418 47.3283 62.0078 47.3283 61.4844C47.3283 61.0664 47.1838 60.7383 46.8947 60.5C46.6096 60.2617 46.2209 60.1426 45.7287 60.1426C45.3537 60.1426 45.0002 60.1934 44.6682 60.2949C44.3362 60.3965 43.9572 60.584 43.5315 60.8574L43.0393 60.2012C43.3908 59.9238 43.7951 59.707 44.2522 59.5508C44.7131 59.3906 45.1975 59.3105 45.7053 59.3105C46.5373 59.3105 47.1838 59.502 47.6447 59.8848C48.1057 60.2637 48.3362 60.7852 48.3362 61.4492ZM53.7143 68H52.765V61.8945C52.765 61.3867 52.7807 60.9062 52.8119 60.4531C52.7299 60.5352 52.6381 60.6211 52.5365 60.7109C52.435 60.8008 51.9701 61.1816 51.142 61.8535L50.6264 61.1855L52.894 59.4336H53.7143V68ZM59.8717 62.7676C60.774 62.7676 61.483 62.9922 61.9986 63.4414C62.5182 63.8867 62.7779 64.498 62.7779 65.2754C62.7779 66.1621 62.4947 66.8574 61.9283 67.3613C61.3658 67.8652 60.5885 68.1172 59.5963 68.1172C58.6314 68.1172 57.8951 67.9629 57.3873 67.6543V66.7168C57.6607 66.8926 58.0006 67.0312 58.4068 67.1328C58.8131 67.2305 59.2135 67.2793 59.608 67.2793C60.2955 67.2793 60.8287 67.1172 61.2076 66.793C61.5904 66.4688 61.7818 66 61.7818 65.3867C61.7818 64.1914 61.0494 63.5938 59.5846 63.5938C59.2135 63.5938 58.7174 63.6504 58.0963 63.7637L57.5924 63.4414L57.9146 59.4336H62.1744V60.3301H58.7467L58.5299 62.9023C58.9791 62.8125 59.4264 62.7676 59.8717 62.7676ZM64.3767 64.3379C64.3767 62.6543 64.7029 61.3965 65.3553 60.5645C66.0115 59.7285 66.9803 59.3105 68.2615 59.3105C68.7029 59.3105 69.0506 59.3477 69.3045 59.4219V60.2598C69.0037 60.1621 68.6599 60.1133 68.2732 60.1133C67.3553 60.1133 66.6541 60.4004 66.1697 60.9746C65.6853 61.5449 65.4197 62.4434 65.3728 63.6699H65.4431C65.8728 62.998 66.5525 62.6621 67.4822 62.6621C68.2517 62.6621 68.8572 62.8945 69.2986 63.3594C69.7439 63.8242 69.9666 64.4551 69.9666 65.252C69.9666 66.1426 69.7224 66.8438 69.2342 67.3555C68.7498 67.8633 68.0935 68.1172 67.2654 68.1172C66.3787 68.1172 65.6756 67.7852 65.156 67.1211C64.6365 66.4531 64.3767 65.5254 64.3767 64.3379ZM67.2537 67.291C67.8084 67.291 68.2381 67.1172 68.5428 66.7695C68.8513 66.418 69.0056 65.9121 69.0056 65.252C69.0056 64.6855 68.8631 64.2402 68.5779 63.916C68.2928 63.5918 67.867 63.4297 67.3006 63.4297C66.949 63.4297 66.6267 63.502 66.3338 63.6465C66.0408 63.791 65.8064 63.9902 65.6306 64.2441C65.4588 64.498 65.3728 64.7617 65.3728 65.0352C65.3728 65.4375 65.451 65.8125 65.6072 66.1602C65.7635 66.5078 65.9842 66.7832 66.2693 66.9863C66.5584 67.1895 66.8865 67.291 67.2537 67.291ZM74.038 62.7676C74.9404 62.7676 75.6494 62.9922 76.165 63.4414C76.6845 63.8867 76.9443 64.498 76.9443 65.2754C76.9443 66.1621 76.6611 66.8574 76.0947 67.3613C75.5322 67.8652 74.7548 68.1172 73.7627 68.1172C72.7978 68.1172 72.0615 67.9629 71.5537 67.6543V66.7168C71.8271 66.8926 72.167 67.0312 72.5732 67.1328C72.9795 67.2305 73.3798 67.2793 73.7744 67.2793C74.4619 67.2793 74.9951 67.1172 75.374 66.793C75.7568 66.4688 75.9482 66 75.9482 65.3867C75.9482 64.1914 75.2158 63.5938 73.7509 63.5938C73.3798 63.5938 72.8838 63.6504 72.2627 63.7637L71.7588 63.4414L72.081 59.4336H76.3408V60.3301H72.913L72.6963 62.9023C73.1455 62.8125 73.5927 62.7676 74.038 62.7676ZM79.5275 68L83.0783 60.3301H78.4083V59.4336H84.1095V60.2129L80.6056 68H79.5275Z" fill="#175DCE"/>
<rect width="85" height="24" transform="translate(179 51)" fill="white"/>
<rect width="85" height="24" transform="translate(265 51)" fill="white"/>
<rect width="19" height="24" transform="translate(0 76)" fill="#FAFAFA"/>
<path d="M12.7168 91.1191H11.5566V93H10.1973V91.1191H6.30078V90.0762L10.2148 84.4102H11.5566V89.9766H12.7168V91.1191ZM10.1973 89.9766V87.8496C10.1973 87.6738 10.1992 87.4961 10.2031 87.3164C10.2109 87.1328 10.2188 86.957 10.2266 86.7891C10.2344 86.6211 10.2422 86.4668 10.25 86.3262C10.2578 86.1816 10.2637 86.0625 10.2676 85.9688H10.2207C10.1465 86.125 10.0645 86.2852 9.97461 86.4492C9.88477 86.6094 9.78906 86.7656 9.6875 86.918L7.57812 89.9766H10.1973Z" fill="#9E9E9E"/>
<rect width="158" height="24" transform="translate(20 76)" fill="white"/>
<path d="M34.8963 91.0312H33.6249V93H32.6932V91.0312H28.5272V90.1816L32.5936 84.3867H33.6249V90.1465H34.8963V91.0312ZM32.6932 90.1465V87.2988C32.6932 86.7402 32.7127 86.1094 32.7518 85.4062H32.7049C32.5174 85.7812 32.3417 86.0918 32.1776 86.3379L29.4999 90.1465H32.6932ZM41.253 86.4492C41.253 86.9961 41.0987 87.4434 40.7901 87.791C40.4854 88.1387 40.0518 88.3711 39.4893 88.4883V88.5352C40.1768 88.6211 40.6866 88.8398 41.0186 89.1914C41.3506 89.543 41.5166 90.0039 41.5166 90.5742C41.5166 91.3906 41.2334 92.0195 40.667 92.4609C40.1006 92.8984 39.2959 93.1172 38.253 93.1172C37.7998 93.1172 37.3838 93.082 37.0049 93.0117C36.6299 92.9453 36.2647 92.8262 35.9092 92.6543V91.7285C36.2803 91.9121 36.6748 92.0527 37.0928 92.1504C37.5147 92.2441 37.9131 92.291 38.2881 92.291C39.7686 92.291 40.5088 91.7109 40.5088 90.5508C40.5088 89.5117 39.6924 88.9922 38.0596 88.9922H37.2159V88.1543H38.0713C38.7393 88.1543 39.2686 88.0078 39.6592 87.7148C40.0498 87.418 40.2452 87.0078 40.2452 86.4844C40.2452 86.0664 40.1006 85.7383 39.8116 85.5C39.5264 85.2617 39.1377 85.1426 38.6455 85.1426C38.2705 85.1426 37.917 85.1934 37.585 85.2949C37.253 85.3965 36.8741 85.584 36.4483 85.8574L35.9561 85.2012C36.3077 84.9238 36.712 84.707 37.169 84.5508C37.6299 84.3906 38.1143 84.3105 38.6221 84.3105C39.4541 84.3105 40.1006 84.502 40.5616 84.8848C41.0225 85.2637 41.253 85.7852 41.253 86.4492ZM48.3362 86.4492C48.3362 86.9961 48.1819 87.4434 47.8733 87.791C47.5686 88.1387 47.135 88.3711 46.5725 88.4883V88.5352C47.26 88.6211 47.7697 88.8398 48.1018 89.1914C48.4338 89.543 48.5998 90.0039 48.5998 90.5742C48.5998 91.3906 48.3166 92.0195 47.7502 92.4609C47.1838 92.8984 46.3791 93.1172 45.3362 93.1172C44.883 93.1172 44.467 93.082 44.0881 93.0117C43.7131 92.9453 43.3479 92.8262 42.9924 92.6543V91.7285C43.3635 91.9121 43.758 92.0527 44.176 92.1504C44.5979 92.2441 44.9963 92.291 45.3713 92.291C46.8518 92.291 47.592 91.7109 47.592 90.5508C47.592 89.5117 46.7756 88.9922 45.1428 88.9922H44.299V88.1543H45.1545C45.8225 88.1543 46.3518 88.0078 46.7424 87.7148C47.133 87.418 47.3283 87.0078 47.3283 86.4844C47.3283 86.0664 47.1838 85.7383 46.8947 85.5C46.6096 85.2617 46.2209 85.1426 45.7287 85.1426C45.3537 85.1426 45.0002 85.1934 44.6682 85.2949C44.3362 85.3965 43.9572 85.584 43.5315 85.8574L43.0393 85.2012C43.3908 84.9238 43.7951 84.707 44.2522 84.5508C44.7131 84.3906 45.1975 84.3105 45.7053 84.3105C46.5373 84.3105 47.1838 84.502 47.6447 84.8848C48.1057 85.2637 48.3362 85.7852 48.3362 86.4492ZM53.7143 93H52.765V86.8945C52.765 86.3867 52.7807 85.9062 52.8119 85.4531C52.7299 85.5352 52.6381 85.6211 52.5365 85.7109C52.435 85.8008 51.9701 86.1816 51.142 86.8535L50.6264 86.1855L52.894 84.4336H53.7143V93ZM57.2935 89.3379C57.2935 87.6543 57.6197 86.3965 58.2721 85.5645C58.9283 84.7285 59.8971 84.3105 61.1783 84.3105C61.6197 84.3105 61.9674 84.3477 62.2213 84.4219V85.2598C61.9205 85.1621 61.5767 85.1133 61.19 85.1133C60.2721 85.1133 59.5709 85.4004 59.0865 85.9746C58.6021 86.5449 58.3365 87.4434 58.2896 88.6699H58.36C58.7896 87.998 59.4693 87.6621 60.399 87.6621C61.1685 87.6621 61.774 87.8945 62.2154 88.3594C62.6607 88.8242 62.8834 89.4551 62.8834 90.252C62.8834 91.1426 62.6392 91.8438 62.151 92.3555C61.6666 92.8633 61.0103 93.1172 60.1822 93.1172C59.2955 93.1172 58.5924 92.7852 58.0728 92.1211C57.5533 91.4531 57.2935 90.5254 57.2935 89.3379ZM60.1705 92.291C60.7252 92.291 61.1549 92.1172 61.4596 91.7695C61.7682 91.418 61.9225 90.9121 61.9225 90.252C61.9225 89.6855 61.7799 89.2402 61.4947 88.916C61.2096 88.5918 60.7838 88.4297 60.2174 88.4297C59.8658 88.4297 59.5435 88.502 59.2506 88.6465C58.9576 88.791 58.7232 88.9902 58.5475 89.2441C58.3756 89.498 58.2896 89.7617 58.2896 90.0352C58.2896 90.4375 58.3678 90.8125 58.524 91.1602C58.6803 91.5078 58.901 91.7832 59.1861 91.9863C59.4752 92.1895 59.8033 92.291 60.1705 92.291ZM66.9549 87.7676C67.8572 87.7676 68.5662 87.9922 69.0818 88.4414C69.6013 88.8867 69.8611 89.498 69.8611 90.2754C69.8611 91.1621 69.5779 91.8574 69.0115 92.3613C68.449 92.8652 67.6717 93.1172 66.6795 93.1172C65.7146 93.1172 64.9783 92.9629 64.4705 92.6543V91.7168C64.7439 91.8926 65.0838 92.0312 65.49 92.1328C65.8963 92.2305 66.2967 92.2793 66.6912 92.2793C67.3787 92.2793 67.9119 92.1172 68.2908 91.793C68.6736 91.4688 68.865 91 68.865 90.3867C68.865 89.1914 68.1326 88.5938 66.6678 88.5938C66.2967 88.5938 65.8006 88.6504 65.1795 88.7637L64.6756 88.4414L64.9978 84.4336H69.2576V85.3301H65.8299L65.6131 87.9023C66.0623 87.8125 66.5095 87.7676 66.9549 87.7676ZM74.038 87.7676C74.9404 87.7676 75.6494 87.9922 76.165 88.4414C76.6845 88.8867 76.9443 89.498 76.9443 90.2754C76.9443 91.1621 76.6611 91.8574 76.0947 92.3613C75.5322 92.8652 74.7548 93.1172 73.7627 93.1172C72.7978 93.1172 72.0615 92.9629 71.5537 92.6543V91.7168C71.8271 91.8926 72.167 92.0312 72.5732 92.1328C72.9795 92.2305 73.3798 92.2793 73.7744 92.2793C74.4619 92.2793 74.9951 92.1172 75.374 91.793C75.7568 91.4688 75.9482 91 75.9482 90.3867C75.9482 89.1914 75.2158 88.5938 73.7509 88.5938C73.3798 88.5938 72.8838 88.6504 72.2627 88.7637L71.7588 88.4414L72.081 84.4336H76.3408V85.3301H72.913L72.6963 87.9023C73.1455 87.8125 73.5927 87.7676 74.038 87.7676ZM79.5275 93L83.0783 85.3301H78.4083V84.4336H84.1095V85.2129L80.6056 93H79.5275Z" fill="#175DCE"/>
<rect width="85" height="24" transform="translate(179 76)" fill="white"/>
<rect width="85" height="24" transform="translate(265 76)" fill="white"/>
<rect width="19" height="24" transform="translate(0 101)" fill="#FAFAFA"/>
<path d="M9.51758 112.645C10.0684 112.645 10.5527 112.744 10.9707 112.943C11.3926 113.139 11.7207 113.428 11.9551 113.811C12.1895 114.189 12.3066 114.654 12.3066 115.205C12.3066 115.807 12.1797 116.326 11.9258 116.764C11.6719 117.197 11.2988 117.531 10.8066 117.766C10.3145 118 9.71484 118.117 9.00781 118.117C8.55859 118.117 8.13867 118.078 7.74805 118C7.36133 117.922 7.02734 117.805 6.74609 117.648V116.406C7.03906 116.57 7.39062 116.705 7.80078 116.811C8.21094 116.912 8.60352 116.963 8.97852 116.963C9.37695 116.963 9.71875 116.904 10.0039 116.787C10.2891 116.67 10.5078 116.49 10.6602 116.248C10.8164 116.006 10.8945 115.699 10.8945 115.328C10.8945 114.836 10.7363 114.457 10.4199 114.191C10.1074 113.922 9.61719 113.787 8.94922 113.787C8.71484 113.787 8.46484 113.809 8.19922 113.852C7.9375 113.891 7.71875 113.934 7.54297 113.98L6.93945 113.623L7.26172 109.434H11.7148V110.646H8.47461L8.28711 112.779C8.42773 112.748 8.5957 112.719 8.79102 112.691C8.98633 112.66 9.22852 112.645 9.51758 112.645Z" fill="#9E9E9E"/>
<rect width="158" height="24" transform="translate(20 101)" fill="white"/>
<path d="M31.5389 112.768C32.4413 112.768 33.1502 112.992 33.6659 113.441C34.1854 113.887 34.4452 114.498 34.4452 115.275C34.4452 116.162 34.162 116.857 33.5956 117.361C33.0331 117.865 32.2557 118.117 31.2635 118.117C30.2987 118.117 29.5624 117.963 29.0545 117.654V116.717C29.328 116.893 29.6678 117.031 30.0741 117.133C30.4803 117.23 30.8807 117.279 31.2752 117.279C31.9627 117.279 32.496 117.117 32.8749 116.793C33.2577 116.469 33.4491 116 33.4491 115.387C33.4491 114.191 32.7167 113.594 31.2518 113.594C30.8807 113.594 30.3846 113.65 29.7635 113.764L29.2596 113.441L29.5819 109.434H33.8417V110.33H30.4139L30.1971 112.902C30.6463 112.812 31.0936 112.768 31.5389 112.768ZM41.253 111.449C41.253 111.996 41.0987 112.443 40.7901 112.791C40.4854 113.139 40.0518 113.371 39.4893 113.488V113.535C40.1768 113.621 40.6866 113.84 41.0186 114.191C41.3506 114.543 41.5166 115.004 41.5166 115.574C41.5166 116.391 41.2334 117.02 40.667 117.461C40.1006 117.898 39.2959 118.117 38.253 118.117C37.7998 118.117 37.3838 118.082 37.0049 118.012C36.6299 117.945 36.2647 117.826 35.9092 117.654V116.729C36.2803 116.912 36.6748 117.053 37.0928 117.15C37.5147 117.244 37.9131 117.291 38.2881 117.291C39.7686 117.291 40.5088 116.711 40.5088 115.551C40.5088 114.512 39.6924 113.992 38.0596 113.992H37.2159V113.154H38.0713C38.7393 113.154 39.2686 113.008 39.6592 112.715C40.0498 112.418 40.2452 112.008 40.2452 111.484C40.2452 111.066 40.1006 110.738 39.8116 110.5C39.5264 110.262 39.1377 110.143 38.6455 110.143C38.2705 110.143 37.917 110.193 37.585 110.295C37.253 110.396 36.8741 110.584 36.4483 110.857L35.9561 110.201C36.3077 109.924 36.712 109.707 37.169 109.551C37.6299 109.391 38.1143 109.311 38.6221 109.311C39.4541 109.311 40.1006 109.502 40.5616 109.885C41.0225 110.264 41.253 110.785 41.253 111.449ZM48.3362 111.449C48.3362 111.996 48.1819 112.443 47.8733 112.791C47.5686 113.139 47.135 113.371 46.5725 113.488V113.535C47.26 113.621 47.7697 113.84 48.1018 114.191C48.4338 114.543 48.5998 115.004 48.5998 115.574C48.5998 116.391 48.3166 117.02 47.7502 117.461C47.1838 117.898 46.3791 118.117 45.3362 118.117C44.883 118.117 44.467 118.082 44.0881 118.012C43.7131 117.945 43.3479 117.826 42.9924 117.654V116.729C43.3635 116.912 43.758 117.053 44.176 117.15C44.5979 117.244 44.9963 117.291 45.3713 117.291C46.8518 117.291 47.592 116.711 47.592 115.551C47.592 114.512 46.7756 113.992 45.1428 113.992H44.299V113.154H45.1545C45.8225 113.154 46.3518 113.008 46.7424 112.715C47.133 112.418 47.3283 112.008 47.3283 111.484C47.3283 111.066 47.1838 110.738 46.8947 110.5C46.6096 110.262 46.2209 110.143 45.7287 110.143C45.3537 110.143 45.0002 110.193 44.6682 110.295C44.3362 110.396 43.9572 110.584 43.5315 110.857L43.0393 110.201C43.3908 109.924 43.7951 109.707 44.2522 109.551C44.7131 109.391 45.1975 109.311 45.7053 109.311C46.5373 109.311 47.1838 109.502 47.6447 109.885C48.1057 110.264 48.3362 110.785 48.3362 111.449ZM53.7143 118H52.765V111.895C52.765 111.387 52.7807 110.906 52.8119 110.453C52.7299 110.535 52.6381 110.621 52.5365 110.711C52.435 110.801 51.9701 111.182 51.142 111.854L50.6264 111.186L52.894 109.434H53.7143V118ZM59.8717 112.768C60.774 112.768 61.483 112.992 61.9986 113.441C62.5182 113.887 62.7779 114.498 62.7779 115.275C62.7779 116.162 62.4947 116.857 61.9283 117.361C61.3658 117.865 60.5885 118.117 59.5963 118.117C58.6314 118.117 57.8951 117.963 57.3873 117.654V116.717C57.6607 116.893 58.0006 117.031 58.4068 117.133C58.8131 117.23 59.2135 117.279 59.608 117.279C60.2955 117.279 60.8287 117.117 61.2076 116.793C61.5904 116.469 61.7818 116 61.7818 115.387C61.7818 114.191 61.0494 113.594 59.5846 113.594C59.2135 113.594 58.7174 113.65 58.0963 113.764L57.5924 113.441L57.9146 109.434H62.1744V110.33H58.7467L58.5299 112.902C58.9791 112.812 59.4264 112.768 59.8717 112.768ZM64.3767 114.338C64.3767 112.654 64.7029 111.396 65.3553 110.564C66.0115 109.729 66.9803 109.311 68.2615 109.311C68.7029 109.311 69.0506 109.348 69.3045 109.422V110.26C69.0037 110.162 68.6599 110.113 68.2732 110.113C67.3553 110.113 66.6541 110.4 66.1697 110.975C65.6853 111.545 65.4197 112.443 65.3728 113.67H65.4431C65.8728 112.998 66.5525 112.662 67.4822 112.662C68.2517 112.662 68.8572 112.895 69.2986 113.359C69.7439 113.824 69.9666 114.455 69.9666 115.252C69.9666 116.143 69.7224 116.844 69.2342 117.355C68.7498 117.863 68.0935 118.117 67.2654 118.117C66.3787 118.117 65.6756 117.785 65.156 117.121C64.6365 116.453 64.3767 115.525 64.3767 114.338ZM67.2537 117.291C67.8084 117.291 68.2381 117.117 68.5428 116.77C68.8513 116.418 69.0056 115.912 69.0056 115.252C69.0056 114.686 68.8631 114.24 68.5779 113.916C68.2928 113.592 67.867 113.43 67.3006 113.43C66.949 113.43 66.6267 113.502 66.3338 113.646C66.0408 113.791 65.8064 113.99 65.6306 114.244C65.4588 114.498 65.3728 114.762 65.3728 115.035C65.3728 115.438 65.451 115.812 65.6072 116.16C65.7635 116.508 65.9842 116.783 66.2693 116.986C66.5584 117.189 66.8865 117.291 67.2537 117.291ZM74.038 112.768C74.9404 112.768 75.6494 112.992 76.165 113.441C76.6845 113.887 76.9443 114.498 76.9443 115.275C76.9443 116.162 76.6611 116.857 76.0947 117.361C75.5322 117.865 74.7548 118.117 73.7627 118.117C72.7978 118.117 72.0615 117.963 71.5537 117.654V116.717C71.8271 116.893 72.167 117.031 72.5732 117.133C72.9795 117.23 73.3798 117.279 73.7744 117.279C74.4619 117.279 74.9951 117.117 75.374 116.793C75.7568 116.469 75.9482 116 75.9482 115.387C75.9482 114.191 75.2158 113.594 73.7509 113.594C73.3798 113.594 72.8838 113.65 72.2627 113.764L71.7588 113.441L72.081 109.434H76.3408V110.33H72.913L72.6963 112.902C73.1455 112.812 73.5927 112.768 74.038 112.768ZM79.5275 118L83.0783 110.33H78.4083V109.434H84.1095V110.213L80.6056 118H79.5275Z" fill="#175DCE"/>
<rect width="85" height="24" transform="translate(179 101)" fill="white"/>
<rect width="85" height="24" transform="translate(265 101)" fill="white"/>
</svg>
