<svg width="44" height="45" viewBox="0 0 24 25" fill="none" xmlns="http://www.w3.org/2000/svg">
<path d="M20.2559 4L13.1006 9.31432L14.4238 6.17894L20.2559 4Z" fill="#E2761B"/>
<path d="M3.73584 4L10.8336 9.36466L9.57512 6.17894L3.73584 4Z" fill="#E4761B"/>
<path d="M17.6818 16.3188L15.7761 19.2385L19.8536 20.3603L21.0257 16.3836L17.6818 16.3188Z" fill="#E4761B"/>
<path d="M2.98389 16.3836L4.14887 20.3603L8.22629 19.2385L6.32062 16.3188L2.98389 16.3836Z" fill="#E4761B"/>
<path d="M7.99486 11.386L6.85864 13.1048L10.9073 13.2845L10.7635 8.93384L7.99486 11.386Z" fill="#E4761B"/>
<path d="M15.9989 11.3858L13.1943 8.8833L13.1008 13.2843L17.1423 13.1046L15.9989 11.3858Z" fill="#E4761B"/>
<path d="M8.22571 19.2385L10.6563 18.052L8.5565 16.4124L8.22571 19.2385Z" fill="#E4761B"/>
<path d="M13.338 18.052L15.7758 19.2385L15.4379 16.4124L13.338 18.052Z" fill="#E4761B"/>
<path d="M15.7745 19.2386L13.3367 18.052L13.5308 19.6413L13.5093 20.31L15.7745 19.2386Z" fill="#D7C1B3"/>
<path d="M8.22449 19.2386L10.4897 20.31L10.4753 19.6413L10.6551 18.052L8.22449 19.2386Z" fill="#D7C1B3"/>
<path d="M10.5274 15.3621L8.49951 14.7652L9.93057 14.1108L10.5274 15.3621Z" fill="#233447"/>
<path d="M13.4675 15.3621L14.0644 14.1108L15.5026 14.7652L13.4675 15.3621Z" fill="#233447"/>
<path d="M8.2255 19.2382L8.57068 16.3186L6.31982 16.3833L8.2255 19.2382Z" fill="#CD6116"/>
<path d="M15.4297 16.3186L15.7749 19.2382L17.6805 16.3833L15.4297 16.3186Z" fill="#CD6116"/>
<path d="M17.1405 13.1038L13.099 13.2835L13.4729 15.3618L14.0698 14.1105L15.5081 14.7649L17.1405 13.1038Z" fill="#CD6116"/>
<path d="M8.49812 14.7649L9.93637 14.1105L10.526 15.3618L10.9072 13.2835L6.85852 13.1038L8.49812 14.7649Z" fill="#CD6116"/>
<path d="M6.86011 13.1042L8.55724 16.4122L8.49971 14.7654L6.86011 13.1042Z" fill="#E4751F"/>
<path d="M15.5099 14.7654L15.438 16.4122L17.1423 13.1042L15.5099 14.7654Z" fill="#E4751F"/>
<path d="M10.9084 13.2834L10.5272 15.3617L11.0018 17.8139L11.1097 14.5851L10.9084 13.2834Z" fill="#E4751F"/>
<path d="M13.103 13.2834L12.9088 14.5779L12.9951 17.8139L13.4769 15.3617L13.103 13.2834Z" fill="#E4751F"/>
<path d="M13.4745 15.3618L12.9927 17.814L13.3379 18.0513L15.4377 16.4117L15.5096 14.7649L13.4745 15.3618Z" fill="#F6851B"/>
<path d="M8.49951 14.7649L8.55704 16.4117L10.6569 18.0513L11.0021 17.814L10.5274 15.3618L8.49951 14.7649Z" fill="#F6851B"/>
<path d="M13.51 20.3095L13.5316 19.6407L13.3518 19.4825H10.6407L10.4753 19.6407L10.4897 20.3095L8.22449 19.238L9.01552 19.8852L10.6192 20.9999H13.3734L14.9842 19.8852L15.7753 19.238L13.51 20.3095Z" fill="#C0AD9E"/>
<path d="M13.3379 18.0518L12.9928 17.8145H11.0008L10.6556 18.0518L10.4758 19.641L10.6412 19.4828H13.3523L13.5321 19.641L13.3379 18.0518Z" fill="#161616"/>
<path d="M20.5569 9.6595L21.1682 6.72548L20.2549 4L13.3369 9.13454L15.9977 11.3854L19.7587 12.4857L20.5929 11.5148L20.2333 11.256L20.8086 10.731L20.3627 10.3858L20.938 9.94715L20.5569 9.6595Z" fill="#763D16"/>
<path d="M2.83167 6.72548L3.44292 9.6595L3.05459 9.94715L3.62989 10.3858L3.19123 10.731L3.76653 11.256L3.40696 11.5148L4.23396 12.4857L7.99497 11.3854L10.6557 9.13454L3.73776 4L2.83167 6.72548Z" fill="#763D16"/>
<path d="M19.7599 12.4855L15.9989 11.3853L17.1423 13.104L15.438 16.4119L17.6817 16.3832H21.0256L19.7599 12.4855Z" fill="#F6851B"/>
<path d="M7.99508 11.385L4.23406 12.4853L2.98279 16.3829H6.31952L8.55599 16.4117L6.85886 13.1037L7.99508 11.385Z" fill="#F6851B"/>
<path d="M13.1013 13.2844L13.3387 9.13504L14.4317 6.17944H9.57764L10.6563 9.13504L10.908 13.2844L10.9943 14.5932L11.0015 17.8149H12.9935L13.0079 14.5932L13.1013 13.2844Z" fill="#F6851B"/>
</svg>